<?xml version="1.0" encoding="utf-8"?>
<!-- Generator: Adobe Illustrator 22.1.0, SVG Export Plug-In . SVG Version: 6.00 Build 0)  -->
<svg version="1.1" id="OBJECTS" xmlns="http://www.w3.org/2000/svg" xmlns:xlink="http://www.w3.org/1999/xlink" x="0px" y="0px"
	 viewBox="0 0 437.1 201.9" style="enable-background:new 0 0 437.1 201.9;" xml:space="preserve">
<style type="text/css">
	.st0{opacity:0.5;fill:url(#SVGID_1_);}
	.st1{opacity:0.5;fill:url(#SVGID_2_);}
	.st2{fill:#5BB59B;}
	.st3{fill:#FFFFFF;}
	.st4{fill:#524F63;}
	.st5{fill:#63A590;}
	.st6{opacity:0.5;fill:url(#SVGID_3_);}
	.st7{opacity:0.5;fill:url(#SVGID_4_);}
	.st8{opacity:0.5;fill:url(#SVGID_5_);}
	.st9{opacity:0.5;fill:url(#SVGID_6_);}
	.st10{opacity:0.5;fill:url(#SVGID_7_);}
	.st11{fill:#E0E4ED;}
	.st12{fill:#424051;}
	.st13{fill:#EEBCC5;}
	.st14{fill:#9092EC;}
	.st15{fill:#EAD18C;}
	.st16{opacity:0.5;fill:url(#SVGID_8_);}
	.st17{fill:#91616A;}
	.st18{fill:#5B61D3;}
	.st19{fill:#8385E6;}
	.st20{fill:url(#SVGID_9_);}
	.st21{fill:url(#SVGID_10_);}
	.st22{fill:#4A4549;}
	.st23{fill:#EFF2F7;}
	.st24{fill:url(#SVGID_11_);}
	.st25{fill:#D98E9D;}
	.st26{fill:url(#SVGID_12_);}
	.st27{opacity:0.7;fill:#4A4549;}
	.st28{fill:#75454F;}
	.st29{fill:#8284E5;}
	.st30{fill:#37354C;}
	.st31{fill:url(#SVGID_13_);}
	.st32{fill:none;stroke:#524F63;stroke-miterlimit:10;}
	.st33{fill:#BCBACE;}
	.st34{fill:url(#SVGID_14_);}
</style>
<linearGradient id="SVGID_1_" gradientUnits="userSpaceOnUse" x1="55.5158" y1="166.5927" x2="-12.7572" y2="212.1081">
	<stop  offset="0" style="stop-color:#4A50C2;stop-opacity:2.000000e-02"/>
	<stop  offset="1" style="stop-color:#444BCC;stop-opacity:0.64"/>
</linearGradient>
<path class="st0" d="M53.1,182.2c0,1.6-9.3,2.9-20.9,2.9s-20.9-1.3-20.9-2.9c0-1.6,9.3-2.9,20.9-2.9S53.1,180.5,53.1,182.2z"/>
<linearGradient id="SVGID_2_" gradientUnits="userSpaceOnUse" x1="439.6043" y1="167.525" x2="371.3313" y2="213.0404">
	<stop  offset="0" style="stop-color:#4A50C2;stop-opacity:2.000000e-02"/>
	<stop  offset="1" style="stop-color:#444BCC;stop-opacity:0.64"/>
</linearGradient>
<path class="st1" d="M437.1,183.1c0,1.6-9.3,2.9-20.9,2.9c-11.5,0-20.9-1.3-20.9-2.9c0-1.6,9.3-2.9,20.9-2.9
	C427.8,180.2,437.1,181.5,437.1,183.1z"/>
<g>
	<path class="st2" d="M16,91.8c0,0-6.5,28.6,3.8,48.1S30,159.3,30,159.3S32.7,110.7,16,91.8z"/>
	<path class="st3" d="M16.4,166.5c0.6,3.5,1.4,7.1,3.2,10.2c1.7,3.1,4.5,5.8,8,6.6c1.6,0.4,3.2,0.4,4.8,0.3c1.8,0,3.6-0.2,5.2-1.1
		c2-1.2,3-3.4,3.8-5.6c1.4-3.7,2.4-7.5,3.1-11.3c0.4-2.2,0.7-4.6-0.4-6.6c-1.4-2.7-4.7-3.8-7.7-4.3c-5-0.8-11.9-1.2-16.7,0.8
		C15.5,157.3,15.7,162.7,16.4,166.5z"/>
	<path class="st4" d="M27.8,159.4c4,0.2,8.3-0.4,10.8-1.7c0.5-0.3,0.9-0.6,0.7-0.9c-0.3-0.4-1.3-0.6-2.3-0.6
		c-4.8-0.5-10.1-0.7-14.8,0.1C15.4,157.3,24.1,159.2,27.8,159.4z"/>
	<path class="st5" d="M25.7,84.8c0,0-3.2,54.5,4.3,74.5C30,159.3,34.9,110.7,25.7,84.8z"/>
	<path class="st2" d="M29.1,158.9h1.8c2.6-10.8,10.3-45.8,6.2-62.1c0,0-13,45.9-9.7,56.2C28.1,155.7,28.7,157.6,29.1,158.9z"/>
</g>
<g>
	<path class="st2" d="M401,93.7c0,0-6.5,28.6,3.8,48.1c10.3,19.4,10.3,19.4,10.3,19.4S417.7,112.6,401,93.7z"/>
	<path class="st3" d="M401.4,168.4c0.6,3.5,1.4,7.1,3.2,10.2c1.7,3.1,4.5,5.8,8,6.6c1.6,0.4,3.2,0.4,4.8,0.3c1.8,0,3.6-0.2,5.2-1.1
		c2-1.2,3-3.4,3.8-5.6c1.4-3.7,2.4-7.5,3.1-11.3c0.4-2.2,0.7-4.6-0.4-6.6c-1.4-2.7-4.7-3.8-7.7-4.3c-5-0.8-11.9-1.2-16.7,0.8
		C400.5,159.2,400.7,164.6,401.4,168.4z"/>
	<path class="st4" d="M412.8,161.3c4,0.2,8.3-0.4,10.8-1.7c0.5-0.3,0.9-0.6,0.7-0.9c-0.3-0.4-1.3-0.6-2.3-0.6
		c-4.8-0.5-10.1-0.7-14.8,0.1C400.4,159.2,409.1,161,412.8,161.3z"/>
	<path class="st5" d="M410.7,86.6c0,0-3.2,54.5,4.3,74.5C415,161.2,419.9,112.6,410.7,86.6z"/>
	<path class="st2" d="M414.1,160.8h1.8c2.6-10.8,10.3-45.8,6.2-62.1c0,0-13,45.9-9.7,56.2C413.1,157.5,413.7,159.4,414.1,160.8z"/>
</g>
<linearGradient id="SVGID_3_" gradientUnits="userSpaceOnUse" x1="117.5034" y1="156.1383" x2="-36.3126" y2="258.6824">
	<stop  offset="0" style="stop-color:#4A50C2;stop-opacity:2.000000e-02"/>
	<stop  offset="1" style="stop-color:#444BCC;stop-opacity:0.64"/>
</linearGradient>
<ellipse class="st6" cx="64.9" cy="191.2" rx="47.1" ry="6.1"/>
<linearGradient id="SVGID_4_" gradientUnits="userSpaceOnUse" x1="430.7289" y1="160.7994" x2="276.9129" y2="263.3435">
	<stop  offset="0" style="stop-color:#4A50C2;stop-opacity:2.000000e-02"/>
	<stop  offset="1" style="stop-color:#444BCC;stop-opacity:0.64"/>
</linearGradient>
<path class="st7" d="M425.2,195.9c0,3.3-21.1,6.1-47.1,6.1c-26,0-47.1-2.7-47.1-6.1c0-3.3,21.1-6.1,47.1-6.1
	C404.1,189.8,425.2,192.5,425.2,195.9z"/>
<linearGradient id="SVGID_5_" gradientUnits="userSpaceOnUse" x1="225.6408" y1="154.7396" x2="71.8248" y2="257.2837">
	<stop  offset="0" style="stop-color:#4A50C2;stop-opacity:2.000000e-02"/>
	<stop  offset="1" style="stop-color:#444BCC;stop-opacity:0.64"/>
</linearGradient>
<ellipse class="st8" cx="173" cy="189.8" rx="47.1" ry="6.1"/>
<linearGradient id="SVGID_6_" gradientUnits="userSpaceOnUse" x1="349.6259" y1="152.8752" x2="195.8099" y2="255.4193">
	<stop  offset="0" style="stop-color:#4A50C2;stop-opacity:2.000000e-02"/>
	<stop  offset="1" style="stop-color:#444BCC;stop-opacity:0.64"/>
</linearGradient>
<path class="st9" d="M344.1,187.9c0,3.3-21.1,6.1-47.1,6.1c-26,0-47.1-2.7-47.1-6.1c0-3.3,21.1-6.1,47.1-6.1
	C323,181.9,344.1,184.6,344.1,187.9z"/>
<linearGradient id="SVGID_7_" gradientUnits="userSpaceOnUse" x1="254.4827" y1="156.7158" x2="161.9918" y2="218.3765">
	<stop  offset="0" style="stop-color:#4A50C2;stop-opacity:2.000000e-02"/>
	<stop  offset="1" style="stop-color:#444BCC;stop-opacity:0.64"/>
</linearGradient>
<ellipse class="st10" cx="222.9" cy="177.8" rx="28.1" ry="6.1"/>
<g>
	<path class="st11" d="M73.3,28.9l17.8,2.9L82.6,24l4-4.5L102,33.3c2.1,2.2,0.6,5.9-2.5,6L78,39.9L73.3,28.9z"/>
	<polygon class="st4" points="80.7,74.4 80.4,190.3 74.3,190.8 70,92.4 64.4,92.8 58.6,189.9 52.5,189.5 53.3,72.3 	"/>
	<path class="st11" d="M73.3,28.9L52.8,28c-2.1-0.1-4.2,0.8-5.5,2.4l6,47l28,0.6l-2.6-43.1C78.7,34.9,74.1,28.9,73.3,28.9z"/>
	<path class="st3" d="M82.5,19.9c-1.1,0.9-2.6,1.7-2.8,3.1c-0.2,1.2,0.7,2.5,1.9,2.9c1.2,0.4,2.5,0.2,3.6-0.3
		c1.8-0.8,3.3-2.5,3.7-4.5c0.2-1.4-0.4-4.2-2.1-4.7C84.9,15.9,83.9,18.8,82.5,19.9z"/>
	<polygon class="st12" points="52.5,189.5 40.6,193 41,194 58.3,192.1 58.6,189.9 	"/>
	<path class="st13" d="M14.1,29.2L12.2,26l2.1-4.3c0,0,1.1-3,1.1-4c0-0.9-0.9-2.3-1.9-0.6c-0.9,1.7-1.9,3-1.9,3l-5.6-8.3
		c-0.2-0.2-0.4-0.4-0.7-0.4l0,0c-0.6,0-1.1,0.7-0.8,1.3l1.3,2.4c0.4,0.8-0.5,1.6-1.2,1.1l-0.3-0.2c-1.4-1-3.3-0.6-4.3,0.8L0,17
		l0.1,2.8c0.1,1.8,0.9,3.5,2.3,4.6c3.3,2.7,9.1,7.4,9.3,7C11.9,30.9,14.1,29.2,14.1,29.2z"/>
	<path class="st13" d="M77.8,10.7c-0.8-0.4-1.8,0-2.3,0.7s-0.5,1.7-0.2,2.5c0.5,1.5,2.2,2.6,3.8,2.3c1.6-0.2,2.9-1.9,2.6-3.4
		c-0.2-1.1-1-2.1-2.1-2.5c-1.1-0.4-2.3-0.3-3.4,0.1"/>
	<path class="st13" d="M77.4,12.5l9.2,7.3c0,0,0.2,4-2,4.4c-0.7,0.4-9.2-8.6-9.2-8.6L77.4,12.5z"/>
	<path class="st12" d="M74.3,190.8l0.3,1.9l14.9,2.5c0,0,0.7-1.2,0.3-1.3c-0.4-0.1-9.4-3.5-9.4-3.5L74.3,190.8z"/>
	<path class="st13" d="M59.7,18.9l0.5,12.8c0,1.5,1.1,2.7,2.5,3l0,0c1.7,0.3,3.2-0.9,3.5-2.6l0.6-11.1L59.7,18.9z"/>
	<g>
		<rect x="70.8" y="7.6" transform="matrix(0.9831 0.1829 -0.1829 0.9831 3.91 -13.3092)" class="st4" width="6.6" height="13.9"/>
		
			<rect x="70.8" y="7.5" transform="matrix(0.9831 0.1829 -0.1829 0.9831 3.8916 -13.2443)" class="st4" width="5.9" height="13.9"/>
	</g>
	<path class="st3" d="M58.9,29.8c0,0-0.9,0.8-1,1.1c-0.1,0.3,3.6,6,3.6,6L64,33l3.1,3.9l1.3-7.1l-2.1-0.5L64,32l-4.1-3.3L58.9,29.8z
		"/>
	<polygon class="st14" points="64,33 62.5,35.5 63.6,37.5 63,38.9 63.6,57.8 65.7,60.2 67.6,57.9 65.6,38.9 64.5,37.3 65.9,35.4 	
		"/>
	<path class="st13" d="M54.4,5.3c-1.3,3-1.2,6.4-0.5,9.6c0.7,3.5,2.2,6.9,4.9,9.2s7,2.9,9.8,0.7c1.7-1.3,2.6-3.3,3.3-5.3
		c1.3-4,1.5-8.5-0.1-12.3C68.8,0.1,58-3.1,54.4,5.3z"/>
	<polygon class="st11" points="49.8,43.9 27.7,51 11.7,33.6 15.7,30.3 30.5,42.4 47.3,30.4 50.1,35.4 	"/>
	<polygon class="st3" points="9.2,32.4 10.9,35.1 18.4,30.7 15.4,27.7 	"/>
	<path class="st13" d="M50.6,10.9c-1,0.4-1.4,1.6-1.3,2.6c0.1,1,0.7,2,1.3,2.8c0.4,0.5,0.7,0.9,1.2,1.2c0.5,0.3,1,0.4,1.6,0.5
		c0.7,0.1,1.5,0,1.9-0.5c0.2-0.3,0.3-0.7,0.3-1c0.2-1.7-0.2-2.4-1.2-3.6C53.5,11.7,52.3,10.2,50.6,10.9z"/>
	<path class="st4" d="M56.9,11.1c-0.1,1.8-1,3.6-2.5,4.5c-1.2-1.5-1.8-3.4-2-5.2c-0.3-2.3,0.1-4.8,1.5-6.7c1.6-2.2,4.2-3.4,6.9-3.6
		s5.3,0.5,7.8,1.5c1.1,0.4,2.4,0.9,3.3,0.1c0.4,0.8,0.7,1.7,0.7,2.6c0,0.7-0.1,1.4-0.5,2c-0.7,1-1.7,2.1-2.9,2.3
		c-8.7,1.9-12.7-2.8-12.8-2.6c-0.1,0.5,0.1,1,0.2,1.5C56.8,8.6,57,9.8,56.9,11.1z"/>
</g>
<g>
	<path class="st15" d="M184.7,108.5l-2.5-48.1c0,0-12.4-0.7-16-0.7c-2,0-5.4,1-8.1,1.8c-2.5,0.8-4.6,0.7-5.9,3.1l-20.3,38.9
		l12.5,1.2l4.2-4.7l-2.1-3.2l7.6-17.9l-0.1,30.3L184.7,108.5z"/>
	<linearGradient id="SVGID_8_" gradientUnits="userSpaceOnUse" x1="140.2479" y1="86.4106" x2="153.9534" y2="86.4106">
		<stop  offset="0" style="stop-color:#EAD18C;stop-opacity:0"/>
		<stop  offset="1" style="stop-color:#524F63;stop-opacity:0.7"/>
	</linearGradient>
	<path class="st16" d="M153.7,71.8L140.2,96l4.2,4.9c0,0,1.7,0.3,3.3-0.2l0.7-0.8l-2.1-3.2l7.6-17.9L153.7,71.8z"/>
	<path class="st17" d="M164.4,98.8c-0.5-0.2-4.7-2.6-7.8-2.6c-3.1,0-6.9,3.3-6.9,3.3s-0.5,1.7,1.6,1.4c2.1-0.3,3.5-0.5,3.5-0.5
		s-3.6,1.9-1.2,2.3s12.7,0,12.7,0L164.4,98.8z"/>
	<path class="st18" d="M163.6,105.8h-40v-2.9h40c0.8,0,1.5,0.7,1.5,1.5l0,0C165.1,105.2,164.4,105.8,163.6,105.8z"/>
	<path class="st19" d="M152.6,105.8H114c-1.7,0-3.2-1.1-3.6-2.8l-6.8-25.7c-0.6-2.4,1.2-4.7,3.6-4.7h33.7c1.7,0,3.2,1.1,3.6,2.8
		L152.6,105.8z"/>
	<linearGradient id="SVGID_9_" gradientUnits="userSpaceOnUse" x1="103.4392" y1="88.8123" x2="135.1316" y2="88.8123">
		<stop  offset="0" style="stop-color:#484EC2;stop-opacity:0"/>
		<stop  offset="1" style="stop-color:#444BCC;stop-opacity:0.5018"/>
	</linearGradient>
	<path class="st20" d="M107.2,72.6c-2.5,0-4.3,2.3-3.6,4.7l6.8,25.7c0.2,0.8,0.7,1.5,1.3,2l23.5-32.4H107.2z"/>
	<path class="st3" d="M129.9,91.5c0.4,1.7-0.6,3-2.4,3c-1.7,0-3.5-1.4-3.9-3c-0.4-1.7,0.6-3,2.4-3S129.5,89.8,129.9,91.5z"/>
	<path class="st17" d="M164.9,53.7c0.3,0.7,2.8,10.2,2.8,10.2s0.9,1.6,2.9,1.4c2.1-0.2,2.9-3.1,2.9-3.1l-3.6-12L164.9,53.7z"/>
	<path class="st17" d="M177.7,47.8c0,6.6-7,13.8-13.5,13.8c-6.6,0-10.2-7.3-10.2-13.8S159.3,36,165.9,36
		C172.4,36,177.7,41.3,177.7,47.8z"/>
	<path class="st3" d="M166.8,61l-1.4,3.6l0.9,3.8l2.8-4l2.8,4.5l3.1-5.5l-2.1-3.6c0,0-1,2.4-3.3,2.9C167.3,63.3,166.8,61,166.8,61z"
		/>
	<polygon class="st19" points="169.1,64.5 167,67.1 168,68.6 166.5,71.9 166.8,93.6 168.9,97.9 171.9,93.1 171.2,72.4 169.6,68.5 
		170.8,66.7 	"/>
	<linearGradient id="SVGID_10_" gradientUnits="userSpaceOnUse" x1="147.579" y1="103.8962" x2="215.1313" y2="77.1764">
		<stop  offset="0" style="stop-color:#EAD18C;stop-opacity:0"/>
		<stop  offset="1" style="stop-color:#524F63;stop-opacity:0.7"/>
	</linearGradient>
	<polygon class="st21" points="183.7,70.5 184.4,108.5 166.5,108.3 	"/>
	<path class="st15" d="M182.2,60.4l1.6,35.8l-16.6,3.4l2.3,4.3l23.7,1.4L190,69.9c-0.3-3.7-2.5-6.9-5.8-8.5L182.2,60.4z"/>
	<polygon class="st3" points="164.4,98.8 167.7,99.1 170.6,104 165.1,104.4 	"/>
	<path class="st4" d="M147.9,115l-29.3,7.5l14.9,58.6l5.1-2.6l-4.4-50.4l26.2-8.2l-15.2,8.7l0.3,47.8h4.6c0,0,12.9-46.8,14.1-46.8
		c1.3,0,22.9-14.4,22.9-14.4L147.9,115z"/>
	<polygon class="st4" points="117.7,185.7 138.1,184.2 138.7,177.8 116.9,182.8 	"/>
	<polygon class="st4" points="134.3,189.3 138.4,189.8 149.9,185.4 150.2,176.4 145.6,176.4 143.5,182.1 137.3,185.9 	"/>
	<path class="st22" d="M153.6,43.6c-0.5,0.9-0.9,1.9-0.6,2.8c0.4,1.1,1.8,1.5,3,1.6c2,0.2,4.1,0.3,6.1,0.3c1.4,0,2.7-0.1,4.1-0.4
		c2.2-0.5,4.1-1.6,6.1-2.7c1.4-0.8,2.9-1.8,3.2-3.3c0.2-1.6-0.9-3-1.9-4.1c-0.6-0.7-1.2-1.3-1.9-1.9c-1.8-1.3-4.1-1.6-6.3-1.3
		C159.9,35.4,156.1,39,153.6,43.6z"/>
	<path class="st22" d="M173,47.5c0.2-0.6,1-1,1.6-0.7c0.6,0.2,1,0.8,1.1,1.5c0.1,0.6-0.1,1.3-0.4,1.9c-0.1,0.3-0.3,0.6-0.4,0.9
		c-0.1,0.3-0.1,0.5-0.1,0.8c0,1.2,0,2.3,0.1,3.5c1-0.4,1.5-1.3,2-2.2c1.1-2,2.2-4.1,2-6.4c-0.1-1.9-1-3.6-2-5.2
		c-0.2-0.3-0.4-0.7-0.7-0.9c-0.5-0.3-1.1-0.3-1.6-0.2c-0.5,0.2-1,0.5-1.5,0.8c-0.5,0.3-0.9,0.6-1.4,0.9c-0.4,0.3-0.9,0.6-1.2,1.1
		c-0.4,0.9,0.2,1.3,0.7,1.8C171.6,45.3,171.1,51.1,173,47.5z"/>
	<g>
		<path class="st23" d="M155.5,57.4c-1.6,0-3.3-1.3-3.9-3c-0.3-0.9-0.2-1.7,0.2-2.3c0.4-0.5,1-0.8,1.7-0.8c1.6,0,3.3,1.3,3.9,3
			c0.3,0.9,0.2,1.7-0.2,2.3C156.9,57.1,156.3,57.4,155.5,57.4z M153.5,51.8c-0.6,0-1.1,0.2-1.3,0.6c-0.3,0.5-0.4,1.2-0.1,1.9
			c0.5,1.5,2.1,2.7,3.5,2.7c0.6,0,1.1-0.2,1.3-0.6c0.3-0.5,0.4-1.2,0.1-1.9C156.5,53,154.9,51.8,153.5,51.8z"/>
	</g>
	<g>
		<path class="st23" d="M163.4,57.4c-1.6,0-3.3-1.3-3.9-3c-0.3-0.9-0.2-1.7,0.2-2.3c0.4-0.5,1-0.8,1.7-0.8c1.6,0,3.3,1.3,3.9,3
			c0.3,0.9,0.2,1.7-0.2,2.3C164.8,57.1,164.2,57.4,163.4,57.4z M161.4,51.8c-0.6,0-1.1,0.2-1.3,0.6c-0.3,0.5-0.4,1.2-0.1,1.9
			c0.5,1.5,2.1,2.7,3.5,2.7c0.6,0,1.1-0.2,1.3-0.6c0.3-0.5,0.4-1.2,0.1-1.9C164.4,53,162.8,51.8,161.4,51.8z"/>
	</g>
</g>
<g>
	<path class="st4" d="M206.9,29.3c0.1,1.9,1.1,3.7,0.6,5.5c-0.4,1.5-1.8,2.5-2.2,4c-0.5,1.7,0.4,3.4,1.2,4.9
		c0.7,1.3,1.7,2.7,3.1,2.7c0.6,0,1.2-0.3,1.8-0.6c1.4-0.7,2.8-1.4,4.2-2.1c0.6-0.3,1.2-0.6,1.7-1.1c0.7-0.7,1.1-1.7,1.4-2.6
		c1.1-2.9,2-6,1.8-9.1c-0.2-3.1-1.9-6.3-4.9-7.5c-1.6-0.6-6.4-1.2-7.8,0.2c-0.6,0.6-0.3,1.3-0.4,2.1C207.3,27,206.8,28,206.9,29.3z"
		/>
	<path class="st13" d="M210.2,38.6l-1.4,0.4c-5.9,3.8-9.3,9.2-10.1,16.1l-3,48.6l4.5-2L210.2,38.6z"/>
	<path class="st19" d="M240,38.2l-24-1c-2-0.1-5.6,0.6-7.6,1.2l-3.1,1.4l5.4,25.7h0c-4.9,8.3-7.4,17.9-7.1,27.5l2.9,35.1h26.9
		l3.4-37c0.3-7.6-1.1-15.1-4.1-22.1l-1.5-3.4L240,38.2z"/>
	<linearGradient id="SVGID_11_" gradientUnits="userSpaceOnUse" x1="214.5687" y1="61.1194" x2="227.2261" y2="27.6385">
		<stop  offset="0" style="stop-color:#484EC2;stop-opacity:0"/>
		<stop  offset="1" style="stop-color:#444BCC;stop-opacity:0.5018"/>
	</linearGradient>
	<path class="st24" d="M211.1,48.6c0.7,1.2,1.6,2.3,2.8,3.1c1.6,0.9,3.6,1.1,5.4,0.7c1.8-0.4,3.5-1.2,5.1-2.2
		c2.9-1.7,5.6-3.7,7.8-6.3c1.5-1.8,2.6-4.5,1.4-6.5c-0.8-1.3-2.3-1.9-3.8-2.3C222,32.9,205.2,37.3,211.1,48.6z"/>
	<path class="st13" d="M229.7,25.7c0,6.4-6.8,15.1-13.2,15.1c-6.4,0-9.9-8.7-9.9-15.1c0-6.4,5.2-11.6,11.6-11.6
		C224.5,14.1,229.7,19.3,229.7,25.7z"/>
	<path class="st13" d="M240,38.2L256.7,60c1.7,2.3,1.1,5.6-1.3,7.1l-19.5,11.9l-2.4-3.8l13.4-10.7c1-0.8,1.2-2.2,0.5-3.2l-10.1-14.4
		L240,38.2z"/>
	<path class="st13" d="M186.5,105.9H197c1.7,0,3.1-1.3,3.2-3l0.1-1.2L186.5,105.9z"/>
	<path class="st13" d="M215,33.5c-0.2-0.4,2.8,7.6,2.8,7.6s0.7,3.3,3.4,2.5c2.8-0.8,1.1-12.5,0.7-12.6
		C221.4,30.8,215.2,34.1,215,33.5z"/>
	<path class="st4" d="M221.8,24.2c-5.4,3.3-11,6.6-17.2,7c1.4-1.7,1.1-4.2,1.4-6.5c0.4-3.6,2.6-7.1,5.7-9c3.1-1.9,7.1-2.4,10.6-1.2
		c1.3,0.5,2.5,1.2,3.3,2.3C227.9,20,224.3,22.7,221.8,24.2z"/>
	<path class="st4" d="M221.3,37c0.4,1.7,1.4,3.2,1.6,5c0.1,1.1-0.1,2.3-0.4,3.4c-0.3,1.3-0.6,2.7-0.9,4c1.9-0.4,3.6-1.3,5-2.5
		c5.4-4.3,8.1-11.6,6.9-18.3c-0.3-1.9-1-3.8-1.7-5.6c-0.5-1.4-1.1-2.8-2.1-4c-0.9-1.2-2.3-2.1-3.8-2.1c-1.8,0-3.4,1.1-4.5,2.6
		c-0.7,1-1.2,2.2-1.2,3.4c0,1.2,0.5,5.4,1.6,5.9c1.4-0.9,3.6-0.1,4.1,1.5c0.9,2.5-1.3,3-2.8,3.8C221.4,35.1,220.9,35.1,221.3,37z"/>
	<path class="st4" d="M233.6,29.5c1.1,0.9,2.4,1.5,3.4,2.5c1,1,1.7,2.5,1.1,3.9c-0.3,0.8-1.1,1.4-1.7,2c-0.6,0.6-1.2,1.4-1.1,2.3
		c0.1,0.6,0.4,1.1,0.8,1.6c0.9,1.3,1.6,2.8,1.3,4.3c-0.2,1.2-1.1,2.3-2.1,2.9c-1.1,0.6-2.4,0.8-3.6,0.6c-0.7-0.1-1.4-0.3-2.1-0.3
		c-1.9,0.1-3.4,1.8-5.3,2c-1.1,0.1-2.2-0.3-2.9-1.1c-0.7-0.8-1.1-1.9-0.9-3c0.3-1.7,1.8-3,3.2-4c1.4-1.1,2.9-2.4,3.1-4.1
		c0.2-1.3-0.5-2.6-0.3-3.9c0.2-1.9,2-3.3,2.4-5.1c0.2-1-0.1-3.7,1.5-3.7C231.6,26.5,232.7,28.8,233.6,29.5z"/>
	<path class="st4" d="M219.8,27.4c-0.3,0.6-0.8,1.2-1.2,1.8c-0.6,0.8-1.2,1.6-1.8,2.4c0.4-1.6,0.6-3.2,0.4-4.8c0-0.2-0.1-0.5,0-0.7
		c0.1-0.5,0.5-0.8,0.9-1c0.6-0.4,2-1.6,2.6-0.8C221.1,24.8,220.1,26.8,219.8,27.4z"/>
</g>
<g>
	<polygon class="st4" points="233.9,71.7 232.8,72.6 236.6,77.1 	"/>
	<path class="st25" d="M315.2,108.5l-2.5-48.1c0,0-12.4-2.6-16-2.6c-2,0-5.4,1-8.1,1.8c-2.5,0.8-4.6,2.6-5.9,5l-20.3,38.9l12.5,1.2
		l4.2-4.7l-2.1-3.2l7.6-17.9l-0.1,30.3L315.2,108.5z"/>
	<path class="st13" d="M313.5,46.5c0,6.6-5.3,11.9-11.9,11.9c-3.6,0-6.2-3.8-8.3-6.3c-1.8-2.1-3.1-2.7-3.1-5.6
		c0-6.6,4.9-11.8,11.5-11.8S313.5,40,313.5,46.5z"/>
	<polygon class="st4" points="283.2,105.8 241.6,105.8 232.8,72.6 274.3,72.6 	"/>
	<polygon class="st3" points="283.2,105.8 242.9,105.8 233.9,71.7 274.6,72.6 	"/>
	<rect x="242" y="103.4" class="st4" width="28.5" height="2.4"/>
	<linearGradient id="SVGID_12_" gradientUnits="userSpaceOnUse" x1="284.3408" y1="88.0568" x2="314.3684" y2="88.0568">
		<stop  offset="0" style="stop-color:#B6567A;stop-opacity:0"/>
		<stop  offset="1" style="stop-color:#C45771"/>
	</linearGradient>
	<path class="st26" d="M298.5,100.2l15.9-7.6L313.1,67l-2.8,0.2l-20.6,21.6c0,0-3.1,8-5.3,14.4l0,5.9l21.4-0.4L298.5,100.2z"/>
	<polygon class="st19" points="272.1,98.2 249.9,98.2 245,79.3 267.4,79.9 	"/>
	<path class="st14" d="M278.4,115l-29.3,7.5l14.9,58.6l5.1-2.6l-4.4-50.4l26.2-8.2l-15.2,8.7l0.3,47.8h4.6c0,0,12.9-46.8,14.1-46.8
		c1.3,0,22.9-14.4,22.9-14.4L278.4,115z"/>
	<polygon class="st4" points="248.2,185.7 268.6,184.2 269.2,177.8 247.4,182.8 	"/>
	<path class="st23" d="M294.2,62.9c0.2,2.3,0.6,4.6,1.3,6.8c0.1,0.5,0.3,1,0.7,1.3c0.8,0.6,2,0.1,2.9-0.5c1.5-1,2.9-2.2,4-3.7
		c0.7-0.9,1.4-1.9,1.6-3.1c0.2-1.1,0-2.5-0.9-3.2c-1.4-1.2-4.3-1.1-6-1.2C295.3,59.3,293.9,60.3,294.2,62.9z"/>
	<polygon class="st4" points="264.8,189.3 268.9,189.8 280.5,185.4 280.7,176.4 276.1,176.4 274,182.1 267.8,185.9 	"/>
	<path class="st13" d="M297.2,52.5l-0.9,10c0,0,0.7,4.2,3.2,3.5c2.5-0.7,2.8-2.6,2.8-2.6l1.1-12L297.2,52.5z"/>
	<path class="st22" d="M306.1,42.7c1.9-0.1,3.8-0.2,5.5-1c1.7-0.8,3.1-2.5,3.1-4.3c0-1.9-2-3.6-3.7-3.1c-0.4,0.1-0.8,0.4-1.2,0.5
		c-0.6,0.2-1.3,0-2-0.2c-4.8-1.4-10.2-2.4-14.7-0.1c-0.8,0.4-1.6,1-2.1,1.8c-0.3,0.6-0.4,1.4-0.5,2.1c-0.2,1.9-0.3,3.9-0.4,5.8
		c1.3-0.7,2.6-1.5,3.9-2.1c1.3-0.6,2.2,0,3.6,0.3C300.4,42.8,303.3,42.8,306.1,42.7z"/>
	<path class="st27" d="M294.9,39.5c-1.2-0.2-2.5,0.2-3.5,1c-0.9,1.5-1.5,3.2-1.6,5c0.1,0.6,0.3,1.3,0.2,1.9c0,0.4,0.2,1,0.4,1.7
		c0.7,1,1.8,1.7,2.9,3c0,0.1,0.1,0.1,0.1,0.2c1.2-2,3-6.5,3.4-7c0.5-0.7,2.3-2.8,2-3.7C298.5,40.6,295.7,39.6,294.9,39.5z"/>
	<path class="st13" d="M294.9,44.3c-0.1-0.1-0.2-0.3-0.3-0.4c-0.2-0.1-0.4-0.1-0.6-0.1c-0.8,0-1.7,0.1-2.2,0.7
		c-0.2,0.3-0.3,0.6-0.4,0.9c-0.2,0.8-0.2,1.6-0.1,2.4c0.1,1.2,0.7,2.6,1.9,2.8c0.7,0.2,1.5-0.1,2-0.6
		C297.1,48.4,296.1,46.1,294.9,44.3z"/>
	<path class="st22" d="M309.9,50.5c0.6-0.1,1.2-0.3,1.9-0.1c0.6,0.1,1.2,0.6,1.2,1.3c0,0.3-0.1,0.6-0.1,0.9
		c-0.2,0.9,0.2,1.9,0.5,2.8c0.7,1.9,1.2,4.3,0,6c-1.1,1.6-3.3,2-5.2,2c-5.8-0.3-11.2-4.4-13-9.9c-0.6-1.9-0.8-4-0.2-5.9
		c0.2-0.6,0.7-1.3,1.3-1c0.3,2.2,1.8,4.3,3.8,5.3C303.7,53.5,306.5,51.3,309.9,50.5z"/>
	<g>
		<path class="st4" d="M235.2,72.7l38.6,0.9l8,31.2h-38.2L235.2,72.7 M233.9,71.7l9,34.2h40.2l-8.5-33.2L233.9,71.7L233.9,71.7z"/>
	</g>
	<path class="st3" d="M299.1,105.8H242v-2.4h57.1c0.7,0,1.2,0.5,1.2,1.2l0,0C300.3,105.3,299.7,105.8,299.1,105.8z"/>
	<path class="st18" d="M270.2,105.8H242v-2.4h28.2c0.7,0,1.2,0.5,1.2,1.2l0,0C271.4,105.3,270.8,105.8,270.2,105.8z"/>
	<path class="st25" d="M312.7,60.4l-10.4,27.5l-26.5,3.5l1,5.3l33.9-1.1l9.2-24.1c0.5-1.2,0.5-2.5,0.2-3.7c-0.8-2.7-2.8-5-5.4-6.3
		L312.7,60.4z"/>
	<path class="st13" d="M275.8,91.4l-14.3-7.6c0,0-0.8,1.1,0.4,2.1c1.1,0.9,4.7,3.6,4.7,3.6v2.1c1.2,3.9,4.9,5.7,8.9,5.3l1.3-0.1
		L275.8,91.4z"/>
</g>
<g>
	<path class="st28" d="M334,105.8H317c0,0-0.5-1.2,2.2-1.7s10.4-0.7,10.4-0.7l2-2.2l2.7,0.7L334,105.8z"/>
	<path class="st29" d="M348,53.6l-18.2,49l4.5,1.1L362.3,56c0,0-0.8-3.1-5.5-6.1C352,47,348,53.6,348,53.6z"/>
	<path class="st17" d="M348.5,31.2c-3.5-5.5-10.9-7.1-16.4-3.6c-3.1,2-5.1,5.5-5.4,9.2c-0.2,1.8-0.2,2.5,0.6,4.2
		c0.8,1.7,2.8,4.1,1.6,7.5c-0.3,0.8,0,2,0.9,2.4c0.9,0.4,1.8-0.6,2.7-0.7c1.7-0.1,5.1,2.5,6.3,3.6c0.5,0.4,1.1,0.9,1.8,1
		c0.6,0.1,1.2-0.1,1.7-0.4c2.6-1.4,4.2-4.1,5.5-6.7c1.2-2.5,2.3-5.1,2.5-7.8C350.8,36.9,350.3,33.8,348.5,31.2z"/>
	<path class="st17" d="M348.1,54.2c0.5,0.5,1.1,1.1,1.8,1c0.3,0,0.6-0.2,0.9-0.4c0.7-0.5,1.4-1.1,2-1.7c0.4-0.4,0.7-0.8,0.8-1.4
		c0-0.3-0.1-0.6-0.2-0.9c-1.2-2.7-3.7-4.8-4.5-7.6c-0.4-1.3-0.4-2.7-0.9-3.9c-0.4-1.3-1.5-2.5-2.8-2.5c-0.8,0-1.5,0.4-2.2,0.8
		c-2.1,1.5-3.3,4.2-3.1,6.8c0.2,2.3,1.5,4.5,3.5,5.8C345.2,51.3,346.5,52.5,348.1,54.2z"/>
	<path class="st22" d="M332.1,27.6c-2.2,1.4-3.8,3.6-4.7,6.1c2.3,1.1,8.1-1.4,9.7-2.3c-0.2,4,2,8,5.4,10c2.1,1.2,4.6,1.8,6.6,3
		c0.5-1.5,1-3,1.1-4.5c0.6-2.9,0.1-6-1.7-8.7C345,25.6,337.6,24,332.1,27.6z"/>
	<path class="st17" d="M338.5,39.6c-0.7-1.2,0-2.9,1.3-3.6c1.3-0.6,2.9-0.2,3.9,0.7c1,1,1.4,2.5,1.3,3.9c-0.1,1.8-1.4,3.7-3.2,3.6
		c-1,0-1.8-0.7-2.4-1.5c-0.5-0.8-0.8-1.8-1.1-2.7"/>
	<polygon class="st3" points="354.6,48 351.2,44.1 345.9,53.9 347.8,60.2 354.9,52.2 	"/>
	<path class="st14" d="M358.5,48.6L390.3,84l-19.5,17.1L347,64.4c-2.4-3.5,1.3-11.3,3.7-14.8l0,0C352.5,47.1,356.1,46.6,358.5,48.6z
		"/>
	<polygon class="st30" points="389.2,192.6 380.7,144.4 370.8,101.1 390.3,84 389.2,143.9 394,190.2 	"/>
	<polygon class="st4" points="390.3,84 374.3,194.1 369.4,193.4 370.8,101.1 	"/>
	<polygon class="st4" points="360.5,197.6 373.3,197.1 374.1,193.2 370.4,192.7 358,196.2 358.3,197.9 	"/>
	<polygon class="st30" points="394,190.2 394.3,194 379.5,194.9 379.3,193.7 392.5,189.5 	"/>
	<path class="st17" d="M327.7,105.8h-17.1c0,0-0.5-1.2,2.2-1.7s11-0.7,11-0.7l1.4-2.3l3.7,1.4L327.7,105.8z"/>
	<path class="st14" d="M352,51.7L339,76.2l-15.5,27.1l5,0.2l13.8-19.1L360.7,61c2.4-1.9,3.1-5.2,1.7-7.9l0,0
		C360.4,49.1,355,48.4,352,51.7z"/>
	<linearGradient id="SVGID_13_" gradientUnits="userSpaceOnUse" x1="354.229" y1="86.3897" x2="358.4794" y2="60.2234">
		<stop  offset="0" style="stop-color:#484EC2;stop-opacity:0"/>
		<stop  offset="1" style="stop-color:#444BCC;stop-opacity:0.5018"/>
	</linearGradient>
	<path class="st31" d="M359.4,83.5c-0.4-5-2.1-20.4-2.1-20.4l-5.3,9L359.4,83.5z"/>
</g>
<g>
	<path class="st13" d="M218.3,124.1c-0.9,0-7.8,2.9-7.8,2.9l5.4,44.7c-1.2,0.6-2.9,0.9-4.1,1.3c-2.7,0.8-5.1,1-7.4,2.6
		c-0.2,0.1-0.2,0.8-0.3,1c-0.1,0.5,0.6,0.7,1.1,0.8c3.2,0.1,6.5,0.2,9.7,0c2.1-0.1,3.7-1.1,5.6-2.1c1.1-0.5,1.5-2.2,1.4-2.9
		C221.9,172.2,219.1,124.1,218.3,124.1z"/>
	<path class="st4" d="M212.3,175.7c3.1-0.3,7.3-1.7,9.7-3.6c0.2,2.1-0.4,4-4.3,5c-4.5,1.2-9.4,2.4-13.9,1.1c-0.5-0.1-1-0.4-1-0.9
		c0-0.2,0.1-0.4,0.3-0.6c0.8-1.1,3.2-3,4.6-2.5c0.7,0.2,1.3,1.1,2.1,1.3C210.5,175.8,211.5,175.8,212.3,175.7z"/>
</g>
<g>
	<path class="st13" d="M218.3,177.4"/>
	<path class="st13" d="M234.9,172.4c0-0.2-2.8-48.3-3.6-48.3c-0.9,0-7.8,2.9-7.8,2.9l5.4,44.7c0.9,2.4,1.7,4.7,3,6.9
		c1.3,2.2,3.1,4.2,5.4,5.4c0.2,0.1,0.6,0.2,0.8,0.1c0.1-0.1,0.2-0.3,0.2-0.4c0.4-1.3-0.2-2.7-0.7-4
		C236.7,177.4,235.1,174.9,234.9,172.4z"/>
	<path class="st4" d="M230.4,178.3c1.4,2.6,3.1,5.2,5.8,6.4c0.5,0.2,1,0.4,1.4,0.3c0.7-0.1,1.1-0.7,1.3-1.4c0.2-0.7,0.1-1.3-0.1-2
		c-0.3-1-0.7-1.9-1.2-2.8c-0.1-0.2-0.3-0.4-0.5-0.5c-0.3,0-0.6,0.2-0.8,0.4c-0.7,0.5-1.7,0.4-2.4,0c-0.7-0.4-1.3-1.1-1.8-1.8
		c-1-1.4-1.9-3.9-3.3-4.7C228.3,174.3,229.4,176.5,230.4,178.3z"/>
</g>
<g>
	<circle class="st4" cx="154" cy="185.6" r="3.3"/>
	<circle class="st4" cx="194" cy="185.6" r="3.3"/>
	<path class="st4" d="M176.5,185.6c0,1.8-1.5,3.3-3.3,3.3c-1.8,0-3.3-1.5-3.3-3.3s1.5-3.3,3.3-3.3
		C175,182.2,176.5,183.7,176.5,185.6z"/>
	<path class="st32" d="M154,185.6v-1.7c0-3.8,3.1-7,7-7H174V143"/>
	<path class="st32" d="M193.6,185.6v-1.7c0-3.8-3.1-7-7-7h-13.1V143"/>
	<line class="st32" x1="173.2" y1="185.6" x2="173.2" y2="176.9"/>
	<rect x="169.6" y="159.8" class="st4" width="7.4" height="16.8"/>
	<rect x="170.8" y="143.3" class="st4" width="4.7" height="19.1"/>
</g>
<g>
	<circle class="st4" cx="281.6" cy="185.6" r="3.3"/>
	<circle class="st4" cx="321.6" cy="185.6" r="3.3"/>
	<circle class="st4" cx="300.7" cy="185.6" r="3.3"/>
	<path class="st32" d="M281.6,185.6v-1.7c0-3.8,3.1-7,7-7h13.1V143"/>
	<path class="st32" d="M321.2,185.6v-1.7c0-3.8-3.1-7-7-7h-13.1V143"/>
	<line class="st32" x1="300.7" y1="185.6" x2="300.7" y2="176.9"/>
	<rect x="297.2" y="159.8" class="st4" width="7.4" height="16.8"/>
	<rect x="298.4" y="143.3" class="st4" width="4.7" height="19.1"/>
</g>
<g>
	<rect x="100.5" y="109.4" class="st33" width="228.3" height="36.2"/>
	<rect x="100.8" y="109.7" class="st4" width="3.8" height="92.2"/>
	<rect x="327.5" y="109.7" class="st4" width="3.8" height="92.2"/>
	<linearGradient id="SVGID_14_" gradientUnits="userSpaceOnUse" x1="214.5599" y1="125.7796" x2="230.7184" y2="51.2021">
		<stop  offset="0" style="stop-color:#676475;stop-opacity:0"/>
		<stop  offset="1" style="stop-color:#524F63;stop-opacity:0.7"/>
	</linearGradient>
	<polygon class="st34" points="331.4,130.8 100.2,109.6 331.4,109.6 	"/>
	<rect x="91.6" y="105.8" class="st11" width="248.3" height="6.1"/>
</g>
</svg>
