<svg data-name="Layer 1" id="Layer_1" viewBox="0 0 64 64" xmlns="http://www.w3.org/2000/svg"><defs><style>.cls-2{fill:#9dacba}</style></defs><path d="M13 0a4 4 0 0 0-4 4v56a4 4 0 0 0 4 4h38a4 4 0 0 0 4-4V16L39 0H13Z" style="fill:#e2e7f0"/><path class="cls-2" d="M43 16h12L39 0v12a4 4 0 0 0 4 4Z"/><rect class="cls-2" height="2" rx="1" ry="1" width="18" x="23" y="20"/><rect class="cls-2" height="2" rx="1" ry="1" width="30" x="17" y="41"/><rect class="cls-2" height="2" rx="1" ry="1" width="18" x="17" y="53"/><rect class="cls-2" height="2" rx="1" ry="1" width="30" x="17" y="47"/><rect class="cls-2" height="2" rx="1" ry="1" width="30" x="17" y="35"/><rect class="cls-2" height="2" rx="1" ry="1" width="30" x="17" y="29"/><path d="m43 16 9.41 9.41a2 2 0 0 1 .59 1.42V60a2 2 0 0 1-2 2H15a2 2 0 0 0-2 2h38a4 4 0 0 0 4-4V16H43Z" style="fill:#c9d5e3"/></svg>