<svg height="128" viewBox="0 0 128 128" width="128" xml:space="preserve" xmlns="http://www.w3.org/2000/svg">
    <path d="M110 105c0 4.4-3.6 8-8 8H22c-4.4 0-8-3.6-8-8V24c0-4.4 3.6-8 8-8h80c4.4 0 8 3.6 8 8v81z" fill="#EDEDED"/>
    <path d="M102 109H22c-4.4 0-8-3.6-8-8v4c0 4.4 3.6 8 8 8h80c4.4 0 8-3.6 8-8v-4c0 4.4-3.6 8-8 8zM92 45H33a2 2 0 0 1 0-4h59a2 2 0 0 1 0 4zM92 61H33a2 2 0 0 1 0-4h59a2 2 0 0 1 0 4zM92 77H33a2 2 0 0 1 0-4h59a2 2 0 0 1 0 4z" opacity=".1"/>
    <path d="M110 42.396 56.3 66.502a6.15 6.15 0 0 0-2.524 2.095L32.665 93.15c-1.114 1.296-.628 2.382 1.081 2.414l31.223.253a6.186 6.186 0 0 0 4.375-.255L110 77.311V42.396z" opacity=".1"/>
    <path d="M115.628 34.043c2.417-2.417 2.417-6.373 0-8.79l-13.734-13.734c-2.417-2.417-6.372-2.417-8.79 0L44.761 59.863a6.152 6.152 0 0 0-1.614 2.855L32.145 93.172c-.581 1.607.26 2.45 1.869 1.872L63.287 84.18a6.18 6.18 0 0 0 3.998-1.794l48.343-48.343z" fill="#F2BA34"/>
    <path d="M110.563 39.108c-6.871-7.286-16.619-17.514-21.885-23.162L44.761 59.863a6.048 6.048 0 0 0-.56.644c-.091.922-.573 8.249 7.152 7.047 0 0-1.282 8.79 8.24 8.24-.766 8.084 6.058 7.311 7.025 7.161a6.13 6.13 0 0 0 .666-.569l43.279-43.278z" fill="#253B4B"/>
    <path d="m115.628 25.253-13.734-13.734c-2.417-2.417-6.372-2.417-8.79 0l-7.142 7.142 22.524 22.524 7.142-7.142c2.417-2.417 2.417-6.373 0-8.79z" fill="#DD5345"/>
    <path d="m34.711 86.07-2.566 7.103c-.581 1.607.26 2.45 1.869 1.872l7.054-2.618-6.357-6.357z" fill="#253B4B"/>
    <path opacity=".1" d="m88.709 15.913 22.523 22.524-2.197 2.197L86.51 18.111z"/>
    <path fill="#D0D0D0" d="m87.06 17.561 22.524 22.524-4.395 4.394-22.523-22.523z"/>
    <path opacity=".1" d="m85.962 18.66 22.523 22.523-2.197 2.198-22.524-22.523z"/>
    <path opacity=".1" d="M104.641 14.266 51.354 67.553 32.239 94.908l27.355-19.114 53.287-53.288z"/>
    <path d="m115.628 25.253-2.747-2.747-53.287 53.288-27.35 19.111c.335.356.951.433 1.77.139L63.287 84.18a6.18 6.18 0 0 0 3.998-1.794l48.343-48.343c2.417-2.417 2.417-6.373 0-8.79z" opacity=".2"/>
</svg>
