<svg xmlns="http://www.w3.org/2000/svg" viewBox="0 0 43.8 48.09"><path d="M36.5 12.29c-4.3-4.3-9-9.1-12.2-12.2 3.7 3.8 8.4 8.5 12.2 12.2Z" stroke="#000" stroke-miterlimit="10" stroke-width=".25"/><path d="m19.2 38.09.1-.3q-.1 0-.2-.1l.1.4Z"/><path d="m39.5 15.29-3-3 3 3Z" stroke="#000" stroke-miterlimit="10" stroke-width=".25"/><path d="m33.3 35.89.1-.4-.2.2.1.2z"/><path d="M31.26 40.61c-.13.04-.27.05-.41.05-.41 0-.79-.16-1.08-.45-.29-.29-.44-.67-.44-1.08 0-.39.15-.75.4-1.03a11.176 11.176 0 0 1-5.7 1.55c-1.31 0-2.62-.24-3.88-.68l-.35 1.61c-.1.1-.3.3-.6.3-.2 0-.4-.2-.5-.4l-.56-2.45c-.8-.47-1.57-1.04-2.26-1.72a11.167 11.167 0 0 1-3.38-7.98c-.01-2.25.62-4.4 1.82-6.25l-.72-3.01-4.1 8.4c-.1.2-.3.3-.4.3H1c-.3 0-.5-.2-.5-.5s.2-.5.5-.5h7.7l4.6-9.4c.1-.2.3-.3.5-.3s.4.2.4.4l.86 3.58c.25-.31.52-.62.81-.91 4.45-4.46 11.7-4.46 16.16 0 1.82 1.82 2.95 4.14 3.27 6.63h3.4c.3 0 .5.2.5.5s-.2.5-.5.5h-3.32c0 .15.02.3.02.45 0 2.07-.57 4.06-1.61 5.81.6-.58 1.55-.58 2.14.01.29.29.44.67.44 1.08 0 .14-.02.28-.05.41l3.18 3.18V15.39l-.1-.1H28.7c-2.4 0-4.4-2-4.4-4.4V.09H4.4C2 .09 0 2.09 0 4.49v39c0 2.4 2 4.4 4.4 4.4h30.7c.95 0 1.82-.32 2.55-.89l-6.39-6.39Z"/><path d="m29.718 35.787 1.768-1.768 4.454 4.455-1.767 1.768z"/><path d="M16.37 20.66c-4.2 4.2-4.2 11 0 15.1s11 4.2 15.1 0c4.2-4.2 4.2-10.9 0-15.1s-10.9-4.2-15.1 0Zm13.2 13.2c-3.1 3.1-8.2 3.1-11.3 0s-3.1-8.2 0-11.4c3.1-3.1 8.2-3.1 11.3 0 3.2 3.2 3.2 8.3 0 11.4Z"/><path d="M28.47 23.96c-2.4-2.4-6.3-2.4-8.7 0l1.7 1.7c2.1-2.1 5.6-2.1 7.7 0 .4.4.8.9 1 1.4-.3-1.1-.9-2.2-1.7-3.1Z" style="isolation:isolate"/><path d="M35.37 34.56c-.3-.3-.8-.3-1.1 0l-4 4c-.3.3-.3.8 0 1.1s.8.3 1.1 0l7.6 7.6c1.1 1.1 2.9 1.1 4 0s1.1-2.9 0-4l-7.6-7.6c.3-.3.3-.8 0-1.1Z"/></svg>