<svg width="49" height="49" viewBox="0 0 49 49" fill="none" xmlns="http://www.w3.org/2000/svg">
<path d="M24.5 0.4375C20.7037 0.4375 17.625 3.51624 17.625 7.3125C17.625 11.1088 20.7037 14.1875 24.5 14.1875C28.2963 14.1875 31.375 11.1088 31.375 7.3125C31.375 3.51624 28.2963 0.4375 24.5 0.4375Z" fill="#2F478D"/>
<path d="M38.25 7.3125C34.4537 7.3125 31.375 10.3912 31.375 14.1875C31.375 17.9838 34.4537 21.0625 38.25 21.0625C42.0463 21.0625 45.125 17.9838 45.125 14.1875C45.125 10.3912 42.0463 7.3125 38.25 7.3125Z" fill="#2F478D"/>
<path d="M3.875 14.1875C3.875 10.3912 6.95374 7.3125 10.75 7.3125C14.5463 7.3125 17.625 10.3912 17.625 14.1875C17.625 17.9838 14.5463 21.0625 10.75 21.0625C6.95374 21.0625 3.875 17.9838 3.875 14.1875Z" fill="#2F478D"/>
<path d="M14.1875 26.2188C14.1875 20.5235 18.8045 15.9062 24.5 15.9062C30.1955 15.9062 34.8125 20.5232 34.8125 26.2188V46.8438C34.8125 47.7934 34.0434 48.5625 33.0938 48.5625H15.9062C14.9566 48.5625 14.1875 47.7934 14.1875 46.8438V26.2188Z" fill="#2F478D"/>
<path d="M12.9027 23.0067C12.6191 24.0294 12.4687 25.1058 12.4687 26.2186V46.8436C12.4687 47.4688 12.6363 48.0575 12.9285 48.5624H2.15619C1.20656 48.5624 0.437439 47.7933 0.437439 46.8436V33.0936C0.437439 27.3984 5.05441 22.7811 10.7499 22.7811C11.489 22.7811 12.2087 22.8585 12.9027 23.0067Z" fill="#2F478D"/>
<path d="M36.5313 46.8438C36.5313 47.4689 36.3637 48.0576 36.0715 48.5625H46.8438C47.7934 48.5625 48.5625 47.7934 48.5625 46.8438V33.0938C48.5625 27.3985 43.9456 22.7812 38.25 22.7812C37.5109 22.7812 36.7913 22.8586 36.0973 23.0068C36.3809 24.0295 36.5313 25.1059 36.5313 26.2187L36.5313 46.8438Z" fill="#2F478D"/>
</svg>
