<svg xmlns="http://www.w3.org/2000/svg" viewBox="0 0 103.51 102.88"><path d="M88 98.88H8c-4.4 0-8-3.6-8-8v4c0 4.4 3.6 8 8 8h80c4.4 0 8-3.6 8-8v-4c0 4.4-3.6 8-8 8Z" style="isolation:isolate" opacity=".1"/><path d="M79.98 49.09c-.1.93-.83 1.67-1.77 1.77L66.19 62.88H78c1.1 0 2 .9 2 2s-.9 2-2 2H62.19l-3.38 3.38s-.03.02-.04.03c-.23.23-.48.44-.73.63h-.03a7.1 7.1 0 0 1-3.82 1.41L20.34 84.89c-.24.08-.46.14-.66.18h-.07c-.18.02-.35.04-.51.02-.34-.03-.62-.16-.81-.36-.37-.4-.44-1.09-.11-2l5.73-15.85h-4.9c-1.1 0-2-.9-2-2s.9-2 2-2h6.35l4.34-12H19.02c-1.1 0-2-.9-2-2s.9-2 2-2h12.1c.24-.68.57-1.33 1.02-1.92.2-.26.41-.51.65-.74l9.33-9.33H19c-1.1 0-2-.9-2-2s.9-2 2-2h27.09l25-25.01H8c-4.4 0-8 3.6-8 8v81c0 4.4 3.6 8 8 8h80c4.4 0 8-3.6 8-8V33.07L79.98 49.09Z" style="isolation:isolate"/><path d="M34.71 47.48c-.19.19-.37.4-.53.61-.48.64-.81 1.35-1 2.09L22.76 79.01c-.27.75-.21 1.31.09 1.64.16.17.38.27.66.29h.01c.13.01.27 0 .42-.02h.05c.17-.03.35-.07.54-.14L52.24 70.5c1.11-.07 2.2-.46 3.13-1.16h.02c.21-.16.41-.33.6-.51 0 0 .02-.02.03-.02l38.07-38.06L73.47 8.73 34.71 47.48Zm67.09-24.44c.29-.29.54-.59.75-.92 1.5-2.28 1.25-5.4-.75-7.4l-13-13c-2.29-2.29-6.03-2.29-8.32 0l-4.01 4.01 20.62 22.02 4.71-4.71Z"/></svg>