<svg xmlns="http://www.w3.org/2000/svg" viewBox="0 0 38.02 38.01"><path d="M21.84 34.01c-.3-.85-.97-1.53-1.83-1.83-.65-.24-1.35-.24-2 0-1.56.55-2.38 2.27-1.83 3.83s2.27 2.38 3.83 1.83 2.38-2.27 1.83-3.83ZM19.01 36c-.55 0-1-.45-1-1s.45-1 1-1 1 .45 1 1-.45 1-1 1ZM5.83 29c-.55-1.56-2.27-2.38-3.83-1.83S-.38 29.44.17 31 2.44 33.38 4 32.83c.85-.3 1.53-.97 1.83-1.83.24-.65.24-1.35 0-2Zm-2.82 2c-.55 0-1-.45-1-1s.45-1 1-1 1 .45 1 1-.45 1-1 1Zm34.84-2c-.42-1.2-1.56-2-2.84-2-1.27 0-2.4.8-2.82 2-.24.65-.24 1.35 0 2a3.006 3.006 0 0 0 3.83 1.83A3.006 3.006 0 0 0 37.85 29Zm-2.84 2c-.55 0-1-.45-1-1s.45-1 1-1 1 .45 1 1-.45 1-1 1Zm-16-23.56c-2.75 0-4.5.89-4.5 1.5 0 .47 1.01 1.11 2.88 1.39 1.07.15 2.16.15 3.24 0 1.99-.29 2.88-.98 2.88-1.38 0-.61-1.75-1.5-4.5-1.5Z"/><path d="M23.44 10.46c-.15.09-.3.17-.47.25-.05.02-.12.04-.17.07-.15.06-.3.12-.46.18-.1.03-.22.06-.34.09-.13.04-.26.08-.4.11-.26.06-.54.11-.82.15a12.902 12.902 0 0 1-3.52 0c-1.17-.17-2.1-.47-2.74-.88v2.45c0 .61 1.29 1.4 3.38 1.62.75.08 1.51.08 2.26 0 2.01-.21 3.36-1.01 3.36-1.62v-2.46c-.02.01-.05.02-.07.04Z"/><path d="M23.27 14.59c-.17.1-.35.2-.56.29-.04.02-.08.03-.12.05-.19.08-.38.15-.59.22-.15.05-.32.08-.48.12-.11.03-.21.06-.33.08-.3.06-.62.11-.94.15-.41.04-.82.06-1.23.06h-.01c-.41 0-.83-.02-1.24-.06-.15-.02-.29-.05-.44-.07-.16-.02-.33-.04-.49-.08l-.26-.06c-.22-.05-.44-.1-.64-.17a.3.3 0 0 1-.1-.04c-.24-.08-.47-.17-.68-.27 0 0-.01 0-.02-.01-.23-.11-.43-.23-.61-.35v2.5c0 .61 1.75 1.5 4.5 1.5s4.5-.89 4.5-1.5v-2.48c-.05.04-.12.07-.17.1l-.06.03Z"/><path d="M29.01 9C28.46 3.51 23.56-.5 18.06.05 14.08.45 10.72 3.18 9.52 7h-.51c-4.42 0-8 3.58-8 8s3.58 8 8 8h20c3.87 0 7-3.13 7-7s-3.13-7-7-7Zm-4.5 3.88v4.06c0 1.62-2.83 2.5-5.5 2.5s-5.5-.88-5.5-2.5v-8c0-1.62 2.83-2.5 5.5-2.5s5.5.88 5.5 2.5v3.94ZM31.19 31c-.24-.64-.24-1.35 0-2h-3.18c-1.1 0-2-.9-2-2v-3h-2v3c0 2.21 1.79 4 4 4h3.18ZM19 31.01c.35 0 .69.06 1.01.18v-7.18h-2v7.18c.31-.11.65-.18.99-.18ZM12.01 24v3c0 1.1-.9 2-2 2H6.84c.24.68.21 1.37-.02 2H10c2.21 0 4-1.79 4-4v-3h-2Z"/></svg>