<svg xmlns="http://www.w3.org/2000/svg" viewBox="0 0 40 40"><path d="M37.84 0H2.16C.97 0 0 .97 0 2.16v35.68C0 39.03.97 40 2.16 40h35.68c1.19 0 2.16-.97 2.16-2.16V2.16C40 .97 39.03 0 37.84 0ZM29 20c0 2.72-1.21 5.15-3.12 6.8.08-.42.12-.86.12-1.3 0-2.54-1.34-4.73-3.3-5.8.49-.6.8-1.36.8-2.2 0-1.93-1.57-3.5-3.5-3.5s-3.5 1.57-3.5 3.5c0 .84.31 1.6.8 2.2-1.96 1.07-3.3 3.26-3.3 5.8 0 .45.04.88.12 1.3A8.957 8.957 0 0 1 11 20a9 9 0 0 1 18 0ZM14 2c1.1 0 2 .9 2 2s-.9 2-2 2-2-.9-2-2 .9-2 2-2ZM9 2c1.1 0 2 .9 2 2s-.9 2-2 2-2-.9-2-2 .9-2 2-2ZM2 4c0-1.1.9-2 2-2s2 .9 2 2-.9 2-2 2-2-.9-2-2Zm28 31.46c0 .3-.24.54-.54.54H3.54c-.3 0-.54-.24-.54-.54v-2.92c0-.3.24-.54.54-.54h25.92c.3 0 .54.24.54.54v2.92Zm7 0c0 .3-.24.54-.54.54h-4.92c-.3 0-.54-.24-.54-.54v-2.92c0-.3.24-.54.54-.54h4.92c.3 0 .54.24.54.54v2.92Z"/></svg>