<svg width="40" height="48" viewBox="0 0 40 48" fill="none" xmlns="http://www.w3.org/2000/svg">
<g clip-path="url(#clip0_773_18873)">
<path d="M38.2671 22.0951H38.2652C36.9395 21.5459 36.8357 20.3175 36.8357 19.9539C36.8357 19.5902 36.9377 18.3619 38.2652 17.8127C38.9346 17.5362 39.4537 17.0148 39.73 16.3469C40.0063 15.6789 40.0063 14.9423 39.73 14.2725L37.9667 10.0104C37.3938 8.62999 35.8085 7.97126 34.4271 8.54463C33.0995 9.09572 32.1595 8.29971 31.9036 8.04179C31.6459 7.78388 30.8523 6.84318 31.4011 5.51465C31.6774 4.84671 31.6774 4.11008 31.4011 3.44023C31.1249 2.77039 30.6038 2.25088 29.9363 1.97443L25.6773 0.209903C24.2978 -0.36157 22.7106 0.297108 22.1396 1.67756C21.5908 3.00238 20.3633 3.10626 19.9999 3.10626C19.6365 3.10626 18.409 3.00421 17.8602 1.6757C17.5839 1.00586 17.0629 0.486352 16.3954 0.20805C15.7279 -0.0684141 14.9918 -0.0684141 14.3224 0.20805L10.0634 1.97258C9.39401 2.24904 8.87487 2.77044 8.59676 3.43838C8.32049 4.10823 8.32049 4.84296 8.59676 5.5128C9.14747 6.83948 8.35201 7.78202 8.09428 8.03809C7.8384 8.296 6.89836 9.09202 5.57076 8.54092C4.90328 8.26446 4.16717 8.26446 3.4978 8.54092C2.82842 8.81739 2.30928 9.33878 2.03302 10.0067L0.269731 14.2669C-0.00653889 14.9368 -0.00653889 15.6715 0.269731 16.3413C0.546002 17.0112 1.06703 17.5307 1.7345 17.8071C3.06025 18.3563 3.16406 19.5865 3.16406 19.9483C3.16406 20.312 3.06023 21.5403 1.73265 22.0895C0.353178 22.6629 -0.303239 24.2512 0.26788 25.6298L2.03117 29.8918C2.30744 30.5616 2.82847 31.0811 3.49595 31.3576C4.16342 31.634 4.89954 31.6341 5.56891 31.3576C6.89465 30.8084 7.83653 31.6025 8.09243 31.8604C8.22222 31.9903 8.48736 32.2946 8.65054 32.7362C10.0319 30.9494 11.8193 29.4929 13.8795 28.515C11.2095 26.6002 9.46099 23.4777 9.46099 19.9484C9.46099 14.1354 14.1872 9.4039 19.9981 9.4039C25.809 9.4039 30.5352 14.1335 30.5352 19.9484C30.5352 23.4775 28.7868 26.6003 26.1168 28.515C28.1767 29.4929 29.9642 30.9494 31.3438 32.7344C31.5051 32.2946 31.7721 31.9903 31.9019 31.8605C32.1596 31.6026 33.0978 30.8065 34.4273 31.3576C35.8067 31.9273 37.3939 31.2704 37.965 29.89L39.7283 25.628C40.3031 24.2549 39.6449 22.6685 38.2672 22.0951L38.2671 22.0951Z" fill="#2F478D"/>
<path d="M20 12.7618C16.0376 12.7618 12.8131 15.9885 12.8131 19.9538C12.8131 23.919 16.0375 27.1458 20 27.1458C23.9625 27.1458 27.1869 23.9191 27.1869 19.9538C27.1869 15.9886 23.9625 12.7618 20 12.7618V12.7618Z" fill="#2F478D"/>
<path d="M30.9914 41.4974C30.9914 35.2911 25.8275 30.2698 19.5752 30.5054C13.6271 30.7318 9.00815 35.8102 9.00815 41.7663V45.2304C9.00815 46.4829 10.0242 47.4997 11.2758 47.4997H28.7236C29.9751 47.4997 30.9912 46.4847 30.9912 45.2304L30.9914 41.4974Z" fill="#2F478D"/>
</g>
<defs>
<clipPath id="clip0_773_18873">
<rect width="40" height="47.5" fill="white"/>
</clipPath>
</defs>
</svg>
