<svg width="40" height="44" viewBox="0 0 40 44" fill="none" xmlns="http://www.w3.org/2000/svg">
<g clip-path="url(#clip0_774_18249)">
<path d="M20.0057 0C19.9782 0 19.9506 -1.14087e-08 19.923 0.00385621C19.7911 0.0173523 19.6631 0.063622 19.5528 0.140742L0.342623 13.0815V13.0796C0.129959 13.2223 0.00197098 13.4594 0 13.712V42.472C0 42.8962 0.350496 43.2393 0.783703 43.2413H5.50558V29.0532C5.50361 28.6252 5.85805 28.2782 6.29715 28.2782H11.9031L11.9011 15.6365C11.8992 15.2085 12.2536 14.8615 12.6927 14.8615H26.3958C26.8309 14.8634 27.1814 15.2104 27.1795 15.6365V28.2802H33.7029C34.138 28.2821 34.4885 28.6291 34.4866 29.0552V43.2432H39.2143L39.2163 43.2413C39.6495 43.2394 40 42.8962 40 42.472V13.712C39.998 13.4594 39.87 13.2223 39.6574 13.0796L20.4492 0.13886V0.140788C20.3192 0.0501743 20.1633 0.00192984 20.0057 0ZM13.4763 16.4051V28.2798H25.6041V16.4051H22.4063V20.9031C22.4043 21.3292 22.0499 21.6724 21.6147 21.6705H17.4639C17.0307 21.6705 16.6802 21.3273 16.6782 20.9031V16.4051H13.4763ZM18.2553 16.4051V20.1281H20.8309V16.4051H18.2553ZM7.0787 29.8222V43.2412H19.208V29.8222H16.0102V34.3202C16.0082 34.7444 15.6577 35.0876 15.2265 35.0876H11.0678C10.6346 35.0856 10.2841 34.7424 10.2841 34.3202V29.8222H7.0787ZM11.8577 29.8222V33.5452H14.4352V29.8222H11.8577ZM20.7835 29.8222V43.2412H32.9114V29.8222H29.7135V34.3202C29.7116 34.7444 29.3611 35.0876 28.9298 35.0876H24.7731C24.3399 35.0876 23.9894 34.7444 23.9874 34.3202V29.8222H20.7835ZM25.5625 29.8222V33.5452H28.1381V29.8222H25.5625Z" fill="#2F478D"/>
</g>
<defs>
<clipPath id="clip0_774_18249">
<rect width="40" height="43.2432" fill="white"/>
</clipPath>
</defs>
</svg>
