<svg xmlns="http://www.w3.org/2000/svg" viewBox="0 0 250 250" xml:space="preserve"><path d="M248.4 182.4c-5.9-5.4-30.3-15.2-47-21.5-3.8-1.5-3.7-6.9.2-8.2 11.3-3.8 26.6-13.5 40.2-37.6 1.7-3.2-.4-7.2-4-7.4l-21-1.4c-3.9-.3-5.9-4.8-3.6-7.9 10.6-14.3 31.4-47.7 23.9-81.7-.4-1.9-1.9-3.4-3.8-3.8-33.9-7.5-67.4 13.3-81.7 23.9-3.2 2.4-7.6.3-7.9-3.6l-1.4-21c-.3-3.7-4.2-5.8-7.4-4-24.1 13.6-33.8 28.9-37.6 40.2-1.3 3.9-6.8 4-8.2.2C82.8 31.9 73 7.5 67.6 1.6c-2-2.2-5.6-2.1-7.5.3C43.9 22 40.5 39.2 40.4 49.7c0 4.1-4.8 6.3-8 3.8l-9.2-7.3c-2.9-2.3-7.2-.7-7.9 3-3 16.9-1 31.2 2.3 42.1 1.5 4.9-4.4 8.5-8.1 5-2.9-2.8-7.8-1.1-8.3 2.9-8.3 64.3 28.1 93.2 41.2 101.4l35.9-35.9c-8-10.4-26.8-41.9-19.3-99.6.4-2.7 2.9-4.7 5.6-4.3 2.7.4 4.7 2.9 4.3 5.6-6.7 52.2 9.4 81.2 16.6 91.1l37.2-37.2c-4.2-9.2-13.4-35.2-4.1-68.8.7-2.7 3.5-4.2 6.2-3.5 2.7.7 4.2 3.5 3.5 6.2-7.5 26.8-1.8 48.3 2.1 58.4l70.9-70.9c2-2 5.1-2 7.1 0s2 5.1 0 7.1l-70.9 70.9c10.1 3.8 31.7 9.6 58.5 2.2 2.7-.7 5.4.8 6.2 3.5.7 2.7-.8 5.4-3.5 6.2-10.6 2.9-20.5 4-29.2 4-19.3 0-33.5-5.3-39.7-8.2l-37.2 37.2c10 7.1 39.1 23.3 91.2 16.7 2.7-.4 5.2 1.6 5.6 4.3.4 2.7-1.6 5.2-4.3 5.6-9.3 1.2-17.9 1.7-25.8 1.7-41.6 0-65.3-14.4-74-21l-35.9 35.9c8.2 13.1 37.2 49.5 101.3 41.1 4-.5 5.7-5.4 2.9-8.3-3.4-3.6.2-9.6 5-8.1 11 3.3 25.3 5.3 42.1 2.3 3.7-.6 5.3-5 3-7.9l-7.3-9.2c-2.5-3.2-.3-8 3.8-8 10.6-.1 27.7-3.5 47.8-19.7 2.5-2 2.6-5.6.4-7.6z"/><path d="M46.9 203.2s-1.7-.8-4.5-2.6L6.7 236.3c-2 2-2 5.1 0 7.1.9 1 2.2 1.5 3.5 1.5 1.3 0 2.5-.5 3.5-1.4l35.8-35.8c-1.8-2.8-2.6-4.5-2.6-4.5zm34.6-41.7z"/></svg>