<svg xmlns="http://www.w3.org/2000/svg" viewBox="0 0 91 91" xml:space="preserve"><path d="m88.6 25.8-42-20c-.7-.3-1.5-.3-2.1 0l-42 20c-.9.4-1.4 1.3-1.4 2.2 0 1 .5 1.8 1.4 2.2l42 20c.3.2.7.2 1.1.2.4 0 .7-.1 1.1-.2l42-20c.7-.4 1.3-1.2 1.3-2.2 0-.9-.6-1.8-1.4-2.2z"/><path d="M45.5 68.1c-.5 0-1-.1-1.4-.3l-42-20C.5 47-.2 45.1.5 43.4c.8-1.6 2.7-2.3 4.4-1.6l40.6 19.3 40.6-19.3c1.6-.8 3.6-.1 4.4 1.6.8 1.6.1 3.6-1.6 4.4l-42 20c-.4.2-.9.3-1.4.3z"/><path d="M45.5 84.9c-.5 0-1-.1-1.4-.3l-42-20C.5 63.8-.2 61.9.5 60.2c.8-1.6 2.7-2.3 4.4-1.6L45.5 78l40.6-19.3c1.6-.8 3.6-.1 4.4 1.6.8 1.6.1 3.6-1.6 4.4l-42 20c-.4.1-.9.2-1.4.2z"/></svg>