<svg xmlns="http://www.w3.org/2000/svg" viewBox="0 0 50.77 47.31"><path d="M4 0C1.8 0 0 1.8 0 4v22c0 2.2 1.8 4 4 4h26V0H4Zm18 12h-2.18a10.86 10.86 0 0 1-1.8 4.57l-.57.82-.07-.05c-.33.42-.71.83-1.12 1.23.9.65 1.93 1.3 3.11 1.94l.88.48-.96 1.76-.88-.48c-1.22-.66-2.5-1.44-3.71-2.36-1.05.8-2.27 1.58-3.74 2.36l-.88.47-.94-1.76.88-.47a27.5 27.5 0 0 0 3.14-1.93c-1.75-1.69-3.14-3.82-3.59-6.59H8v-2h6v-2h2v2h6v2Z"/><path d="M11.6 12c.39 1.98 1.38 3.7 3.12 5.31.66-.63 1.2-1.27 1.65-1.95l.55-.84h.02c.42-.78.7-1.63.87-2.52h-6.2Z"/><path d="M8 12h5.95v2H8zm30.13 22.31-1.34-4.26-1.32 4.26h2.66zm-7.36 4h12v4h-12zm1-16h8v4h-8z"/><path d="M46.77 17.31H30.79v13.45H20.77v16.55h26c2.2 0 4-1.8 4-4v-22c0-2.2-1.8-4-4-4ZM21.21 45.74V31.2h8.77l-8.77 14.54Zm18.51-6.43-.95-3h-3.91l-.93 3-1.91-.59 4.74-15.35 4.87 15.34-1.91.61Z"/><path d="M20.77 47.31V30.7h10l-10 16.61Zm.98-15.62v12.08l7.27-12.08h-7.27Z"/></svg>