<svg xmlns="http://www.w3.org/2000/svg" viewBox="0 0 70 70" xml:space="preserve"><path d="M63.9 3.2c0-.5-.5-1-1-1H45.1v44.5h18.8V3.2zM49.4 6.4H58c.5 0 1 .5 1 1s-.5 1-1 1h-8.6c-.6 0-1-.5-1-1s.4-1 1-1zm0 4.9H58c.5 0 1 .5 1 1 0 .6-.5 1-1 1h-8.6c-.6 0-1-.4-1-1s.4-1 1-1zm0 4.8H58c.5 0 1 .5 1 1 0 .6-.5 1-1 1h-8.6c-.6 0-1-.4-1-1 0-.5.4-1 1-1zm.6 24.4c-1.6 0-2.9-1.3-2.9-2.9s1.3-2.9 2.9-2.9 2.9 1.3 2.9 2.9-1.3 2.9-2.9 2.9zm5.9-11.9h-4.5c-1.8 0-3.3-1.5-3.3-3.3 0-1.8 1.5-3.3 3.3-3.3h4.5c1.8 0 3.3 1.5 3.3 3.3 0 1.8-1.5 3.3-3.3 3.3zM24.6 2.2H6.9c-.5 0-1 .5-1 1v43.5h18.7V2.2zM11.9 6.4h8.6c.5 0 1 .5 1 1s-.5 1-1 1h-8.6c-.5 0-1-.5-1-1s.4-1 1-1zm0 4.9h8.6c.5 0 1 .5 1 1 0 .6-.5 1-1 1h-8.6c-.5 0-1-.4-1-1s.4-1 1-1zm0 4.8h8.6c.5 0 1 .5 1 1 0 .6-.5 1-1 1h-8.6c-.5 0-1-.4-1-1 0-.5.4-1 1-1zm.6 24.4c-1.6 0-2.9-1.3-2.9-2.9s1.3-2.9 2.9-2.9c1.6 0 2.9 1.3 2.9 2.9s-1.2 2.9-2.9 2.9zm5.9-11.9H14c-1.8 0-3.3-1.5-3.3-3.3 0-1.8 1.5-3.3 3.3-3.3h4.5c1.8 0 3.3 1.5 3.3 3.3-.1 1.8-1.6 3.3-3.4 3.3zm8.2-26.4v44.5h16.5V2.2H26.6zm4.3 4.2h8.6c.5 0 1 .5 1 1s-.5 1-1 1h-8.6c-.6 0-1-.5-1-1s.5-1 1-1zm0 4.9h8.6c.5 0 1 .5 1 1 0 .6-.5 1-1 1h-8.6c-.6 0-1-.4-1-1s.5-1 1-1zm0 4.8h8.6c.5 0 1 .5 1 1 0 .6-.5 1-1 1h-8.6c-.6 0-1-.4-1-1 0-.5.5-1 1-1zm.7 24.4c-1.6 0-2.9-1.3-2.9-2.9s1.3-2.9 2.9-2.9 2.9 1.3 2.9 2.9-1.3 2.9-2.9 2.9zm5.9-11.9H33c-1.8 0-3.3-1.5-3.3-3.3 0-1.8 1.5-3.3 3.3-3.3h4.5c1.8 0 3.3 1.5 3.3 3.3-.1 1.8-1.5 3.3-3.3 3.3zM23.2 55.8h23.4v6H23.2zm-17.3 0h5.9v6H6.9c-.5 0-1-.5-1-1v-5zm7.9 0h7.4v11c0 .6-.4 1-1 1h-5.4c-.5 0-1-.4-1-1v-11zm34.9 0h7.4v11c0 .6-.5 1-1 1h-5.4c-.5 0-1-.4-1-1v-11zM68 49.7v4.1H2v-4.1c0-.6.5-1 1-1h64c.6 0 1 .4 1 1zm-9.9 6.1h5.8v5c0 .5-.5 1-1 1h-4.8v-6z"/></svg>