<svg data-name="Layer 2" xmlns="http://www.w3.org/2000/svg" viewBox="0 0 21.78 14.92"><g data-name="Layer 1"><path d="M11.09.32a.326.326 0 0 0-.32-.32H3.52c-.18 0-.32.15-.33.33 0 .18.15.32.33.32h.76V4.6L1.05 7c-.08.06-.13.16-.13.26v.13c.1-.05.21-.08.32-.08h1.59c.37 0 .67.3.67.67v1.44c0 .38-.3.67-.67.67h-1.6a.73.73 0 0 1-.33-.08v1.21H2c.48-.95 1.45-1.56 2.52-1.57.72 0 1.4.28 1.92.77V4.76c0-.12.03-.23.08-.33H4.91V.65h4.42v3.44h.33c.12 0 .23.03.33.08V.65h.75c.18 0 .32-.15.33-.33ZM.76 9.43zm1.13 3.93c-.02-.05-.03-.1-.04-.15-.06-.22-.09-.44-.09-.67v-.13c0-.22.03-.45.08-.66.02-.06.03-.11.05-.17H.33c-.18 0-.33.15-.33.32v1.13c0 .18.15.32.33.33h1.56Zm8.25-1.61c.02-.06.03-.11.05-.17H7.21s.03.09.04.13c.05.24.08.46.1.68v.14c-.01.22-.04.44-.09.65-.02.06-.04.12-.05.18h2.98s-.03-.1-.05-.15c-.05-.23-.08-.45-.09-.67v-.14c.01-.23.05-.45.09-.66Zm6.25 1.28v-1.79l-2.41-1.81c-.15-.11-.24-.27-.27-.45s.02-.35.13-.5c.23-.3.64-.35.94-.14l1.6 1.2V8.9c0-1.41-1.15-2.56-2.57-2.56h-3.46v4.85c.29-.58.78-1.04 1.37-1.3a2.8 2.8 0 0 1 3.69 1.44c.06.13.1.26.14.38.04.17.07.34.09.51h.09v.48h-.09c-.01.16-.04.32-.08.48-.02.06-.03.12-.05.17h.54c.18 0 .32-.15.33-.33Z"/><path d="M14.06 8.94c.01.08.06.16.13.21l2.57 1.93v-.81l-2.18-1.64a.353.353 0 0 0-.19-.06c-.1 0-.2.04-.26.13-.05.07-.07.16-.06.24Zm4.61-.23h-1.24c-.18 0-.32.15-.33.33v3.99c0 .18.15.35.32.33h4.02c.18 0 .32-.15.33-.33v-1.04a.31.31 0 0 0-.09-.22l-2.77-2.95a.317.317 0 0 0-.25-.1Zm-8.06 4.75c.4.89 1.27 1.46 2.24 1.46.97 0 1.85-.58 2.25-1.46.05-.12.1-.24.13-.37.04-.18.07-.37.07-.57v-.13c0-.2-.03-.4-.08-.6-.03-.11-.07-.23-.12-.33a2.46 2.46 0 0 0-2.24-1.47c-.94 0-1.85.55-2.25 1.46-.05.12-.1.24-.13.36-.04.19-.07.39-.08.58v.12c.01.19.04.39.09.59.03.11.08.23.13.33ZM1.31 3.43l.78.78c.06.06.1.15.1.25v1.27l.65-.48v-.79c0-.26-.1-.52-.29-.71l-.78-.78c-.06-.06-.15-.09-.23-.09s-.17.03-.23.09a.32.32 0 0 0 0 .46ZM7.01 3c0-.65-.53-1.17-1.18-1.17h-.54v2.26h1.72V3Zm3 8.23V4.77s0-.09-.02-.13-.04-.08-.08-.11a.317.317 0 0 0-.23-.09H7.14c-.18 0-.32.15-.33.33v6.06c.1.13.19.26.26.41h.39v-.67h1.89v.67H10ZM7.47 5.09h1.89v1.26H7.47V5.09Zm0 1.91h1.89v1.13H7.47V7Zm0 2.91V8.78h1.89v1.13H7.47Zm-.67 1.56c-.07-.17-.17-.33-.29-.47-.46-.62-1.19-.98-1.96-.99-.97 0-1.85.58-2.25 1.47-.05.11-.1.23-.13.36-.04.18-.07.38-.07.58v.13c0 .19.03.39.08.58.03.12.07.23.13.33.25.57.69 1.01 1.25 1.25 1.24.55 2.69 0 3.24-1.24.05-.12.1-.24.13-.37.04-.18.07-.38.08-.57v-.11c-.01-.2-.04-.41-.09-.61-.03-.1-.07-.21-.12-.33Z"/><path d="M7.82 5.44h1.19V6H7.82zm0 1.91h1.19v.43H7.82zm0 1.78h1.19v.43H7.82zm0 1.78h1.19v.32H7.82zM.93 7.99v1.44a.326.326 0 0 0 .32.32h1.6c.18 0 .33-.15.33-.32V7.99c0-.18-.15-.33-.33-.33H1.26c-.18 0-.32.15-.33.33Z"/></g></svg>