<svg width="42" height="44" viewBox="0 0 42 44" fill="none" xmlns="http://www.w3.org/2000/svg">
<path d="M40.453 5.56121H34.0829L34.0847 1.56551C34.0847 0.759056 33.4414 0.105896 32.6472 0.105896C31.8529 0.105896 31.2097 0.759056 31.2097 1.56551V5.56121H10.7898V1.56551C10.7898 0.759056 10.1465 0.105896 9.35231 0.105896C8.55807 0.105896 7.91481 0.759056 7.91481 1.56551V5.56121H1.54657C0.752334 5.56121 0.10907 6.21438 0.10907 7.02083V16.2802H41.8899V7.02083C41.8899 6.21438 41.2467 5.56121 40.4524 5.56121H40.453Z" fill="#2F478D"/>
<path d="M0.109528 42.4346C0.109528 43.2411 0.752792 43.8942 1.54703 43.8942H40.4529C41.2471 43.8942 41.8904 43.2411 41.8904 42.4346V19.2013H0.109528V42.4346Z" fill="#2F478D"/>
</svg>
