<svg xmlns="http://www.w3.org/2000/svg" viewBox="0 0 452.6 480" xml:space="preserve"><path d="m263.5 360.7-3.4-49.9L370.6 117V52.6h-51.4V0H0v480h370.6V237l-59 103.5-48.1 20.2zM279.9 202H38.5v-19.2h241.4V202zm-68.6 119.4v19.2H38.5v-19.2h172.8zm-172.8-27v-19.2h172.8v19.2H38.5zm200.3 73.2v19.2H38.5v-19.2h200.3zM38.5 248.2V229h200.2v19.2H38.5zm0-152.3L42.9 85h8.6v-2.3C51.4 62 68.3 45.2 89 45.2s37.6 16.9 37.6 37.6h-10.9C115.7 68 103.8 56 89 56c-14.7 0-26.7 12-26.7 26.7V85h41.4l-4.4 10.9h-37v8.1h41.4l-4.4 10.9h-37v.4c0 14.7 12 26.7 26.7 26.7s26.7-12 26.7-26.7h10.9c0 20.7-16.9 37.6-37.6 37.6-20.7 0-37.6-16.9-37.6-37.6v-.4H38.5l4.3-10.9h8.6v-8.1H38.5zM279.9 433H38.5v-19.2h241.4V433z"/><path d="M370.6 52.6 319.2 0l51.4 52.6zm67.2 6.9c-8.5-4.9-19.4-2-24.3 6.5l30.9 17.8c4.8-8.5 1.9-19.4-6.6-24.3zM273.5 343.9l29.4-15.6-30.7-17.7zM442.6 96.8l-10.3 17.8.6 9.8-18.8 32.6 5.4 3.1 18.4-32 14.7-25.5zM272.22 310.518 407.343 76.41l30.92 17.846-135.124 234.107z"/></svg>