<svg xmlns="http://www.w3.org/2000/svg" viewBox="0 0 128.51 128.51"><path d="M112.25 62.35c-.1-1.4-.2-2.7-.3-4.1l2.6-2.6c11.5-11.5 11.5-30.3 0-41.7-11.5-11.5-30.2-11.5-41.7 0l-2.6 2.6c-1.3-.2-2.7-.3-4.1-.3l4.5-4.5c12.7-12.7 33.4-12.8 46.1 0 12.7 12.7 12.7 33.4 0 46.1l-4.5 4.5Zm-53.9-45.7-2.6-2.6c-11.5-11.5-30.3-11.5-41.7 0-11.6 11.4-11.6 30.2 0 41.7l2.6 2.6c-.2 1.3-.3 2.7-.3 4.1l-4.5-4.5c-12.7-12.7-12.8-33.4 0-46.1 12.7-12.7 33.4-12.7 46.1 0l4.5 4.5c-1.4 0-2.8.1-4.1.3Zm-42.1 49.5c.1 1.4.2 2.7.3 4.1l-2.6 2.6c-11.5 11.5-11.5 30.3-.1 41.7 11.5 11.5 30.2 11.5 41.7 0l2.6-2.6c1.3.2 2.7.3 4.1.3l-4.5 4.5c-12.7 12.7-33.4 12.8-46.1.1-12.7-12.7-12.7-33.4.1-46.1l4.5-4.6Zm53.9 45.7 2.6 2.6c11.5 11.5 30.3 11.5 41.7 0 11.5-11.5 11.5-30.2-.1-41.7l-2.6-2.6c.2-1.3.3-2.7.3-4.1l4.5 4.5c12.7 12.7 12.8 33.4.1 46.1-12.7 12.7-33.4 12.7-46.1-.1l-4.5-4.5c1.4.1 2.8 0 4.1-.2Z"/><path d="M64.25 24.55c-21.9 0-39.7 17.8-39.7 39.7s17.8 39.7 39.7 39.7 39.7-17.8 39.7-39.7-17.8-39.7-39.7-39.7Zm0 71.7c-17.7 0-32-14.3-32-32s14.3-32 32-32 32 14.3 32 32-14.3 32-32 32Z"/><path d="M64.25 9.25c-30.4 0-55 24.6-55 55s24.6 55 55 55 55-24.6 55-55-24.6-55-55-55Zm0 106c-28.2 0-51-22.8-51-51s22.8-51 51-51 51 22.8 51 51-22.8 51-51 51Z"/><path d="M35.85 79.05c.05.1.12.2.17.3-2.41-4.5-3.77-9.63-3.77-15.1 0-17.7 14.3-32 32-32 5.48 0 10.64 1.37 15.14 3.79-.12-.06-.22-.13-.34-.19l23.18-23.08C91.6 4.91 78.47.25 64.25.25S36.9 4.91 26.27 12.77l23.08 23.08c-5.8 3-10.5 7.7-13.5 13.5L12.77 26.27C4.91 36.9.25 50.04.25 64.25s4.65 27.36 12.5 38l23.1-23.2ZM87.6 42.36c-.55-.59-1.13-1.16-1.72-1.71.6.55 1.17 1.12 1.72 1.71ZM38.39 83.1s.03.04.04.06c-.01-.02-.03-.04-.04-.06Zm1.51 1.92.03.03c0-.01-.02-.02-.03-.03Zm42.44-47.18Zm-1.87-1.18c.51.3 1.01.61 1.49.93-.49-.32-.99-.63-1.49-.93Zm-1.32 55.99c5.8-3 10.5-7.7 13.5-13.5l23.08 23.08c7.86-10.63 12.52-23.77 12.52-37.98s-4.66-27.35-12.52-37.98L92.57 49.33c2.35 4.45 3.68 9.53 3.68 14.92 0 17.7-14.3 32-32 32-5.39 0-10.47-1.33-14.92-3.68l-23.08 23.18c10.62 7.85 23.76 12.5 38 12.5s27.35-4.66 37.98-12.52L79.15 92.65Zm9.62-48.98c-.22-.26-.45-.52-.67-.78.23.26.45.51.67.78ZM36.99 81.03c.07.11.14.21.21.32-.07-.11-.14-.21-.21-.32Zm53.05-35.75s-.04-.06-.07-.09c.02.03.04.06.07.09Z"/><path d="m84.75 30.25-5.6 5.6c5.8 3 10.5 7.7 13.5 13.5l5.6-5.6c-3.4-5.5-8-10.2-13.5-13.5Zm-48.9 48.8-5.6 5.7c3.3 5.5 8 10.1 13.5 13.5l5.6-5.6c-5.7-3.1-10.4-7.8-13.5-13.6Zm43.3 13.6 5.6 5.6c5.5-3.3 10.1-8 13.5-13.5l-5.6-5.6c-3.1 5.7-7.8 10.4-13.5 13.5Zm-29.7-56.7-5.7-5.7c-5.5 3.4-10.1 8-13.5 13.5l5.6 5.6c3.1-5.7 7.8-10.4 13.6-13.4Zm-27.4 57-2.9 2.9c3.7 5.2 8.2 9.8 13.5 13.5l2.9-2.9c-5.3-3.7-9.9-8.2-13.5-13.5Zm84.4 0c-3.6 5.3-8.2 9.9-13.5 13.5l2.9 2.9c5.2-3.7 9.8-8.3 13.5-13.5l-2.9-2.9Zm-84.4-57.4c3.6-5.3 8.2-9.9 13.5-13.5l-2.8-2.8c-5.2 3.7-9.8 8.3-13.5 13.5l2.8 2.8Z"/><circle cx="64.25" cy="64.25" r="63.75" fill="none" stroke="#000" stroke-miterlimit="10"/></svg>