<svg xml:space="preserve" width="72" height="72" xmlns="http://www.w3.org/2000/svg"><g transform="translate(-28 -28)"><path d="M90.4 100H37.6c-5.3 0-9.6-4.3-9.6-9.6V37.6c0-5.3 4.3-9.6 9.6-9.6h52.8c5.3 0 9.6 4.3 9.6 9.6v52.8c0 5.3-4.3 9.6-9.6 9.6z" fill="#e6e8eb"/><path d="M90.4 93H37.6c-1.4 0-2.6-1.2-2.6-2.6V37.6c0-1.4 1.2-2.6 2.6-2.6h52.8c1.4 0 2.6 1.2 2.6 2.6v52.8c0 1.4-1.2 2.6-2.6 2.6ZM37.6 37c-.3 0-.6.3-.6.6v52.8c0 .3.3.6.6.6h52.8c.3 0 .6-.3.6-.6V37.6c0-.3-.3-.6-.6-.6Z" fill="#cfd5df"/><path d="M94 56.6h-1.4c-.9 0-1.7-.7-1.7-1.7V43.1c0-.9.7-1.7 1.7-1.7H94c.9 0 1.7.7 1.7 1.7V55c0 .9-.8 1.6-1.7 1.6zm0 29.9h-1.4c-.9 0-1.7-.7-1.7-1.7V73c0-.9.7-1.7 1.7-1.7H94c.9 0 1.7.7 1.7 1.7v11.8c0 1-.8 1.7-1.7 1.7z" fill="#cfd5df"/><circle cx="53.8" cy="64" fill="#fff" r="12.6"/><circle cx="53.8" cy="64" fill="#cfd5df" r="10.9"/><circle cx="53.8" cy="64" fill="#e6e8eb" r="8.1"/><path d="M42.6 75.2c-.7-.7-.7-1.9 0-2.6l19.7-19.7c.7-.7 1.9-.7 2.6 0 .7.7.7 1.9 0 2.6L45.3 75.2c-.7.7-1.9.7-2.7 0z" fill="#454e5c"/><path d="M42.6 52.8c.7-.7 1.9-.7 2.6 0L65 72.5c.7.7.7 1.9 0 2.6-.7.7-1.9.7-2.6 0L42.6 55.5c-.7-.7-.7-1.9 0-2.7z" fill="#454e5c"/><circle cx="53.8" cy="64" fill="#545e70" r="5.8"/><circle cx="53.8" cy="64" fill="#acb2b9" r="3.1"/><circle cx="78.8" cy="63.2" fill="#acb2b9" r="6.3"/><circle cx="78.8" cy="63.2" fill="#e6e8eb" r="4.9"/><circle cx="78.8" cy="63.2" fill="#cfd5df" r="3.6"/><g fill="#cfd5df"><path d="M78.7 59.2h.3v8.1h-.3z"/><path d="M74.8 63h8.1v.3h-8.1z"/><path d="m81.568 60.267.213.213-5.728 5.727-.212-.212z"/><path d="m81.774 65.918-.212.212-5.727-5.728.212-.212z"/></g><g fill="#cfd5df"><path d="m77.184 59.56.277-.115 3.1 7.483-.277.115z"/><path d="m82.48 61.535.115.278-7.484 3.1-.115-.278z"/><path d="m80.241 59.451.277.115-3.1 7.484-.277-.115z"/><path d="m82.597 64.597-.115.277-7.483-3.1.114-.277z"/></g><circle cx="78.8" cy="63.2" fill="#fff" r="2.2"/></g></svg>