<svg data-name="Layer 1" viewBox="0 0 32 32" xmlns="http://www.w3.org/2000/svg">
    <g data-name="Layer 50">
        <path d="M16.09 7.62a.501.501 0 0 1-.5.5h-.58v3.94a.448.448 0 0 0-.04-.2.419.419 0 0 0-.11-.16.507.507 0 0 0-.35-.14h-.5V8.12H9.94v3.44h2.03a.501.501 0 0 0-.5.5v6.12a2.623 2.623 0 0 0-2.09-1.05 2.671 2.671 0 0 0-2.41 1.57H5.58v-1.98a.495.495 0 0 0 .5.5h1.59a.495.495 0 0 0 .5-.5v-1.44a.501.501 0 0 0-.5-.5H6.08a.501.501 0 0 0-.5.5v-.72a.48.48 0 0 1 .2-.4l1.06-.79 1-.74 1.1-.82V8.12h-.59a.508.508 0 0 1-.5-.5.501.501 0 0 1 .5-.5h7.24a.495.495 0 0 1 .5.5Z" fill="#fa0"/>
        <path d="M6.98 20.83H5.15a.501.501 0 0 1-.5-.5V19.2a.495.495 0 0 1 .5-.5h1.82a2.464 2.464 0 0 0-.14.38 2.929 2.929 0 0 0-.08.62v.13a2.578 2.578 0 0 0 .09.63 1.657 1.657 0 0 0 .14.37Zm8.16-.37a2.35 2.35 0 0 0 .14.37h-3.5a3.043 3.043 0 0 0 .14-.39 3.601 3.601 0 0 0 .09-.61v-.13a4.435 4.435 0 0 0-.09-.64c-.04-.12-.08-.24-.13-.36h3.49a2.464 2.464 0 0 0-.14.38 3.861 3.861 0 0 0-.09.62v.13a4.139 4.139 0 0 0 .09.63Z" fill="#ffe861"/>
        <path d="M18.81 15.89a.496.496 0 0 0 .1.7l1.48 1.11 1 .75v1.88a.501.501 0 0 1-.5.5h-.8a3.043 3.043 0 0 0 .14-.39 2.765 2.765 0 0 0 .08-.61h.08v-.13h-.08a2.72 2.72 0 0 0-.09-.64 2.6 2.6 0 0 0-.13-.36 2.627 2.627 0 0 0-4.81 0h-.27v-5.23h3.64a2.744 2.744 0 0 1 2.74 2.74v.99l-1-.75-.88-.66a.507.507 0 0 0-.7.1Z" fill="#fa0"/>
        <path d="M21.76 17.48v1.25l-.37-.28-1-.75-1.48-1.11a.496.496 0 0 1-.1-.7.507.507 0 0 1 .7-.1l.88.66 1 .75Z" fill="#ffe861"/>
        <path d="M26.78 19.28v1.04a.501.501 0 0 1-.5.5h-4.02a.495.495 0 0 1-.5-.5v-3.99a.501.501 0 0 1 .5-.5h1.24a.523.523 0 0 1 .37.16l2.77 2.95a.476.476 0 0 1 .14.34Z" fill="#fa0"/>
        <path d="M20.31 19.7v.13a2.765 2.765 0 0 1-.08.61 3.043 3.043 0 0 1-.14.39 2.662 2.662 0 0 1-2.41 1.56 2.626 2.626 0 0 1-2.4-1.56 2.35 2.35 0 0 1-.14-.37 4.139 4.139 0 0 1-.09-.63v-.13a3.861 3.861 0 0 1 .09-.62 2.464 2.464 0 0 1 .14-.38 2.627 2.627 0 0 1 4.81 0 2.6 2.6 0 0 1 .13.36 2.72 2.72 0 0 1 .09.64ZM7.84 11.75v.88l-1 .74v-1.62a.166.166 0 0 0-.05-.12l-.78-.78a.495.495 0 0 1 0-.71.513.513 0 0 1 .71 0l.78.78a1.173 1.173 0 0 1 .34.83Z" fill="#4a4c4f"/>
        <path d="M12.01 10.3v1.26H9.94V8.95h.71a1.353 1.353 0 0 1 1.36 1.35Z" fill="#ffe861"/>
        <path d="M14.97 11.86a.572.572 0 0 0-.11-.16.507.507 0 0 0-.35-.14h-2.54a.501.501 0 0 0-.5.5v6.12a2.142 2.142 0 0 1 .32.52h.68v-.67h1.54v.67h1v-6.64a.448.448 0 0 0-.04-.2Zm-.96 5.17h-1.54v-.78h1.54Zm0-1.78h-1.54v-.78h1.54Zm0-1.78h-1.54v-.91h1.54Z" fill="#ffe861"/>
        <path d="M12.01 19.7v.13a3.601 3.601 0 0 1-.09.61 3.043 3.043 0 0 1-.14.39 2.626 2.626 0 0 1-4.8 0 1.657 1.657 0 0 1-.14-.37 2.578 2.578 0 0 1-.09-.63v-.13a2.929 2.929 0 0 1 .08-.62 2.464 2.464 0 0 1 .14-.38 2.671 2.671 0 0 1 2.41-1.57 2.623 2.623 0 0 1 2.09 1.05 2.142 2.142 0 0 1 .32.52c.05.12.09.24.13.36a4.435 4.435 0 0 1 .09.64Z" fill="#4a4c4f"/>
        <path d="M12.47 12.56h1.54v.91h-1.54zm0 1.91h1.54v.78h-1.54zm0 1.78h1.54v.78h-1.54zm0 1.78h1.54v.67h-1.54z" fill="#fa0"/>
        <path d="M8.17 15.28v1.44a.495.495 0 0 1-.5.5H6.08a.495.495 0 0 1-.5-.5v-1.44a.501.501 0 0 1 .5-.5h1.59a.501.501 0 0 1 .5.5Z" fill="#f61e1e"/>
    </g>
</svg>
