<svg width="64" height="40" viewBox="0 0 64 40" fill="none" xmlns="http://www.w3.org/2000/svg">
<path d="M40.4487 11.42V26.0073C43.6816 25.1488 46.0587 22.1788 46.0587 18.68C46.0587 15.1812 43.6816 12.2785 40.4487 11.42Z" fill="#2F478D"/>
<path d="M33.5187 0.597316L20.5813 10.43H5.73134C2.95986 10.43 0.649864 12.6729 0.649864 15.5115V21.9129C0.649864 24.6844 2.89281 26.9944 5.73134 26.9944H7.71134L9.75839 38.6758C9.88988 39.3358 10.4854 39.8643 11.1454 39.8643H16.6884C17.0854 39.8643 17.4799 39.6658 17.8099 39.3358C18.0728 39.0058 18.2069 38.6087 18.1399 38.1472L16.1599 26.9965H20.5813L33.5187 36.7652C33.9157 37.0282 34.3772 37.2267 34.8387 37.2267C35.1687 37.2267 35.5657 37.1596 35.8957 36.9637C36.6228 36.5667 37.0172 35.7752 37.0172 34.9167V2.44268C37.0172 1.84971 36.8187 1.25415 36.4242 0.859732C35.5631 0.00120434 34.3772 0.0012047 33.5187 0.596762L33.5187 0.597316Z" fill="#2F478D"/>
<path d="M61.37 16.7H52.5273C51.4058 16.7 50.5473 17.6229 50.5473 18.68C50.5473 19.7371 51.4703 20.66 52.5273 20.66H61.37C62.4915 20.66 63.35 19.7371 63.35 18.68C63.35 17.6229 62.4271 16.7 61.37 16.7Z" fill="#2F478D"/>
<path d="M58.1373 30.4927L51.0087 25.2797C50.0857 24.6197 48.8301 24.8182 48.2372 25.7412C47.5772 26.6642 47.7757 27.9197 48.6987 28.5127L55.76 33.7282C56.09 33.9912 56.5515 34.1252 56.9485 34.1252C57.5415 34.1252 58.2015 33.8623 58.5985 33.2667C59.2585 32.4082 59.06 31.1527 58.1371 30.4927L58.1373 30.4927Z" fill="#2F478D"/>
<path d="M49.82 12.4773C50.217 12.4773 50.6115 12.3458 51.0085 12.0803L58.2012 6.86734C59.1241 6.20734 59.3227 4.9544 58.6627 4.09587C58.0027 3.17293 56.7497 2.9744 55.8912 3.63439L48.6985 8.84733C47.7756 9.50733 47.5771 10.7603 48.237 11.6188C48.567 12.2118 49.227 12.4773 49.82 12.4773V12.4773Z" fill="#2F478D"/>
</svg>
