<svg width="44" height="52" viewBox="0 0 44 52" fill="none" xmlns="http://www.w3.org/2000/svg">
<path fill-rule="evenodd" clip-rule="evenodd" d="M37.5833 10.0833C41.0263 10.0833 43.8167 12.8737 43.8167 16.3167V44.3667C43.8167 47.8096 41.0263 50.6 37.5833 50.6H6.41667C2.97375 50.6 0.183334 47.8096 0.183334 44.3667V16.3167C0.183334 12.8737 2.97375 10.0833 6.41667 10.0833H37.5833ZM30.4636 22.8249L30.2469 23.0051L19.5455 33.7114L19.3751 33.8454C19.0756 34.0304 18.6909 34.0304 18.3914 33.8454L18.221 33.7114L13.7529 29.2385L13.5362 29.0583C12.9275 28.6395 12.0899 28.698 11.5469 29.2385C11.0063 29.7815 10.9479 30.6191 11.3667 31.2278L11.5469 31.4445L17.7802 37.6779L17.9969 37.858C18.5277 38.2257 19.2387 38.2257 19.7696 37.858L19.9863 37.6779L32.4529 25.2112L32.6331 24.9945C33.0519 24.3858 32.9935 23.5482 32.4529 23.0052C31.91 22.4646 31.0724 22.4062 30.4636 22.825L30.4636 22.8249ZM33.6874 0.73333C34.9779 0.73333 36.0249 1.78034 36.0249 3.07083C36.0249 4.36132 34.9779 5.40833 33.6874 5.40833H10.3124C9.02195 5.40833 7.97494 4.36132 7.97494 3.07083C7.97494 1.78034 9.02195 0.73333 10.3124 0.73333H33.6874Z" fill="#2F478D"/>
</svg>
