<svg xmlns="http://www.w3.org/2000/svg" viewBox="0 0 40 43"><path d="M39.15 10H.85a.85.85 0 0 0-.85.85v7.31c0 .47.38.85.85.85h38.3c.47 0 .85-.38.85-.85v-7.31a.85.85 0 0 0-.85-.85ZM9 16.45c0 .3-.25.55-.55.55h-4.9c-.3 0-.55-.25-.55-.55v-1.9c0-.3.25-.55.55-.55h4.9c.3 0 .55.25.55.55v1.9Zm7 0c0 .3-.25.55-.55.55h-4.9c-.3 0-.55-.25-.55-.55v-1.9c0-.3.25-.55.55-.55h4.9c.3 0 .55.25.55.55v1.9Zm7 0c0 .3-.25.55-.55.55h-4.9c-.3 0-.55-.25-.55-.55v-1.9c0-.3.25-.55.55-.55h4.9c.3 0 .55.25.55.55v1.9ZM34 17c-1.1 0-2-.9-2-2s.9-2 2-2 2 .9 2 2-.9 2-2 2Zm5.15-17H.85A.85.85 0 0 0 0 .85v7.31c0 .47.38.85.85.85h38.3c.47 0 .85-.38.85-.85V.85a.85.85 0 0 0-.85-.85ZM9 6.45c0 .3-.25.55-.55.55h-4.9C3.25 7 3 6.75 3 6.45v-1.9c0-.3.25-.55.55-.55h4.9c.3 0 .55.25.55.55v1.9Zm7 0c0 .3-.25.55-.55.55h-4.9c-.3 0-.55-.25-.55-.55v-1.9c0-.3.25-.55.55-.55h4.9c.3 0 .55.25.55.55v1.9Zm7 0c0 .3-.25.55-.55.55h-4.9c-.3 0-.55-.25-.55-.55v-1.9c0-.3.25-.55.55-.55h4.9c.3 0 .55.25.55.55v1.9ZM34 7c-1.1 0-2-.9-2-2s.9-2 2-2 2 .9 2 2-.9 2-2 2Zm5.15 13H.85a.85.85 0 0 0-.85.85v7.31c0 .47.38.85.85.85h38.3c.47 0 .85-.38.85-.85v-7.31a.85.85 0 0 0-.85-.85ZM9 26.45c0 .3-.25.55-.55.55h-4.9c-.3 0-.55-.25-.55-.55v-1.9c0-.3.25-.55.55-.55h4.9c.3 0 .55.25.55.55v1.9Zm7 0c0 .3-.25.55-.55.55h-4.9c-.3 0-.55-.25-.55-.55v-1.9c0-.3.25-.55.55-.55h4.9c.3 0 .55.25.55.55v1.9Zm7 0c0 .3-.25.55-.55.55h-4.9c-.3 0-.55-.25-.55-.55v-1.9c0-.3.25-.55.55-.55h4.9c.3 0 .55.25.55.55v1.9ZM34 27c-1.1 0-2-.9-2-2s.9-2 2-2 2 .9 2 2-.9 2-2 2Zm-17 3h6v7h-6z"/><rect y="38" width="40" height="5" rx=".67" ry=".67"/></svg>