<svg data-name="Layer 2" xmlns="http://www.w3.org/2000/svg" viewBox="0 0 48 48.34"><g data-name="Layer 1"><path d="M6.83 4.21v18.16L24 35.42l17.18-13.06V4.21H6.83Zm2.85 2.98h14.59v2.02H9.68V7.19Zm28.66 13.64H9.67v-2.02h28.66v2.02Zm0-5.81H9.67V13h28.66v2.02Zm3.99 6.6L48 17.31 42.33 13v8.62zM5.67 12.93 0 17.24l5.67 4.31v-8.62zm22.51-9.75L24 0l-4.18 3.18h8.36z"/><path d="M19.57 33.47 24 36.83l4.43-3.36L48 48.34H0l19.57-14.87z"/><path d="M28.43 33.46v.01L48 48.34V18.59L28.43 33.46zm-8.86 0v.01L0 48.34V18.59l19.57 14.87z"/></g></svg>