<svg data-name="Layer 2" xmlns="http://www.w3.org/2000/svg" viewBox="0 0 426.79 511.88"><g data-name="Layer 1"><path d="M175.53 76.88c-3.36 0-6.61-1.94-8.1-5.2-3.06-6.64-4.61-13.74-4.61-21.11C162.82 22.68 185.5 0 213.38 0s50.57 22.68 50.57 50.57c0 7.01-1.4 13.84-4.2 20.24-1.98 4.5-7.22 6.57-11.73 4.6-4.54-1.97-6.59-7.22-4.63-11.75 1.81-4.12 2.72-8.54 2.72-13.09 0-18.04-14.67-32.72-32.73-32.72s-32.71 14.69-32.71 32.72c0 4.77.99 9.37 2.96 13.66 2.06 4.47.11 9.78-4.37 11.83-1.21.56-2.48.82-3.74.82Zm37.85 199.09c12.45 0 22.54 10.1 22.54 22.52s-10.1 22.52-22.54 22.52-22.52-10.1-22.52-22.52 10.1-22.52 22.52-22.52"/><path d="M226.79 85.53V51.84c0-7.4-6.01-13.4-13.41-13.4s-13.38 6-13.38 13.4v33.69C88.4 92.44 0 185.12 0 298.48s95.53 213.39 213.38 213.39 213.41-95.54 213.41-213.39-88.4-206.02-200-212.95ZM213.38 459.6c-88.84 0-161.11-72.29-161.11-161.12s72.27-161.14 161.11-161.14 161.15 72.27 161.15 161.14S302.25 459.6 213.38 459.6Z"/><path d="M234.62 296.16s-3.79-8.34-.44-13.44c3.35-5.11 48.47-94.91 48.47-94.91s2.08-3.43-.96-5.23c-1.45-.87-3.7-.92-5.03 1.68 0 0-57.14 82.69-59.99 88.07-2.88 5.38-12.02 6.05-12.02 6.05s19.91 4.21 29.98 17.78ZM213.4 181.67c-2.9 0-5.23-2.34-5.23-5.21V158.7c0-2.87 2.34-5.21 5.23-5.21s5.22 2.34 5.22 5.21v17.76c0 2.87-2.34 5.21-5.22 5.21ZM92.75 303.72H75c-2.88 0-5.21-2.36-5.21-5.23s2.34-5.23 5.21-5.23h17.75c2.88 0 5.22 2.33 5.22 5.23s-2.35 5.23-5.22 5.23Zm258.09 0H333.1c-2.88 0-5.23-2.36-5.23-5.23s2.36-5.23 5.23-5.23h17.74c2.88 0 5.21 2.33 5.21 5.23 0 2.87-2.34 5.23-5.21 5.23Zm-53.29-87.11c-1.33 0-2.69-.49-3.7-1.51a5.251 5.251 0 0 1 0-7.41l12.53-12.53a5.209 5.209 0 0 1 7.39 0 5.203 5.203 0 0 1 0 7.37l-12.54 12.57c-1.02 1.02-2.35 1.51-3.7 1.51Zm-171.61.99a5.17 5.17 0 0 1-3.68-1.53l-12.55-12.53c-2.04-2.04-2.04-5.35 0-7.39s5.36-2.04 7.4 0l12.53 12.53a5.191 5.191 0 0 1 0 7.39 5.183 5.183 0 0 1-3.7 1.53Zm182.51 182.5c-1.34 0-2.68-.51-3.7-1.53l-12.55-12.55a5.227 5.227 0 0 1 0-7.39 5.203 5.203 0 0 1 7.4 0l12.55 12.55a5.227 5.227 0 0 1-3.7 8.92Zm-194.45 0c-1.34 0-2.68-.51-3.68-1.53a5.227 5.227 0 0 1 0-7.39l12.53-12.55c2.07-2.06 5.36-2.06 7.4 0a5.209 5.209 0 0 1 0 7.39l-12.53 12.55a5.29 5.29 0 0 1-3.71 1.53Z"/></g></svg>