<svg xmlns="http://www.w3.org/2000/svg" viewBox="0 0 228 256"><path d="M90.7 1.7c-.3 1-1.8 7.2-3.4 13.7l-2.8 11.9-5.3 2.4-5.4 2.4-10.2-6.2c-5.5-3.5-11-6.8-12.1-7.5-1.9-1.3-3.3-.1-18.3 14.9L17.1 49.5l7.5 12.2 7.5 12.1-2.4 5.4-2.4 5.4-13.7 3.3L0 91.2v45.7l3.8 1c2 .5 8.1 2 13.6 3.2l9.8 2.3 2.4 5.5 2.4 5.4-7.5 12.1-7.5 12.1 11.2 10.6 11.2 10.7 4.4-9.1c3.7-7.5 6-10.7 13.1-17.7 6.9-6.9 10.3-9.5 17.3-13l8.8-4.3-4.8-5.1c-6-6.4-8.7-10.8-11.3-18.2-2.9-8.5-3.4-18.5-1.5-26.8 9.1-38.7 56.2-52.7 84.1-25.1 14 13.9 18.8 33.7 12.6 51.9-2.6 7.4-5.3 11.8-11.3 18.2l-4.8 5.1 8.8 4.3c7 3.5 10.4 6.1 17.3 13 7.3 7.2 9.4 10.1 13 17.8 2.4 5 4.6 9.1 4.9 9.2.3 0 5.1-4.9 10.7-10.8l10.1-10.8-7.4-12.1-7.4-12 2.4-5.4 2.4-5.5 9.8-2.3c5.5-1.2 11.6-2.7 13.7-3.2l3.7-1V91.2l-13.6-3.3-13.7-3.3-2.4-5.4-2.4-5.4 7.5-12.1 7.5-12.2-16.1-16.2c-15-15-16.4-16.2-18.3-14.9-1.1.7-6.6 4-12.1 7.5l-10.2 6.2-5.4-2.4-5.3-2.4-2.8-11.9c-1.6-6.5-3.1-12.7-3.4-13.7C136.9.1 134.9 0 114 0S91.1.1 90.7 1.7Z"/><path d="M103.3 83.1c-8.5 2.7-16.9 10.4-20.8 19.1-7.7 17 0 37.5 17 45.8 4.3 2.2 6.4 2.5 15 2.5s10.7-.3 15-2.5c17-8.3 24.7-28.8 17-45.8-4-8.9-12.3-16.4-21.1-19.2-8.2-2.5-14.1-2.5-22.1.1ZM95 168.6c-15.8 3.4-29.9 14-37.3 28.1-5.5 10.5-6.7 17.5-6.7 40V256h127v-19.3c0-22.5-1.2-29.5-6.7-40-7.5-14.3-21.6-24.8-37.8-28.2-8.8-1.8-29.8-1.8-38.5.1Z"/></svg>