<svg xmlns="http://www.w3.org/2000/svg" xml:space="preserve" viewBox="0 0 52 52"><path d="m47.048 41.31-8.4 8.4c-.19.19-.44.29-.7.29-.13 0-.26-.02-.39-.07-.37-.16-.61-.52-.61-.93v-8.39c0-.56.44-1 1-1h8.39c.41 0 .77.24.93.61.15.38.07.81-.22 1.09" style="fill:#193d8d"/><path d="M46.338 12.41h-29.95c-.55 0-1 .45-1 1V49c0 .56.45 1 1 1h18.74c-.11-.32-.18-.65-.18-1v-8.39c0-1.65 1.35-3 3-3h8.39c.35 0 .69.07 1 .18V13.41c0-.55-.44-1-1-1m-14.97 31.35h-10.55c-.55 0-1-.45-1-1 0-.56.45-1 1-1h10.55c.55 0 1 .44 1 1 0 .55-.45 1-1 1m0-5.39h-10.55c-.55 0-1-.45-1-1 0-.56.45-1 1-1h10.55c.55 0 1 .44 1 1 0 .55-.45 1-1 1m9.34-5.39h-19.89c-.55 0-1-.45-1-1 0-.56.45-1 1-1h19.89c.55 0 1 .44 1 1 0 .55-.45 1-1 1m0-5.39h-19.89c-.55 0-1-.45-1-1 0-.56.45-1 1-1h19.89c.55 0 1 .44 1 1 0 .55-.45 1-1 1m0-5.39h-19.89c-.55 0-1-.45-1-1 0-.56.45-1 1-1h19.89c.55 0 1 .44 1 1 0 .55-.45 1-1 1" style="fill:#193d8d"/><path d="M34.888 3v1.18h-24.73c-1.65 0-3 1.35-3 3v30.36h-1.5c-.56 0-1-.44-1-1V3c0-.55.44-1 1-1h28.23c.55 0 1 .45 1 1" style="fill:#193d8d"/><path d="M41.118 7.18v3.23h-24.73c-1.65 0-3 1.35-3 3v30.36h-3.23c-.55 0-1-.45-1-1V7.18c0-.55.45-1 1-1h29.96c.55 0 1 .45 1 1" style="fill:#193d8d"/></svg>