<svg xmlns="http://www.w3.org/2000/svg" viewBox="0 0 48.9 48.97"><path d="M44.9 0h-20c-2.21 0-4 1.79-4 4v16h4c2.21 0 4 1.79 4 4v4h16c2.21 0 4-1.79 4-4V4c0-2.21-1.79-4-4-4Z"/><path d="m29.75 13.33 4.11 4.1 6.53-6.53M9.92 32.49l4.11 4.11 6.53-6.54" fill="none" stroke="#fff" stroke-linecap="square" stroke-miterlimit="10" stroke-width="4"/><path d="M24 20.97H4c-2.21 0-4 1.79-4 4v20c0 2.21 1.79 4 4 4h20c2.21 0 4-1.79 4-4v-20c0-2.21-1.79-4-4-4Z"/><path d="m8.85 34.3 4.11 4.1 6.53-6.53" fill="none" stroke="#fff" stroke-linecap="square" stroke-miterlimit="10" stroke-width="4"/></svg>