<svg xmlns="http://www.w3.org/2000/svg" viewBox="0 0 1000 925.424"><g data-name="Home Shield"><path fill="#d8e1ef" d="M901.8 196.946 516.16 4.125a38.564 38.564 0 0 0-34.708 0L95.81 196.945a38.564 38.564 0 0 0-21.21 34.323V809.73a115.693 115.693 0 0 0 115.693 115.692H807.32a115.693 115.693 0 0 0 115.69-115.691V231.268a38.564 38.564 0 0 0-21.21-34.322Z"/><path d="M691.626 385.525c-124.948 0-157.342-54.376-158.499-55.918a38.564 38.564 0 0 0-34.322-21.21 36.25 36.25 0 0 0-34.708 20.053s-25.452 42.42-112.607 53.99a347.078 347.078 0 0 1-45.506 3.085 38.564 38.564 0 0 0-38.564 38.564v74.814a269.95 269.95 0 0 0 169.682 250.668l47.434 18.896a38.564 38.564 0 0 0 28.538 0l47.434-18.896A269.95 269.95 0 0 0 730.19 498.903V424.09a38.564 38.564 0 0 0-38.564-38.564z" class="cls-2"/><path d="M961.575 308.396a35.865 35.865 0 0 1-17.354-4.242L498.805 81.64 53.389 304.154A38.564 38.564 0 0 1 18.68 235.51L481.45 4.125a38.564 38.564 0 0 1 34.708 0l462.77 231.385a38.564 38.564 0 0 1 16.968 51.676 38.564 38.564 0 0 1-34.322 21.21Z" class="cls-2"/></g></svg>