<svg xmlns="http://www.w3.org/2000/svg" viewBox="0 0 500 416"><path d="M409.8 112.8c-31.1 0-56.4 25.3-56.4 56.5s25.3 56.3 56.4 56.3 56.5-25.3 56.5-56.3-25.4-56.5-56.5-56.5Zm-319.6 0c-31.1 0-56.5 25.3-56.5 56.5s25.3 56.3 56.5 56.3 56.4-25.3 56.4-56.3-25.3-56.5-56.4-56.5ZM249.9 0c-46 0-83.5 37.4-83.5 83.4s37.4 83.5 83.5 83.5 83.5-37.5 83.5-83.5C333.5 37.4 296 0 249.9 0Zm130.9 416v-96c0-72.2-58.7-130.9-130.8-130.9S119.1 247.8 119.1 320v96h261.7Zm20.7-34H500v-44.3c0-49.8-40.5-90.2-90.3-90.2-8.9 0-17.3 1.7-25.4 4.1 10.6 20.7 17.1 43.7 17.1 68.4v62h.1Zm-303.1 0v-62c0-24.8 6.5-47.8 17.1-68.4-8-2.4-16.4-4.1-25.3-4.1-49.7 0-90.2 40.4-90.2 90.2V382h98.4Z"/><path d="M250 189.1V416h130.8v-96c0-72.1-58.7-130.8-130.8-130.9ZM250 0v167c46 0 83.4-37.5 83.4-83.5C333.5 37.4 296 0 250 0Z"/></svg>