<svg xmlns="http://www.w3.org/2000/svg" xml:space="preserve" viewBox="0 0 49 49"><path fill="#84DBFF" d="M32.7 14c-.3-1.2-.8-2.4-1.4-3.5l1.2-2.8-4.2-4.1-2.8 1.2c-1.1-.6-2.2-1.1-3.5-1.4L21 .5h-5.9L14 3.4c-1.2.3-2.4.8-3.5 1.4L7.7 3.6 3.6 7.7l1.2 2.8c-.6 1.1-1.1 2.2-1.4 3.5L.5 15.1V21l2.9 1.1c.3 1.2.8 2.4 1.4 3.5l-1.2 2.8 4.2 4.1 2.8-1.2c1.1.6 2.2 1.1 3.5 1.4l1.1 2.9H21l1.1-2.9c1.2-.3 2.4-.8 3.5-1.4l2.8 1.2 4.2-4.1-1.2-2.8c.6-1.1 1.1-2.2 1.4-3.5l2.9-1.1v-5.9zM18 25.2c-4 0-7.2-3.2-7.2-7.2s3.2-7.2 7.2-7.2 7.2 3.2 7.2 7.2-3.2 7.2-7.2 7.2"/><path fill="#54C0EB" d="M23.1 23.1c-2.8 2.8-7.3 2.8-10.1 0l-2.6 2.6c4.2 4.2 11.1 4.2 15.3 0s4.2-11 0-15.3L23.1 13c2.8 2.8 2.8 7.3 0 10.1M10.4 10.4c-4.2 4.2-4.2 11 0 15.3l2.6-2.6c-2.8-2.8-2.8-7.3 0-10.1s7.3-2.8 10.1 0l2.6-2.6c-4.2-4.2-11.1-4.2-15.3 0"/><path fill="#4CDBC4" d="M34.4 41.5c.1-.6.1-1.1 0-1.7l1-1-1-2.5H33c-.3-.4-.8-.8-1.2-1.2v-1.4l-2.5-1-1 1c-.6-.1-1.1-.1-1.7 0l-1-1-2.5 1v1.4c-.4.3-.8.8-1.2 1.2h-1.4l-1 2.5 1 1c-.1.6-.1 1.1 0 1.7l-1 1 1 2.5h1.4c.3.4.8.8 1.2 1.2v1.4l2.5 1 1-1c.6.1 1.1.1 1.7 0l1 1 2.5-1v-1.4c.4-.3.8-.8 1.2-1.2h1.4l1-2.5zm-8 2.1c-1.7-.7-2.5-2.6-1.8-4.2.7-1.7 2.6-2.5 4.2-1.8 1.7.7 2.5 2.6 1.8 4.2-.7 1.7-2.6 2.5-4.2 1.8"/><path fill="#FF7058" d="M47.5 28.4c.1-.6.1-1.1 0-1.7l1-1-1-2.5h-1.4c-.3-.4-.8-.8-1.2-1.2v-1.4l-2.5-1-1 1c-.6-.1-1.1-.1-1.7 0l-1-1-2.5 1V22c-.4.3-.8.8-1.2 1.2h-1.4l-1 2.5 1 1c-.1.6-.1 1.1 0 1.7l-1 1 1 2.5H35c.3.4.8.8 1.2 1.2v1.4l2.5 1 1-1c.6.1 1.1.1 1.7 0l1 1 2.5-1v-1.4c.4-.3.8-.8 1.2-1.2h1.4l1-2.5zm-8.1 2.2c-1.7-.7-2.5-2.6-1.8-4.2.7-1.7 2.6-2.5 4.2-1.8 1.7.7 2.5 2.6 1.8 4.2-.6 1.7-2.5 2.5-4.2 1.8"/></svg>