<svg xmlns="http://www.w3.org/2000/svg" xml:space="preserve" viewBox="0 0 512 512"><path d="m466.465 151.39 18.54 57.07-48.75 26.25c.987 11.042.985 21.567 0 32.57l48.75 26.26-18.54 57.06-54.85-7.41c-5.6 9.37-12.02 18.18-19.17 26.35l24.01 49.9-48.54 35.27-40.01-38.23c-9.91 4.25-20.28 7.64-31.01 10.07l-9.9 54.45h-60l-9.9-54.45c-10.73-2.43-21.1-5.82-31.01-10.07l-40.01 38.23-48.54-35.27 24.01-49.9a181 181 0 0 1-19.17-26.35l-54.85 7.41-18.54-57.06 48.75-26.26c-.985-11.001-.987-21.526 0-32.57l-48.75-26.25 18.54-57.07 54.85 7.41c5.6-9.36 12.02-18.18 19.17-26.34l-24.01-49.9 48.54-35.27 40.01 38.23a178 178 0 0 1 31.01-10.08l9.9-54.44h60l9.9 54.44a178 178 0 0 1 31.01 10.08l40.01-38.23 48.54 35.27-24.01 49.9c7.15 8.16 13.57 16.98 19.17 26.34zm.53-90.39c5.52 0 10 4.48 10 10s-4.48 10-10 10-10-4.48-10-10 4.48-10 10-10m-20 390c5.52 0 10 4.48 10 10s-4.48 10-10 10-10-4.48-10-10 4.48-10 10-10" style="fill:#ff641a"/><path d="M386.995 251c0 71.8-58.2 130-130 130s-130-58.2-130-130 58.2-130 130-130 130 58.2 130 130" style="fill:#fff5f5"/><path d="M96.995 471c5.52 0 10 4.48 10 10s-4.48 10-10 10-10-4.48-10-10 4.48-10 10-10m-40-410c5.52 0 10 4.48 10 10s-4.48 10-10 10-10-4.48-10-10 4.48-10 10-10m-20 320c5.52 0 10 4.48 10 10s-4.48 10-10 10-10-4.48-10-10 4.48-10 10-10" style="fill:#ff641a"/><path d="M391.995 251c0-74.982-61.12-135-135-135-23.986 0-47.196 6.335-67.5 18.08-.119.069-.217.159-.328.236a136 136 0 0 0-48.9 48.931c-.058.087-.129.161-.182.253-.043.074-.065.154-.103.229-11.437 19.817-17.987 42.793-17.987 67.271s6.55 47.454 17.987 67.271c.039.075.06.155.103.229.083.144.179.276.274.409a136 136 0 0 0 48.883 48.819c.087.058.161.129.253.182.106.062.217.108.326.16 40.594 23.383 91.945 24.425 134.348 0 .109-.053.22-.099.326-.161.092-.053.166-.124.253-.182C365.986 343.7 391.995 299.618 391.995 251m-68.238 105.632L311.325 335.1a4.996 4.996 0 0 0-6.83-1.83 5 5 0 0 0-1.83 6.83l12.438 21.544a124.1 124.1 0 0 1-53.108 14.248V351a5 5 0 1 0-10 0v24.891c-19.108-.756-37.126-5.819-53.109-14.248l12.439-21.544a5 5 0 0 0-1.83-6.83 4.996 4.996 0 0 0-6.83 1.83l-12.432 21.532a126 126 0 0 1-38.87-38.87l21.532-12.432a4.999 4.999 0 1 0-5-8.66l-21.544 12.439a124.1 124.1 0 0 1-14.248-53.109h24.891a5 5 0 1 0 0-10h-24.891a124.1 124.1 0 0 1 14.248-53.109l21.544 12.439a5 5 0 1 0 5-8.66l-21.532-12.432a126 126 0 0 1 38.874-38.872l12.428 21.532a5 5 0 0 0 6.83 1.831 5 5 0 0 0 1.831-6.829l-12.436-21.546a124.1 124.1 0 0 1 53.105-14.246V151a5 5 0 1 0 10 0v-24.891a124.1 124.1 0 0 1 53.105 14.246l-12.435 21.546a5 5 0 0 0 1.831 6.829 4.996 4.996 0 0 0 6.829-1.831l12.428-21.533a126 126 0 0 1 38.874 38.872l-21.532 12.432a4.999 4.999 0 0 0 2.505 9.331c.848 0 1.708-.216 2.495-.671l21.544-12.439A124.1 124.1 0 0 1 381.887 246h-24.891c-2.762 0-5 2.238-5 5s2.238 5 5 5h24.891a124.1 124.1 0 0 1-14.248 53.109l-21.544-12.439a4.996 4.996 0 0 0-6.83 1.83 5 5 0 0 0 1.83 6.83l21.532 12.432a126 126 0 0 1-38.87 38.87" style="fill:#efe2dd"/><path d="M256.995 256h-50a5 5 0 1 1 0-10h45v-55a5 5 0 1 1 10 0v60a5 5 0 0 1-5 5" style="fill:#345891"/></svg>