<svg xmlns="http://www.w3.org/2000/svg" width="100" height="100" fill-rule="evenodd" stroke-linejoin="bevel" stroke-width=".501" overflow="visible" viewBox="0 0 75 75">
  <g fill="none" stroke="#000" font-family="Times New Roman" font-size="16">
    <path fill="#ff436f" stroke-linecap="round" stroke-linejoin="round" stroke-miterlimit="79.84" stroke-width="1.111" d="M5.033 51.867c2.516 6.171 8.428 13.592 15.206 17.072 9.093 4.667 19.693 7.222 30.492 3.229 6.611-2.442 12.57-7.736 15.898-13.95 3.899-7.28 4.342-16.369 3.282-24.56-1.422-8.373-4.378-12.941-7.794-18.938C59.312 9.794 54.897.66 51.552.854c-2.618.36-2.29 5.824-3.008 8.599-2.783-.297-9.348 1.422-12.083 2.283-.47-1.088-3.063-6.424-5.58-6.373-4.211 2.073-2.275 23.685.957 28.195-3.081-.379-5.624 2.183-4.669 5.799-.944.48-3.218 3.308-3.373 3.33-.009-1.126-.932-5.28-1.996-7.737-.655-1.517-2.954-3.287-5.688-1.771-2.137 1.187-.931 3.794-.056 4.099.188.472 1.15.354 1.15 1.517-.219 2.27-1.861 3.996-2.681 6.929-.807 2.893.148 7.289 1.667 9.48-.946-1.243-2.123-2.363-2.954-4.449-2.917-7.32-2.83-14.868.875-21.245 1.54-2.65 7.35-6.028 6.236-9.405-1.226-3.723-6.812-2.238-9.409-.203-2.242 1.755-5.701 7.135-6.783 11.432-1.671 6.643-1.585 15.049.876 20.533Z"/>
    <path fill="#ff9e9e" stroke="none" d="M28.88 60.441c-4.922-1.171-7.052-6.186-5.221-10.868 1.41-3.605 5.146-4.681 7.564-7.351.686-.758 1.505-1.647 2.295-2.542-.685-3.46 1.034-3.324 3.193-4.233 2.459-4.515 1.756-8.81 8.365-11.02 5.74-1.919 10.319 5.321 11.52 10.472-4.603-1.243-9.999 5.394-6.198 7.125 1.993.907 4.15-1.431 6.756-1.664.036 5.788-1.756 10.431-4.889 13.85-1.351-4.535-7.029-6.478-12.406-6.862.327-3.727 2.3-15.686-5.769-11.092-1.584.9-.483 5.727-.888 7.32-.261 1.02-1.625 5.597-.778 6.436 4.361 4.31 3.896 7.54-1.782 10.921a8.094 8.094 0 0 1-1.762-.492Z"/>
    <path stroke-linecap="round" stroke-linejoin="round" stroke-miterlimit="79.84" stroke-width="1.111" d="M53.201 56.445c-1.24-4.649-8.94-10.742-13.457-9.104 1.913-2.478 1.422-13.756-4.484-11.53-3.374 1.27-.676 5.48-1.369 7.182-.724 1.775-3.077 7.848-.767 8.446 4.103 1.062 3.192 7.441-1.914 9.002M58.226 40.518c-2.76-.775-3.531 1.848-5.646 2.254-3.393.652-3.931-2.859-2.958-5.013 1.315-2.913 6.189-4.216 9.541-1.89M20.979 52.147c-1.245-3.53.874-7.379 3.448-9.965M27.216 39.25a.296.296 0 0 1 .11.254c.673.899 2.246 1.26 3.118.454M25.193 27.212c1.29-.448 2.577-.368 3.938-.303M25.849 29.893c.855-.492 2.679-1.156 3.665-1.316M65.454 20.082c1.279-.495 2.254-1.168 3.61-1.52M66.22 22.104c.12.047.212.031.274-.051 1.326-.289 2.632-.573 3.993-.808M33.507 25.542c1.701-2.695 5.354-3.122 8.041-1.313M49.21 22.63c1.145-2.648 5.731-3.133 7.944-1.362M42.314 27.365c.907 1.736 5.138.23 3.556-2.176.519 2.378 4.392 2.533 4.541-.051"/>
    <path fill="#ff9e9e" stroke="none" d="M30.891 16.884c-.392-1.363-.973-5.204.108-5.92.7.464 1.987 3.742 1.981 4.546-.319.23-1.623 1.459-2.054 1.498l-.035-.124ZM52.642 10.983c-.347-1.317-.787-3.652-.137-4.571 1.527.019 3.685 5.141 3.8 6.241-1.361.526-2.704-1.329-3.578-1.359a13.553 13.553 0 0 1-.085-.311Z"/>
  </g>
</svg>
