<svg width="20" height="21" viewBox="0 0 20 21" fill="none" xmlns="http://www.w3.org/2000/svg">
<g clip-path="url(#clip0_417_3071)">
<path d="M10 0.371094C4.64844 0.371094 0.3125 4.70703 0.3125 10.0586C0.3125 15.4102 4.64844 19.7461 10 19.7461C15.3516 19.7461 19.6875 15.4102 19.6875 10.0586C19.6875 4.70703 15.3516 0.371094 10 0.371094ZM14.75 12.6016C14.9336 12.7852 14.9336 13.082 14.75 13.2656L13.2031 14.8086C13.0195 14.9922 12.7227 14.9922 12.5391 14.8086L10 12.2461L7.45703 14.8086C7.27344 14.9922 6.97656 14.9922 6.79297 14.8086L5.25 13.2617C5.06641 13.0781 5.06641 12.7812 5.25 12.5977L7.8125 10.0586L5.25 7.51562C5.06641 7.33203 5.06641 7.03516 5.25 6.85156L6.79688 5.30469C6.98047 5.12109 7.27734 5.12109 7.46094 5.30469L10 7.87109L12.543 5.30859C12.7266 5.125 13.0234 5.125 13.207 5.30859L14.7539 6.85547C14.9375 7.03906 14.9375 7.33594 14.7539 7.51953L12.1875 10.0586L14.75 12.6016Z" fill="#FAFAFA"/>
</g>
<defs>
<clipPath id="clip0_417_3071">
<rect y="0.0585938" width="20" height="20" rx="10" fill="white"/>
</clipPath>
</defs>
</svg>
