<svg width="39" height="39" viewBox="0 0 39 39" fill="none" xmlns="http://www.w3.org/2000/svg">
<path d="M24.375 37.7812H2.4375C1.76413 37.7812 1.21875 37.2359 1.21875 36.5625V6.09375C1.21875 5.42038 1.76413 4.875 2.4375 4.875H24.375C25.0484 4.875 25.5938 5.42038 25.5938 6.09375V36.5625C25.5938 37.2359 25.0484 37.7812 24.375 37.7812ZM3.65625 35.3437H23.1562V7.3125H3.65625V35.3437Z" fill="#214FBD"/>
<path d="M36.5625 37.7812H24.375C23.7016 37.7812 23.1562 37.2359 23.1562 36.5625V19.5C23.1562 18.8266 23.7016 18.2812 24.375 18.2812H36.5625C37.2359 18.2812 37.7812 18.8266 37.7812 19.5V36.5625C37.7812 37.2359 37.2359 37.7812 36.5625 37.7812ZM25.5938 35.3438H35.3438V20.7188H25.5938V35.3438Z" fill="#214FBD"/>
<path d="M18.2812 37.7812H8.53125C7.85788 37.7812 7.3125 37.2359 7.3125 36.5625V28.0312C7.3125 27.3579 7.85788 26.8125 8.53125 26.8125H18.2812C18.9546 26.8125 19.5 27.3579 19.5 28.0312V36.5625C19.5 37.2359 18.9546 37.7812 18.2812 37.7812ZM9.75 35.3438H17.0625V29.25H9.75V35.3438Z" fill="#214FBD"/>
<path d="M7.3125 7.3125C6.63913 7.3125 6.09375 6.76712 6.09375 6.09375V2.4375C6.09375 1.76413 6.63913 1.21875 7.3125 1.21875C7.98587 1.21875 8.53125 1.76413 8.53125 2.4375V6.09375C8.53125 6.76712 7.98587 7.3125 7.3125 7.3125Z" fill="#214FBD"/>
<path d="M12.1875 7.3125C11.5141 7.3125 10.9688 6.76712 10.9688 6.09375V2.4375C10.9688 1.76413 11.5141 1.21875 12.1875 1.21875C12.8609 1.21875 13.4062 1.76413 13.4062 2.4375V6.09375C13.4062 6.76712 12.8609 7.3125 12.1875 7.3125Z" fill="#214FBD"/>
<path d="M14.625 12.1875H12.1875C11.5141 12.1875 10.9688 11.6421 10.9688 10.9688C10.9688 10.2954 11.5141 9.75 12.1875 9.75H14.625C15.2984 9.75 15.8438 10.2954 15.8438 10.9688C15.8438 11.6421 15.2984 12.1875 14.625 12.1875Z" fill="#214FBD"/>
<path d="M20.7187 12.1875H18.2812C17.6079 12.1875 17.0625 11.6421 17.0625 10.9688C17.0625 10.2954 17.6079 9.75 18.2812 9.75H20.7187C21.3921 9.75 21.9375 10.2954 21.9375 10.9688C21.9375 11.6421 21.3921 12.1875 20.7187 12.1875Z" fill="#214FBD"/>
<path d="M8.53125 12.1875H6.09375C5.42038 12.1875 4.875 11.6421 4.875 10.9688C4.875 10.2954 5.42038 9.75 6.09375 9.75H8.53125C9.20462 9.75 9.75 10.2954 9.75 10.9688C9.75 11.6421 9.20462 12.1875 8.53125 12.1875Z" fill="#214FBD"/>
<path d="M14.625 18.2812H12.1875C11.5141 18.2812 10.9688 17.7359 10.9688 17.0625C10.9688 16.3891 11.5141 15.8438 12.1875 15.8438H14.625C15.2984 15.8438 15.8438 16.3891 15.8438 17.0625C15.8438 17.7359 15.2984 18.2812 14.625 18.2812Z" fill="#214FBD"/>
<path d="M20.7187 18.2812H18.2812C17.6079 18.2812 17.0625 17.7359 17.0625 17.0625C17.0625 16.3891 17.6079 15.8438 18.2812 15.8438H20.7187C21.3921 15.8438 21.9375 16.3891 21.9375 17.0625C21.9375 17.7359 21.3921 18.2812 20.7187 18.2812Z" fill="#214FBD"/>
<path d="M8.53125 18.2812H6.09375C5.42038 18.2812 4.875 17.7359 4.875 17.0625C4.875 16.3891 5.42038 15.8438 6.09375 15.8438H8.53125C9.20462 15.8438 9.75 16.3891 9.75 17.0625C9.75 17.7359 9.20462 18.2812 8.53125 18.2812Z" fill="#214FBD"/>
<path d="M14.625 24.375H12.1875C11.5141 24.375 10.9688 23.8296 10.9688 23.1562C10.9688 22.4829 11.5141 21.9375 12.1875 21.9375H14.625C15.2984 21.9375 15.8438 22.4829 15.8438 23.1562C15.8438 23.8296 15.2984 24.375 14.625 24.375Z" fill="#214FBD"/>
<path d="M20.7187 24.375H18.2812C17.6079 24.375 17.0625 23.8296 17.0625 23.1562C17.0625 22.4829 17.6079 21.9375 18.2812 21.9375H20.7187C21.3921 21.9375 21.9375 22.4829 21.9375 23.1562C21.9375 23.8296 21.3921 24.375 20.7187 24.375Z" fill="#214FBD"/>
<path d="M8.53125 24.375H6.09375C5.42038 24.375 4.875 23.8296 4.875 23.1562C4.875 22.4829 5.42038 21.9375 6.09375 21.9375H8.53125C9.20462 21.9375 9.75 22.4829 9.75 23.1562C9.75 23.8296 9.20462 24.375 8.53125 24.375Z" fill="#214FBD"/>
<path d="M32.9062 25.5938H28.0312C27.3579 25.5938 26.8125 25.0484 26.8125 24.375C26.8125 23.7016 27.3579 23.1562 28.0312 23.1562H32.9062C33.5796 23.1562 34.125 23.7016 34.125 24.375C34.125 25.0484 33.5796 25.5938 32.9062 25.5938Z" fill="#214FBD"/>
<path d="M32.9062 30.4688H28.0312C27.3579 30.4688 26.8125 29.9234 26.8125 29.25C26.8125 28.5766 27.3579 28.0312 28.0312 28.0312H32.9062C33.5796 28.0312 34.125 28.5766 34.125 29.25C34.125 29.9234 33.5796 30.4688 32.9062 30.4688Z" fill="#214FBD"/>
</svg>
