<svg width="26" height="26" viewBox="0 0 26 26" fill="none" xmlns="http://www.w3.org/2000/svg">
<path d="M24.8546 10.9755L22.9091 10.6184C22.6778 9.58437 22.2763 8.59949 21.7122 7.68364L23.0848 5.95192C23.213 5.79025 23.1995 5.55817 23.0535 5.41237L20.5874 2.9465C20.4406 2.79991 20.2086 2.78722 20.0475 2.91556L18.2975 4.30569C17.3894 3.75861 16.4115 3.36148 15.3828 3.12225L15.0249 1.14635C14.9896 0.95314 14.8214 0.8125 14.625 0.8125H11.375C11.1786 0.8125 11.0104 0.95314 10.9751 1.14635L10.6172 3.12225C9.57544 3.36446 8.5856 3.76872 7.66757 4.32672L5.9057 3.28987C5.74661 3.19585 5.54349 3.22163 5.41257 3.35275L3.35275 5.41237C3.22223 5.54289 3.19604 5.74522 3.28928 5.90471L4.30966 7.64853C3.73401 8.5743 3.32498 9.57108 3.09091 10.6184L1.14536 10.9755C0.952545 11.0108 0.8125 11.1788 0.8125 11.375V14.625C0.8125 14.8222 0.954132 14.9908 1.14813 15.0251L3.19366 15.3857C3.45868 16.3641 3.87802 17.2944 4.44296 18.1581L2.91794 20.0447C2.78702 20.2064 2.79971 20.4404 2.9465 20.5874L5.41257 23.0535C5.56015 23.2011 5.79541 23.2122 5.95688 23.0809L7.96155 21.4424C8.79626 21.9095 9.68454 22.2543 10.6093 22.4699L10.9735 24.8427C11.0037 25.0411 11.1743 25.1875 11.375 25.1875H14.625C14.8257 25.1875 14.9963 25.0411 15.0265 24.8427L15.3907 22.4699C16.3178 22.2537 17.2085 21.9077 18.0448 21.4388L19.6448 22.681C19.8063 22.8061 20.036 22.7923 20.1812 22.6472L22.6472 20.1812C22.7913 20.0374 22.8063 19.8092 22.683 19.6476L21.5523 18.1654C22.1196 17.2995 22.5405 16.3668 22.8063 15.3857L24.8519 15.0251C25.0459 14.9908 25.1875 14.8222 25.1875 14.625V11.375C25.1875 11.1788 25.0475 11.0108 24.8546 10.9755ZM24.375 14.2842L22.4072 14.6311C22.2481 14.6593 22.1208 14.7789 22.0831 14.936C21.8244 16.008 21.3654 17.021 20.7188 17.947C20.6176 18.092 20.6219 18.2856 20.7291 18.4261L21.8217 19.8578L19.8602 21.8195L18.3273 20.6293C18.1952 20.5265 18.0143 20.5158 17.8698 20.6013C16.9605 21.1438 15.9782 21.5251 14.9503 21.7344C14.7833 21.7683 14.6555 21.9026 14.6298 22.071L14.2763 24.375H11.7237L11.3702 22.071C11.3445 21.9026 11.2167 21.7683 11.0497 21.7344C10.0218 21.5251 9.03946 21.1438 8.13016 20.6013C7.98297 20.5138 7.7973 20.5275 7.66479 20.6356L5.72717 22.2192L3.77963 20.2714L5.26379 18.4352C5.37766 18.2943 5.3848 18.0954 5.28125 17.947C4.63458 17.021 4.17557 16.008 3.9169 14.936C3.87921 14.7789 3.75186 14.6593 3.59277 14.6311L1.625 14.2842V11.7134L3.50629 11.3683C3.67093 11.3381 3.80026 11.21 3.8316 11.0457C4.04861 9.92119 4.48383 8.85657 5.12534 7.88101C5.20984 7.75188 5.2142 7.58604 5.13644 7.45274L4.14899 5.76506L5.76486 4.14958L7.46802 5.15192C7.60013 5.22987 7.76517 5.2267 7.89331 5.14378C8.86371 4.52092 9.92575 4.08868 11.0501 3.85938C11.2127 3.82605 11.3389 3.69711 11.3687 3.53366L11.7142 1.625H14.2858L14.6313 3.53366C14.6611 3.69711 14.7873 3.82605 14.9499 3.85938C16.0742 4.08868 17.1363 4.52092 18.1067 5.14378C18.2527 5.23761 18.4423 5.22829 18.5788 5.11998L20.2693 3.77725L22.2231 5.73094L20.8957 7.40553C20.787 7.5428 20.7787 7.73462 20.8747 7.88101C21.5162 8.85657 21.9514 9.92119 22.1684 11.0457C22.1997 11.21 22.3291 11.3381 22.4937 11.3683L24.375 11.7134V14.2842Z" />
<path d="M13 4.875C8.51974 4.875 4.875 8.51994 4.875 13C4.875 17.4801 8.51974 21.125 13 21.125C17.4803 21.125 21.125 17.4801 21.125 13C21.125 8.51994 17.4803 4.875 13 4.875ZM13 20.3125C8.96805 20.3125 5.6875 17.0322 5.6875 13C5.6875 8.96785 8.96805 5.6875 13 5.6875C17.032 5.6875 20.3125 8.96785 20.3125 13C20.3125 17.0322 17.032 20.3125 13 20.3125Z" />
<path d="M13 9.34375C10.9838 9.34375 9.34375 10.984 9.34375 13C9.34375 15.016 10.9838 16.6562 13 16.6562C15.0162 16.6562 16.6562 15.016 16.6562 13C16.6562 10.984 15.0162 9.34375 13 9.34375ZM13 15.8438C11.4321 15.8438 10.1562 14.5681 10.1562 13C10.1562 11.4319 11.4321 10.1562 13 10.1562C14.5679 10.1562 15.8438 11.4319 15.8438 13C15.8438 14.5681 14.5679 15.8438 13 15.8438Z" />
</svg>
