<svg width="27" height="27" viewBox="0 0 27 27" fill="none" xmlns="http://www.w3.org/2000/svg">
<g clip-path="url(#clip0_412_4549)">
<path d="M9.67719 7.66799C9.67832 7.66912 9.67832 7.67024 9.67944 7.67024L14.7431 11.1971L7.02557 21.6304C6.83994 21.8801 6.89282 22.2322 7.14257 22.4167C7.24269 22.491 7.36082 22.527 7.47669 22.527C7.64994 22.527 7.81982 22.4482 7.92894 22.2997L15.6667 11.8406L20.7573 15.3866C20.7573 15.3866 20.7573 15.3866 20.7584 15.3866L24.4496 17.9584C24.5474 18.027 24.6588 18.0596 24.7702 18.0596C24.9479 18.0596 25.1234 17.9752 25.2314 17.8177C26.8706 15.4665 27.3937 12.5516 26.7063 9.61087C26.0257 6.69487 24.2302 4.09949 21.6551 2.30287C21.6517 2.30062 21.6506 2.29724 21.6483 2.29612C21.6449 2.29387 21.6427 2.29387 21.6393 2.29274C16.2978 -1.42538 9.21369 -0.519758 5.84657 4.31437C5.76107 4.43699 5.72844 4.58887 5.75432 4.73512C5.78132 4.88249 5.86457 5.01187 5.98719 5.09737L9.67719 7.66799ZM23.9827 6.20324C24.7499 7.31924 25.3057 8.55787 25.6117 9.86737C26.1798 12.2985 25.8254 14.7049 24.6161 16.704L21.8452 14.7735C23.2582 12.5854 24.0648 10.1767 24.1098 7.93124C24.1222 7.32374 24.0772 6.74662 23.9827 6.20324ZM20.5188 2.93399L17.6501 7.05262C17.4734 7.30799 17.5353 7.65787 17.7907 7.83562C17.8886 7.90424 17.9999 7.93687 18.1113 7.93687C18.2891 7.93687 18.4634 7.85249 18.5737 7.69499L21.4424 3.57637C22.4786 4.53824 23.0242 6.05137 22.9859 7.90874C22.9443 9.93824 22.2176 12.1309 20.9294 14.1356L10.7932 7.07399C12.2287 5.17049 14.0332 3.72937 15.9221 2.98799C17.6501 2.30737 19.2577 2.29499 20.5188 2.93399ZM17.1539 1.46587C16.6173 1.56487 16.0683 1.72124 15.5092 1.94062C13.4178 2.76187 11.4389 4.35262 9.87519 6.43612L7.10657 4.50674C9.42519 1.60199 13.3694 0.519741 17.1539 1.46587ZM26.1247 19.2172L19.5164 23.6227H2.81132C2.66169 23.6227 2.51882 23.6824 2.41307 23.7881L0.163066 26.0381C-0.0563086 26.2575 -0.0563086 26.6141 0.163066 26.8335C0.273316 26.9426 0.417316 26.9977 0.561316 26.9977C0.705316 26.9977 0.849316 26.9426 0.958441 26.8335L3.04419 24.7477H19.4523L21.5381 26.8335C21.6483 26.9426 21.7923 26.9977 21.9363 26.9977C22.0803 26.9977 22.2243 26.9426 22.3334 26.8335C22.5528 26.6141 22.5528 26.2575 22.3334 26.0381L20.5683 24.273L26.7479 20.1532C27.0067 19.9811 27.0764 19.6324 26.9043 19.3736C26.7322 19.1149 26.3834 19.0451 26.1247 19.2172Z" fill="#FBFDFF"/>
</g>
<defs>
<clipPath id="clip0_412_4549">
<rect width="27" height="27" fill="white"/>
</clipPath>
</defs>
</svg>
