<svg width="21" height="26" viewBox="0 0 21 26" fill="none" xmlns="http://www.w3.org/2000/svg">
<path d="M14 3.5C14 1.56995 12.43 0 10.5001 0C8.57026 0 7 1.56995 7 3.5C7 5.43005 8.57026 7 10.5001 7C12.43 7 14 5.43005 14 3.5ZM8.0048 3.5C8.0048 2.12433 9.12415 1.00477 10.5001 1.00477C11.8758 1.00477 12.9952 2.12433 12.9952 3.5C12.9952 4.87567 11.8758 5.99523 10.5001 5.99523C9.12415 5.99523 8.0048 4.87567 8.0048 3.5Z" fill="#FBFDFF"/>
<path d="M17.5 10C19.4299 10 21 8.42962 21 6.5C21 4.57035 19.4299 3 17.5 3C15.5701 3 14 4.57035 14 6.5C14 8.42962 15.5701 10 17.5 10ZM17.5 4.13724C18.8027 4.13724 19.8628 5.19727 19.8628 6.5C19.8628 7.80273 18.8027 8.86276 17.5 8.86276C16.1973 8.86276 15.1372 7.80273 15.1372 6.5C15.1372 5.19727 16.1973 4.13724 17.5 4.13724Z" fill="#FBFDFF"/>
<path d="M21 18.379V12.8687C21 11.9332 20.2403 11.1721 19.3066 11.1721H15.3445C15.1054 11.1721 14.8784 11.2232 14.672 11.3132V10.8829C14.672 9.84456 13.829 9 12.7926 9H8.20714C7.17073 9 6.32775 9.84456 6.32775 10.8829V11.3131C6.12141 11.2232 5.89454 11.1721 5.65554 11.1721H1.69315C0.759452 11.1721 0 11.9332 0 12.8687V18.379C0 19.0038 0.394041 19.5382 0.946161 19.746V24.5406C0.946161 25.3452 1.59967 26 2.40278 26H4.94566C5.74899 26 6.40253 25.3452 6.40253 24.5406V19.746C6.84612 19.5791 7.1837 19.1997 7.30085 18.7335C7.34139 18.7511 7.38053 18.7713 7.42274 18.7855V24.3918C7.42274 25.2788 8.14305 26 9.0284 26H11.9713C12.8567 26 13.577 25.2788 13.577 24.3918V18.7855C13.6192 18.7713 13.6584 18.7511 13.6989 18.7335C13.816 19.1997 14.1537 19.5791 14.5975 19.746V24.5406C14.5975 25.3452 15.251 26 16.0541 26H18.597C19.4001 26 20.0536 25.3452 20.0536 24.5406V19.746C20.606 19.5382 21 19.0038 21 18.379ZM6.32775 17.2603V18.379C6.32775 18.6197 6.13233 18.8155 5.89208 18.8155C5.61016 18.8155 5.38159 19.0442 5.38159 19.327V24.5406C5.38159 24.7814 5.18595 24.9771 4.94566 24.9771H2.40278C2.16249 24.9771 1.9671 24.7814 1.9671 24.5406V19.327C1.9671 19.0442 1.73853 18.8155 1.45661 18.8155C1.21633 18.8155 1.02091 18.6197 1.02091 18.379V12.8687C1.02091 12.4971 1.32252 12.1949 1.69315 12.1949H5.65554C6.02617 12.1949 6.32775 12.4971 6.32775 12.8687V17.2603ZM13.651 12.8687V17.2603C13.651 17.5834 13.3888 17.8461 13.0666 17.8461C12.7847 17.8461 12.5561 18.0748 12.5561 18.3575V24.3918C12.5561 24.7144 12.2939 24.9771 11.9713 24.9771H9.0284C8.70587 24.9771 8.44368 24.7144 8.44368 24.3918V18.3575C8.44368 18.0748 8.21511 17.8461 7.93319 17.8461C7.61092 17.8461 7.34869 17.5834 7.34869 17.2603V12.8687V10.8829C7.34869 10.4084 7.7338 10.0229 8.20714 10.0229H12.7926C13.2659 10.0229 13.651 10.4084 13.651 10.8829V12.8687ZM19.9791 18.379C19.9791 18.6197 19.7834 18.8155 19.5431 18.8155C19.2612 18.8155 19.0327 19.0442 19.0327 19.327V24.5406C19.0327 24.7814 18.8373 24.9771 18.597 24.9771H16.0541C15.8138 24.9771 15.6184 24.7814 15.6184 24.5406V19.327C15.6184 19.0442 15.3898 18.8155 15.1079 18.8155C14.8677 18.8155 14.672 18.6197 14.672 18.379V17.2603V12.8687C14.672 12.4971 14.9736 12.1949 15.3445 12.1949H19.3066C19.6775 12.1949 19.9791 12.4971 19.9791 12.8687V18.379Z" fill="#FBFDFF"/>
<path d="M7 6.5C7 4.57035 5.65426 3 3.99988 3C2.34574 3 1 4.57035 1 6.5C1 8.42962 2.34574 10 3.99988 10C5.65426 10 7 8.42962 7 6.5ZM1.97473 6.5C1.97473 5.19727 2.8833 4.13724 3.99988 4.13724C5.11667 4.13724 6.02527 5.19727 6.02527 6.5C6.02527 7.80273 5.11667 8.86276 3.99988 8.86276C2.8833 8.86276 1.97473 7.80273 1.97473 6.5Z" fill="#FBFDFF"/>
</svg>
