<svg width="24" height="24" viewBox="0 0 24 24" fill="none" xmlns="http://www.w3.org/2000/svg">
<path d="M24 9.33267C24 6.942 23.0859 4.54971 21.2671 2.72982C17.6295 -0.909942 11.7151 -0.909942 8.07754 2.72982C4.62932 6.1801 4.43887 11.6876 7.52763 15.3519L0.245461 22.6384C-0.0828772 22.9253 -0.0666304 23.4624 0.203881 23.7454C0.505206 24.0605 1.08116 24.0987 1.37028 23.7722L8.66078 16.4774C12.323 19.5651 17.8199 19.3848 21.2671 15.9355C23.0859 14.1156 24 11.7234 24 9.33267ZM22.4086 9.33267C22.4086 11.3105 21.6471 13.2877 20.134 14.8017C17.1077 17.8298 12.2286 17.8381 9.20236 14.81C6.17607 11.782 6.1761 6.89171 9.20236 3.86365C12.2286 0.835584 17.1077 0.835584 20.134 3.86365C21.6471 5.37768 22.4086 7.35482 22.4086 9.33267Z" fill="#2F478D"/>
</svg>
