<svg width="46" height="46" viewBox="0 0 46 46" fill="none" xmlns="http://www.w3.org/2000/svg">
<path d="M17.2501 6.89941C16.614 6.89941 16.1001 7.41333 16.1001 8.04941V17.2494C16.1001 17.8855 16.614 18.3994 17.2501 18.3994H24.1501C24.7862 18.3994 25.3001 17.8855 25.3001 17.2494C25.3001 16.6133 24.7862 16.0994 24.1501 16.0994H18.4001V8.04941C18.4001 7.41333 17.8862 6.89941 17.2501 6.89941Z" fill="#666666"/>
<path d="M42.5501 22.9992H41.4001V21.8492C41.4001 21.2131 40.8862 20.6992 40.2501 20.6992C39.6141 20.6992 39.1001 21.2131 39.1001 21.8492V22.9992H36.8001V21.8492C36.8001 21.2131 36.2862 20.6992 35.6501 20.6992C35.0141 20.6992 34.5001 21.2131 34.5001 21.8492V22.9992H32.2001V21.8492C32.2001 21.2131 31.6862 20.6992 31.0501 20.6992C30.4141 20.6992 29.9001 21.2131 29.9001 21.8492V22.9992H27.6001V21.8492C27.6001 21.2131 27.0862 20.6992 26.4501 20.6992C25.8141 20.6992 25.3001 21.2131 25.3001 21.8492V22.9992H23.0001V21.8492C23.0001 21.2131 22.4862 20.6992 21.8501 20.6992C21.2141 20.6992 20.7001 21.2131 20.7001 21.8492V22.9992H19.5501C18.9141 22.9992 18.4001 23.5131 18.4001 24.1492V42.5492C18.4001 43.1853 18.9141 43.6992 19.5501 43.6992H42.5501C43.1862 43.6992 43.7001 43.1853 43.7001 42.5492V24.1492C43.7001 23.5131 43.1862 22.9992 42.5501 22.9992ZM41.4001 41.3992H20.7001V25.2992H41.4001V41.3992Z" fill="#666666"/>
<path d="M29.9001 33.3497C29.9001 34.8825 27.6001 34.8825 27.6001 33.3497C27.6001 31.817 29.9001 31.817 29.9001 33.3497Z" fill="#666666"/>
<path d="M34.5 33.3497C34.5 34.8825 32.2 34.8825 32.2 33.3497C32.2 31.817 34.5 31.817 34.5 33.3497Z" fill="#666666"/>
<path d="M34.5 37.9493C34.5 39.4821 32.2 39.4821 32.2 37.9493C32.2 36.4166 34.5 36.4166 34.5 37.9493Z" fill="#666666"/>
<path d="M39.1 33.3497C39.1 34.8825 36.8 34.8825 36.8 33.3497C36.8 31.817 39.1 31.817 39.1 33.3497Z" fill="#666666"/>
<path d="M29.9001 37.9493C29.9001 39.4821 27.6001 39.4821 27.6001 37.9493C27.6001 36.4166 29.9001 36.4166 29.9001 37.9493Z" fill="#666666"/>
<path d="M25.3 37.9493C25.3 39.4821 23 39.4821 23 37.9493C23 36.4166 25.3 36.4166 25.3 37.9493Z" fill="#666666"/>
<path d="M25.3 33.3497C25.3 34.8825 23 34.8825 23 33.3497C23 31.817 25.3 31.817 25.3 33.3497Z" fill="#666666"/>
<path d="M29.9001 28.7501C29.9001 30.2828 27.6001 30.2828 27.6001 28.7501C27.6001 27.2174 29.9001 27.2174 29.9001 28.7501Z" fill="#666666"/>
<path d="M34.5 28.7501C34.5 30.2828 32.2 30.2828 32.2 28.7501C32.2 27.2174 34.5 27.2174 34.5 28.7501Z" fill="#666666"/>
<path d="M39.1 28.7501C39.1 30.2828 36.8 30.2828 36.8 28.7501C36.8 27.2174 39.1 27.2174 39.1 28.7501Z" fill="#666666"/>
<path d="M14.7596 31.9894C14.8243 32.0002 14.8872 32.0056 14.9519 32.0056C15.5035 32.0056 15.9905 31.6085 16.0857 31.0461C16.1917 30.419 15.7676 29.826 15.1423 29.7218C9.03307 28.6958 4.60005 23.4506 4.60005 17.2498C4.60005 10.2744 10.2746 4.5998 17.25 4.5998C24.2255 4.5998 29.9 10.2744 29.9 17.2498C29.9 17.8859 30.414 18.3998 31.05 18.3998C31.6861 18.3998 32.2 17.8859 32.2 17.2498C32.2 9.00568 25.4942 2.2998 17.25 2.2998C9.00593 2.2998 2.30005 9.00568 2.30005 17.2498C2.30005 24.5794 7.53991 30.7766 14.7596 31.9896L14.7596 31.9894Z" fill="#666666"/>
</svg>
