<svg width="52" height="52" viewBox="0 0 52 52" fill="none" xmlns="http://www.w3.org/2000/svg">
<rect x="0.5" y="0.5" width="51" height="51" rx="9.5" stroke="white"/>
<path d="M24.6036 19.7992C24.4747 19.9282 24.4023 20.103 24.4023 20.2853C24.4023 20.4676 24.4747 20.6424 24.6036 20.7714L28.9301 25.0978L24.6036 29.4242C24.4784 29.5539 24.4091 29.7276 24.4107 29.9078C24.4122 30.0881 24.4845 30.2605 24.612 30.388C24.7395 30.5155 24.9119 30.5878 25.0922 30.5893C25.2724 30.5909 25.4461 30.5216 25.5758 30.3964L30.3883 25.5839C30.5171 25.4549 30.5895 25.2801 30.5895 25.0978C30.5895 24.9155 30.5171 24.7407 30.3883 24.6117L25.5758 19.7992C25.4468 19.6704 25.272 19.5979 25.0897 19.5979C24.9074 19.5979 24.7326 19.6704 24.6036 19.7992Z" fill="white"/>
</svg>
