<svg width="66" height="45" viewBox="0 0 66 45" fill="none" xmlns="http://www.w3.org/2000/svg">
<path d="M14.3581 38.1347V43.5534H0V18.9199H5.60334V38.1347H14.3581Z" fill="white"/>
<path d="M25.0001 39.3308C26.4359 39.3308 27.6619 38.7685 28.3623 37.9934L32.5648 40.4221C30.8482 42.8147 28.2573 44.0466 24.9255 44.0466C18.9365 44.0466 15.2246 39.9994 15.2246 34.7564C15.2246 29.5134 19.0175 25.4653 24.5482 25.4653C29.6609 25.4653 33.4437 29.4422 33.4437 34.7564C33.4467 35.4656 33.3764 36.1733 33.2339 36.8679H20.8013C21.4667 38.6972 23.0774 39.3308 25.0001 39.3308ZM28.2215 32.9261C27.6619 30.885 26.0852 30.146 24.5095 30.146C22.5132 30.146 21.1823 31.1319 20.6927 32.9261H28.2215Z" fill="white"/>
<path d="M48.9553 38.2755C48.9553 42.3217 45.4578 44.0466 41.6713 44.0466C38.1738 44.0466 35.5047 42.7093 34.1416 39.8589L38.6948 37.2545C39.1495 38.5918 40.1306 39.3308 41.6713 39.3308C42.9323 39.3308 43.5618 38.9442 43.5618 38.2404C43.5618 36.3046 34.9469 37.3248 34.9469 31.2374C34.9469 27.4011 38.1683 25.4653 41.8112 25.4653C44.6479 25.4653 47.1697 26.7324 48.6405 29.2313L44.1573 31.6591C43.6667 30.7444 42.9672 30.1109 41.8112 30.1109C40.901 30.1109 40.3386 30.4633 40.3386 31.0959C40.3404 33.1019 48.9553 31.7645 48.9553 38.2755Z" fill="white"/>
<path d="M51.2305 17.8647H56.4831V43.5535H51.2305V17.8647Z" fill="white"/>
<path d="M59.9844 25.958H65.238V43.5534H59.9844V25.958Z" fill="white"/>
<path d="M62.6116 23.7126C64.4563 23.7126 65.9517 22.2099 65.9517 20.3563C65.9517 18.5027 64.4563 17 62.6116 17C60.7669 17 59.2715 18.5027 59.2715 20.3563C59.2715 22.2099 60.7669 23.7126 62.6116 23.7126Z" fill="white"/>
<path d="M28.2026 8.72973L31.0678 13.7156H36.7982L39.6624 8.72973L36.7982 3.74291H31.0678L28.2026 8.72973Z" fill="#214FBD"/>
<path d="M31.02 7.48578C33.0771 7.48578 34.7448 5.81003 34.7448 3.74289C34.7448 1.67575 33.0771 0 31.02 0C28.9628 0 27.2952 1.67575 27.2952 3.74289C27.2952 5.81003 28.9628 7.48578 31.02 7.48578Z" fill="#214FBD"/>
<path d="M36.8254 7.48578C38.8826 7.48578 40.5502 5.81003 40.5502 3.74289C40.5502 1.67575 38.8826 0 36.8254 0C34.7683 0 33.1006 1.67575 33.1006 3.74289C33.1006 5.81003 34.7683 7.48578 36.8254 7.48578Z" fill="#214FBD"/>
<path d="M31.02 17.4585C33.0771 17.4585 34.7448 15.7828 34.7448 13.7157C34.7448 11.6485 33.0771 9.97276 31.02 9.97276C28.9628 9.97276 27.2952 11.6485 27.2952 13.7157C27.2952 15.7828 28.9628 17.4585 31.02 17.4585Z" fill="#214FBD"/>
<path d="M36.8254 17.4585C38.8826 17.4585 40.5502 15.7828 40.5502 13.7157C40.5502 11.6485 38.8826 9.97276 36.8254 9.97276C34.7683 9.97276 33.1006 11.6485 33.1006 13.7157C33.1006 15.7828 34.7683 17.4585 36.8254 17.4585Z" fill="#214FBD"/>
<path d="M39.6631 12.4726C41.7202 12.4726 43.3879 10.7969 43.3879 8.72973C43.3879 6.66259 41.7202 4.98684 39.6631 4.98684C37.6059 4.98684 35.9382 6.66259 35.9382 8.72973C35.9382 10.7969 37.6059 12.4726 39.6631 12.4726Z" fill="#214FBD"/>
<path d="M28.2024 12.4726C30.2595 12.4726 31.9272 10.7969 31.9272 8.72973C31.9272 6.66259 30.2595 4.98684 28.2024 4.98684C26.1452 4.98684 24.4775 6.66259 24.4775 8.72973C24.4775 10.7969 26.1452 12.4726 28.2024 12.4726Z" fill="#214FBD"/>
<path d="M34.1586 4.87109H33.0127V12.3569H34.1586V4.87109Z" fill="white"/>
<path d="M29.8613 8.03898V9.19043H37.311V8.03898H29.8613Z" fill="white"/>
</svg>
