<svg xmlns="http://www.w3.org/2000/svg" viewBox="0 0 48 44.53"><path d="M0 7.67v33.34c0 1.94 1.58 3.52 3.52 3.52h40.96c1.94 0 3.52-1.58 3.52-3.52V7.67H0Zm14.82 32.99H3.58V33.2h11.24v7.46Zm-1.15-13.28v.8H4.73v-.8h8.94Zm-7.3-4.55C6.37 21.27 7.64 20 9.2 20s2.83 1.27 2.83 2.83-1.27 2.83-2.83 2.83-2.83-1.27-2.83-2.83Zm7.3 6.06v.8H4.73v-.8h8.94Zm-2.6 1.5v.8H4.73v-.8h6.33Zm18.78 10.28H18.61v-7.46h11.24v7.46ZM28.7 27.39v.8h-8.94v-.8h8.94Zm-7.3-4.55c0-1.56 1.27-2.83 2.83-2.83s2.83 1.27 2.83 2.83-1.27 2.83-2.83 2.83-2.83-1.27-2.83-2.83Zm7.3 6.06v.8h-8.94v-.8h8.94Zm-2.6 1.5v.8h-6.33v-.8h6.33Zm18.78 10.28H33.64v-7.46h11.24v7.46ZM43.73 27.4v.8h-8.94v-.8h8.94Zm-7.3-4.55c0-1.56 1.27-2.83 2.83-2.83s2.83 1.27 2.83 2.83-1.27 2.83-2.83 2.83-2.83-1.27-2.83-2.83Zm7.3 6.06v.8h-8.94v-.8h8.94Zm-2.6 1.5v.8H34.8v-.8h6.33Zm4.06-12.86H3.27v-8.1h41.91v8.07ZM44.48 0H3.52C1.58 0 0 1.58 0 3.52v3.51h3.45V4.96c0-.68.55-1.22 1.22-1.22h10.17c.68 0 1.22.55 1.22 1.22v2.07H48V3.52C48 1.58 46.42 0 44.48 0Zm-9.16 5.16c-.75 0-1.35-.6-1.35-1.35s.6-1.35 1.35-1.35 1.35.6 1.35 1.35-.6 1.35-1.35 1.35Zm4.12 0c-.75 0-1.35-.6-1.35-1.35s.6-1.35 1.35-1.35 1.35.6 1.35 1.35-.6 1.35-1.35 1.35Z"/></svg>