<svg width="87" height="48" viewBox="0 0 87 48" fill="none" xmlns="http://www.w3.org/2000/svg">
<path d="M14.3581 42.0883V47.507H0V22.8735H5.60334V42.0883H14.3581Z" fill="white"/>
<path d="M24.9996 43.2842C26.4354 43.2842 27.6614 42.7219 28.3618 41.9468L32.5643 44.3755C30.8478 46.7681 28.2569 48 24.925 48C18.9361 48 15.2241 43.9528 15.2241 38.7098C15.2241 33.4668 19.0171 29.4187 24.5477 29.4187C29.6605 29.4187 33.4433 33.3956 33.4433 38.7098C33.4462 39.419 33.3759 40.1267 33.2334 40.8213H20.8008C21.4662 42.6506 23.0769 43.2842 24.9996 43.2842ZM28.221 36.8795C27.6614 34.8384 26.0847 34.0994 24.509 34.0994C22.5127 34.0994 21.1818 35.0853 20.6922 36.8795H28.221Z" fill="white"/>
<path d="M48.9556 42.2289C48.9556 46.2751 45.4581 48 41.6716 48C38.1741 48 35.5049 46.6627 34.1418 43.8123L38.695 41.2079C39.1497 42.5452 40.1308 43.2842 41.6716 43.2842C42.9325 43.2842 43.5621 42.8976 43.5621 42.1938C43.5621 40.258 34.9472 41.2782 34.9472 35.1908C34.9472 31.3545 38.1686 29.4187 41.8115 29.4187C44.6481 29.4187 47.17 30.6858 48.6408 33.1847L44.1575 35.6125C43.667 34.6978 42.9675 34.0643 41.8115 34.0643C40.9012 34.0643 40.3388 34.4167 40.3388 35.0493C40.3407 37.0553 48.9556 35.7179 48.9556 42.2289Z" fill="white"/>
<path d="M51.2307 21.8183H56.4834V47.507H51.2307V21.8183Z" fill="white"/>
<path d="M59.9846 29.9117H65.2382V47.5071H59.9846V29.9117Z" fill="white"/>
<path d="M62.6116 27.6661C64.4563 27.6661 65.9517 26.1635 65.9517 24.3098C65.9517 22.4562 64.4563 20.9535 62.6116 20.9535C60.7669 20.9535 59.2715 22.4562 59.2715 24.3098C59.2715 26.1635 60.7669 27.6661 62.6116 27.6661Z" fill="white"/>
<path d="M71.8142 8.72972L74.6794 13.7156H80.4097L83.274 8.72972L80.4097 3.7429H74.6794L71.8142 8.72972Z" fill="#214FBD"/>
<path d="M74.6316 7.48578C76.6887 7.48578 78.3564 5.81003 78.3564 3.74289C78.3564 1.67575 76.6887 0 74.6316 0C72.5744 0 70.9067 1.67575 70.9067 3.74289C70.9067 5.81003 72.5744 7.48578 74.6316 7.48578Z" fill="#214FBD"/>
<path d="M80.437 7.48578C82.4942 7.48578 84.1618 5.81003 84.1618 3.74289C84.1618 1.67575 82.4942 0 80.437 0C78.3798 0 76.7122 1.67575 76.7122 3.74289C76.7122 5.81003 78.3798 7.48578 80.437 7.48578Z" fill="#214FBD"/>
<path d="M74.6316 17.4585C76.6887 17.4585 78.3564 15.7828 78.3564 13.7157C78.3564 11.6485 76.6887 9.97276 74.6316 9.97276C72.5744 9.97276 70.9067 11.6485 70.9067 13.7157C70.9067 15.7828 72.5744 17.4585 74.6316 17.4585Z" fill="#214FBD"/>
<path d="M80.437 17.4585C82.4942 17.4585 84.1618 15.7828 84.1618 13.7157C84.1618 11.6485 82.4942 9.97276 80.437 9.97276C78.3798 9.97276 76.7122 11.6485 76.7122 13.7157C76.7122 15.7828 78.3798 17.4585 80.437 17.4585Z" fill="#214FBD"/>
<path d="M83.2746 12.4726C85.3318 12.4726 86.9995 10.7969 86.9995 8.72973C86.9995 6.66259 85.3318 4.98684 83.2746 4.98684C81.2175 4.98684 79.5498 6.66259 79.5498 8.72973C79.5498 10.7969 81.2175 12.4726 83.2746 12.4726Z" fill="#214FBD"/>
<path d="M71.8139 12.4726C73.8711 12.4726 75.5388 10.7969 75.5388 8.72973C75.5388 6.66259 73.8711 4.98684 71.8139 4.98684C69.7568 4.98684 68.0891 6.66259 68.0891 8.72973C68.0891 10.7969 69.7568 12.4726 71.8139 12.4726Z" fill="#214FBD"/>
<path d="M77.7704 4.87122H76.6245V12.357H77.7704V4.87122Z" fill="white"/>
<path d="M73.4729 8.03884V9.19028H80.9226V8.03884H73.4729Z" fill="white"/>
</svg>
