<svg height="512" width="512" xml:space="preserve" xmlns="http://www.w3.org/2000/svg"><path clip-rule="evenodd" d="M256.23 48.065c114.723 0 207.697 92.967 207.697 208.165 0 114.723-92.975 207.697-207.697 207.697-115.198 0-208.165-92.975-208.165-207.697 0-115.198 92.967-208.165 208.165-208.165zM112.918 363.703l37.184-33.105-27.208-15.873-9.976 48.978zm262.581-61.681-27.216 15.873c-.906 4.984-1.813 9.983 2.266 16.78 4.53 7.718 11.796 3.171 18.139 9.53 6.358 6.343 6.358 12.686 7.718 19.497 14.046-8.171 25.841-28.574 17.232-44.901-5.452-10.419-12.248-14.06-18.139-16.779zM238.99 112.918l106.122 199.541 27.2-15.873-119.714-191.831c-1.82-2.719-6.804-1.813-9.522 0-2.726 1.359-5.898 5.444-4.086 8.163zm-24.489 43.081-88.428 153.288 27.208 15.874 88.428-153.289c3.632-6.351 2.273-13.6-2.719-16.327l-9.069-5.444c-4.991-2.718-11.788-.453-15.42 5.898zm-86.616 116.089 28.567-48.064h-44.44v48.064h15.873zm175.95 0-25.841-48.064h-47.167l-27.208 48.064h100.216zm96.145-48.065h-55.321l29.918 48.064h25.403v-48.064zM0 256.23C0 397.263 114.73 512 256.23 512 397.263 512 512 397.263 512 256.23 512 114.73 397.263 0 256.23 0 114.73 0 0 114.73 0 256.23z" fill="#0CA3D1" fill-rule="evenodd"/></svg>