<svg viewBox="0 0 24 24" xml:space="preserve" xmlns="http://www.w3.org/2000/svg"><path d="M5.5 6.673a.5.5 0 0 1-.5-.5V4.499C5 2.018 7.019 0 9.5 0S14 2.018 14 4.498c0 .276-.224.514-.5.514s-.5-.208-.5-.485v-.029C13 2.569 11.43 1 9.5 1S6 2.57 6 4.498v1.676a.5.5 0 0 1-.5.5z" fill="#009ADA"/><path d="M7.5 6.262a.5.5 0 0 1-.5-.5v-.264A4.504 4.504 0 0 1 11.5 1a4.5 4.5 0 0 1 4.227 3 .5.5 0 1 1-.943.333A3.5 3.5 0 0 0 11.5 1.999 3.505 3.505 0 0 0 8 5.498v.264a.5.5 0 0 1-.5.5z" fill="#009ADA"/><path fill="#009ADA" d="M18.569 2.974 1 6.59v14.32L18.518 24 23 22.88V3.998z"/><path fill="#FFF" opacity=".2" d="M18.569 2.974 1 6.59v.25l17.569-3.615L23 4.248v-.25z"/><path opacity=".1" d="M1 20.66v.25L18.518 24 23 22.88v-.25l-4.482 1.12z"/><path fill="#FFF" d="M9.5 13H14V8.5l-4.5.833zm-1 0V9.518l-3.5.649V13zm1 1v3.667l4.5.833V14zm-1 0H5v2.833l3.5.648z"/><linearGradient gradientUnits="userSpaceOnUse" id="a" x1=".718" x2="25.029" y1="7.193" y2="18.53"><stop offset="0" stop-color="#fff" stop-opacity=".2"/><stop offset="1" stop-color="#fff" stop-opacity="0"/></linearGradient><path d="m18.569 2.974-3.022.622a4.493 4.493 0 0 0-3.12-2.486A4.461 4.461 0 0 0 9.5 0 4.504 4.504 0 0 0 5 4.498v1.268L1 6.59v14.32L18.518 24 23 22.88V3.998l-4.431-1.024zm-4.027.829-.6.123a4.485 4.485 0 0 0-.292-1.165c.357.284.665.633.892 1.042zm-2.558-1.766a3.48 3.48 0 0 1 .979 2.09L8.036 5.143C8.217 3.383 9.692 2 11.5 2c.164 0 .325.016.484.038zM6 4.498A3.503 3.503 0 0 1 9.5 1c.325 0 .633.058.932.141a4.49 4.49 0 0 0-3.417 4.21L6 5.562V4.497z" fill="url(#a)"/></svg>