<svg width="65" height="35" viewBox="0 0 65 35" fill="none" xmlns="http://www.w3.org/2000/svg">
<path d="M10.7273 30.6894V34.6406H0V16.6786H4.18641V30.6894H10.7273Z" fill="white"/>
<path d="M18.6779 31.5614C19.7506 31.5614 20.6666 31.1514 21.1899 30.5862L24.3297 32.3571C23.0472 34.1017 21.1115 35 18.6222 35C14.1477 35 11.3744 32.049 11.3744 28.2259C11.3744 24.4029 14.2082 21.4512 18.3403 21.4512C22.1602 21.4512 24.9864 24.351 24.9864 28.2259C24.9886 28.7431 24.9361 29.259 24.8296 29.7655H15.5409C16.038 31.0994 17.2414 31.5614 18.6779 31.5614ZM21.0847 26.8913C20.6666 25.403 19.4886 24.8642 18.3114 24.8642C16.8199 24.8642 15.8255 25.5831 15.4597 26.8913H21.0847Z" fill="white"/>
<path d="M36.576 30.7919C36.576 33.7423 33.963 35 31.134 35C28.5209 35 26.5267 34.0249 25.5083 31.9465L28.9101 30.0474C29.2498 31.0226 29.9829 31.5614 31.134 31.5614C32.0761 31.5614 32.5464 31.2795 32.5464 30.7663C32.5464 29.3548 26.11 30.0987 26.11 25.6599C26.11 22.8626 28.5168 21.4512 31.2385 21.4512C33.3578 21.4512 35.242 22.3751 36.3409 24.1972L32.9913 25.9675C32.6248 25.3005 32.1022 24.8386 31.2385 24.8386C30.5584 24.8386 30.1383 25.0955 30.1383 25.5568C30.1396 27.0195 36.576 26.0443 36.576 30.7919Z" fill="white"/>
<path d="M38.2759 15.9091H42.2003V34.6406H38.2759V15.9091Z" fill="white"/>
<path d="M44.8161 21.8106H48.7412V34.6406H44.8161V21.8106Z" fill="white"/>
<path d="M46.7787 20.1732C48.1569 20.1732 49.2742 19.0775 49.2742 17.7259C49.2742 16.3743 48.1569 15.2786 46.7787 15.2786C45.4005 15.2786 44.2832 16.3743 44.2832 17.7259C44.2832 19.0775 45.4005 20.1732 46.7787 20.1732Z" fill="white"/>
<path d="M53.6543 6.36544L55.795 10.001H60.0763L62.2162 6.36544L60.0763 2.72922H55.795L53.6543 6.36544Z" fill="#214FBD"/>
<path d="M55.7593 5.45838C57.2963 5.45838 58.5422 4.23648 58.5422 2.72919C58.5422 1.2219 57.2963 0 55.7593 0C54.2224 0 52.9764 1.2219 52.9764 2.72919C52.9764 4.23648 54.2224 5.45838 55.7593 5.45838Z" fill="#214FBD"/>
<path d="M60.0967 5.45838C61.6337 5.45838 62.8796 4.23648 62.8796 2.72919C62.8796 1.2219 61.6337 0 60.0967 0C58.5597 0 57.3138 1.2219 57.3138 2.72919C57.3138 4.23648 58.5597 5.45838 60.0967 5.45838Z" fill="#214FBD"/>
<path d="M55.7593 12.7302C57.2963 12.7302 58.5422 11.5083 58.5422 10.001C58.5422 8.49369 57.2963 7.27179 55.7593 7.27179C54.2224 7.27179 52.9764 8.49369 52.9764 10.001C52.9764 11.5083 54.2224 12.7302 55.7593 12.7302Z" fill="#214FBD"/>
<path d="M60.0967 12.7302C61.6337 12.7302 62.8796 11.5083 62.8796 10.001C62.8796 8.49369 61.6337 7.27179 60.0967 7.27179C58.5597 7.27179 57.3138 8.49369 57.3138 10.001C57.3138 11.5083 58.5597 12.7302 60.0967 12.7302Z" fill="#214FBD"/>
<path d="M62.2167 9.09461C63.7537 9.09461 64.9996 7.87271 64.9996 6.36542C64.9996 4.85813 63.7537 3.63623 62.2167 3.63623C60.6797 3.63623 59.4338 4.85813 59.4338 6.36542C59.4338 7.87271 60.6797 9.09461 62.2167 9.09461Z" fill="#214FBD"/>
<path d="M53.6541 9.09461C55.1911 9.09461 56.437 7.87271 56.437 6.36542C56.437 4.85813 55.1911 3.63623 53.6541 3.63623C52.1172 3.63623 50.8712 4.85813 50.8712 6.36542C50.8712 7.87271 52.1172 9.09461 53.6541 9.09461Z" fill="#214FBD"/>
<path d="M58.1043 3.55194H57.2481V9.01032H58.1043V3.55194Z" fill="white"/>
<path d="M54.8936 5.86167V6.70126H60.4594V5.86167H54.8936Z" fill="white"/>
</svg>
