<svg height="32" version="1.0" width="32" xml:space="preserve" xmlns="http://www.w3.org/2000/svg"><g clip-rule="evenodd" fill="#CCC" fill-rule="evenodd"><path d="M28.955 22.814v-.218c-2.624-1.399-4.048-3.453-4.048-6.426 0-2.404 1.068-4.503 3.025-5.857l.089-.044c-1.29-1.573-3.025-3.146-5.694-3.146-1.868 0-3.425 1.792-6.005 1.792-2.046 0-2.892-1.705-5.116-1.705-4.626 0-9.208 4.065-9.208 9.354 0 2.798.934 7.126 3.025 10.885 1.513 2.754 3.381 4.546 5.472 4.546 1.512 0 3.291-1.355 5.427-1.355 1.868 0 3.604 1.225 5.293 1.225 4.049 0 7.785-5.158 7.785-8.61 0-.178-.045-.309-.045-.441z"/><path d="M16.229 8.349c3.025-.918 5.828-3.148 5.828-7.038 0-.306-.044-.699-.089-1.136L21.924 0c-3.069.829-5.827 3.19-5.827 6.906 0 .35.045.787.133 1.268v.175z"/></g></svg>