<svg width="128.1" height="45.1" xmlns="http://www.w3.org/2000/svg"><path fill="#c00" d="M122.1 30.8h-5.3v-2.7h10.5v-5.9h-10c-2.6 0-6.1 2.1-6.1 6.1v2c0 4 3.4 6 6.1 6h5v2.8l-10.8.1v5.9h10.6c2.2 0 5.9-1.6 6-6v-2.3c0-3.8-3.1-6-6-6zm-61.6-.9c0-7.3-6.9-8-6.9-8H41.3V45h6.2v-5.5l5.4 5.6h9.2l-7.3-7.4s5.7-.5 5.7-7.8zM52.4 33h-5v-5.3h5s1.4.5 1.4 2.6c0 2.2-1.4 2.7-1.4 2.7zm23.4-10.9h-6.3c-4.5 0-6 4.1-6 6V45h6.3v-4h5.9v4h6.1V28.1c0-4.9-4.4-6-6-6zm-.1 12.3h-6v-5.6s0-1.3 2-1.3h2.2c1.7 0 1.8 1.3 1.8 1.3zm9-12.3h6.6V45h-6.6zm15.8 0H94V45h15.3v-5.9h-8.8z"/><path fill="#c00" d="M72.3 19.2c.6-.5 1.1-.9 1.1-.9S56.6 1.5 37.8 3.4c-9.4.8-21 9.4-27.8 20.7C3.2 35.4 2.3 45 2.3 45h25.6S23 22.7 39.2 13.7C42.7 12 54 5.6 72.3 19.2ZM55.6 3c-.3-.2-1.1-.6-3.1-1.1L52.4 4c1.1.4 2.1.8 3.1 1.2z"/><path fill="#c00" d="m55.6 14.4.1-2c-1.1-.2-2.2-.3-3.2-.4l-.1 2c1.1 0 2.1.2 3.2.4zM40.5 2h.3l-.6-2c-1 0-2 .1-3.1.2l.6 1.9c.9-.1 1.8-.1 2.8-.1Zm2.2 14.1c.9-.5 1.9-.8 2.8-1.1l-.7-2.1c-1 .2-2 .6-2.8 1zM27.3 5.4l-1.5-2.2c-.7.3-1.6.8-2.4 1.3l1.5 2.3c.8-.5 1.6-1 2.4-1.4zM34 19.9l1.6 2.3c.6-.8 1.2-1.6 1.9-2.3L36 17.7c-.8.7-1.4 1.5-2 2.2zm-3.7 6.9c-.5 1.2-.8 2.4-1 3.5l2.6 2.1c.1-1.3.4-2.5.7-3.8zM15.1 15l-2.3-2c-.8.8-1.7 1.6-2.4 2.4l2.5 2.1c.7-.9 1.4-1.7 2.2-2.5zM5.3 29.4 1.6 28C1 29.4.3 31 0 31.9l3.7 1.4c.4-1.1 1.1-2.7 1.6-3.9zm23.5 9.1c.1 1.7.2 3.1.4 4.1l3.9 1.4c-.3-1.3-.6-2.7-.8-4.2z"/></svg>