<?xml version="1.0" ?><svg id="katman_1" style="enable-background:new 0 0 512 512;" version="1.1" viewBox="0 0 512 512" xml:space="preserve" xmlns="http://www.w3.org/2000/svg" xmlns:xlink="http://www.w3.org/1999/xlink"><style type="text/css">
	.st0{fill:#DD840E;}
	.st1{fill:#F69F18;}
	.st2{fill:#00A99E;}
	.st3{fill:#009E8E;}
</style><g><path class="st0" d="M415.8,160.8c-31.1,0-56.4,25.3-56.4,56.5c0,31.1,25.3,56.3,56.4,56.3c31.1,0,56.5-25.3,56.5-56.3   C472.3,186.1,446.9,160.8,415.8,160.8z"/><path class="st1" d="M96.2,160.8c-31.1,0-56.5,25.3-56.5,56.5c0,31.1,25.3,56.3,56.5,56.3c31.1,0,56.4-25.3,56.4-56.3   C152.6,186.1,127.3,160.8,96.2,160.8z"/><path class="st1" d="M255.9,48c-46,0-83.5,37.4-83.5,83.4c0,46,37.4,83.5,83.5,83.5c46,0,83.5-37.5,83.5-83.5   C339.5,85.4,302,48,255.9,48z"/><path class="st2" d="M386.8,464v-96c0-72.2-58.7-130.9-130.8-130.9c-72.2,0-130.9,58.7-130.9,130.9v96H386.8z"/><path class="st3" d="M407.5,430H506v-44.3c0-49.8-40.5-90.2-90.3-90.2c-8.9,0-17.3,1.7-25.4,4.1c10.6,20.7,17.1,43.7,17.1,68.4V430   z"/><path class="st2" d="M104.4,430v-62c0-24.8,6.5-47.8,17.1-68.4c-8-2.4-16.4-4.1-25.3-4.1C46.5,295.5,6,335.9,6,385.7V430H104.4z"/><path class="st3" d="M256,237.1V464h130.8v-96C386.8,295.9,328.1,237.2,256,237.1z"/><path class="st0" d="M256,48V215c46,0,83.4-37.5,83.4-83.5C339.5,85.4,302,48,256,48z"/></g></svg>