<?xml version="1.0" ?><!DOCTYPE svg  PUBLIC '-//W3C//DTD SVG 1.1//EN'  'http://www.w3.org/Graphics/SVG/1.1/DTD/svg11.dtd'><svg enable-background="new 0 0 128 128" id="Layer_1" version="1.1" viewBox="0 0 128 128" xml:space="preserve" xmlns="http://www.w3.org/2000/svg" xmlns:xlink="http://www.w3.org/1999/xlink"><rect fill="#00AEEF" height="63" width="18" x="14" y="33"/><rect fill="#00C0F3" height="63" width="6" x="14" y="33"/><rect fill="#0092C8" height="63" width="6" x="26" y="33"/><path d="M29,113H17c-1.66,0-3-1.34-3-3v-6h18v6C32,111.65,30.65,113,29,113z" fill="#D60080"/><path d="M29,110H17c-1.66,0-3-1.34-3-3v-6h18v6C32,108.65,30.65,110,29,110z" fill="#EC008C"/><path d="M14,33l8.11-15.24c0.37-0.74,1.42-1.22,1.79-0.49L32,33H14z" fill="#E6E7E8"/><path d="M26.33,22l-2.43-4.72c-0.16-0.32-0.45-0.4-0.76-0.34c-0.27,0.11-0.54,0.29-0.81,0.51  c-0.09,0.1-0.16,0.2-0.22,0.32L19.85,22H26.33z" fill="#00AEEF"/><rect fill="#414042" height="5" width="18" x="14" y="96"/><path d="M95,17v96h22V17H95z M106,25.17c-1.1,0-2-0.9-2-2c0-1.1,0.9-2,2-2s2,0.9,2,2  C108,24.27,107.1,25.17,106,25.17z" fill="#EEDC00"/><path d="M98,17v96h22V17H98z M109,25.17c-1.1,0-2-0.9-2-2c0-1.1,0.9-2,2-2s2,0.9,2,2  C111,24.27,110.1,25.17,109,25.17z" fill="#FFF200"/><line fill="none" stroke="#EEDC00" stroke-miterlimit="10" stroke-width="3" x1="120" x2="105" y1="30.5" y2="30.5"/><line fill="none" stroke="#EEDC00" stroke-miterlimit="10" stroke-width="3" x1="120" x2="111" y1="36.5" y2="36.5"/><line fill="none" stroke="#EEDC00" stroke-miterlimit="10" stroke-width="3" x1="120" x2="111" y1="42.5" y2="42.5"/><line fill="none" stroke="#EEDC00" stroke-miterlimit="10" stroke-width="3" x1="120" x2="111" y1="48.5" y2="48.5"/><line fill="none" stroke="#EEDC00" stroke-miterlimit="10" stroke-width="3" x1="120" x2="105" y1="54.5" y2="54.5"/><line fill="none" stroke="#EEDC00" stroke-miterlimit="10" stroke-width="3" x1="120" x2="111" y1="60.5" y2="60.5"/><line fill="none" stroke="#EEDC00" stroke-miterlimit="10" stroke-width="3" x1="120" x2="111" y1="66.5" y2="66.5"/><line fill="none" stroke="#EEDC00" stroke-miterlimit="10" stroke-width="3" x1="120" x2="111" y1="72.5" y2="72.5"/><line fill="none" stroke="#EEDC00" stroke-miterlimit="10" stroke-width="3" x1="120" x2="105" y1="78.5" y2="78.5"/><line fill="none" stroke="#EEDC00" stroke-miterlimit="10" stroke-width="3" x1="120" x2="111" y1="84.5" y2="84.5"/><line fill="none" stroke="#EEDC00" stroke-miterlimit="10" stroke-width="3" x1="120" x2="111" y1="90.5" y2="90.5"/><line fill="none" stroke="#EEDC00" stroke-miterlimit="10" stroke-width="3" x1="120" x2="111" y1="96.5" y2="96.5"/><line fill="none" stroke="#EEDC00" stroke-miterlimit="10" stroke-width="3" x1="120" x2="105" y1="102.5" y2="102.5"/><rect fill="#414042" height="54" width="52" x="38" y="39"/><g><g><polyline fill="none" points="86,86 86,89     83,89   " stroke="#58595B" stroke-linecap="square" stroke-miterlimit="10" stroke-width="2"/><line fill="none" stroke="#58595B" stroke-dasharray="6,5" stroke-linecap="square" stroke-miterlimit="10" stroke-width="2" x1="78" x2="47" y1="89" y2="89"/><polyline fill="none" points="45,89 42,89     42,86   " stroke="#58595B" stroke-linecap="square" stroke-miterlimit="10" stroke-width="2"/><line fill="none" stroke="#58595B" stroke-dasharray="6,5" stroke-linecap="square" stroke-miterlimit="10" stroke-width="2" x1="42" x2="42" y1="81" y2="49"/><polyline fill="none" points="42,46 42,43     45,43   " stroke="#58595B" stroke-linecap="square" stroke-miterlimit="10" stroke-width="2"/><line fill="none" stroke="#58595B" stroke-dasharray="6,5" stroke-linecap="square" stroke-miterlimit="10" stroke-width="2" x1="50" x2="80" y1="43" y2="43"/><polyline fill="none" points="83,43 86,43     86,46   " stroke="#58595B" stroke-linecap="square" stroke-miterlimit="10" stroke-width="2"/><line fill="none" stroke="#58595B" stroke-dasharray="6,5" stroke-linecap="square" stroke-miterlimit="10" stroke-width="2" x1="86" x2="86" y1="51" y2="83"/></g></g><polyline fill="none" points="70.45,58.67   79,66.5 71,73.78 " stroke="#58595B" stroke-linecap="square" stroke-miterlimit="10" stroke-width="2"/><polyline fill="none" points="58,58.67   49.45,66.5 57.45,73.78 " stroke="#58595B" stroke-linecap="square" stroke-miterlimit="10" stroke-width="2"/><line fill="none" stroke="#58595B" stroke-linecap="square" stroke-miterlimit="10" stroke-width="2" x1="62" x2="66.33" y1="73.78" y2="58.67"/></svg>