<?xml version="1.0" standalone="no"?>
<!DOCTYPE svg PUBLIC "-//W3C//DTD SVG 20010904//EN"
 "http://www.w3.org/TR/2001/REC-SVG-20010904/DTD/svg10.dtd">
<svg version="1.0" xmlns="http://www.w3.org/2000/svg"
 width="1064.000000pt" height="355.000000pt" viewBox="0 0 1064.000000 355.000000"
 preserveAspectRatio="xMidYMid meet">

<g transform="translate(0.000000,355.000000) scale(0.100000,-0.100000)"
fill="#015097" stroke="none">
<path d="M2293 3536 c-205 -39 -385 -131 -532 -271 -400 -383 -423 -996 -54
-1422 113 -130 319 -255 503 -305 74 -20 107 -23 260 -23 203 1 269 15 425 89
126 59 206 115 295 205 132 133 222 294 271 486 27 106 32 320 11 420 -30 136
-94 290 -165 395 -45 66 -173 196 -243 246 -84 60 -251 138 -354 164 -109 28
-314 36 -417 16z m396 -96 c160 -39 323 -131 442 -249 265 -265 347 -668 206
-1011 -52 -128 -106 -209 -207 -311 -139 -141 -294 -225 -489 -264 -113 -23
-314 -16 -420 15 -357 103 -617 389 -681 747 -18 102 -8 317 20 413 103 361
399 620 778 680 83 13 254 3 351 -20z"/>
<path d="M2351 3380 c-326 -45 -593 -269 -702 -588 -32 -94 -33 -102 -34 -257
0 -186 11 -238 80 -382 113 -232 305 -388 570 -461 43 -12 100 -17 200 -17
169 0 238 16 380 86 216 106 369 286 445 524 34 107 40 319 11 438 -89 374
-408 640 -792 661 -52 2 -123 1 -158 -4z m305 -100 c344 -88 584 -396 584
-750 0 -208 -69 -382 -209 -532 -179 -192 -451 -282 -703 -234 -391 76 -656
410 -635 806 6 121 30 208 88 320 99 191 279 334 490 389 104 28 278 28 385 1z"/>
<path d="M2295 3201 c-96 -27 -139 -46 -217 -98 -337 -223 -408 -705 -148
-1019 85 -103 228 -194 361 -230 87 -24 262 -24 349 0 147 40 288 132 375 248
219 288 187 684 -74 931 -79 74 -150 117 -253 153 -102 36 -290 43 -393 15z
m306 -75 c226 -48 415 -242 465 -477 67 -312 -135 -635 -447 -715 -87 -23
-234 -21 -320 4 -303 86 -496 399 -435 705 47 239 245 439 481 487 64 13 185
11 256 -4z"/>
<path d="M2365 3050 c-167 -36 -299 -137 -372 -285 -108 -216 -60 -467 120
-632 99 -89 214 -133 352 -133 102 1 152 12 242 56 206 102 326 349 279 571
-52 249 -248 417 -496 428 -47 2 -103 0 -125 -5z m186 -80 c129 -24 265 -131
323 -253 90 -191 29 -424 -145 -552 -203 -150 -492 -98 -636 113 -59 87 -76
151 -71 272 3 88 7 104 40 172 92 186 288 285 489 248z"/>
<path d="M20 2530 l0 -1010 45 0 45 0 0 1010 0 1010 -45 0 -45 0 0 -1010z"/>
<path d="M200 2530 l0 -1010 45 0 45 0 0 1010 0 1010 -45 0 -45 0 0 -1010z"/>
<path d="M380 2530 l0 -1010 40 0 40 0 0 1010 0 1010 -40 0 -40 0 0 -1010z"/>
<path d="M550 2530 l0 -1010 395 0 395 0 0 40 0 40 -350 0 -350 0 0 45 0 45
350 0 350 0 0 45 0 45 -350 0 -350 0 0 45 0 45 350 0 350 0 0 45 0 45 -350 0
-350 0 0 40 0 40 350 0 350 0 0 45 0 45 -350 0 -350 0 0 705 0 705 -45 0 -45
0 0 -1010z"/>
<path d="M3620 2531 l0 -1011 45 0 45 0 2 920 3 920 294 -557 c161 -307 297
-562 301 -566 4 -5 28 -7 52 -5 l46 3 -343 650 -343 650 -51 3 -51 3 0 -1010z"/>
<path d="M3862 3458 c25 -46 176 -333 337 -639 160 -306 297 -564 304 -573 9
-13 24 -16 58 -14 l46 3 -343 650 -342 650 -52 3 -52 3 44 -83z"/>
<path d="M4030 3533 c0 -5 153 -298 339 -653 l340 -645 51 -3 52 -3 -94 178
c-51 99 -205 393 -343 656 l-250 476 -47 1 c-27 0 -48 -3 -48 -7z"/>
<path d="M4275 3438 c30 -57 184 -350 343 -653 l289 -550 49 0 49 0 295 560
295 560 3 -917 2 -918 45 0 45 0 0 1011 0 1010 -50 -3 -51 -3 -309 -589 c-170
-324 -313 -593 -318 -598 -6 -6 -135 229 -324 589 l-314 598 -52 3 -51 3 54
-103z"/>
<path d="M4849 3268 c-79 -150 -145 -278 -147 -285 -5 -18 40 -95 49 -86 8 8
339 633 339 639 0 2 -22 4 -48 4 l-48 0 -145 -272z"/>
<path d="M4996 3165 l-198 -374 23 -41 c12 -22 25 -40 29 -40 5 0 428 792 438
821 2 5 -18 9 -45 9 l-49 0 -198 -375z"/>
<path d="M5147 3069 l-247 -471 26 -44 26 -45 269 512 c148 282 269 514 269
516 0 2 -21 3 -48 3 l-47 0 -248 -471z"/>
<path d="M6190 2539 c-217 -550 -396 -1005 -398 -1010 -2 -5 18 -9 45 -9 l48
1 369 937 c203 515 372 941 376 945 4 5 61 -128 127 -295 66 -167 234 -592
374 -945 l254 -643 47 0 47 0 -35 88 c-19 48 -198 501 -398 1007 l-363 920
-49 3 -49 2 -395 -1001z"/>
<path d="M6783 3523 c7 -26 787 -1996 791 -2000 2 -2 24 -3 48 -1 l44 3 -223
565 c-123 311 -303 764 -399 1008 l-176 442 -45 0 c-38 0 -45 -3 -40 -17z"/>
<path d="M6970 3533 c0 -4 178 -459 397 -1010 l396 -1003 47 0 48 0 -265 668
c-145 367 -325 821 -399 1010 l-136 342 -44 0 c-24 0 -44 -3 -44 -7z"/>
<path d="M7160 3532 c0 -6 718 -1830 787 -1999 3 -8 24 -13 50 -13 38 0 45 3
41 18 -3 9 -179 456 -391 992 -212 536 -389 983 -392 993 -5 12 -18 17 -51 17
-24 0 -44 -4 -44 -8z"/>
<path d="M8100 3534 c0 -9 624 -1003 630 -1004 3 0 15 18 28 41 21 36 22 43
10 62 -8 12 -140 221 -293 465 l-278 442 -48 0 c-27 0 -49 -3 -49 -6z"/>
<path d="M8333 3488 c18 -29 138 -221 267 -425 l233 -373 25 37 c19 28 23 41
16 59 -5 13 -112 188 -239 388 l-230 366 -53 0 -53 0 34 -52z"/>
<path d="M8516 3528 c14 -24 417 -663 420 -666 1 -2 14 14 29 36 l26 40 -188
300 -188 301 -53 1 c-40 0 -51 -3 -46 -12z"/>
<path d="M8720 3536 c0 -3 73 -120 161 -261 l162 -256 24 41 c14 23 23 46 20
53 -3 7 -63 104 -135 217 l-129 205 -51 3 c-29 2 -52 1 -52 -2z"/>
<path d="M9396 3488 c-19 -29 -305 -483 -636 -1008 l-601 -955 47 -3 c30 -2
52 2 59 10 10 10 1222 1932 1259 1996 5 9 -6 12 -43 12 -50 0 -51 -1 -85 -52z"/>
<path d="M9005 2539 c-346 -550 -632 -1005 -634 -1010 -2 -6 18 -9 49 -7 l52
3 630 1000 c346 550 632 1003 634 1008 3 4 -19 7 -48 7 l-53 0 -630 -1001z"/>
<path d="M9212 2536 c-347 -552 -632 -1006 -632 -1010 0 -3 22 -6 49 -6 l48 0
628 997 c345 549 630 1003 632 1010 4 10 -8 13 -44 13 l-48 0 -633 -1004z"/>
<path d="M9977 3423 c-41 -65 -316 -503 -612 -973 -296 -470 -549 -872 -562
-892 l-23 -38 52 0 53 0 630 1001 c347 551 632 1005 633 1010 2 5 -19 9 -46 9
l-51 0 -74 -117z"/>
<path d="M6318 2383 c-180 -455 -330 -836 -334 -846 -6 -16 -1 -18 41 -15 l48
3 309 780 c169 429 308 787 307 795 0 8 -10 37 -22 63 l-22 49 -327 -829z"/>
<path d="M5471 3005 l-41 -74 0 -706 0 -705 45 0 45 0 0 780 c0 429 -2 780 -4
780 -2 0 -23 -34 -45 -75z"/>
<path d="M3800 2290 l0 -770 40 0 40 0 0 700 0 700 -35 70 c-19 39 -37 70 -40
70 -3 0 -5 -346 -5 -770z"/>
<path d="M6732 2950 c-48 -118 -562 -1422 -562 -1426 0 -3 21 -4 47 -2 l47 3
259 655 c142 360 259 666 259 680 0 14 -9 45 -20 70 -19 44 -20 45 -30 20z"/>
<path d="M5292 2667 l-42 -82 0 -532 0 -533 45 0 45 0 0 615 c0 338 -1 615 -2
615 -2 0 -22 -37 -46 -83z"/>
<path d="M3970 2133 l0 -613 45 0 45 0 0 533 0 532 -45 80 -44 80 -1 -612z"/>
<path d="M6828 2718 c-3 -7 -110 -277 -237 -600 -127 -323 -231 -590 -231
-593 0 -3 21 -5 46 -3 l46 3 214 544 215 543 -16 47 c-20 61 -30 77 -37 59z"/>
<path d="M9551 2486 c-12 -18 -21 -37 -21 -41 0 -8 558 -895 575 -913 7 -8 29
-12 59 -10 l47 3 -313 497 c-172 274 -316 498 -320 498 -3 0 -16 -15 -27 -34z"/>
<path d="M4150 1963 l0 -443 45 0 45 0 0 360 0 360 -45 83 -45 82 0 -442z"/>
<path d="M5116 2331 l-36 -69 0 -371 0 -371 40 0 40 0 0 440 c0 242 -2 440 -4
440 -2 0 -20 -31 -40 -69z"/>
<path d="M9451 2325 c-11 -20 -21 -40 -21 -46 0 -5 106 -178 236 -384 l236
-375 49 0 c27 0 49 2 49 5 0 7 -508 816 -520 828 -4 5 -17 -8 -29 -28z"/>
<path d="M9342 2151 l-22 -39 186 -296 187 -296 49 0 c36 0 49 4 45 13 -9 23
-408 652 -416 655 -4 1 -17 -15 -29 -37z"/>
<path d="M6751 2088 l-18 -43 180 -3 c99 -1 181 -1 183 1 2 2 -4 22 -13 45
l-16 42 -149 0 -149 0 -18 -42z"/>
<path d="M9242 1994 c-13 -20 -22 -41 -20 -48 2 -7 62 -106 133 -219 l130
-207 53 0 52 0 -49 78 c-166 264 -263 418 -269 424 -4 4 -17 -9 -30 -28z"/>
<path d="M6681 1914 c-7 -19 -11 -37 -8 -40 2 -2 114 -3 249 -2 l246 3 -15 38
-15 37 -222 0 -222 0 -13 -36z"/>
<path d="M6614 1745 c-7 -19 -14 -39 -14 -45 0 -7 107 -10 321 -10 176 0 319
3 317 8 -2 4 -10 24 -18 45 l-14 37 -289 0 -288 0 -15 -35z"/>
<path d="M6549 1573 c-5 -16 -12 -34 -14 -40 -3 -10 77 -13 380 -13 212 0 385
2 385 5 0 3 -7 21 -14 40 l-15 35 -356 0 -355 0 -11 -27z"/>
<path d="M1949 845 c-56 -18 -114 -73 -143 -134 -17 -37 -21 -66 -21 -146 0
-90 3 -106 29 -158 34 -70 85 -111 160 -128 70 -15 141 1 191 44 37 32 37 32
17 50 -19 17 -21 17 -57 -7 -76 -52 -158 -43 -218 23 -42 46 -57 93 -57 177 0
125 61 215 155 229 38 6 54 3 95 -18 48 -25 48 -25 67 -5 17 19 17 21 -11 43
-55 44 -126 54 -207 30z"/>
<path d="M4788 846 c-115 -42 -168 -132 -168 -282 0 -178 92 -288 240 -288
145 0 228 95 238 271 7 137 -39 237 -130 284 -52 27 -132 33 -180 15z m142
-68 c32 -16 52 -36 70 -68 22 -40 25 -57 25 -145 0 -91 -2 -104 -27 -147 -29
-48 -91 -88 -138 -88 -47 0 -109 40 -138 88 -25 43 -27 56 -27 147 0 88 3 105
25 145 27 48 92 90 140 90 14 0 46 -10 70 -22z"/>
<path d="M6578 846 c-115 -42 -168 -132 -168 -282 0 -178 92 -288 240 -288
145 0 228 95 238 271 7 137 -39 237 -130 284 -52 27 -132 33 -180 15z m142
-68 c32 -16 52 -36 70 -68 22 -40 25 -57 25 -145 0 -91 -2 -104 -27 -147 -29
-48 -91 -88 -138 -88 -47 0 -109 40 -138 88 -25 43 -27 56 -27 147 0 88 3 105
25 145 27 48 92 90 140 90 14 0 46 -10 70 -22z"/>
<path d="M7585 851 c-81 -20 -152 -87 -180 -171 -40 -120 0 -293 81 -355 91
-70 235 -68 317 3 14 13 17 33 17 134 l0 118 -95 0 -95 0 0 -30 0 -30 60 0 60
0 0 -80 c0 -88 -3 -92 -71 -105 -88 -16 -185 48 -208 138 -14 58 -14 140 0
192 31 112 188 171 274 103 25 -19 27 -20 46 -2 19 17 19 18 -2 40 -40 43
-130 63 -204 45z"/>
<path d="M9935 846 c-77 -29 -119 -108 -95 -180 15 -48 64 -86 160 -126 96
-39 135 -78 126 -124 -18 -88 -139 -112 -238 -46 l-43 29 -20 -20 -20 -20 32
-29 c34 -31 116 -60 169 -60 46 0 114 27 146 57 59 56 61 150 4 206 -18 18
-72 49 -124 71 -94 39 -132 71 -132 110 0 78 116 109 209 55 30 -18 36 -18 49
-5 53 52 -125 118 -223 82z"/>
<path d="M20 820 l0 -30 90 0 90 0 0 -255 0 -255 35 0 35 0 0 255 0 255 85 0
85 0 0 30 0 30 -210 0 -210 0 0 -30z"/>
<path d="M950 565 l0 -285 165 0 165 0 0 30 0 30 -130 0 -130 0 0 105 0 105
110 0 110 0 0 30 0 30 -110 0 -110 0 0 90 0 90 130 0 130 0 0 30 0 30 -165 0
-165 0 0 -285z"/>
<path d="M2710 565 l0 -285 35 0 35 0 0 135 0 135 135 0 135 0 0 -135 0 -135
35 0 35 0 0 285 0 285 -35 0 -35 0 0 -120 0 -120 -135 0 -135 0 0 120 0 120
-35 0 -35 0 0 -285z"/>
<path d="M3680 565 l0 -285 36 0 37 0 -5 241 -5 242 31 -60 c17 -33 78 -141
136 -241 l105 -182 38 0 37 0 0 285 0 285 -36 0 -37 0 5 -235 c3 -129 3 -235
2 -235 -2 0 -13 19 -25 43 -12 23 -71 129 -133 234 l-111 192 -37 1 -38 0 0
-285z"/>
<path d="M5630 565 l0 -285 160 0 160 0 0 30 0 30 -125 0 -125 0 0 255 0 255
-35 0 -35 0 0 -285z"/>
<path d="M8360 565 l0 -285 35 0 35 0 0 285 0 285 -35 0 -35 0 0 -285z"/>
<path d="M8990 565 l0 -285 165 0 165 0 0 30 0 30 -130 0 -130 0 0 105 0 105
110 0 110 0 0 30 0 30 -110 0 -110 0 0 90 0 90 130 0 130 0 0 30 0 30 -165 0
-165 0 0 -285z"/>
</g>
</svg>
