<svg xmlns="http://www.w3.org/2000/svg" fill="#0d52bf" data-name="Layer 1" viewBox="0 0 716.56 292.44">
  <path d="M214.181 204.066v40.883H105.328V59.095h42.48v144.97zM294.859 213.088c10.885 0 20.18-4.242 25.49-10.09l31.86 18.324c-13.014 18.051-32.656 27.346-57.916 27.346-45.404 0-73.546-30.535-73.546-70.092s28.756-70.099 70.685-70.099c38.762 0 67.44 30.005 67.44 70.099a77.279 77.279 0 0 1-1.59 15.93h-94.256c5.045 13.802 17.256 18.582 31.833 18.582zm24.422-48.321c-4.243-15.4-16.196-20.975-28.142-20.975-15.134 0-25.224 7.438-28.936 20.975zM476.476 205.126c0 30.528-26.515 43.542-55.222 43.542-26.515 0-46.751-10.09-57.085-31.596l34.519-19.649c3.447 10.09 10.885 15.665 22.566 15.665 9.56 0 14.332-2.917 14.332-8.227 0-14.604-65.312-6.908-65.312-52.836 0-28.943 24.423-43.548 52.04-43.548 21.506 0 40.625 9.56 51.776 28.414L440.1 155.207c-3.72-6.9-9.022-11.68-17.786-11.68-6.901 0-11.165 2.658-11.165 7.43.014 15.136 65.326 5.046 65.326 54.17zM493.725 51.134h39.823v193.815h-39.823zM560.091 112.196h39.83V244.95h-39.83z" class="cls-1"/>
  <circle cx="580.006" cy="69.932" r="25.322" class="cls-1"/>
</svg>
