<?xml version="1.0" ?><svg data-name="Layer 1" id="Layer_1" viewBox="0 0 25 25" xmlns="http://www.w3.org/2000/svg"><defs><style></style></defs><title/><path class="cls-1" d="M23.75,4H13.35a.25.25,0,0,1-.19-.09L11.11,1.45a1.25,1.25,0,0,0-1-.45H5.25A1.25,1.25,0,0,0,4,2.25V3H8.15a2.24,2.24,0,0,1,1.73.81L11.7,6h10A2.25,2.25,0,0,1,24,8.25v9.7a1.23,1.23,0,0,0,1-1.2V5.25A1.25,1.25,0,0,0,23.75,4Z"/><path class="cls-1" d="M21.75,7H11.23L9.11,4.45a1.25,1.25,0,0,0-1-.45H3.25A1.25,1.25,0,0,0,2,5.25V6H6.15a2.24,2.24,0,0,1,1.73.81L9.7,9h10A2.25,2.25,0,0,1,22,11.25v9.7a1.23,1.23,0,0,0,1-1.2V8.25A1.25,1.25,0,0,0,21.75,7Z"/><path class="cls-1" d="M19.75,10H9.23L7.11,7.45a1.25,1.25,0,0,0-1-.45H1.25A1.25,1.25,0,0,0,0,8.25v14.5A1.25,1.25,0,0,0,1.25,24h18.5A1.25,1.25,0,0,0,21,22.75V11.25A1.25,1.25,0,0,0,19.75,10Z"/></svg>
