<?xml version="1.0" ?><!DOCTYPE svg  PUBLIC '-//W3C//DTD SVG 1.1//EN'  'http://www.w3.org/Graphics/SVG/1.1/DTD/svg11.dtd'><svg enable-background="new 0 0 40 40" version="1.1" viewBox="0 0 40 40" xml:space="preserve" xmlns="http://www.w3.org/2000/svg" xmlns:xlink="http://www.w3.org/1999/xlink"><g id="Office"><g id="Drive_Lock_6_"/><g id="Drive_Down_6_"/><g id="Drive_Up_6_"/><g id="Drive_4_"/><g id="Screwdriver_3_"/><g id="Wrench_2_"/><g id="Flag_4_"/><g id="Whistle_4_"/><g id="Eye_Off_8_"/><g id="Eye"/><g id="Wand_4_"/><g id="Swatches"/><g id="Crop_6_"/><g id="Adjust_3_"/><g id="Picker"/><g id="Vector_5_"/><g id="Layer_Lock_6_"/><g id="Layer_Minus_6_"/><g id="Layer_Plus_6_"/><g id="Layer_4_"/><g id="File_Export_6_"/><g id="File_Import_6_"/><g id="File_4_"/><g id="Note_Flag_5_"/><g id="Note_Lock_5_"/><g id="Note_Minus_5_"/><g id="Note_Plus_5_"/><g id="Note_3_"/><g id="Folder_Flag_5_"/><g id="Folder_Lock_5_"/><g id="Folder_Minus_5_"/><g id="Folder_Plus_5_"/><g id="Folder_3_"/><g id="Magnet_3_"/><g id="Versions_6_"><g id="Versions_10_"><g><rect clip-rule="evenodd" fill="#95A5A6" fill-rule="evenodd" height="17" width="26" x="7" y="16"/></g></g><g id="Versions_8_"><g><path clip-rule="evenodd" d="M24,22c0,0,0,1.4,0,2s-0.6,1-1.4,1h-5.3c-0.8,0-1.4-0.4-1.4-1      s0-2,0-2h-2c0,0,0,0.3,0,2c0,1.7,1.4,3,3.2,3h5.6c1.8,0,3.2-1.3,3.2-3c0-1.7,0-2,0-2H24z" fill="#ECF0F1" fill-rule="evenodd"/></g></g><g id="Versions_5_"><g><polygon clip-rule="evenodd" fill="#E67E22" fill-rule="evenodd" points="32,13 8,13 7,15 33,15     "/></g></g><g id="Versions_3_"><g><polygon clip-rule="evenodd" fill="#1ABC9C" fill-rule="evenodd" points="30,10 10,10 9,12 31,12     "/></g></g><g id="Versions_1_"><g><polygon clip-rule="evenodd" fill="#34495E" fill-rule="evenodd" points="28,7 12,7 11,9 29,9     "/></g></g></g><g id="Inbox_Down_5_"/><g id="Inbox_Up_5_"/><g id="Inbox_3_"/><g id="Email_Lock_5_"/><g id="Email_Star_5_"/><g id="Email_Flag"/><g id="Email_Ban_5_"/><g id="Email_Plus_5_"/><g id="Email_Minus_5_"/><g id="Email_Contact_5_"/><g id="Email_3_"/><g id="Bulb_4_"/><g id="Shield_4_"/><g id="Key_3_"/><g id="Heat_4_"/><g id="Calendar_6_"/><g id="Briefcase"/><g id="Messenger_Bag"/><g id="Suitcase_5_"/><g id="Trophy_4_"/><g id="Bookmark"/><g id="Book_03"/><g id="Book_02"/><g id="Book_01"/><g id="Timer_8_"/><g id="Alarm_10_"/><g id="Clock_6_"/><g id="Albums_5_"/><g id="Plane_4_"/><g id="Pin_Flag_4_"/><g id="Tack"/><g id="Paper_Clip"/><g id="Pencil_4_"/><g id="Lead_Pencil_3_"/><g id="Sharpie_6_"/><g id="Piechart_4_"/><g id="Bargraph_6_"/></g><g id="Lockup"/></svg>