<?xml version="1.0" encoding="utf-8"?>
<!-- Generator: Adobe Illustrator 26.5.0, SVG Export Plug-In . SVG Version: 6.00 Build 0)  -->
<svg version="1.1"
	 id="Layer_1" xmlns:dc="http://purl.org/dc/elements/1.1/" xmlns:cc="http://creativecommons.org/ns#" xmlns:inkscape="http://www.inkscape.org/namespaces/inkscape" xmlns:rdf="http://www.w3.org/1999/02/22-rdf-syntax-ns#" xmlns:sodipodi="http://sodipodi.sourceforge.net/DTD/sodipodi-0.dtd" xmlns:svg="http://www.w3.org/2000/svg"
	 xmlns="http://www.w3.org/2000/svg" xmlns:xlink="http://www.w3.org/1999/xlink" x="0px" y="0px" viewBox="0 0 913.9 792.9"
	 style="enable-background:new 0 0 913.9 792.9;" xml:space="preserve">
<sodipodi:namedview  bordercolor="#666666" borderopacity="1" gridtolerance="10" guidetolerance="10" id="namedview19" inkscape:current-layer="Layer_1" inkscape:cx="456.948" inkscape:cy="396.44301" inkscape:pageopacity="0" inkscape:pageshadow="2" inkscape:window-height="940" inkscape:window-maximized="1" inkscape:window-width="1680" inkscape:window-x="0" inkscape:window-y="23" inkscape:zoom="0.85703125" objecttolerance="10" pagecolor="#ffffff" showgrid="false">
	</sodipodi:namedview>
<path id="path16" d="M913.9,396.4c0-82.4-62.7-152.8-148.6-167.1C800,141.5,752.7,43.7,659.7,10.9C586.9-14.7,505,6.6,456.4,63.8
	c-62-73.2-175.1-85.2-252.7-26.7c-60.9,45.9-83.5,123.5-56.1,192.3C50,246.2-14.9,334.6,2.9,426.8c13.4,69.6,71.1,124,144.8,136.6
	c-34.8,87.8,12.4,185.6,105.4,218.5c72.8,25.7,154.8,4.4,203.4-52.8c62,73.2,175.1,85.2,252.7,26.7c60.8-45.9,83.5-123.4,56.1-192.2
	C851.2,549.2,913.8,478.8,913.9,396.4L913.9,396.4z M467.9,531.6v29.5h-55.3V448.2c0-17-14.6-30.8-32.7-30.8c0,0,0,0-0.1,0H260.2
	v-52.2h119.7c18,0,32.7-13.8,32.7-30.8v-113h55.3v112.9c0,17,14.7,30.8,32.7,30.8c0,0,0,0,0,0h119.6v52.2H500.5
	c-18,0-32.7,13.8-32.7,30.8L467.9,531.6L467.9,531.6z"/>
</svg>
