<?xml version="1.0" encoding="UTF-8"?><svg id="uuid-dc4df9ec-51e9-43ee-baf1-499cd56365d4" xmlns="http://www.w3.org/2000/svg" viewBox="0 0 38.02 38.01"><g id="uuid-dc8b7d0c-5740-4c81-abf8-fbf8adfabd3a"><path d="M21.84,34.01c-.3-.85-.97-1.53-1.83-1.83-.65-.24-1.35-.24-2,0-1.56,.55-2.38,2.27-1.83,3.83s2.27,2.38,3.83,1.83,2.38-2.27,1.83-3.83Zm-2.83,1.99c-.55,0-1-.45-1-1s.45-1,1-1,1,.45,1,1-.45,1-1,1Z"/><path d="M5.83,29c-.55-1.56-2.27-2.38-3.83-1.83S-.38,29.44,.17,31s2.27,2.38,3.83,1.83c.85-.3,1.53-.97,1.83-1.83,.24-.65,.24-1.35,0-2Zm-2.82,2c-.55,0-1-.45-1-1s.45-1,1-1,1,.45,1,1-.45,1-1,1Z"/><path d="M37.85,29c-.42-1.2-1.56-2-2.84-2-1.27,0-2.4,.8-2.82,2-.24,.65-.24,1.35,0,2,.55,1.56,2.27,2.38,3.83,1.83,1.56-.55,2.38-2.27,1.83-3.83Zm-2.84,2c-.55,0-1-.45-1-1s.45-1,1-1,1,.45,1,1-.45,1-1,1Z"/><path d="M19.01,7.44c-2.75,0-4.5,.89-4.5,1.5,0,.47,1.01,1.11,2.88,1.39,1.07,.15,2.16,.15,3.24,0,1.99-.29,2.88-.98,2.88-1.38,0-.61-1.75-1.5-4.5-1.5Z"/><path d="M23.44,10.46c-.15,.09-.3,.17-.47,.25-.05,.02-.12,.04-.17,.07-.15,.06-.3,.12-.46,.18-.1,.03-.22,.06-.34,.09-.13,.04-.26,.08-.4,.11-.26,.06-.54,.11-.82,.15-.58,.08-1.17,.12-1.76,.12s-1.18-.04-1.76-.12c-1.17-.17-2.1-.47-2.74-.88v2.45c0,.61,1.29,1.4,3.38,1.62,.75,.08,1.51,.08,2.26,0,2.01-.21,3.36-1.01,3.36-1.62v-2.46s0,0,0,0c-.02,.01-.05,.02-.07,.04Z"/><path d="M23.27,14.59c-.17,.1-.35,.2-.56,.29-.04,.02-.08,.03-.12,.05-.19,.08-.38,.15-.59,.22-.15,.05-.32,.08-.48,.12-.11,.03-.21,.06-.33,.08-.3,.06-.62,.11-.94,.15-.41,.04-.82,.06-1.23,.06,0,0,0,0-.01,0-.41,0-.83-.02-1.24-.06-.15-.02-.29-.05-.44-.07-.16-.02-.33-.04-.49-.08-.09-.02-.17-.04-.26-.06-.22-.05-.44-.1-.64-.17-.04-.01-.07-.02-.1-.04-.24-.08-.47-.17-.68-.27,0,0-.01,0-.02-.01-.23-.11-.43-.23-.61-.35,0,0,0,0,0,0v2.5c0,.61,1.75,1.5,4.5,1.5s4.5-.89,4.5-1.5v-2.48c-.05,.04-.12,.07-.17,.1-.02,.01-.04,.02-.06,.03Z"/><path d="M29.01,9C28.46,3.51,23.56-.5,18.06,.05c-3.98,.4-7.34,3.13-8.54,6.95h-.51C4.59,7,1.01,10.58,1.01,15s3.58,8,8,8H29.01c3.87,0,7-3.13,7-7s-3.13-7-7-7Zm-4.5,3.88v4.06c0,1.62-2.83,2.5-5.5,2.5s-5.5-.88-5.5-2.5V8.94c0-1.62,2.83-2.5,5.5-2.5s5.5,.88,5.5,2.5v3.94Z"/><path d="M31.19,31c-.24-.64-.24-1.35,0-2h-3.18c-1.1,0-2-.9-2-2v-3h-2v3c0,2.21,1.79,4,4,4h3.18s0,0,0,0Z"/><path d="M19,31.01c.35,0,.69,.06,1.01,.18v-7.18h-2v7.18c.31-.11,.65-.18,.99-.18Z"/><path d="M12.01,24v3c0,1.1-.9,2-2,2h-3.17c.24,.68,.21,1.37-.02,2h3.18c2.21,0,4-1.79,4-4v-3h-2Z"/></g></svg>