<?xml version="1.0" encoding="UTF-8"?><svg id="Capa_2" xmlns="http://www.w3.org/2000/svg" viewBox="0 0 40 43"><g id="svg"><path d="M39.15,10H.85c-.47,0-.85,.38-.85,.85v7.31c0,.47,.38,.85,.85,.85H39.15c.47,0,.85-.38,.85-.85v-7.31c0-.47-.38-.85-.85-.85Zm-30.15,6.45c0,.3-.25,.55-.55,.55H3.55c-.3,0-.55-.25-.55-.55v-1.9c0-.3,.25-.55,.55-.55h4.9c.3,0,.55,.25,.55,.55v1.9Zm7,0c0,.3-.25,.55-.55,.55h-4.9c-.3,0-.55-.25-.55-.55v-1.9c0-.3,.25-.55,.55-.55h4.9c.3,0,.55,.25,.55,.55v1.9Zm7,0c0,.3-.25,.55-.55,.55h-4.9c-.3,0-.55-.25-.55-.55v-1.9c0-.3,.25-.55,.55-.55h4.9c.3,0,.55,.25,.55,.55v1.9Zm11,.55c-1.1,0-2-.9-2-2s.9-2,2-2,2,.9,2,2-.9,2-2,2Z"/><path d="M39.15,0H.85C.38,0,0,.38,0,.85v7.31c0,.47,.38,.85,.85,.85H39.15c.47,0,.85-.38,.85-.85V.85c0-.47-.38-.85-.85-.85ZM9,6.45c0,.3-.25,.55-.55,.55H3.55c-.3,0-.55-.25-.55-.55v-1.9c0-.3,.25-.55,.55-.55h4.9c.3,0,.55,.25,.55,.55v1.9Zm7,0c0,.3-.25,.55-.55,.55h-4.9c-.3,0-.55-.25-.55-.55v-1.9c0-.3,.25-.55,.55-.55h4.9c.3,0,.55,.25,.55,.55v1.9Zm7,0c0,.3-.25,.55-.55,.55h-4.9c-.3,0-.55-.25-.55-.55v-1.9c0-.3,.25-.55,.55-.55h4.9c.3,0,.55,.25,.55,.55v1.9Zm11,.55c-1.1,0-2-.9-2-2s.9-2,2-2,2,.9,2,2-.9,2-2,2Z"/><path d="M39.15,20H.85c-.47,0-.85,.38-.85,.85v7.31c0,.47,.38,.85,.85,.85H39.15c.47,0,.85-.38,.85-.85v-7.31c0-.47-.38-.85-.85-.85Zm-30.15,6.45c0,.3-.25,.55-.55,.55H3.55c-.3,0-.55-.25-.55-.55v-1.9c0-.3,.25-.55,.55-.55h4.9c.3,0,.55,.25,.55,.55v1.9Zm7,0c0,.3-.25,.55-.55,.55h-4.9c-.3,0-.55-.25-.55-.55v-1.9c0-.3,.25-.55,.55-.55h4.9c.3,0,.55,.25,.55,.55v1.9Zm7,0c0,.3-.25,.55-.55,.55h-4.9c-.3,0-.55-.25-.55-.55v-1.9c0-.3,.25-.55,.55-.55h4.9c.3,0,.55,.25,.55,.55v1.9Zm11,.55c-1.1,0-2-.9-2-2s.9-2,2-2,2,.9,2,2-.9,2-2,2Z"/><rect x="17" y="30" width="6" height="7"/><rect y="38" width="40" height="5" rx=".67" ry=".67"/></g></svg>