<?xml version="1.0" encoding="UTF-8"?><svg id="uuid-19df0f9d-fbcc-404b-8f03-c5550e64aeb4" xmlns="http://www.w3.org/2000/svg" viewBox="0 0 43.8 48.09"><defs><style>.uuid-a138aa1c-5bc1-4bf8-bdee-f5457ffcde3f{stroke:#000;stroke-miterlimit:10;stroke-width:.25px;}.uuid-8e721f7f-85c1-4507-b884-8678436753fb{isolation:isolate;}</style></defs><g id="uuid-c30e5568-a32e-4531-b42e-da019c7b9837"><path class="uuid-a138aa1c-5bc1-4bf8-bdee-f5457ffcde3f" d="M36.5,12.29C32.2,7.99,27.5,3.19,24.3,.09c3.7,3.8,8.4,8.5,12.2,12.2Z"/><path d="M19.2,38.09l.1-.3q-.1,0-.2-.1l.1,.4Z"/><path class="uuid-a138aa1c-5bc1-4bf8-bdee-f5457ffcde3f" d="M39.5,15.29c-.9-.9-1.9-1.9-3-3l3,3h0Z"/><polygon points="33.3 35.89 33.4 35.49 33.2 35.69 33.3 35.89"/><path d="M31.26,40.61c-.13,.04-.27,.05-.41,.05h0c-.41,0-.79-.16-1.08-.45-.29-.29-.44-.67-.44-1.08,0-.39,.15-.75,.4-1.03-1.74,1.03-3.71,1.55-5.7,1.55-1.31,0-2.62-.24-3.88-.68l-.35,1.61c-.1,.1-.3,.3-.6,.3-.2,0-.4-.2-.5-.4l-.56-2.45c-.8-.47-1.57-1.04-2.26-1.72-2.16-2.11-3.36-4.94-3.38-7.98-.01-2.25,.62-4.4,1.82-6.25l-.72-3.01-4.1,8.4c-.1,.2-.3,.3-.4,.3H1c-.3,0-.5-.2-.5-.5s.2-.5,.5-.5h7.7l4.6-9.4c.1-.2,.3-.3,.5-.3s.4,.2,.4,.4l.86,3.58c.25-.31,.52-.62,.81-.91,4.45-4.46,11.7-4.46,16.16,0,1.82,1.82,2.95,4.14,3.27,6.63h3.4c.3,0,.5,.2,.5,.5s-.2,.5-.5,.5h-3.32c0,.15,.02,.3,.02,.45,0,2.07-.57,4.06-1.61,5.81,.6-.58,1.55-.58,2.14,.01h0c.29,.29,.44,.67,.44,1.08,0,.14-.02,.28-.05,.41l3.18,3.18V15.39l-.1-.1h-10.7c-2.4,0-4.4-2-4.4-4.4V.09H4.4C2,.09,0,2.09,0,4.49V43.49c0,2.4,2,4.4,4.4,4.4h30.7c.95,0,1.82-.32,2.55-.89l-6.39-6.39Z"/><rect id="uuid-30a958d7-a9d6-4adc-8a9b-eec4cef0f0d7" x="31.58" y="33.98" width="2.5" height="6.3" transform="translate(-16.64 34.09) rotate(-45)"/><path id="uuid-45b7c714-5d26-4fc2-8964-318918bfeeab" d="M16.37,20.66c-4.2,4.2-4.2,11,0,15.1,4.2,4.1,11,4.2,15.1,0,4.2-4.2,4.2-10.9,0-15.1s-10.9-4.2-15.1,0Zm13.2,13.2c-3.1,3.1-8.2,3.1-11.3,0s-3.1-8.2,0-11.4c3.1-3.1,8.2-3.1,11.3,0,3.2,3.2,3.2,8.3,0,11.4Z"/><path id="uuid-a2013b79-4a62-4c03-b5c0-30f711228104" class="uuid-8e721f7f-85c1-4507-b884-8678436753fb" d="M28.47,23.96c-2.4-2.4-6.3-2.4-8.7,0h0l1.7,1.7h0c2.1-2.1,5.6-2.1,7.7,0,.4,.4,.8,.9,1,1.4-.3-1.1-.9-2.2-1.7-3.1Z"/><path id="uuid-86c505c7-b997-4642-a096-55c2f3cb7e6f" d="M35.37,34.56c-.3-.3-.8-.3-1.1,0h0l-4,4h0c-.3,.3-.3,.8,0,1.1s.8,.3,1.1,0l7.6,7.6c1.1,1.1,2.9,1.1,4,0s1.1-2.9,0-4l-7.6-7.6c.3-.3,.3-.8,0-1.1Z"/></g></svg>