<?xml version="1.0" encoding="UTF-8"?><svg id="uuid-e99ae1b7-fbf4-48ad-bf7f-d3c9195b3812" xmlns="http://www.w3.org/2000/svg" viewBox="0 0 103.51 102.88"><defs><style>.uuid-4a35490c-8f91-47b9-8ca1-8606cf9f6b4f{opacity:.1;}.uuid-4a35490c-8f91-47b9-8ca1-8606cf9f6b4f,.uuid-0cc36578-d916-448f-abce-8bf8c38e7ec0{isolation:isolate;}</style></defs><g id="uuid-26cbbf43-54cc-4e90-96e2-df9dee2a457e"><path class="uuid-4a35490c-8f91-47b9-8ca1-8606cf9f6b4f" d="M88,98.88H8c-4.4,0-8-3.6-8-8v4c0,4.4,3.6,8,8,8H88c4.4,0,8-3.6,8-8v-4c0,4.4-3.6,8-8,8Z"/><path class="uuid-0cc36578-d916-448f-abce-8bf8c38e7ec0" d="M79.98,49.09c-.1,.93-.83,1.67-1.77,1.77l-12.02,12.02h11.81c1.1,0,2,.9,2,2s-.9,2-2,2h-15.81l-3.38,3.38s-.03,.02-.04,.03c-.23,.23-.48,.44-.73,.63,0,0-.02,0-.03,0-1.14,.85-2.47,1.33-3.82,1.41l-33.85,12.56c-.24,.08-.46,.14-.66,.18-.02,0-.04,0-.07,0-.18,.02-.35,.04-.51,.02,0,0,0,0,0,0-.34-.03-.62-.16-.81-.36h0s0,0,0,0c-.37-.4-.44-1.09-.11-2l5.73-15.85h-4.9c-1.1,0-2-.9-2-2s.9-2,2-2h6.35l4.34-12h-10.68c-1.1,0-2-.9-2-2s.9-2,2-2h12.1c.24-.68,.57-1.33,1.02-1.92,0,0,0,0,0,0,.2-.26,.41-.51,.65-.74l9.33-9.33H19c-1.1,0-2-.9-2-2s.9-2,2-2h27.09L71.09,5.88H8C3.6,5.88,0,9.48,0,13.88V94.88c0,4.4,3.6,8,8,8H88c4.4,0,8-3.6,8-8V33.07l-16.02,16.02Z"/><g><path d="M34.71,47.48c-.19,.19-.37,.4-.53,.61h0c-.48,.64-.81,1.35-1,2.09l-10.42,28.83c-.27,.75-.21,1.31,.09,1.64h0s0,0,0,0c.16,.17,.38,.27,.66,.29,0,0,0,0,.01,0,.13,.01,.27,0,.42-.02,.02,0,.03,0,.05,0,.17-.03,.35-.07,.54-.14l27.71-10.28c1.11-.07,2.2-.46,3.13-1.16,0,0,.02,0,.02,0,.21-.16,.41-.33,.6-.51,0,0,.02-.02,.03-.02L94.09,30.75l-20.62-22.02L34.71,47.48Z"/><path d="M101.8,23.04c.29-.29,.54-.59,.75-.92,1.5-2.28,1.25-5.4-.75-7.4L88.8,1.72c-2.29-2.29-6.03-2.29-8.32,0l-4.01,4.01,20.62,22.02,4.71-4.71Z"/></g></g></svg>