<?xml version="1.0" encoding="UTF-8"?><svg id="Capa_2" xmlns="http://www.w3.org/2000/svg" viewBox="0 0 18 21"><g id="svg2028"><path id="path2014" d="M3,0c-.55,0-1,.45-1,1v3c0,.55,.45,1,1,1s1-.45,1-1V1c0-.55-.45-1-1-1Z"/><path id="path2018" d="M15,0c-.55,0-1,.4-1,1v3c0,.5,.45,1,1,1s1-.5,1-1V1c0-.6-.45-1-1-1Z"/><path d="M0,7.76v11.24c0,1.1,.9,2,2,2h14c1.1,0,2-.9,2-2V7.76H0Zm9,7.24c0,1.1-.9,2-2,2h-2v-1h2c.55,0,1-.5,1-1,0-.6-.45-1-1-1h-1v-1h1c.55,0,1-.5,1-1,0-.6-.45-1-1-1h-2v-1h2c1.1,0,2,.9,2,2,0,.6-.27,1.1-.69,1.5,.42,.3,.69,.9,.69,1.5Zm4,2h-3v-1h1v-5h-1v-1h2v6h1v1Z"/><path d="M16.28,2.03v1.7c.14,.23,.22,.49,.22,.77,0,.83-.67,1.5-1.5,1.5s-1.5-.67-1.5-1.5c0-.28,.08-.55,.22-.77v-1.73H4.28v1.73c.14,.23,.22,.49,.22,.77,0,.83-.67,1.5-1.5,1.5s-1.5-.67-1.5-1.5c0-.28,.08-.55,.22-.77v-1.7c-.97,.14-1.72,.97-1.72,1.97v3H18v-3c0-1-.75-1.83-1.72-1.97Z"/></g></svg>