<?xml version="1.0" encoding="UTF-8"?><svg id="Capa_2" xmlns="http://www.w3.org/2000/svg" viewBox="0 0 50 44.66"><g id="Layer_1"><path d="M16,9h20V2c0-1.1-.9-2-2-2H2C.9,0,0,.9,0,2V28c0,1.1,.9,2,2,2h3v5.83l7.33-5.83h1.67V11c0-1.1,.9-2,2-2Z"/><path d="M48.09,10.53H17.61c-1.05,0-1.91,.85-1.91,1.91v24.77c0,1.05,.85,1.91,1.91,1.91h20.64l6.98,5.56v-5.56h2.86c1.05,0,1.91-.85,1.91-1.91V12.43c0-1.05-.85-1.91-1.91-1.91Zm-6.62,19.9H24.23v-2.03h17.24v2.03Zm0-4.76H24.23v-2.03h17.24v2.03Zm0-4.76H24.23v-2.03h17.24v2.03Z"/></g></svg>