<?xml version="1.0" ?><!DOCTYPE svg  PUBLIC '-//W3C//DTD SVG 1.1//EN'  'http://www.w3.org/Graphics/SVG/1.1/DTD/svg11.dtd'><svg enable-background="new 0 0 128 128" height="128px" id="Layer_1" version="1.1" viewBox="0 0 128 128" width="128px" xml:space="preserve" xmlns="http://www.w3.org/2000/svg" xmlns:xlink="http://www.w3.org/1999/xlink"><g id="compose_x5F_copywriting"><path d="M110,105c0,4.4-3.6,8-8,8H22c-4.4,0-8-3.6-8-8V24c0-4.4,3.6-8,8-8h80c4.4,0,8,3.6,8,8V105z" fill="#EDEDED"/><path d="M102,109H22c-4.4,0-8-3.6-8-8v4c0,4.4,3.6,8,8,8h80c4.4,0,8-3.6,8-8v-4C110,105.4,106.4,109,102,109z" opacity="0.1"/><path d="M92,45H33c-1.104,0-2-0.896-2-2s0.896-2,2-2h59c1.104,0,2,0.896,2,2S93.104,45,92,45z" opacity="0.1"/><path d="M92,61H33c-1.104,0-2-0.896-2-2s0.896-2,2-2h59c1.104,0,2,0.896,2,2S93.104,61,92,61z" opacity="0.1"/><path d="M92,77H33c-1.104,0-2-0.896-2-2s0.896-2,2-2h59c1.104,0,2,0.896,2,2S93.104,77,92,77z" opacity="0.1"/><path d="M110,42.396L56.3,66.502c-1.052,0.472-1.904,1.21-2.524,2.095L32.665,93.15   c-1.114,1.296-0.628,2.382,1.081,2.414l31.223,0.253c1.396,0.432,2.945,0.386,4.375-0.255L110,77.311V42.396z" opacity="0.1"/><path d="M115.628,34.043c2.417-2.417,2.417-6.373,0-8.79l-13.734-13.734c-2.417-2.417-6.372-2.417-8.79,0   L44.761,59.863c-0.816,0.816-1.349,1.808-1.614,2.855L32.145,93.172c-0.581,1.607,0.26,2.45,1.869,1.872L63.287,84.18   c1.458-0.092,2.89-0.686,3.998-1.794L115.628,34.043z" fill="#F2BA34"/><path d="M110.563,39.108c-6.871-7.286-16.619-17.514-21.885-23.162L44.761,59.863   c-0.204,0.204-0.391,0.419-0.56,0.644c-0.091,0.922-0.573,8.249,7.152,7.047c0,0-1.282,8.79,8.24,8.24   c-0.766,8.084,6.058,7.311,7.025,7.161c0.231-0.173,0.456-0.359,0.666-0.569L110.563,39.108z" fill="#253B4B"/><path d="M115.628,25.253l-13.734-13.734c-2.417-2.417-6.372-2.417-8.79,0l-7.142,7.142l22.524,22.524l7.142-7.142   C118.045,31.626,118.045,27.67,115.628,25.253z" fill="#DD5345"/><path d="M34.711,86.07l-2.566,7.103c-0.581,1.607,0.26,2.45,1.869,1.872l7.054-2.618L34.711,86.07z" fill="#253B4B"/><rect height="3.108" opacity="0.1" transform="matrix(0.7071 0.7071 -0.7071 0.7071 48.9523 -61.6321)" width="31.853" x="82.946" y="26.721"/><rect fill="#D0D0D0" height="6.215" transform="matrix(0.7071 0.7071 -0.7071 0.7071 50.0901 -58.8853)" width="31.853" x="80.199" y="27.914"/><rect height="3.108" opacity="0.1" transform="matrix(0.7071 0.7071 -0.7071 0.7071 50.0901 -58.8853)" width="31.853" x="80.199" y="29.468"/><polygon opacity="0.1" points="104.641,14.266 51.354,67.553 32.239,94.908 59.594,75.794 112.881,22.506  "/><path d="M115.628,25.253l-2.747-2.747L59.594,75.794l-27.35,19.111c0.335,0.356,0.951,0.433,1.77,0.139L63.287,84.18   c1.458-0.092,2.89-0.686,3.998-1.794l48.343-48.343C118.045,31.626,118.045,27.67,115.628,25.253z" opacity="0.2"/></g></svg>