<?xml version="1.0" encoding="utf-8"?>
<!-- Generator: Adobe Illustrator 26.5.0, SVG Export Plug-In . SVG Version: 6.00 Build 0)  -->
<svg version="1.1" id="Layer_1" xmlns="http://www.w3.org/2000/svg" xmlns:xlink="http://www.w3.org/1999/xlink" x="0px" y="0px"
	 viewBox="0 0 70 70" style="enable-background:new 0 0 70 70;" xml:space="preserve">
<g>
	<path d="M63.9,3.2c0-0.5-0.5-1-1-1H45.1v44.5h18.8V3.2z M49.4,6.4h8.6c0.5,0,1,0.5,1,1s-0.5,1-1,1h-8.6c-0.6,0-1-0.5-1-1
		S48.8,6.4,49.4,6.4z M49.4,11.3h8.6c0.5,0,1,0.5,1,1c0,0.6-0.5,1-1,1h-8.6c-0.6,0-1-0.4-1-1C48.4,11.7,48.8,11.3,49.4,11.3z
		 M49.4,16.1h8.6c0.5,0,1,0.5,1,1c0,0.6-0.5,1-1,1h-8.6c-0.6,0-1-0.4-1-1C48.4,16.6,48.8,16.1,49.4,16.1z M50,40.5
		c-1.6,0-2.9-1.3-2.9-2.9s1.3-2.9,2.9-2.9s2.9,1.3,2.9,2.9S51.6,40.5,50,40.5z M55.9,28.6h-4.5c-1.8,0-3.3-1.5-3.3-3.3
		c0-1.8,1.5-3.3,3.3-3.3h4.5c1.8,0,3.3,1.5,3.3,3.3C59.2,27.1,57.7,28.6,55.9,28.6z"/>
	<path d="M24.6,2.2H6.9c-0.5,0-1,0.5-1,1v43.5h18.7V2.2z M11.9,6.4h8.6c0.5,0,1,0.5,1,1s-0.5,1-1,1h-8.6c-0.5,0-1-0.5-1-1
		S11.3,6.4,11.9,6.4z M11.9,11.3h8.6c0.5,0,1,0.5,1,1c0,0.6-0.5,1-1,1h-8.6c-0.5,0-1-0.4-1-1C10.9,11.7,11.3,11.3,11.9,11.3z
		 M11.9,16.1h8.6c0.5,0,1,0.5,1,1c0,0.6-0.5,1-1,1h-8.6c-0.5,0-1-0.4-1-1C10.9,16.6,11.3,16.1,11.9,16.1z M12.5,40.5
		c-1.6,0-2.9-1.3-2.9-2.9s1.3-2.9,2.9-2.9c1.6,0,2.9,1.3,2.9,2.9S14.2,40.5,12.5,40.5z M18.4,28.6H14c-1.8,0-3.3-1.5-3.3-3.3
		c0-1.8,1.5-3.3,3.3-3.3h4.5c1.8,0,3.3,1.5,3.3,3.3C21.7,27.1,20.2,28.6,18.4,28.6z"/>
	<path d="M26.6,2.2v44.5h16.5V2.2H26.6z M30.9,6.4h8.6c0.5,0,1,0.5,1,1s-0.5,1-1,1h-8.6c-0.6,0-1-0.5-1-1S30.4,6.4,30.9,6.4z
		 M30.9,11.3h8.6c0.5,0,1,0.5,1,1c0,0.6-0.5,1-1,1h-8.6c-0.6,0-1-0.4-1-1C29.9,11.7,30.4,11.3,30.9,11.3z M30.9,16.1h8.6
		c0.5,0,1,0.5,1,1c0,0.6-0.5,1-1,1h-8.6c-0.6,0-1-0.4-1-1C29.9,16.6,30.4,16.1,30.9,16.1z M31.6,40.5c-1.6,0-2.9-1.3-2.9-2.9
		s1.3-2.9,2.9-2.9s2.9,1.3,2.9,2.9S33.2,40.5,31.6,40.5z M37.5,28.6H33c-1.8,0-3.3-1.5-3.3-3.3c0-1.8,1.5-3.3,3.3-3.3h4.5
		c1.8,0,3.3,1.5,3.3,3.3C40.7,27.1,39.3,28.6,37.5,28.6z"/>
	<rect x="23.2" y="55.8" width="23.4" height="6"/>
	<path d="M5.9,55.8h5.9v6H6.9c-0.5,0-1-0.5-1-1V55.8z"/>
	<path d="M13.8,55.8h7.4v11c0,0.6-0.4,1-1,1h-5.4c-0.5,0-1-0.4-1-1V55.8z"/>
	<path d="M48.7,55.8h7.4v11c0,0.6-0.5,1-1,1h-5.4c-0.5,0-1-0.4-1-1V55.8z"/>
	<path d="M68,49.7v4.1H2v-4.1c0-0.6,0.5-1,1-1h64C67.6,48.7,68,49.1,68,49.7z"/>
	<path d="M58.1,55.8h5.8v5c0,0.5-0.5,1-1,1h-4.8V55.8z"/>
</g>
</svg>
