<?xml version="1.0" encoding="utf-8"?>
<!-- Generator: Adobe Illustrator 26.5.0, SVG Export Plug-In . SVG Version: 6.00 Build 0)  -->
<svg version="1.1" id="Layer_1" xmlns="http://www.w3.org/2000/svg" xmlns:xlink="http://www.w3.org/1999/xlink" x="0px" y="0px"
	 viewBox="0 0 91 91" style="enable-background:new 0 0 91 91;" xml:space="preserve">
<g>
	<g>
		<path d="M88.6,25.8l-42-20c-0.7-0.3-1.5-0.3-2.1,0l-42,20c-0.9,0.4-1.4,1.3-1.4,2.2c0,1,0.5,1.8,1.4,2.2l42,20
			c0.3,0.2,0.7,0.2,1.1,0.2c0.4,0,0.7-0.1,1.1-0.2l42-20C89.4,29.8,90,29,90,28C90,27.1,89.4,26.2,88.6,25.8z"/>
		<path d="M45.5,68.1c-0.5,0-1-0.1-1.4-0.3l-42-20c-1.6-0.8-2.3-2.7-1.6-4.4c0.8-1.6,2.7-2.3,4.4-1.6l40.6,19.3l40.6-19.3
			c1.6-0.8,3.6-0.1,4.4,1.6c0.8,1.6,0.1,3.6-1.6,4.4l-42,20C46.5,68,46,68.1,45.5,68.1z"/>
		<path d="M45.5,84.9c-0.5,0-1-0.1-1.4-0.3l-42-20c-1.6-0.8-2.3-2.7-1.6-4.4c0.8-1.6,2.7-2.3,4.4-1.6L45.5,78l40.6-19.3
			c1.6-0.8,3.6-0.1,4.4,1.6c0.8,1.6,0.1,3.6-1.6,4.4l-42,20C46.5,84.8,46,84.9,45.5,84.9z"/>
	</g>
</g>
</svg>
