<?xml version="1.0" encoding="UTF-8"?><svg id="Capa_2" xmlns="http://www.w3.org/2000/svg" viewBox="0 0 500 416"><g id="katman_1"><g><path d="M409.8,112.8c-31.1,0-56.4,25.3-56.4,56.5s25.3,56.3,56.4,56.3,56.5-25.3,56.5-56.3-25.4-56.5-56.5-56.5Z"/><path d="M90.2,112.8c-31.1,0-56.5,25.3-56.5,56.5s25.3,56.3,56.5,56.3,56.4-25.3,56.4-56.3-25.3-56.5-56.4-56.5Z"/><path d="M249.9,0c-46,0-83.5,37.4-83.5,83.4s37.4,83.5,83.5,83.5,83.5-37.5,83.5-83.5c.1-46-37.4-83.4-83.5-83.4Z"/><path d="M380.8,416v-96c0-72.2-58.7-130.9-130.8-130.9s-130.9,58.7-130.9,130.9v96H380.8Z"/><path d="M401.5,382h98.5v-44.3c0-49.8-40.5-90.2-90.3-90.2-8.9,0-17.3,1.7-25.4,4.1,10.6,20.7,17.1,43.7,17.1,68.4v62h.1Z"/><path d="M98.4,382v-62c0-24.8,6.5-47.8,17.1-68.4-8-2.4-16.4-4.1-25.3-4.1C40.5,247.5,0,287.9,0,337.7v44.3H98.4Z"/><path d="M250,189.1v226.9h130.8v-96c0-72.1-58.7-130.8-130.8-130.9Z"/><path d="M250,0V167c46,0,83.4-37.5,83.4-83.5,.1-46.1-37.4-83.5-83.4-83.5Z"/></g></g></svg>