<?xml version="1.0" encoding="UTF-8"?><svg id="Capa_2" xmlns="http://www.w3.org/2000/svg" viewBox="0 0 48.9 48.97"><defs><style>.cls-1{fill:none;stroke:#fff;stroke-linecap:square;stroke-miterlimit:10;stroke-width:4px;}</style></defs><g id="Layer_1"><path d="M44.9,0H24.9c-2.21,0-4,1.79-4,4V20h4c2.21,0,4,1.79,4,4v4h16c2.21,0,4-1.79,4-4V4c0-2.21-1.79-4-4-4Z"/><polyline id="polyline2601" class="cls-1" points="29.75 13.33 33.86 17.43 40.39 10.9"/><polyline id="polyline2605" class="cls-1" points="9.92 32.49 14.03 36.6 20.56 30.06"/><path id="path2603" d="M24,20.97H4c-2.21,0-4,1.79-4,4v20c0,2.21,1.79,4,4,4H24c2.21,0,4-1.79,4-4V24.97c0-2.21-1.79-4-4-4Z"/><polyline id="polyline2605-2" class="cls-1" points="8.85 34.3 12.96 38.4 19.49 31.87"/></g></svg>