<?xml version="1.0" encoding="utf-8"?>
<!-- Generator: Adobe Illustrator 26.5.0, SVG Export Plug-In . SVG Version: 6.00 Build 0)  -->
<svg version="1.1"
	 id="svg850" xmlns:dc="http://purl.org/dc/elements/1.1/" xmlns:cc="http://creativecommons.org/ns#" xmlns:inkscape="http://www.inkscape.org/namespaces/inkscape" xmlns:rdf="http://www.w3.org/1999/02/22-rdf-syntax-ns#" xmlns:sodipodi="http://sodipodi.sourceforge.net/DTD/sodipodi-0.dtd" xmlns:svg="http://www.w3.org/2000/svg"
	 xmlns="http://www.w3.org/2000/svg" xmlns:xlink="http://www.w3.org/1999/xlink" x="0px" y="0px" viewBox="0 0 452.6 480"
	 style="enable-background:new 0 0 452.6 480;" xml:space="preserve">
<sodipodi:namedview  bordercolor="#666666" borderopacity="1" gridtolerance="10" guidetolerance="10" id="namedview852" inkscape:current-layer="svg850" inkscape:cx="196.396" inkscape:cy="240" inkscape:pageopacity="0" inkscape:pageshadow="2" inkscape:window-height="939" inkscape:window-maximized="0" inkscape:window-width="1680" inkscape:window-x="0" inkscape:window-y="230" inkscape:zoom="1.390625" objecttolerance="10" pagecolor="#ffffff" showgrid="false">
	</sodipodi:namedview>
<g>
	<path d="M263.5,360.7l-3.4-49.9L370.6,117V52.6h-51.4V0H0v480h370.6V237l-59,103.5L263.5,360.7z M279.9,202H38.5v-19.2h241.4V202z
		 M211.3,321.4v19.2H38.5v-19.2H211.3z M38.5,294.4v-19.2h172.8v19.2H38.5z M238.8,367.6v19.2H38.5v-19.2H238.8z M38.5,248.2V229
		h200.2v19.2H38.5z M38.5,95.9L42.9,85h8.6v-2.3C51.4,62,68.3,45.2,89,45.2c20.7,0,37.6,16.9,37.6,37.6h-10.9
		C115.7,68,103.8,56,89,56c-14.7,0-26.7,12-26.7,26.7V85h41.4l-4.4,10.9h-37v8.1h41.4l-4.4,10.9h-37v0.4c0,14.7,12,26.7,26.7,26.7
		c14.7,0,26.7-12,26.7-26.7h10.9c0,20.7-16.9,37.6-37.6,37.6c-20.7,0-37.6-16.9-37.6-37.6v-0.4H38.5l4.3-10.9h8.6v-8.1H38.5z
		 M279.9,433H38.5v-19.2h241.4V433z"/>
	<polygon points="370.6,52.6 319.2,0 370.6,52.6 	"/>
	<path d="M437.8,59.5c-8.5-4.9-19.4-2-24.3,6.5l30.9,17.8C449.2,75.3,446.3,64.4,437.8,59.5z"/>
	<polygon points="273.5,343.9 302.9,328.3 272.2,310.6 	"/>
	<polygon points="442.6,96.8 432.3,114.6 432.9,124.4 414.1,157 419.5,160.1 437.9,128.1 452.6,102.6 	"/>
	<rect x="220.1" y="184.6" transform="matrix(0.4999 -0.8661 0.8661 0.4999 2.3095 408.8648)" width="270.3" height="35.7"/>
</g>
</svg>
