<?xml version="1.0" encoding="UTF-8"?><svg id="uuid-e9b356b6-aa1d-4ac9-b52c-0b106e3b78b3" xmlns="http://www.w3.org/2000/svg" viewBox="0 0 50.77 47.31"><g id="uuid-083708fd-d794-4dd8-b996-0b589f8845e7"><g><g><path d="M4,0C1.8,0,0,1.8,0,4V26c0,2.2,1.8,4,4,4H30V0H4ZM22,12h-2.18c-.25,1.65-.85,3.19-1.8,4.57l-.57,.82-.07-.05c-.33,.42-.71,.83-1.12,1.23,.9,.65,1.93,1.3,3.11,1.94l.88,.48-.96,1.76-.88-.48c-1.22-.66-2.5-1.44-3.71-2.36-1.05,.8-2.27,1.58-3.74,2.36l-.88,.47-.94-1.76,.88-.47c1.22-.65,2.25-1.29,3.14-1.93-1.75-1.69-3.14-3.82-3.59-6.59h-1.57v-2h6v-2h2v2h6v2Z"/><path d="M11.6,12c.39,1.98,1.38,3.7,3.12,5.31,.66-.63,1.2-1.27,1.65-1.95l.55-.84h.02c.42-.78,.7-1.63,.87-2.52h-6.2Z"/></g><rect id="uuid-765f0086-b268-41e2-b855-a521b21eb7d5" x="8" y="12" width="5.95" height="2"/></g><g><polygon points="38.13 34.31 36.79 30.05 35.47 34.31 38.13 34.31"/><rect id="uuid-c2f79947-c5e7-404d-a077-1ff4ee52a78f" x="30.77" y="38.31" width="12" height="4"/><rect id="uuid-621f82f0-5730-440a-b890-a19f66ac0314" x="31.77" y="22.31" width="8" height="4"/><path d="M46.77,17.31h-15.98v13.45h-10.02v16.55h26c2.2,0,4-1.8,4-4V21.31c0-2.2-1.8-4-4-4Zm-25.56,28.43v-14.54h8.77l-8.77,14.54Zm18.51-6.43l-.95-3h-3.91l-.93,3-1.91-.59,4.74-15.35,4.87,15.34-1.91,.61Z"/><path d="M20.77,47.31V30.7h10l-10,16.61Zm.98-15.62v12.08l7.27-12.08h-7.27Z"/></g></g></svg>