<?xml version="1.0" encoding="utf-8"?>
<!-- Generator: Adobe Illustrator 26.5.0, SVG Export Plug-In . SVG Version: 6.00 Build 0)  -->
<svg version="1.1"
	 id="svg885" xmlns:dc="http://purl.org/dc/elements/1.1/" xmlns:cc="http://creativecommons.org/ns#" xmlns:inkscape="http://www.inkscape.org/namespaces/inkscape" xmlns:rdf="http://www.w3.org/1999/02/22-rdf-syntax-ns#" xmlns:sodipodi="http://sodipodi.sourceforge.net/DTD/sodipodi-0.dtd" xmlns:svg="http://www.w3.org/2000/svg"
	 xmlns="http://www.w3.org/2000/svg" xmlns:xlink="http://www.w3.org/1999/xlink" x="0px" y="0px" viewBox="0 0 250 250"
	 style="enable-background:new 0 0 250 250;" xml:space="preserve">
<sodipodi:namedview  bordercolor="#666666" borderopacity="1" gridtolerance="10" guidetolerance="10" id="namedview887" inkscape:current-layer="svg885" inkscape:cx="120.12253" inkscape:cy="125.67826" inkscape:pageopacity="0" inkscape:pageshadow="2" inkscape:window-height="949" inkscape:window-maximized="1" inkscape:window-width="1680" inkscape:window-x="0" inkscape:window-y="23" inkscape:zoom="1.390625" objecttolerance="10" pagecolor="#ffffff" showgrid="false">
	</sodipodi:namedview>
<g>
	<path d="M248.4,182.4c-5.9-5.4-30.3-15.2-47-21.5c-3.8-1.5-3.7-6.9,0.2-8.2c11.3-3.8,26.6-13.5,40.2-37.6c1.7-3.2-0.4-7.2-4-7.4
		l-21-1.4c-3.9-0.3-5.9-4.8-3.6-7.9c10.6-14.3,31.4-47.7,23.9-81.7c-0.4-1.9-1.9-3.4-3.8-3.8c-33.9-7.5-67.4,13.3-81.7,23.9
		c-3.2,2.4-7.6,0.3-7.9-3.6l-1.4-21c-0.3-3.7-4.2-5.8-7.4-4c-24.1,13.6-33.8,28.9-37.6,40.2c-1.3,3.9-6.8,4-8.2,0.2
		C82.8,31.9,73,7.5,67.6,1.6c-2-2.2-5.6-2.1-7.5,0.3C43.9,22,40.5,39.2,40.4,49.7c0,4.1-4.8,6.3-8,3.8l-9.2-7.3
		c-2.9-2.3-7.2-0.7-7.9,3c-3,16.9-1,31.2,2.3,42.1c1.5,4.9-4.4,8.5-8.1,5c-2.9-2.8-7.8-1.1-8.3,2.9c-8.3,64.3,28.1,93.2,41.2,101.4
		l35.9-35.9c-8-10.4-26.8-41.9-19.3-99.6c0.4-2.7,2.9-4.7,5.6-4.3c2.7,0.4,4.7,2.9,4.3,5.6c-6.7,52.2,9.4,81.2,16.6,91.1l37.2-37.2
		c-4.2-9.2-13.4-35.2-4.1-68.8c0.7-2.7,3.5-4.2,6.2-3.5c2.7,0.7,4.2,3.5,3.5,6.2c-7.5,26.8-1.8,48.3,2.1,58.4l70.9-70.9
		c2-2,5.1-2,7.1,0s2,5.1,0,7.1l-70.9,70.9c10.1,3.8,31.7,9.6,58.5,2.2c2.7-0.7,5.4,0.8,6.2,3.5c0.7,2.7-0.8,5.4-3.5,6.2
		c-10.6,2.9-20.5,4-29.2,4c-19.3,0-33.5-5.3-39.7-8.2l-37.2,37.2c10,7.1,39.1,23.3,91.2,16.7c2.7-0.4,5.2,1.6,5.6,4.3
		c0.4,2.7-1.6,5.2-4.3,5.6c-9.3,1.2-17.9,1.7-25.8,1.7c-41.6,0-65.3-14.4-74-21l-35.9,35.9c8.2,13.1,37.2,49.5,101.3,41.1
		c4-0.5,5.7-5.4,2.9-8.3c-3.4-3.6,0.2-9.6,5-8.1c11,3.3,25.3,5.3,42.1,2.3c3.7-0.6,5.3-5,3-7.9l-7.3-9.2c-2.5-3.2-0.3-8,3.8-8
		c10.6-0.1,27.7-3.5,47.8-19.7C250.5,188,250.6,184.4,248.4,182.4z"/>
	<path d="M46.9,203.2c0,0-1.7-0.8-4.5-2.6L6.7,236.3c-2,2-2,5.1,0,7.1c0.9,1,2.2,1.5,3.5,1.5v0c1.3,0,2.5-0.5,3.5-1.4l35.8-35.8
		C47.7,204.9,46.9,203.2,46.9,203.2L46.9,203.2z"/>
	<polygon points="81.5,161.5 81.5,161.5 81.5,161.5 	"/>
</g>
<g id="_x30_2_Cloudy_Sun">
</g>
<g id="_x30_3_Rain">
</g>
<g id="_x30_4_Umbrella">
</g>
<g id="_x30_5_Boot">
</g>
<g id="_x30_6_Apple">
</g>
<g id="_x30_7_Pumkin">
</g>
<g id="_x30_8_Turkey">
</g>
<g id="_x30_9_Mushroom">
</g>
<g id="_x31_0_Hot_Chocolate">
</g>
<g id="_x31_1_Chestnut">
</g>
<g id="_x31_2_Honey">
</g>
<g id="_x31_3_Foliage">
</g>
<g id="_x31_4_Tree">
</g>
<g id="_x31_5_Sunflower">
</g>
<g id="_x31_6_Scarf">
</g>
<g id="_x31_7_Hat">
</g>
<g id="_x31_8_Wheat">
</g>
<g id="_x31_9_Feather">
</g>
<g id="_x32_0_Watering_Can">
</g>
<g id="Layer_2">
</g>
</svg>
