<?xml version="1.0" ?><svg id="레이어_1" style="enable-background:new 0 0 26 26;" version="1.1" viewBox="0 0 26 26" xml:space="preserve" xmlns="http://www.w3.org/2000/svg" xmlns:xlink="http://www.w3.org/1999/xlink"><style type="text/css">
	.st0{fill:url(#XMLID_98_);}
	.st1{fill:url(#XMLID_99_);}
	.st2{fill:url(#XMLID_100_);}
	.st3{fill:url(#XMLID_101_);}
</style><g id="XMLID_2_"><linearGradient gradientTransform="matrix(1 0 0 -1 0 551.5971)" gradientUnits="userSpaceOnUse" id="XMLID_98_" x1="13.6411" x2="-3.1413" y1="549.8886" y2="533.1062"><stop offset="0" style="stop-color:#00A0FF"/><stop offset="6.574450e-03" style="stop-color:#00A1FF"/><stop offset="0.2601" style="stop-color:#00BEFF"/><stop offset="0.5122" style="stop-color:#00D2FF"/><stop offset="0.7604" style="stop-color:#00DFFF"/><stop offset="1" style="stop-color:#00E3FF"/></linearGradient><path class="st0" d="M2.3,0.5C2,0.8,1.8,1.3,1.8,1.9v22.1c0,0.6,0.2,1.1,0.5,1.4l0.1,0.1l12.4-12.4V13v-0.1L2.3,0.5   L2.3,0.5z" id="XMLID_6_"/><linearGradient gradientTransform="matrix(1 0 0 -1 0 551.5971)" gradientUnits="userSpaceOnUse" id="XMLID_99_" x1="25.6758" x2="1.4789" y1="538.5969" y2="538.5969"><stop offset="0" style="stop-color:#FFE000"/><stop offset="0.4087" style="stop-color:#FFBD00"/><stop offset="0.7754" style="stop-color:#FFA500"/><stop offset="1" style="stop-color:#FF9C00"/></linearGradient><path class="st1" d="M18.9,17.3l-4.1-4.1V13v-0.1l4.1-4.1L19,8.8l4.9,2.8c1.4,0.8,1.4,2.1,0,2.9L18.9,17.3L18.9,17.3   z" id="XMLID_5_"/><linearGradient gradientTransform="matrix(1 0 0 -1 0 551.5971)" gradientUnits="userSpaceOnUse" id="XMLID_100_" x1="16.6684" x2="-6.0899" y1="536.3022" y2="513.5439"><stop offset="0" style="stop-color:#FF3A44"/><stop offset="1" style="stop-color:#C31162"/></linearGradient><path class="st2" d="M19,17.2L14.7,13L2.3,25.5C2.7,26,3.5,26,4.4,25.5L19,17.2" id="XMLID_4_"/><linearGradient gradientTransform="matrix(1 0 0 -1 0 551.5971)" gradientUnits="userSpaceOnUse" id="XMLID_101_" x1="-0.8613" x2="9.3012" y1="558.4221" y2="548.2596"><stop offset="0" style="stop-color:#32A071"/><stop offset="6.850000e-02" style="stop-color:#2DA771"/><stop offset="0.4762" style="stop-color:#15CF74"/><stop offset="0.8009" style="stop-color:#06E775"/><stop offset="1" style="stop-color:#00F076"/></linearGradient><path class="st3" d="M19,8.8L4.4,0.5C3.5,0,2.7,0,2.3,0.5L14.7,13L19,8.8z" id="XMLID_3_"/></g></svg>