<?xml version="1.0" ?><!DOCTYPE svg  PUBLIC '-//W3C//DTD SVG 1.0//EN'  'http://www.w3.org/TR/2001/REC-SVG-20010904/DTD/svg10.dtd'><svg enable-background="new 0 0 32 32" height="32px" id="Layer_1" version="1.0" viewBox="0 0 32 32" width="32px" xml:space="preserve" xmlns="http://www.w3.org/2000/svg" xmlns:xlink="http://www.w3.org/1999/xlink"><g><path clip-rule="evenodd" d="M28.955,22.814v-0.218c-2.624-1.399-4.048-3.453-4.048-6.426   c0-2.404,1.068-4.503,3.025-5.857l0.089-0.044c-1.29-1.573-3.025-3.146-5.694-3.146c-1.868,0-3.425,1.792-6.005,1.792   c-2.046,0-2.892-1.705-5.116-1.705c-4.626,0-9.208,4.065-9.208,9.354c0,2.798,0.934,7.126,3.025,10.885   c1.513,2.754,3.381,4.546,5.472,4.546c1.512,0,3.291-1.355,5.427-1.355c1.868,0,3.604,1.225,5.293,1.225   c4.049,0,7.785-5.158,7.785-8.61C29,23.077,28.955,22.946,28.955,22.814z" fill="#CCCCCC" fill-rule="evenodd"/><path clip-rule="evenodd" d="M16.229,8.349c3.025-0.918,5.828-3.148,5.828-7.038   c0-0.306-0.044-0.699-0.089-1.136L21.924,0c-3.069,0.829-5.827,3.19-5.827,6.906c0,0.35,0.045,0.787,0.133,1.268V8.349z" fill="#CCCCCC" fill-rule="evenodd"/></g><g/><g/><g/><g/><g/><g/></svg>