<?xml version="1.0" ?><svg enable-background="new 0 0 512 512" height="512px" id="Layer_1" version="1.1" viewBox="0 0 512 512" width="512px" xml:space="preserve" xmlns="http://www.w3.org/2000/svg" xmlns:xlink="http://www.w3.org/1999/xlink"><g><path clip-rule="evenodd" d="M256.23,48.065c114.723,0,207.697,92.967,207.697,208.165   c0,114.723-92.975,207.697-207.697,207.697c-115.198,0-208.165-92.975-208.165-207.697   C48.065,141.032,141.032,48.065,256.23,48.065L256.23,48.065z M112.918,363.703l37.184-33.105l-27.208-15.873L112.918,363.703z    M375.499,302.022l-27.216,15.873c-0.906,4.984-1.813,9.983,2.266,16.78c4.53,7.718,11.796,3.171,18.139,9.53   c6.358,6.343,6.358,12.686,7.718,19.497c14.046-8.171,25.841-28.574,17.232-44.901C388.186,308.382,381.39,304.741,375.499,302.022   L375.499,302.022z M238.99,112.918l106.122,199.541l27.2-15.873L252.598,104.755c-1.82-2.719-6.804-1.813-9.522,0   C240.35,106.114,237.178,110.199,238.99,112.918L238.99,112.918z M214.501,155.999l-88.428,153.288l27.208,15.874l88.428-153.289   c3.632-6.351,2.273-13.6-2.719-16.327l-9.069-5.444C224.93,147.383,218.133,149.648,214.501,155.999L214.501,155.999z    M127.885,272.088l28.567-48.064h-44.44v48.064H127.885z M303.835,272.088l-25.841-48.064h-47.167l-27.208,48.064H303.835z    M399.98,224.023h-55.321l29.918,48.064h25.403V224.023z M0,256.23C0,397.263,114.73,512,256.23,512   C397.263,512,512,397.263,512,256.23C512,114.73,397.263,0,256.23,0C114.73,0,0,114.73,0,256.23L0,256.23z" fill="#0CA3D1" fill-rule="evenodd"/></g></svg>
