<?xml version="1.0" encoding="UTF-8"?><svg id="uuid-475bb9f3-c68e-44d7-8c16-99b2100fab11" xmlns="http://www.w3.org/2000/svg" viewBox="0 0 48 44.53"><g id="uuid-4d0d9911-c6e1-45d1-947a-6c81955e5e2b"><path d="M0,7.67V41.01c0,1.94,1.58,3.52,3.52,3.52H44.48c1.94,0,3.52-1.58,3.52-3.52V7.67H0ZM14.82,40.66H3.58v-7.46H14.82v7.46Zm-1.15-13.28v.8H4.73v-.8H13.67Zm-7.3-4.55c0-1.56,1.27-2.83,2.83-2.83s2.83,1.27,2.83,2.83-1.27,2.83-2.83,2.83-2.83-1.27-2.83-2.83Zm7.3,6.06v.8H4.73v-.8H13.67Zm-2.6,1.5v.8H4.73v-.8h6.33Zm18.78,10.28h-11.24v-7.46h11.24v7.46Zm-1.15-13.28v.8h-8.94v-.8h8.94Zm-7.3-4.55c0-1.56,1.27-2.83,2.83-2.83s2.83,1.27,2.83,2.83-1.27,2.83-2.83,2.83-2.83-1.27-2.83-2.83Zm7.3,6.06v.8h-8.94v-.8h8.94Zm-2.6,1.5v.8h-6.33v-.8h6.33Zm18.78,10.28h-11.24v-7.46h11.24v7.46Zm-1.15-13.28v.8h-8.94v-.8h8.94Zm-7.3-4.55c0-1.56,1.27-2.83,2.83-2.83s2.83,1.27,2.83,2.83-1.27,2.83-2.83,2.83-2.83-1.27-2.83-2.83Zm7.3,6.06v.8h-8.94v-.8h8.94Zm-2.6,1.5v.8h-6.33v-.8h6.33Zm4.06-12.86H3.27V9.45H45.18v8.07Z"/><path d="M44.48,0H3.52C1.58,0,0,1.58,0,3.52v3.51H3.45v-2.07c0-.68,.55-1.22,1.22-1.22H14.84c.68,0,1.22,.55,1.22,1.22v2.07h31.94V3.52c0-1.94-1.58-3.52-3.52-3.52Zm-9.16,5.16c-.75,0-1.35-.6-1.35-1.35s.6-1.35,1.35-1.35,1.35,.6,1.35,1.35-.6,1.35-1.35,1.35Zm4.12,0c-.75,0-1.35-.6-1.35-1.35s.6-1.35,1.35-1.35,1.35,.6,1.35,1.35-.6,1.35-1.35,1.35Z"/></g></svg>