<?xml version="1.0" encoding="UTF-8" standalone="no"?>
<svg
   xmlns:dc="http://purl.org/dc/elements/1.1/"
   xmlns:cc="http://creativecommons.org/ns#"
   xmlns:rdf="http://www.w3.org/1999/02/22-rdf-syntax-ns#"
   xmlns:svg="http://www.w3.org/2000/svg"
   xmlns="http://www.w3.org/2000/svg"
   xmlns:sodipodi="http://sodipodi.sourceforge.net/DTD/sodipodi-0.dtd"
   xmlns:inkscape="http://www.inkscape.org/namespaces/inkscape"
   id="Layer_1"
   version="1.1"
   viewBox="0 0 47.900002 36.599998"
   xml:space="preserve"
   sodipodi:docname="iconfinder_picture_1814111.svg"
   width="47.900002"
   height="36.599998"
   inkscape:version="1.0.1 (c497b03c, 2020-09-10)"><metadata
     id="metadata847"><rdf:RDF><cc:Work
         rdf:about=""><dc:format>image/svg+xml</dc:format><dc:type
           rdf:resource="http://purl.org/dc/dcmitype/StillImage" /></cc:Work></rdf:RDF></metadata><defs
     id="defs845" /><sodipodi:namedview
     pagecolor="#ffffff"
     bordercolor="#666666"
     borderopacity="1"
     objecttolerance="10"
     gridtolerance="10"
     guidetolerance="10"
     inkscape:pageopacity="0"
     inkscape:pageshadow="2"
     inkscape:window-width="1680"
     inkscape:window-height="939"
     id="namedview843"
     showgrid="false"
     inkscape:zoom="11.125"
     inkscape:cx="23.9"
     inkscape:cy="18.2"
     inkscape:window-x="0"
     inkscape:window-y="230"
     inkscape:window-maximized="0"
     inkscape:current-layer="Layer_1" /><style
     type="text/css"
     id="style833">
	.st0{fill:#134563;}
</style><g
     id="g840"
     transform="translate(-8.1,-13.8)"><g
       id="Icon-Image"
       transform="translate(278,232)"><path
         class="st0"
         d="m -226.2,-181.6 h -39.5 c -2.3,0 -4.2,-1.9 -4.2,-4.2 V -214 c 0,-2.3 1.9,-4.2 4.2,-4.2 h 39.5 c 2.3,0 4.2,1.9 4.2,4.2 v 28.2 c 0,2.3 -1.9,4.2 -4.2,4.2 z m -39.6,-33.9 c -0.8,0 -1.4,0.6 -1.4,1.4 v 28.2 c 0,0.8 0.6,1.4 1.4,1.4 h 39.5 c 0.8,0 1.4,-0.6 1.4,-1.4 v -28.2 c 0,-0.8 -0.6,-1.4 -1.4,-1.4 z"
         id="Fill-12" /><path
         class="st0"
         d="m -238.9,-201.5 c -3.1,0 -5.5,-2.5 -5.5,-5.5 0,-3 2.5,-5.5 5.5,-5.5 3,0 5.5,2.5 5.5,5.5 0,3 -2.5,5.5 -5.5,5.5 z m 0,-8.5 c -1.6,0 -2.9,1.3 -2.9,2.9 0,1.6 1.3,2.9 2.9,2.9 1.6,0 2.9,-1.3 2.9,-2.9 0,-1.6 -1.3,-2.9 -2.9,-2.9 z"
         id="Fill-13" /><polyline
         class="st0"
         id="Fill-14"
         points="-231.4,-182.1 -254.5,-203.8 -267.7,-191.6 -269.5,-193.5 -254.5,-207.4 -229.6,-184      -231.4,-182.1    " /><polyline
         class="st0"
         id="Fill-15"
         points="-224.2,-189.3 -231.9,-195.5 -238.3,-190.2 -240,-192.3 -231.9,-198.9 -222.6,-191.3      -224.2,-189.3    " /></g></g></svg>
