<svg xmlns="http://www.w3.org/2000/svg" fill="none" width="100" height="91.877" viewBox="0 0 100 91.877">
  <path fill="#214fbd" d="M19.697 45.94 34.85 72.18H65.15l15.147-26.24L65.15 19.698H34.85Z"/>
  <path fill="#214fbd" d="M34.596 39.395c10.878 0 19.697-8.82 19.697-19.698S45.474 0 34.596 0C23.717 0 14.898 8.819 14.898 19.697c0 10.879 8.819 19.698 19.698 19.698z"/>
  <path fill="#214fbd" d="M65.293 39.395c10.878 0 19.697-8.82 19.697-19.698S76.17 0 65.293 0C54.414 0 45.595 8.819 45.595 19.697c0 10.879 8.819 19.698 19.698 19.698zM34.596 91.877c10.878 0 19.697-8.819 19.697-19.697 0-10.879-8.819-19.698-19.697-19.698-10.879 0-19.698 8.819-19.698 19.698 0 10.878 8.819 19.697 19.698 19.697z"/>
  <path fill="#214fbd" d="M65.293 91.877c10.878 0 19.697-8.819 19.697-19.697 0-10.879-8.819-19.698-19.697-19.698-10.879 0-19.698 8.819-19.698 19.698 0 10.878 8.819 19.697 19.698 19.697z"/>
  <path fill="#214fbd" d="M80.303 65.638C91.18 65.638 100 56.82 100 45.941c0-10.879-8.819-19.697-19.697-19.697-10.879 0-19.698 8.818-19.698 19.697 0 10.878 8.82 19.697 19.698 19.697zM19.697 65.638c10.879 0 19.698-8.819 19.698-19.697 0-10.879-8.82-19.697-19.698-19.697S0 35.062 0 45.94c0 10.878 8.819 19.697 19.697 19.697Z"/>
  <path fill="#fff" d="M51.192 25.635h-6.06V65.03h6.06z"/>
  <path fill="#fff" d="M28.468 42.305v6.06h39.394v-6.06Z"/>
</svg>
