<?xml version="1.0" encoding="UTF-8" standalone="no"?>
<svg
   fill="#0d52bf"
   data-name="Layer 1"
   viewBox="0 0 759.30359 204.058"
   version="1.1"
   id="svg7"
   sodipodi:docname="app-logo2.svg"
   width="759.30359"
   height="204.058"
   inkscape:version="1.2 (dc2aeda, 2022-05-15)"
   xmlns:inkscape="http://www.inkscape.org/namespaces/inkscape"
   xmlns:sodipodi="http://sodipodi.sourceforge.net/DTD/sodipodi-0.dtd"
   xmlns="http://www.w3.org/2000/svg"
   xmlns:svg="http://www.w3.org/2000/svg">
  <defs
     id="defs11" />
  <sodipodi:namedview
     id="namedview9"
     pagecolor="#ffffff"
     bordercolor="#000000"
     borderopacity="0.25"
     inkscape:showpageshadow="2"
     inkscape:pageopacity="0.0"
     inkscape:pagecheckerboard="0"
     inkscape:deskcolor="#d1d1d1"
     showgrid="false"
     inkscape:zoom="0.59978982"
     inkscape:cx="360.95977"
     inkscape:cy="354.29077"
     inkscape:window-width="1792"
     inkscape:window-height="1003"
     inkscape:window-x="0"
     inkscape:window-y="25"
     inkscape:window-maximized="1"
     inkscape:current-layer="svg7" />
  <path
     style="stroke-width:0.396906"
     id="path16"
     d="M 219.61484,103.07486 A 43.236471,41.974221 0 0 0 183.89936,61.761547 43.220354,41.958576 0 0 0 109.68879,20.839332 43.208276,41.946844 0 0 0 35.490281,61.792831 a 43.220354,41.958576 0 0 0 0,82.564069 43.220354,41.958576 0 0 0 74.198509,40.95347 43.208276,41.946844 0 0 0 74.21057,-40.92221 43.236471,41.974221 0 0 0 35.71548,-41.3133 z m -107.17878,33.41352 v 7.2858 H 99.142517 v -27.91507 a 7.8472603,7.6181662 0 0 0 -7.863318,-7.61815 H 62.524661 V 95.335434 h 28.754538 a 7.8512879,7.6220766 0 0 0 7.847263,-7.622073 V 59.786609 h 13.293548 v 27.911124 a 7.8553162,7.6259878 0 0 0 7.86339,7.622073 h 28.75038 V 108.22532 H 120.2834 a 7.8512879,7.6220766 0 0 0 -7.85129,7.61822 v 20.62915 z"
     class="cls-1" />
  <path
     d="m 368.15658,159.456 v 40.883 h -108.853 V 14.485004 h 42.48 V 159.455 Z m 80.678,9.022 c 10.885,0 20.18,-4.242 25.49,-10.09 l 31.86,18.324 c -13.014,18.051 -32.656,27.346 -57.916,27.346 -45.404,0 -73.546,-30.535 -73.546,-70.092 0,-39.556998 28.756,-70.098998 70.685,-70.098998 38.762,0 67.44,30.005 67.44,70.098998 a 77.279,77.279 0 0 1 -1.59,15.93 h -94.256 c 5.045,13.802 17.256,18.582 31.833,18.582 z m 24.422,-48.321 c -4.243,-15.4 -16.196,-20.974998 -28.142,-20.974998 -15.134,0 -25.224,7.437998 -28.936,20.974998 z m 157.195,40.359 c 0,30.528 -26.515,43.542 -55.222,43.542 -26.515,0 -46.751,-10.09 -57.085,-31.596 l 34.519,-19.649 c 3.447,10.09 10.885,15.665 22.566,15.665 9.56,0 14.332,-2.917 14.332,-8.227 0,-14.604 -65.312,-6.908 -65.312,-52.836 0,-28.942998 24.423,-43.547998 52.04,-43.547998 21.506,0 40.625,9.56 51.776,28.414 l -33.99,18.315998 c -3.72,-6.9 -9.022,-11.679998 -17.786,-11.679998 -6.901,0 -11.165,2.657998 -11.165,7.429998 0.014,15.136 65.326,5.046 65.326,54.17 z m 17.249,-153.9919961 h 39.823 V 200.339 h -39.823 z m 66.366,61.0619981 h 39.83 V 200.34 h -39.83 z"
     class="cls-1"
     id="path3" />
  <circle
     cx="733.98157"
     cy="25.322001"
     r="25.322001"
     class="cls-1"
     id="circle5" />
</svg>
