<?xml version="1.0" encoding="UTF-8" standalone="no"?>
<svg
   inkscape:version="1.4 (e7c3feb1, 2024-10-09)"
   height="792.88586"
   width="913.88531"
   sodipodi:docname="app-icon.svg"
   version="1.1"
   viewBox="0 0 913.88531 792.88586"
   data-name="Layer 1"
   id="Layer_1"
   xmlns:inkscape="http://www.inkscape.org/namespaces/inkscape"
   xmlns:sodipodi="http://sodipodi.sourceforge.net/DTD/sodipodi-0.dtd"
   xmlns="http://www.w3.org/2000/svg"
   xmlns:svg="http://www.w3.org/2000/svg">
  <sodipodi:namedview
     inkscape:current-layer="Layer_1"
     inkscape:window-maximized="0"
     inkscape:window-y="25"
     inkscape:window-x="0"
     inkscape:cy="396.13491"
     inkscape:cx="457.9763"
     inkscape:zoom="0.85703125"
     showgrid="false"
     id="namedview19"
     inkscape:window-height="996"
     inkscape:window-width="1792"
     inkscape:pageshadow="2"
     inkscape:pageopacity="0"
     guidetolerance="10"
     gridtolerance="10"
     objecttolerance="10"
     borderopacity="1"
     bordercolor="#666666"
     pagecolor="#ffffff"
     inkscape:showpageshadow="2"
     inkscape:pagecheckerboard="0"
     inkscape:deskcolor="#d1d1d1" />
  <defs
     id="defs12">
    <style
       id="style10">.cls-1{fill:#214FBD;}</style>
  </defs>
  <path
     style="stroke-width:1.32288"
     id="path16"
     d="M 820.53981,396.44304 A 143.16576,140.81379 0 0 0 702.2777,257.84649 143.1124,140.76129 0 0 0 456.54962,120.56192 143.07239,140.72194 0 0 0 210.86154,257.95145 a 143.1124,140.76129 0 0 0 0,276.98318 A 143.1124,140.76129 0 0 0 456.54962,672.32416 143.07239,140.72194 0 0 0 702.2777,535.03958 143.16576,140.81379 0 0 0 820.53981,396.44304 Z M 465.64669,508.53778 v 24.44202 h -44.01816 v -93.64846 a 25.984058,25.557183 0 0 0 -26.03741,-25.55718 h -95.21263 v -43.29502 h 95.21263 a 25.997396,25.570302 0 0 0 25.98405,-25.5703 v -93.6878 h 44.01816 v 93.63533 a 26.010735,25.583422 0 0 0 26.03742,25.5703 h 95.1993 v 43.29502 h -95.1993 a 25.997396,25.570302 0 0 0 -25.9974,25.55718 v 69.20644 z"
     class="cls-1" />
</svg>
