<?xml version="1.0" encoding="UTF-8" standalone="no"?>
<svg
   width="500"
   height="459.38391"
   viewBox="0 0 500 459.38391"
   fill="none"
   version="1.1"
   id="svg20"
   sodipodi:docname="app-icon.svg"
   inkscape:version="1.2 (dc2aeda, 2022-05-15)"
   inkscape:export-filename="app-icon.png"
   inkscape:export-xdpi="96"
   inkscape:export-ydpi="96"
   xmlns:inkscape="http://www.inkscape.org/namespaces/inkscape"
   xmlns:sodipodi="http://sodipodi.sourceforge.net/DTD/sodipodi-0.dtd"
   xmlns="http://www.w3.org/2000/svg"
   xmlns:svg="http://www.w3.org/2000/svg">
  <defs
     id="defs24" />
  <sodipodi:namedview
     id="namedview22"
     pagecolor="#ffffff"
     bordercolor="#000000"
     borderopacity="0.25"
     inkscape:showpageshadow="2"
     inkscape:pageopacity="0.0"
     inkscape:pagecheckerboard="0"
     inkscape:deskcolor="#d1d1d1"
     showgrid="false"
     inkscape:zoom="1.2486772"
     inkscape:cx="410.43434"
     inkscape:cy="208.62077"
     inkscape:window-width="1920"
     inkscape:window-height="1147"
     inkscape:window-x="0"
     inkscape:window-y="25"
     inkscape:window-maximized="0"
     inkscape:current-layer="svg20" />
  <path
     d="M 98.486247,229.70412 174.2431,360.89757 H 325.7568 L 401.48932,229.70412 325.7568,98.486342 H 174.2431 Z"
     fill="#214fbd"
     id="path2"
     style="stroke-width:2.43356" />
  <path
     d="m 172.97765,196.97268 c 54.39259,0 98.48634,-44.09375 98.48634,-98.486338 C 271.46399,44.093749 227.37024,0 172.97765,0 118.58505,0 74.491304,44.093749 74.491304,98.486342 c 0,54.392588 44.093746,98.486338 98.486346,98.486338 z"
     fill="#214fbd"
     id="path4"
     style="stroke-width:2.43356" />
  <path
     d="m 326.46254,196.97268 c 54.39259,0 98.48634,-44.09375 98.48634,-98.486338 C 424.94888,44.093749 380.85513,0 326.46254,0 272.06995,0 227.9762,44.093749 227.9762,98.486342 c 0,54.392588 44.09375,98.486338 98.48634,98.486338 z"
     fill="#214fbd"
     id="path6"
     style="stroke-width:2.43356" />
  <path
     d="m 172.97765,459.38391 c 54.39259,0 98.48634,-44.09375 98.48634,-98.48634 0,-54.3926 -44.09375,-98.48635 -98.48634,-98.48635 -54.3926,0 -98.486346,44.09375 -98.486346,98.48635 0,54.39259 44.093746,98.48634 98.486346,98.48634 z"
     fill="#214fbd"
     id="path8"
     style="stroke-width:2.43356" />
  <path
     d="m 326.46254,459.38391 c 54.39259,0 98.48634,-44.09375 98.48634,-98.48634 0,-54.3926 -44.09375,-98.48635 -98.48634,-98.48635 -54.39259,0 -98.48634,44.09375 -98.48634,98.48635 0,54.39259 44.09375,98.48634 98.48634,98.48634 z"
     fill="#214fbd"
     id="path10"
     style="stroke-width:2.43356" />
  <path
     d="m 401.51366,328.19046 c 54.39259,0 98.48634,-44.09374 98.48634,-98.48634 0,-54.39235 -44.09375,-98.48634 -98.48634,-98.48634 -54.3926,0 -98.48635,44.09399 -98.48635,98.48634 0,54.3926 44.09375,98.48634 98.48635,98.48634 z"
     fill="#214fbd"
     id="path12"
     style="stroke-width:2.43356" />
  <path
     d="m 98.486247,328.19046 c 54.392593,0 98.486343,-44.09374 98.486343,-98.48634 0,-54.39235 -44.09375,-98.48634 -98.486343,-98.48634 C 44.093654,131.21778 0,175.31177 0,229.70412 c 0,54.3926 44.093654,98.48634 98.486247,98.48634 z"
     fill="#214fbd"
     id="path14"
     style="stroke-width:2.43356" />
  <path
     d="m 255.96218,128.17582 h -30.29787 v 196.97269 h 30.29787 z"
     fill="#ffffff"
     id="path16"
     style="stroke-width:2.43356" />
  <path
     d="m 142.33907,211.5254 v 30.29787 H 339.31176 V 211.5254 Z"
     fill="#ffffff"
     id="path18"
     style="stroke-width:2.43356" />
</svg>
