<svg id="Layer_1" data-name="Layer 1" xmlns="http://www.w3.org/2000/svg" viewBox="0 0 1280 800"><defs><style>.cls-1{fill:#3b6cff;}.cls-2{fill:none;}.cls-3{fill:#fff;}</style></defs><title>LESLI_LOGO_EDITABLE</title><path class="cls-1" d="M323.38,595.58v58.59h-156V387.82h60.88V595.58Z"/><path class="cls-1" d="M439,608.51c15.6,0,28.92-6.08,36.53-14.46l45.66,26.26c-18.65,25.87-46.8,39.19-83,39.19-65.07,0-105.4-43.76-105.4-100.45S374,458.59,434.09,458.59c55.55,0,96.65,43,96.65,100.46a110.75,110.75,0,0,1-2.28,22.83H393.38C400.61,601.66,418.11,608.51,439,608.51Zm35-69.25c-6.08-22.07-23.21-30.06-40.33-30.06-21.69,0-36.15,10.66-41.47,30.06Z"/><path class="cls-1" d="M699.28,597.1c0,43.75-38,62.4-79.14,62.4-38,0-67-14.46-81.81-45.28l49.47-28.16c4.94,14.46,15.6,22.45,32.34,22.45,13.7,0,20.54-4.18,20.54-11.79,0-20.93-93.6-9.9-93.6-75.72,0-41.48,35-62.41,74.58-62.41,30.82,0,58.22,13.7,74.2,40.72l-48.71,26.25c-5.33-9.89-12.93-16.74-25.49-16.74-9.89,0-16,3.81-16,10.65C605.68,541.16,699.28,526.7,699.28,597.1Z"/><path class="cls-1" d="M724,376.41h57.07V654.17H724Z"/><path class="cls-1" d="M819.11,463.92h57.08V654.17H819.11Z"/><circle class="cls-1" cx="847.65" cy="403.35" r="36.29"/><line class="cls-2" x1="847.65" y1="403.35" x2="974.56" y2="276.44"/><polygon class="cls-1" points="1041.03 180.97 978.77 180.97 947.64 234.89 978.77 288.8 1041.03 288.8 1072.15 234.89 1041.03 180.97"/><circle class="cls-1" cx="978.25" cy="180.97" r="40.47"/><circle class="cls-1" cx="1041.32" cy="180.97" r="40.47"/><circle class="cls-1" cx="978.25" cy="288.8" r="40.47"/><circle class="cls-1" cx="1041.32" cy="288.8" r="40.47"/><circle class="cls-1" cx="1072.16" cy="234.89" r="40.47"/><circle class="cls-1" cx="947.64" cy="234.89" r="40.47"/><rect class="cls-3" x="999.9" y="193.17" width="12.45" height="80.94"/><rect class="cls-3" x="999.9" y="193.17" width="12.45" height="80.94" transform="translate(772.49 1239.77) rotate(-90)"/></svg>