<svg id="Layer_1" data-name="Layer 1" xmlns="http://www.w3.org/2000/svg" viewBox="0 0 1280 800"><defs><style>.cls-1{fill:#3b6cff;}.cls-2{fill:#fff;}</style></defs><title>LESLI_LOGO_EDITABLE</title><path class="cls-1" d="M594,489.28c0-35.25,26.67-62.17,62.64-62.17C680,427.11,700,439,708.6,457.6l-9.76,5.71c-6.91-15-23.1-24.77-42.16-24.77-28.82,0-50.49,22.39-50.49,50.74S627.86,540,656.68,540c19.29,0,35-10,42.87-24.77l10,6C700,539.53,680,551.44,656.68,551.44,620.71,551.44,594,524.53,594,489.28Z"/><path class="cls-1" d="M733.36,375h11.91V548.82H733.36Z"/><path class="cls-1" d="M771.46,489.28c0-35.25,27.87-62.17,62.65-62.17,34.53,0,62.4,26.92,62.4,62.17s-27.87,62.16-62.4,62.16C799.33,551.44,771.46,524.53,771.46,489.28Zm112.9,0c0-28.35-21.91-50.74-50.25-50.74s-50.5,22.39-50.5,50.74S805.76,540,834.11,540,884.36,517.62,884.36,489.28Z"/><path class="cls-1" d="M1020.35,429.73V548.82h-11.91V526.19c-9.05,17.63-24.3,25.25-42.64,25.25-28.34,0-46.2-18.82-46.2-47.64V429.73h12.14V503.8c0,21.92,12.63,36.21,35,36.21,23.34,0,41.68-15.25,41.68-47.4V429.73Z"/><path class="cls-1" d="M1171.58,382.09V548.82h-11.91V521.19c-9.77,18.34-28.11,30.25-51.21,30.25-34.06,0-61.69-26.91-61.69-62.16s27.63-62.17,61.69-62.17c23.1,0,41.44,11.91,51.21,30.25V382.09Zm-11.91,107.19c0-28.35-22.15-50.74-50.49-50.74s-50.5,22.39-50.5,50.74,22.15,50.73,50.5,50.73S1159.67,517.62,1159.67,489.28Z"/><path class="cls-1" d="M206.07,508.61v36.68H108.42V378.56h38.11V508.61Z"/><path class="cls-1" d="M278.47,516.7c9.77,0,18.1-3.8,22.87-9l28.58,16.43c-11.67,16.19-29.3,24.53-51.92,24.53-40.73,0-66-27.39-66-62.88s25.72-62.88,63.35-62.88c34.78,0,60.5,26.92,60.5,62.88A68.7,68.7,0,0,1,334.44,500H249.89C254.42,512.42,265.37,516.7,278.47,516.7Zm21.91-43.34c-3.81-13.82-14.53-18.82-25.24-18.82-13.58,0-22.63,6.67-26,18.82Z"/><path class="cls-1" d="M441.37,509.56c0,27.39-23.81,39.06-49.54,39.06-23.82,0-41.92-9-51.21-28.34l31-17.63c3.09,9.05,9.76,14.05,20.24,14.05,8.58,0,12.86-2.61,12.86-7.38,0-13.1-58.59-6.19-58.59-47.39,0-26,21.91-39.07,46.69-39.07,19.29,0,36.44,8.58,46.44,25.49l-30.49,16.43c-3.33-6.19-8.09-10.48-15.95-10.48-6.2,0-10,2.38-10,6.67C382.78,474.55,441.37,465.5,441.37,509.56Z"/><path class="cls-1" d="M456.84,371.42h35.73V545.29H456.84Z"/><path class="cls-1" d="M516.38,426.2h35.73V545.29H516.38Z"/><circle class="cls-1" cx="534.25" cy="388.28" r="22.72"/><line class="cls-1" x1="534.25" y1="388.28" x2="613.69" y2="308.84"/><polygon class="cls-1" points="635.9 273.89 596.93 273.89 577.44 307.64 596.93 341.39 635.9 341.39 655.38 307.64 635.9 273.89"/><circle class="cls-1" cx="596.6" cy="273.89" r="25.33"/><circle class="cls-1" cx="636.08" cy="273.89" r="25.33"/><circle class="cls-1" cx="596.6" cy="341.39" r="25.33"/><circle class="cls-1" cx="636.08" cy="341.39" r="25.33"/><circle class="cls-1" cx="655.38" cy="307.64" r="25.33"/><circle class="cls-1" cx="577.44" cy="307.64" r="25.33"/><path class="cls-2" d="M639.39,303H622.55a4.6,4.6,0,0,1-4.6-4.59V281.53h-7.79v16.84a4.6,4.6,0,0,1-4.6,4.59H588.72v7.8h16.84a4.6,4.6,0,0,1,4.6,4.59v16.84H618V315.35a4.6,4.6,0,0,1,4.6-4.59h16.84Z"/></svg>