<?xml version="1.0" encoding="UTF-8" standalone="no"?><!-- Generator: Gravit.io --><svg xmlns="http://www.w3.org/2000/svg" xmlns:xlink="http://www.w3.org/1999/xlink" style="isolation:isolate" viewBox="0 0 2000 1350" width="2000pt" height="1350pt"><defs><clipPath id="_clipPath_dxFQUyzGlxGVgErzpF9ONMpR0Yk14iPW"><rect width="2000" height="1350"/></clipPath></defs><g clip-path="url(#_clipPath_dxFQUyzGlxGVgErzpF9ONMpR0Yk14iPW)"><g><path d=" M 1800.307 1118.04 L 1740.219 1089.831 C 1740.219 1089.831 679.736 1088.455 444.43 1076.3 C 357.235 1069.252 282.619 1010.942 254.703 928.036 C 226.788 845.129 250.94 753.564 316.115 695.211 C 381.289 636.859 474.958 622.937 554.286 659.813 L 597.173 679.766 L 599.466 632.521 C 608.158 443.784 750.407 288.183 937.609 262.638 C 1124.811 237.092 1303.548 348.892 1362.491 528.399 L 1408.359 577.708 C 1408.984 578.33 1409.91 578.54 1410.742 578.246 C 1411.573 577.953 1412.163 577.208 1412.258 576.332 L 1423.037 507.529 C 1356.315 307.288 1160.706 179.167 950.484 198.015 C 740.262 216.863 570.564 377.736 540.525 586.652 C 437.433 557.957 326.979 590.014 255.268 669.442 C 183.557 748.87 162.917 862.016 201.963 961.648 C 241.01 1061.281 333.031 1130.274 439.614 1139.828 C 677.902 1152.212 1729.21 1153.818 1739.76 1153.818 L 1800.077 1126.067 C 1801.711 1125.433 1802.805 1123.882 1802.855 1122.13 C 1802.906 1120.378 1801.901 1118.767 1800.307 1118.04 Z " fill="rgb(27,117,188)"/><path d=" M 378.44 945.68 L 378.44 763.68 L 412.24 763.68 L 412.24 917.08 L 507.4 917.08 L 507.4 945.68 L 378.44 945.68 L 378.44 945.68 Z  M 660.28 877.04 L 660.28 877.04 Q 660.28 880.42 659.76 886.66 L 659.76 886.66 L 550.82 886.66 L 550.82 886.66 Q 553.68 902 565.77 910.97 L 565.77 910.97 L 565.77 910.97 Q 577.86 919.94 595.8 919.94 L 595.8 919.94 L 595.8 919.94 Q 618.68 919.94 633.5 904.86 L 633.5 904.86 L 650.92 924.88 L 650.92 924.88 Q 641.56 936.06 627.26 941.78 L 627.26 941.78 L 627.26 941.78 Q 612.96 947.5 595.02 947.5 L 595.02 947.5 L 595.02 947.5 Q 572.14 947.5 554.72 938.4 L 554.72 938.4 L 554.72 938.4 Q 537.3 929.3 527.81 913.05 L 527.81 913.05 L 527.81 913.05 Q 518.32 896.8 518.32 876.26 L 518.32 876.26 L 518.32 876.26 Q 518.32 855.98 527.55 839.73 L 527.55 839.73 L 527.55 839.73 Q 536.78 823.48 553.16 814.38 L 553.16 814.38 L 553.16 814.38 Q 569.54 805.28 590.08 805.28 L 590.08 805.28 L 590.08 805.28 Q 610.36 805.28 626.35 814.25 L 626.35 814.25 L 626.35 814.25 Q 642.34 823.22 651.31 839.47 L 651.31 839.47 L 651.31 839.47 Q 660.28 855.72 660.28 877.04 L 660.28 877.04 L 660.28 877.04 Z  M 590.08 831.28 L 590.08 831.28 Q 574.48 831.28 563.69 840.51 L 563.69 840.51 L 563.69 840.51 Q 552.9 849.74 550.56 865.08 L 550.56 865.08 L 629.34 865.08 L 629.34 865.08 Q 627.26 850 616.6 840.64 L 616.6 840.64 L 616.6 840.64 Q 605.94 831.28 590.08 831.28 L 590.08 831.28 L 590.08 831.28 Z  M 734.38 947.5 L 734.38 947.5 Q 717.48 947.5 701.36 943.08 L 701.36 943.08 L 701.36 943.08 Q 685.24 938.66 675.62 931.9 L 675.62 931.9 L 688.1 907.2 L 688.1 907.2 Q 697.46 913.44 710.59 917.21 L 710.59 917.21 L 710.59 917.21 Q 723.72 920.98 736.46 920.98 L 736.46 920.98 L 736.46 920.98 Q 765.58 920.98 765.58 905.64 L 765.58 905.64 L 765.58 905.64 Q 765.58 898.36 758.17 895.5 L 758.17 895.5 L 758.17 895.5 Q 750.76 892.64 734.38 890.04 L 734.38 890.04 L 734.38 890.04 Q 717.22 887.44 706.43 884.06 L 706.43 884.06 L 706.43 884.06 Q 695.64 880.68 687.71 872.23 L 687.71 872.23 L 687.71 872.23 Q 679.78 863.78 679.78 848.7 L 679.78 848.7 L 679.78 848.7 Q 679.78 828.94 696.29 817.11 L 696.29 817.11 L 696.29 817.11 Q 712.8 805.28 740.88 805.28 L 740.88 805.28 L 740.88 805.28 Q 755.18 805.28 769.48 808.53 L 769.48 808.53 L 769.48 808.53 Q 783.78 811.78 792.88 817.24 L 792.88 817.24 L 780.4 841.94 L 780.4 841.94 Q 762.72 831.54 740.62 831.54 L 740.62 831.54 L 740.62 831.54 Q 726.32 831.54 718.91 835.83 L 718.91 835.83 L 718.91 835.83 Q 711.5 840.12 711.5 847.14 L 711.5 847.14 L 711.5 847.14 Q 711.5 854.94 719.43 858.19 L 719.43 858.19 L 719.43 858.19 Q 727.36 861.44 744 864.3 L 744 864.3 L 744 864.3 Q 760.64 866.9 771.3 870.28 L 771.3 870.28 L 771.3 870.28 Q 781.96 873.66 789.63 881.72 L 789.63 881.72 L 789.63 881.72 Q 797.3 889.78 797.3 904.6 L 797.3 904.6 L 797.3 904.6 Q 797.3 924.1 780.4 935.8 L 780.4 935.8 L 780.4 935.8 Q 763.5 947.5 734.38 947.5 L 734.38 947.5 L 734.38 947.5 Z  M 825.38 945.68 L 825.38 752.76 L 857.88 752.76 L 857.88 945.68 L 825.38 945.68 L 825.38 945.68 Z  M 900.52 945.68 L 900.52 806.84 L 933.02 806.84 L 933.02 945.68 L 900.52 945.68 L 900.52 945.68 Z  M 916.9 783.96 L 916.9 783.96 Q 908.06 783.96 902.08 778.37 L 902.08 778.37 L 902.08 778.37 Q 896.1 772.78 896.1 764.46 L 896.1 764.46 L 896.1 764.46 Q 896.1 756.14 902.08 750.55 L 902.08 750.55 L 902.08 750.55 Q 908.06 744.96 916.9 744.96 L 916.9 744.96 L 916.9 744.96 Q 925.74 744.96 931.72 750.29 L 931.72 750.29 L 931.72 750.29 Q 937.7 755.62 937.7 763.68 L 937.7 763.68 L 937.7 763.68 Q 937.7 772.26 931.85 778.11 L 931.85 778.11 L 931.85 778.11 Q 926 783.96 916.9 783.96 L 916.9 783.96 L 916.9 783.96 Z  M 1063.02 948.28 L 1063.02 948.28 Q 1035.46 948.28 1013.23 936.19 L 1013.23 936.19 L 1013.23 936.19 Q 991 924.1 978.39 902.78 L 978.39 902.78 L 978.39 902.78 Q 965.78 881.46 965.78 854.68 L 965.78 854.68 L 965.78 854.68 Q 965.78 827.9 978.52 806.58 L 978.52 806.58 L 978.52 806.58 Q 991.26 785.26 1013.49 773.17 L 1013.49 773.17 L 1013.49 773.17 Q 1035.72 761.08 1063.28 761.08 L 1063.28 761.08 L 1063.28 761.08 Q 1085.64 761.08 1104.1 768.88 L 1104.1 768.88 L 1104.1 768.88 Q 1122.56 776.68 1135.3 791.5 L 1135.3 791.5 L 1113.46 812.04 L 1113.46 812.04 Q 1093.7 790.72 1064.84 790.72 L 1064.84 790.72 L 1064.84 790.72 Q 1046.12 790.72 1031.3 798.91 L 1031.3 798.91 L 1031.3 798.91 Q 1016.48 807.1 1008.16 821.66 L 1008.16 821.66 L 1008.16 821.66 Q 999.84 836.22 999.84 854.68 L 999.84 854.68 L 999.84 854.68 Q 999.84 873.14 1008.16 887.7 L 1008.16 887.7 L 1008.16 887.7 Q 1016.48 902.26 1031.3 910.45 L 1031.3 910.45 L 1031.3 910.45 Q 1046.12 918.64 1064.84 918.64 L 1064.84 918.64 L 1064.84 918.64 Q 1093.7 918.64 1113.46 897.06 L 1113.46 897.06 L 1135.3 917.86 L 1135.3 917.86 Q 1122.56 932.68 1103.97 940.48 L 1103.97 940.48 L 1103.97 940.48 Q 1085.38 948.28 1063.02 948.28 L 1063.02 948.28 L 1063.02 948.28 Z  M 1164.68 945.68 L 1164.68 752.76 L 1197.18 752.76 L 1197.18 945.68 L 1164.68 945.68 L 1164.68 945.68 Z  M 1302.22 947.5 L 1302.22 947.5 Q 1281.16 947.5 1264.26 938.4 L 1264.26 938.4 L 1264.26 938.4 Q 1247.36 929.3 1237.87 913.05 L 1237.87 913.05 L 1237.87 913.05 Q 1228.38 896.8 1228.38 876.26 L 1228.38 876.26 L 1228.38 876.26 Q 1228.38 855.72 1237.87 839.6 L 1237.87 839.6 L 1237.87 839.6 Q 1247.36 823.48 1264.26 814.38 L 1264.26 814.38 L 1264.26 814.38 Q 1281.16 805.28 1302.22 805.28 L 1302.22 805.28 L 1302.22 805.28 Q 1323.54 805.28 1340.44 814.38 L 1340.44 814.38 L 1340.44 814.38 Q 1357.34 823.48 1366.83 839.6 L 1366.83 839.6 L 1366.83 839.6 Q 1376.32 855.72 1376.32 876.26 L 1376.32 876.26 L 1376.32 876.26 Q 1376.32 896.8 1366.83 913.05 L 1366.83 913.05 L 1366.83 913.05 Q 1357.34 929.3 1340.44 938.4 L 1340.44 938.4 L 1340.44 938.4 Q 1323.54 947.5 1302.22 947.5 L 1302.22 947.5 L 1302.22 947.5 Z  M 1302.22 919.68 L 1302.22 919.68 Q 1320.16 919.68 1331.86 907.72 L 1331.86 907.72 L 1331.86 907.72 Q 1343.56 895.76 1343.56 876.26 L 1343.56 876.26 L 1343.56 876.26 Q 1343.56 856.76 1331.86 844.8 L 1331.86 844.8 L 1331.86 844.8 Q 1320.16 832.84 1302.22 832.84 L 1302.22 832.84 L 1302.22 832.84 Q 1284.28 832.84 1272.71 844.8 L 1272.71 844.8 L 1272.71 844.8 Q 1261.14 856.76 1261.14 876.26 L 1261.14 876.26 L 1261.14 876.26 Q 1261.14 895.76 1272.71 907.72 L 1272.71 907.72 L 1272.71 907.72 Q 1284.28 919.68 1302.22 919.68 L 1302.22 919.68 L 1302.22 919.68 Z  M 1509.44 806.84 L 1541.94 806.84 L 1541.94 945.68 L 1511 945.68 L 1511 928 L 1511 928 Q 1503.2 937.36 1491.5 942.43 L 1491.5 942.43 L 1491.5 942.43 Q 1479.8 947.5 1466.28 947.5 L 1466.28 947.5 L 1466.28 947.5 Q 1438.46 947.5 1422.47 932.03 L 1422.47 932.03 L 1422.47 932.03 Q 1406.48 916.56 1406.48 886.14 L 1406.48 886.14 L 1406.48 806.84 L 1438.98 806.84 L 1438.98 881.72 L 1438.98 881.72 Q 1438.98 900.44 1447.43 909.67 L 1447.43 909.67 L 1447.43 909.67 Q 1455.88 918.9 1471.48 918.9 L 1471.48 918.9 L 1471.48 918.9 Q 1488.9 918.9 1499.17 908.11 L 1499.17 908.11 L 1499.17 908.11 Q 1509.44 897.32 1509.44 877.04 L 1509.44 877.04 L 1509.44 806.84 L 1509.44 806.84 Z  M 1688.06 752.76 L 1720.56 752.76 L 1720.56 945.68 L 1689.36 945.68 L 1689.36 927.74 L 1689.36 927.74 Q 1681.3 937.62 1669.47 942.56 L 1669.47 942.56 L 1669.47 942.56 Q 1657.64 947.5 1643.34 947.5 L 1643.34 947.5 L 1643.34 947.5 Q 1623.32 947.5 1607.33 938.66 L 1607.33 938.66 L 1607.33 938.66 Q 1591.34 929.82 1582.24 913.57 L 1582.24 913.57 L 1582.24 913.57 Q 1573.14 897.32 1573.14 876.26 L 1573.14 876.26 L 1573.14 876.26 Q 1573.14 855.2 1582.24 839.08 L 1582.24 839.08 L 1582.24 839.08 Q 1591.34 822.96 1607.33 814.12 L 1607.33 814.12 L 1607.33 814.12 Q 1623.32 805.28 1643.34 805.28 L 1643.34 805.28 L 1643.34 805.28 Q 1657.12 805.28 1668.56 809.96 L 1668.56 809.96 L 1668.56 809.96 Q 1680 814.64 1688.06 824 L 1688.06 824 L 1688.06 752.76 L 1688.06 752.76 Z  M 1647.24 919.68 L 1647.24 919.68 Q 1658.94 919.68 1668.3 914.35 L 1668.3 914.35 L 1668.3 914.35 Q 1677.66 909.02 1683.12 899.14 L 1683.12 899.14 L 1683.12 899.14 Q 1688.58 889.26 1688.58 876.26 L 1688.58 876.26 L 1688.58 876.26 Q 1688.58 863.26 1683.12 853.38 L 1683.12 853.38 L 1683.12 853.38 Q 1677.66 843.5 1668.3 838.17 L 1668.3 838.17 L 1668.3 838.17 Q 1658.94 832.84 1647.24 832.84 L 1647.24 832.84 L 1647.24 832.84 Q 1635.54 832.84 1626.18 838.17 L 1626.18 838.17 L 1626.18 838.17 Q 1616.82 843.5 1611.36 853.38 L 1611.36 853.38 L 1611.36 853.38 Q 1605.9 863.26 1605.9 876.26 L 1605.9 876.26 L 1605.9 876.26 Q 1605.9 889.26 1611.36 899.14 L 1611.36 899.14 L 1611.36 899.14 Q 1616.82 909.02 1626.18 914.35 L 1626.18 914.35 L 1626.18 914.35 Q 1635.54 919.68 1647.24 919.68 L 1647.24 919.68 L 1647.24 919.68 Z " fill="rgb(27,117,188)"/></g></g></svg>