<?xml version="1.0" ?><svg id="Layer_1" style="enable-background:new 0 0 70 70;" version="1.1" viewBox="0 0 70 70" xml:space="preserve" xmlns="http://www.w3.org/2000/svg" xmlns:xlink="http://www.w3.org/1999/xlink"><style type="text/css">
	.st0{fill:#D7D2D1;}
	.st1{fill:#5EA3D7;}
</style><g><path class="st0" d="M63.9000244,3.230011c0-0.5499878-0.4500122-1-1-1H45.0599976v44.4700317h18.8400269V3.230011z    M49.3600464,6.4200134h8.5799561c0.5499878,0,1,0.4500122,1,1s-0.4500122,1-1,1h-8.5799561c-0.5500488,0-1-0.4500122-1-1   S48.8099976,6.4200134,49.3600464,6.4200134z M49.3600464,11.269989h8.5799561c0.5499878,0,1,0.4500122,1,1   c0,0.5500488-0.4500122,1-1,1h-8.5799561c-0.5500488,0-1-0.4499512-1-1   C48.3600464,11.7200012,48.8099976,11.269989,49.3600464,11.269989z M49.3600464,16.1200256h8.5799561c0.5499878,0,1,0.4500122,1,1   c0,0.5599976-0.4500122,1-1,1h-8.5799561c-0.5500488,0-1-0.4400024-1-1   C48.3600464,16.5700378,48.8099976,16.1200256,49.3600464,16.1200256z M50.0100098,40.5299988   c-1.6099854,0-2.9199829-1.3200073-2.9199829-2.9299927s1.3099976-2.9199829,2.9199829-2.9199829   s2.9299927,1.3099976,2.9299927,2.9199829S51.6199951,40.5299988,50.0100098,40.5299988z M55.8900146,28.5899963h-4.4799805   c-1.7999878,0-3.2700195-1.4699707-3.2700195-3.2699585c0-1.8000488,1.4700317-3.2700195,3.2700195-3.2700195h4.4799805   c1.7999878,0,3.2700195,1.4699707,3.2700195,3.2700195C59.1600342,27.1200256,57.6900024,28.5899963,55.8900146,28.5899963z"/><path class="st0" d="M24.5800171,2.230011H6.9299927c-0.5499878,0-1,0.4500122-1,1v43.4700317h18.6500244V2.230011z    M11.8900146,6.4200134h8.5900269c0.5499878,0,1,0.4500122,1,1s-0.4500122,1-1,1h-8.5900269c-0.5499878,0-1-0.4500122-1-1   S11.3400269,6.4200134,11.8900146,6.4200134z M11.8900146,11.269989h8.5900269c0.5499878,0,1,0.4500122,1,1   c0,0.5500488-0.4500122,1-1,1h-8.5900269c-0.5499878,0-1-0.4499512-1-1   C10.8900146,11.7200012,11.3400269,11.269989,11.8900146,11.269989z M11.8900146,16.1200256h8.5900269c0.5499878,0,1,0.4500122,1,1   c0,0.5599976-0.4500122,1-1,1h-8.5900269c-0.5499878,0-1-0.4400024-1-1   C10.8900146,16.5700378,11.3400269,16.1200256,11.8900146,16.1200256z M12.5400391,40.5299988   c-1.6000366,0-2.9100342-1.3200073-2.9100342-2.9299927s1.3099976-2.9199829,2.9100342-2.9199829   c1.6199951,0,2.9400024,1.3099976,2.9400024,2.9199829S14.1600342,40.5299988,12.5400391,40.5299988z M18.4200439,28.5899963   h-4.4700317c-1.8099976,0-3.2700195-1.4699707-3.2700195-3.2699585c0-1.8000488,1.460022-3.2700195,3.2700195-3.2700195h4.4700317   c1.8099976,0,3.2699585,1.4699707,3.2699585,3.2700195C21.6900024,27.1200256,20.2300415,28.5899963,18.4200439,28.5899963z"/><path class="st1" d="M26.5800171,2.230011v44.4700317h16.4799805V2.230011H26.5800171z M30.9299927,6.4200134h8.5800171   c0.5499878,0,1,0.4500122,1,1s-0.4500122,1-1,1h-8.5800171c-0.5599976,0-1-0.4500122-1-1   S30.3699951,6.4200134,30.9299927,6.4200134z M30.9299927,11.269989h8.5800171c0.5499878,0,1,0.4500122,1,1   c0,0.5500488-0.4500122,1-1,1h-8.5800171c-0.5599976,0-1-0.4499512-1-1   C29.9299927,11.7200012,30.3699951,11.269989,30.9299927,11.269989z M30.9299927,16.1200256h8.5800171c0.5499878,0,1,0.4500122,1,1   c0,0.5599976-0.4500122,1-1,1h-8.5800171c-0.5599976,0-1-0.4400024-1-1   C29.9299927,16.5700378,30.3699951,16.1200256,30.9299927,16.1200256z M31.5800171,40.5299988   c-1.6099854,0-2.9199829-1.3200073-2.9199829-2.9299927s1.3099976-2.9199829,2.9199829-2.9199829   s2.9299927,1.3099976,2.9299927,2.9199829S33.1900024,40.5299988,31.5800171,40.5299988z M37.460022,28.5899963h-4.4799805   c-1.8000488,0-3.2700195-1.4699707-3.2700195-3.2699585c0-1.8000488,1.4699707-3.2700195,3.2700195-3.2700195h4.4799805   c1.7999878,0,3.2700195,1.4699707,3.2700195,3.2700195C40.7300415,27.1200256,39.2600098,28.5899963,37.460022,28.5899963z"/><rect class="st1" height="5.9800415" width="23.4400024" x="23.2399902" y="55.769989"/><path class="st1" d="M5.9299927,55.769989h5.8900146v5.9800415H6.9299927c-0.5499878,0-1-0.4500122-1-1V55.769989z"/><path class="st1" d="M13.8200073,55.769989h7.4199829v11c0,0.5500488-0.4499512,1-1,1h-5.4199829c-0.5499878,0-1-0.4499512-1-1   V55.769989z"/><path class="st1" d="M48.6799927,55.769989h7.4200439v11c0,0.5500488-0.4500122,1-1,1h-5.4200439c-0.5499878,0-1-0.4499512-1-1   V55.769989z"/><path class="st1" d="M68,49.7000427v4.0699463H2v-4.0699463c0-0.5500488,0.4500122-1,1-1h64   C67.5500488,48.7000427,68,49.1499939,68,49.7000427z"/><path class="st1" d="M58.1000366,55.769989h5.7999878v4.9800415c0,0.5499878-0.4500122,1-1,1h-4.7999878V55.769989z"/></g></svg>