<?xml version="1.0" ?><!DOCTYPE svg  PUBLIC '-//W3C//DTD SVG 1.1//EN'  'http://www.w3.org/Graphics/SVG/1.1/DTD/svg11.dtd'><svg style="enable-background:new 0 0 512 512;" version="1.1" viewBox="0 0 512 512" xml:space="preserve" xmlns="http://www.w3.org/2000/svg" xmlns:xlink="http://www.w3.org/1999/xlink"><style type="text/css">
	.st0{fill:#F47C27;}
	.st1{fill:#6D5C49;}
	.st2{fill:#FFCE47;}
	.st3{fill:#69D2E7;}
	.st4{fill:#E6E6E6;}
	.st5{clip-path:url(#SVGID_2_);}
	.st6{clip-path:url(#SVGID_4_);}
	.st7{clip-path:url(#SVGID_6_);}
</style><g><g id="Artwork"><g id="_x30_1_Maple_Leaf"><g><path class="st0" d="M182.8,333.5c0,0-55.8-26-45.7-104c0.5-4,5.4-5.7,8.3-2.9l0,0c3.7,3.5,9.6-0.1,8.1-5       c-3.3-10.9-5.3-25.2-2.3-42.1c0.7-3.7,5-5.3,7.9-3l9.2,7.3c3.2,2.5,8,0.3,8-3.8c0.1-10.5,3.5-27.7,19.7-47.8       c1.9-2.4,5.5-2.5,7.5-0.3c5.4,5.9,15.2,30.3,21.5,47c1.4,3.8,6.9,3.7,8.2-0.2c3.8-11.3,13.5-26.6,37.6-40.2       c3.2-1.8,7.1,0.3,7.4,4l1.4,21c0.3,3.9,4.7,6,7.9,3.6c14.3-10.6,47.8-31.4,81.7-23.9c1.9,0.4,3.4,1.9,3.8,3.8       c7.5,34-13.3,67.4-23.9,81.7c-2.3,3.1-0.3,7.6,3.6,7.9l21,1.4c3.6,0.2,5.7,4.2,4,7.4c-13.6,24.1-28.9,33.8-40.2,37.6       c-3.9,1.3-4,6.7-0.2,8.2c16.7,6.3,41.1,16.1,47,21.5c2.2,2,2.1,5.6-0.3,7.5c-20.1,16.2-37.2,19.6-47.8,19.7       c-4.1,0-6.3,4.8-3.8,8l7.3,9.2c2.3,2.9,0.7,7.3-3,7.9c-16.8,3-31.1,1-42.1-2.3c-4.8-1.5-8.4,4.5-5,8.1l0,0       c2.8,2.9,1.1,7.8-2.9,8.3C208.8,389.3,182.8,333.5,182.8,333.5"/><g><path class="st1" d="M146.1,375.2c-1.3,0-2.6-0.5-3.5-1.5c-2-2-2-5.1,0-7.1l194.6-194.6c2-2,5.1-2,7.1,0c2,2,2,5.1,0,7.1        L149.6,373.8C148.6,374.7,147.4,375.2,146.1,375.2z"/></g><g><g><path class="st1" d="M295.2,323.2c-52.8,0-76.7-23.2-77.8-24.3c-2-2-2-5.1,0-7.1c1.9-1.9,5.1-2,7.1,0         c0.4,0.4,29.7,28.2,95.2,19.8c2.7-0.4,5.2,1.6,5.6,4.3c0.4,2.7-1.6,5.2-4.3,5.6C311.7,322.7,303.1,323.2,295.2,323.2z"/></g><g><path class="st1" d="M221,300.4c-1.3,0-2.6-0.5-3.5-1.5c-1.3-1.3-31.8-32.7-22.6-103.5c0.4-2.7,2.9-4.7,5.6-4.3         c2.7,0.4,4.7,2.9,4.3,5.6c-8.5,66,19.5,94.9,19.8,95.1c2,2,2,5.1,0,7.1C223.5,299.9,222.2,300.4,221,300.4z"/></g></g><g><path class="st1" d="M305.4,265.9c-25.6,0-42.3-9.4-43.2-9.9c-2.4-1.4-3.2-4.4-1.8-6.8c1.4-2.4,4.4-3.2,6.8-1.9        c0.4,0.2,27.6,15.2,64.7,4.9c2.7-0.7,5.4,0.8,6.2,3.5c0.7,2.7-0.8,5.4-3.5,6.2C324,264.8,314.1,265.9,305.4,265.9z"/></g><g><path class="st1" d="M264.7,256.7c-1.7,0-3.4-0.9-4.3-2.5c-0.7-1.2-17.4-31-5.9-72.4c0.7-2.7,3.5-4.2,6.2-3.5        c2.7,0.7,4.2,3.5,3.5,6.2c-10.4,37.4,4.7,64.5,4.9,64.7c1.4,2.4,0.5,5.5-1.8,6.8C266.4,256.4,265.5,256.7,264.7,256.7z"/></g></g></g><g id="_x30_2_Cloudy_Sun"/><g id="_x30_3_Rain"/><g id="_x30_4_Umbrella"/><g id="_x30_5_Boot"/><g id="_x30_6_Apple"/><g id="_x30_7_Pumkin"/><g id="_x30_8_Turkey"/><g id="_x30_9_Mushroom"/><g id="_x31_0_Hot_Chocolate"/><g id="_x31_1_Chestnut"/><g id="_x31_2_Honey"/><g id="_x31_3_Foliage"/><g id="_x31_4_Tree"/><g id="_x31_5_Sunflower"/><g id="_x31_6_Scarf"/><g id="_x31_7_Hat"/><g id="_x31_8_Wheat"/><g id="_x31_9_Feather"/><g id="_x32_0_Watering_Can"/></g><g id="Layer_2"/></g></svg>