<?xml version="1.0" encoding="UTF-8" standalone="no"?>
<svg
   xmlns:dc="http://purl.org/dc/elements/1.1/"
   xmlns:cc="http://creativecommons.org/ns#"
   xmlns:rdf="http://www.w3.org/1999/02/22-rdf-syntax-ns#"
   xmlns:svg="http://www.w3.org/2000/svg"
   xmlns="http://www.w3.org/2000/svg"
   xmlns:sodipodi="http://sodipodi.sourceforge.net/DTD/sodipodi-0.dtd"
   xmlns:inkscape="http://www.inkscape.org/namespaces/inkscape"
   inkscape:version="1.0 (4035a4f, 2020-05-01)"
   sodipodi:docname="bell-logo.svg"
   id="svg852"
   xml:space="preserve"
   width="56"
   viewBox="0 0 56 64"
   version="1.0"
   height="64"><metadata
     id="metadata858"><rdf:RDF><cc:Work
         rdf:about=""><dc:format>image/svg+xml</dc:format><dc:type
           rdf:resource="http://purl.org/dc/dcmitype/StillImage" /></cc:Work></rdf:RDF></metadata><defs
     id="defs856" /><sodipodi:namedview
     inkscape:current-layer="svg852"
     inkscape:window-maximized="1"
     inkscape:window-y="23"
     inkscape:window-x="0"
     inkscape:cy="32"
     inkscape:cx="28"
     inkscape:zoom="6.4727273"
     showgrid="false"
     id="namedview854"
     inkscape:window-height="949"
     inkscape:window-width="1680"
     inkscape:pageshadow="2"
     inkscape:pageopacity="0"
     guidetolerance="10"
     gridtolerance="10"
     objecttolerance="10"
     borderopacity="1"
     bordercolor="#666666"
     pagecolor="#ffffff" /><g
     transform="translate(-27,-23)"
     id="Multicolor"><g
       id="g849"><path
         id="path833"
         style="fill:#facb1b"
         d="M 78.5,71 C 75.1,68.2 71,63.45 71,43 71,43 71,41.2 70.07,39 68.61,35.51 64.81,31 55,31 45.19,31 41.39,35.51 39.93,39 39,41.2 39,43 39,43 39,63.45 34.9,68.2 31.5,71 29.07,73 27,74.01 27,79 h 28 28 c 0,-4.99 -2.07,-6 -4.5,-8 z" /><path
         id="path835"
         style="fill:#fbec9a"
         d="M 55,79 H 27 c 0,-4.99 2.07,-6 4.5,-8 3.4,-2.8 7.5,-7.55 7.5,-28 0,0 0,-1.8 0.93,-4 1.46,-3.49 5.26,-8 15.07,-8 z" /><circle
         id="circle837"
         style="fill:#fbe158"
         r="4"
         cy="27"
         cx="55" /><path
         id="path839"
         style="fill:#facb1b"
         d="m 39.015,42.685 c 0.071,-1 0.364,-2.381 0.915,-3.685 H 55 v 4 H 39 c 0,0 0,-0.112 0.015,-0.315 z" /><path
         id="path841"
         style="fill:#f3b607"
         d="M 70.985,42.685 C 70.914,41.685 70.621,40.304 70.07,39 H 55 v 4 h 16 c 0,0 0,-0.112 -0.015,-0.315 z" /><path
         id="path843"
         style="fill:#f3b607"
         d="M 78.5,71 H 55 v 8 h 28 c 0,-4.99 -2.07,-6 -4.5,-8 z" /><path
         id="path845"
         style="fill:#facb1b"
         d="M 31.5,71 H 55 v 8 H 27 c 0,-4.99 2.07,-6 4.5,-8 z" /><path
         id="path847"
         style="fill:#fbe158"
         d="m 55,87 c 4.418,0 8,-3.582 8,-8 H 47 c 0,4.418 3.582,8 8,8 z" /></g></g></svg>
