<svg width="42" height="42" viewBox="0 0 42 42" fill="none" xmlns="http://www.w3.org/2000/svg">
<path d="M36.783 34.574L29.365 27.156V27.154C30.6971 25.3786 31.4158 23.2185 31.4158 20.9995C31.4158 18.7806 30.6971 16.6206 29.365 14.845L36.783 7.42505C40.0408 11.1965 41.834 16.015 41.834 20.999C41.834 25.983 40.041 30.8001 36.783 34.5731V34.574ZM21 10.584C23.2188 10.5879 25.3769 11.3086 27.1545 12.6348L34.5725 5.2168H34.5745C30.801 1.959 25.9845 0.165802 21.0005 0.165802C16.0165 0.165802 11.1995 1.95875 7.42645 5.2168L14.8445 12.6348H14.8464C16.6238 11.3087 18.782 10.5879 21.0009 10.584H21ZM12.635 27.1545C11.3029 25.3791 10.5842 23.219 10.5842 21C10.5842 18.7811 11.3029 16.6211 12.635 14.8455L5.217 7.4255C1.9592 11.197 0.166 16.0155 0.166 20.9995C0.166 25.9835 1.95895 30.8005 5.217 34.5735L12.635 27.1545ZM21 41.834C25.9844 41.836 30.8025 40.043 34.574 36.783L27.156 29.365H27.154C25.3786 30.6971 23.2185 31.4158 20.9995 31.4158C18.7806 31.4158 16.6206 30.6971 14.845 29.365L7.42705 36.783H7.42509C11.1966 40.0428 16.0151 41.8355 20.9991 41.834H21Z" fill="#2F478D"/>
</svg>
