<svg height="58px" version="1.1" viewBox="0 0 58 58" width="58px" xmlns="http://www.w3.org/2000/svg" xmlns:xlink="http://www.w3.org/1999/xlink"><title/><desc/><defs/><g fill="none" fill-rule="evenodd" id="Page-1" stroke="none" stroke-width="1"><g fill-rule="nonzero" id="032---Machine-Learning"><path d="M40.14,53.13 C39.6986017,53.1295892 39.3096812,52.8398291 39.183,52.417 L37.9,48.158 C37.7876411,47.8130438 37.870925,47.4342904 38.1176274,47.1682881 C38.3643298,46.9022857 38.73575,46.7907627 39.0881771,46.8768697 C39.4406043,46.9629768 39.7187525,47.2332062 39.815,47.583 L41.1,51.842 C41.1910918,52.1448897 41.1335196,52.4730184 40.9447555,52.7268057 C40.7559913,52.980593 40.4582908,53.1301169 40.142,53.13 L40.14,53.13 Z" fill="#A5A5A4" id="Shape"/><path d="M43.781,54.891 C43.3008146,54.8924075 42.887418,54.5523067 42.7962554,54.0808521 C42.7050929,53.6093975 42.9619038,53.1397025 43.408,52.962 L47.848,51.182 C48.1813398,51.0402657 48.5652649,51.0898703 48.8516343,51.3116735 C49.1380037,51.5334766 49.2820421,51.8927982 49.228171,52.2509908 C49.1742999,52.6091834 48.9309423,52.9102419 48.592,53.038 L44.152,54.818 C44.0341008,54.8657047 43.9081837,54.8904808 43.781,54.891 Z" fill="#A5A5A4" id="Shape"/><path d="M50.7,49.02 C50.1868175,49.0194932 49.757318,48.6306104 49.706,48.12 L49.306,44.08 C49.2507715,43.5304767 49.6514767,43.0402285 50.201,42.985 C50.7505233,42.9297715 51.2407715,43.3304767 51.296,43.88 L51.696,47.92 C51.7221916,48.1845152 51.6419939,48.4485743 51.4731226,48.6538468 C51.3042513,48.8591192 51.0606032,48.9887127 50.796,49.014 C50.7641393,49.0178147 50.7320877,49.0198179 50.7,49.02 Z" fill="#A5A5A4" id="Shape"/><path d="M51.01,39.181 C50.8954262,39.1809643 50.7817318,39.1610001 50.674,39.122 C50.4241445,39.0329162 50.2199204,38.8482108 50.1062689,38.6085298 C49.9926173,38.3688487 49.9788512,38.0938323 50.068,37.844 L53.048,29.484 C53.2335677,28.9637478 53.8057478,28.6924323 54.326,28.878 C54.8462522,29.0635677 55.1175677,29.6357478 54.932,30.156 L51.952,38.516 C51.8102769,38.9146092 51.4330541,39.1809077 51.01,39.181 Z" fill="#A5A5A4" id="Shape"/><path d="M54.409,25.06 C53.9341071,25.059622 53.5249785,24.7252983 53.43,24.26 L51.609,15.14 C51.5332608,14.7873745 51.6532739,14.4212857 51.9230768,14.1819376 C52.1928798,13.9425894 52.5706643,13.867071 52.9117471,13.9843043 C53.25283,14.1015376 53.5043575,14.3933562 53.57,14.748 L55.391,23.868 C55.4430897,24.1281882 55.3896322,24.3984115 55.2423986,24.6191682 C55.095165,24.8399248 54.8662286,24.9931125 54.606,25.045 C54.5409742,25.0563692 54.4749975,25.0613928 54.409,25.06 Z" fill="#A5A5A4" id="Shape"/><path d="M49.249,11.8 C49.0609903,11.7999702 48.8768521,11.7465667 48.718,11.646 L38.218,5.046 C37.9075502,4.85959116 37.7221302,4.51991427 37.7332495,4.15796995 C37.7443687,3.79602564 37.9502898,3.46837113 38.2715967,3.30137046 C38.5929036,3.13436979 38.979389,3.1541184 39.282,3.353 L49.782,9.953 C50.1597815,10.1901017 50.3348682,10.6487273 50.211203,11.0772632 C50.0875378,11.5057991 49.6950221,11.8006283 49.249,11.8 Z" fill="#A5A5A4" id="Shape"/><path d="M33,4 L22,4 C21.4477153,4 21,3.55228475 21,3 C21,2.44771525 21.4477153,2 22,2 L33,2 C33.5522847,2 34,2.44771525 34,3 C34,3.55228475 33.5522847,4 33,4 Z" fill="#A5A5A4" id="Shape"/><path d="M9.5,12.33 C9.09082152,12.3301028 8.72286178,12.0809152 8.57108662,11.7009266 C8.41931146,11.320938 8.51434558,10.8868212 8.811,10.605 L15.811,3.945 C16.2127872,3.56447581 16.8469758,3.58171284 17.2275,3.9835 C17.6080242,4.38528716 17.5907872,5.01947581 17.189,5.4 L10.189,12.06 C10.0023088,12.2347935 9.75574279,12.3314159 9.5,12.33 Z" fill="#A5A5A4" id="Shape"/><path d="M4.219,20.26 C3.88067441,20.2597047 3.56543993,20.0883613 3.38118406,19.8046113 C3.19692819,19.5208613 3.16863963,19.1631867 3.306,18.854 L4.866,15.335 C5.00780256,15.0036614 5.31692962,14.7742605 5.67514142,14.7345422 C6.03335322,14.6948238 6.38522548,14.8509334 6.5961686,15.1431598 C6.80711173,15.4353861 6.84448756,15.8185145 6.694,16.146 L5.134,19.665 C4.97366533,20.0269673 4.6148882,20.2602705 4.219,20.26 Z" fill="#A5A5A4" id="Shape"/><path d="M3,33 C2.44771525,33 2,32.5522847 2,32 L2,25 C2,24.4477153 2.44771525,24 3,24 C3.55228475,24 4,24.4477153 4,25 L4,32 C4,32.5522847 3.55228475,33 3,33 Z" fill="#A5A5A4" id="Shape"/><path d="M9.759,42.01 C9.5141576,42.0097981 9.27789725,41.9197773 9.095,41.757 L4.576,37.737 C4.30042979,37.5019258 4.17351947,37.1362125 4.24423686,36.7809691 C4.31495425,36.4257256 4.57224279,36.1364938 4.9168288,36.0248725 C5.2614148,35.9132511 5.63942279,35.9966921 5.905,36.243 L10.424,40.263 C10.7340794,40.5389682 10.8414289,40.9778064 10.6937569,41.3657506 C10.546085,41.7536948 10.1740996,42.010073 9.759,42.01 Z" fill="#A5A5A4" id="Shape"/><path d="M14.989,43.77 C14.6317344,43.7833975 14.2944599,43.6051783 14.1042246,43.302476 C13.9139893,42.9997736 13.8996943,42.6185758 14.0667246,42.302476 C14.2337549,41.9863761 14.5567344,41.7833975 14.914,41.77 L21.933,41.23 C22.291668,41.1982255 22.6397246,41.3617292 22.8442553,41.6580728 C23.0487859,41.9544164 23.0782059,42.337837 22.9212803,42.6619152 C22.7643547,42.9859934 22.4453169,43.2006834 22.086,43.224 L15.067,43.764 L14.989,43.77 Z" fill="#A5A5A4" id="Shape"/><path d="M35.081,45.33 C35.0045799,45.3301865 34.9283988,45.3214609 34.854,45.304 L27.694,43.644 C27.3410822,43.5679479 27.0565562,43.3075767 26.9495746,42.9627727 C26.842593,42.6179687 26.9297672,42.2422709 27.1776547,41.9798082 C27.4255421,41.7173455 27.7956523,41.6088715 28.146,41.696 L35.306,43.356 C35.8006734,43.4710561 36.1305402,43.9386394 36.0730238,44.4432497 C36.0155074,44.9478599 35.588877,45.3292164 35.081,45.33 Z" fill="#A5A5A4" id="Shape"/><path d="M25.671,40.08 C25.5945799,40.0801865 25.5183988,40.0714609 25.444,40.054 C24.9061178,39.9291234 24.5712568,39.3919132 24.696,38.854 L26.356,31.694 C26.4320521,31.3410822 26.6924233,31.0565562 27.0372273,30.9495746 C27.3820313,30.842593 27.7577291,30.9297672 28.0201918,31.1776547 C28.2826545,31.4255421 28.3911285,31.7956523 28.304,32.146 L26.644,39.306 C26.5389562,39.7587715 26.1357966,40.079476 25.671,40.08 Z" fill="#A5A5A4" id="Shape"/><path d="M36.411,43.46 C36.065854,43.4603459 35.7449273,43.2826832 35.562,42.99 L28.742,32.07 C28.5526492,31.7663242 28.539691,31.3846988 28.7080065,31.0688784 C28.876322,30.7530579 29.2003402,30.5510231 29.5580065,30.5388784 C29.9156728,30.5267337 30.2526492,30.7063242 30.442,31.01 L37.262,41.93 C37.4545741,42.2381173 37.4648676,42.6264454 37.2888872,42.944332 C37.1129068,43.2622187 36.7783468,43.4596376 36.415,43.46 L36.411,43.46 Z" fill="#A5A5A4" id="Shape"/><path d="M38.95,43.161 C38.6283801,43.1613992 38.3261974,43.0070839 38.1379498,42.7463113 C37.9497021,42.4855388 37.8983678,42.15014 38,41.845 L40.1,35.524 C40.2127173,35.1845977 40.4979413,34.931111 40.848231,34.8590259 C41.1985207,34.7869408 41.5606586,34.9072087 41.798231,35.1745259 C42.0358034,35.4418431 42.1127173,35.8155977 42,36.155 L39.9,42.476 C39.7641592,42.8852875 39.3812411,43.1613916 38.95,43.161 Z" fill="#A5A5A4" id="Shape"/><path d="M5.84,35.05 C5.34803638,35.0518556 4.92780277,34.6956036 4.84910549,34.2099716 C4.77040821,33.7243397 5.05662773,33.253606 5.524,33.1 L11.845,31 C12.3696705,30.8257542 12.9362541,31.1098295 13.1104999,31.6345 C13.2847458,32.1591705 13.0006705,32.7257541 12.476,32.9 L6.155,35 C6.05337997,35.0335305 5.94700819,35.0504149 5.84,35.05 Z" fill="#A5A5A4" id="Shape"/><path d="M14.25,42.03 C13.8330943,42.0304086 13.4596789,41.7721266 13.3129764,41.3818845 C13.1662738,40.9916424 13.2770697,40.5513324 13.591,40.277 L25.082,30.218 C25.5152674,29.874755 26.144755,29.9477326 26.488,30.381 C26.831245,30.8142674 26.7582674,31.443755 26.325,31.787 L14.909,41.782 C14.7266638,41.9418262 14.4924684,42.0299604 14.25,42.03 Z" fill="#A5A5A4" id="Shape"/><path d="M17.958,31.54 C17.4342762,31.54057 16.9988293,31.136964 16.9597057,30.6147033 C16.9205821,30.0924426 17.2910366,29.6284648 17.809,29.551 L24.889,28.471 C25.2423357,28.4174102 25.5974211,28.5563934 25.8204991,28.8355962 C26.0435771,29.1147989 26.1007568,29.4918036 25.9704991,29.8245962 C25.8402415,30.1573888 25.5423357,30.3954102 25.189,30.449 L18.109,31.529 C18.0590239,31.5365392 18.0085411,31.5402167 17.958,31.54 Z" fill="#A5A5A4" id="Shape"/><path d="M12.731,41.09 C12.6490567,41.0903256 12.5674037,41.080245 12.488,41.06 C11.9523791,40.9262184 11.6265055,40.3836925 11.76,39.848 L13.3,33.668 C13.3796449,33.3140644 13.6447323,33.031024 13.9926975,32.9283894 C14.3406628,32.8257548 14.7169226,32.9196258 14.9758988,33.1736829 C15.2348751,33.42774 15.3359435,33.8021307 15.24,34.152 L13.7,40.332 C13.5890197,40.7769668 13.1895975,41.0894146 12.731,41.09 Z" fill="#A5A5A4" id="Shape"/><path d="M5.879,22.181 C5.37882914,22.1840082 4.95336369,21.8170018 4.8829456,21.3218036 C4.81252751,20.8266054 5.11881788,20.355542 5.6,20.219 L13.841,17.858 C14.3720218,17.7058456 14.9258456,18.0129782 15.078,18.544 C15.2301544,19.0750218 14.9230218,19.6288456 14.392,19.781 L6.155,22.142 C6.065242,22.1676811 5.97235941,22.1808058 5.879,22.181 Z" fill="#A5A5A4" id="Shape"/><path d="M15.461,29.04 C15.4101247,29.0402803 15.3593048,29.0366026 15.309,29.029 C15.0466454,28.9890676 14.810922,28.8464903 14.6537443,28.6326686 C14.4965666,28.4188469 14.4308257,28.1513177 14.471,27.889 L15.551,20.809 C15.6045898,20.4556643 15.8426112,20.1577585 16.1754038,20.0275009 C16.5081964,19.8972432 16.8852011,19.9544229 17.1644038,20.1775009 C17.4436066,20.4005789 17.5825898,20.7556643 17.529,21.109 L16.449,28.189 C16.3753307,28.677907 15.955426,29.039586 15.461,29.04 Z" fill="#A5A5A4" id="Shape"/><path d="M28.352,27.03 C28.3122259,27.0301601 28.272481,27.0278222 28.233,27.023 C27.6846195,26.9583144 27.292458,26.4613975 27.357,25.913 L28.657,14.854 C28.6921667,14.4938074 28.9192019,14.1807232 29.250635,14.0353702 C29.5820681,13.8900173 29.9661722,13.9350808 30.2549624,14.1531992 C30.5437526,14.3713175 30.6921572,14.7284488 30.643,15.087 L29.343,26.146 C29.2842412,26.6491326 28.8585508,27.0288605 28.352,27.03 Z" fill="#A5A5A4" id="Shape"/><path d="M17.4,16.03 C17.3558471,16.0299892 17.3117458,16.0269823 17.268,16.021 C17.0050168,15.98617 16.7666494,15.8482729 16.6053591,15.6376577 C16.4440688,15.4270426 16.3730742,15.1609705 16.408,14.898 L17.608,5.839 C17.6467509,5.47783726 17.8782961,5.16608747 18.2128554,5.02462978 C18.5474146,4.88317209 18.9323715,4.93425365 19.2184612,5.15806789 C19.504551,5.38188213 19.6467801,5.74322962 19.59,6.102 L18.39,15.161 C18.3243533,15.6578052 17.9011232,16.0293072 17.4,16.03 Z" fill="#A5A5A4" id="Shape"/><path d="M25.88,27.88 C25.6148052,27.8799434 25.3604927,27.7745494 25.173,27.587 L18.413,20.827 C18.0340278,20.4346211 18.0394476,19.8109152 18.4251814,19.4251814 C18.8109152,19.0394476 19.4346211,19.0340278 19.827,19.413 L26.587,26.173 C26.8729079,26.4589943 26.9584219,26.8890366 26.803678,27.2626546 C26.6489341,27.6362725 26.2843959,27.8799137 25.88,27.88 Z" fill="#A5A5A4" id="Shape"/><path d="M27.68,11.1 C27.449367,11.1002394 27.2257406,11.0207514 27.047,10.875 L20.687,5.675 C20.2592555,5.32540375 20.1959038,4.69524454 20.5455,4.2675 C20.8950962,3.83975546 21.5252555,3.77640375 21.953,4.126 L28.313,9.326 C28.6401314,9.59361611 28.7636914,10.0379992 28.6216524,10.4360673 C28.4796134,10.8341355 28.1026503,11.0999216 27.68,11.1 Z" fill="#A5A5A4" id="Shape"/><path d="M14.319,17.66 C14.1642105,17.6599898 14.0115366,17.6240463 13.873,17.555 L9.233,15.234 C8.74361547,14.9846588 8.54692575,14.3872836 8.79244498,13.8959705 C9.03796421,13.4046575 9.6337882,13.2033176 10.127,13.445 L14.767,15.766 C15.1814465,15.9737179 15.3987906,16.4390467 15.29208,16.8901847 C15.1853694,17.3413227 14.7825867,17.659969 14.319,17.66 Z" fill="#A5A5A4" id="Shape"/><path d="M40.2,19.11 C39.7510849,19.1098119 39.3573092,18.8104934 39.237,18.378 L35.837,6.158 C35.6889877,5.62587365 36.0003737,5.07451234 36.5325,4.92650003 C37.0646264,4.77848772 37.6159877,5.08987366 37.764,5.622 L41.164,17.842 C41.2477942,18.1432272 41.1858746,18.4663091 40.9966465,18.7152108 C40.8074185,18.9641124 40.5126648,19.1101817 40.2,19.11 Z" fill="#A5A5A4" id="Shape"/><path d="M31.669,10.5 C31.3004483,10.4998096 30.9618754,10.2969156 30.7879186,9.97200113 C30.6139618,9.64708663 30.6328223,9.25282545 30.837,8.946 L33.498,4.946 C33.6950481,4.64648532 34.0373591,4.47537633 34.3951949,4.49752446 C34.7530307,4.51967259 35.0716283,4.7316883 35.2302371,5.05321625 C35.388846,5.37474421 35.3631927,5.75657794 35.163,6.054 L32.502,10.054 C32.3165083,10.3327454 32.0038225,10.5001618 31.669,10.5 Z" fill="#A5A5A4" id="Shape"/><path d="M43.32,20.1 C42.8973497,20.0999216 42.5203866,19.8341355 42.3783476,19.4360673 C42.2363086,19.0379992 42.3598686,18.5936161 42.687,18.326 L49.047,13.126 C49.3237022,12.8998509 49.7000347,12.8384993 50.0342367,12.9650559 C50.3684387,13.0916125 50.6097369,13.3868502 50.6672367,13.7395559 C50.7247365,14.0922616 50.5897022,14.4488509 50.313,14.675 L43.953,19.875 C43.7742594,20.0207514 43.550633,20.1002394 43.32,20.1 Z" fill="#A5A5A4" id="Shape"/><path d="M47.88,39.88 C47.6148052,39.8799434 47.3604927,39.7745494 47.173,39.587 L43.413,35.827 C43.0340278,35.4346211 43.0394476,34.8109152 43.4251814,34.4251814 C43.8109152,34.0394476 44.4346211,34.0340278 44.827,34.413 L48.587,38.173 C48.8729079,38.4589943 48.9584219,38.8890366 48.803678,39.2626546 C48.6489341,39.6362725 48.2843959,39.8799137 47.88,39.88 Z" fill="#A5A5A4" id="Shape"/><path d="M52.24,26.82 C52.104536,26.8199651 51.9704914,26.7924077 51.846,26.739 L43.365,23.1 C42.8574503,22.8821236 42.6226237,22.2940497 42.8405,21.7865 C43.0583764,21.2789504 43.6464503,21.0441237 44.154,21.262 L52.635,24.902 C53.0713908,25.0892144 53.3159442,25.5575068 53.2202091,26.02261 C53.1244739,26.4877132 52.7148537,26.8213529 52.24,26.821 L52.24,26.82 Z" fill="#A5A5A4" id="Shape"/><path d="M41.749,31.02 C41.2275692,31.0217989 40.7922759,30.622635 40.749,30.103 L40.249,24.062 C40.2034365,23.5113721 40.6128721,23.0280635 41.1635,22.9825001 C41.7141279,22.9369366 42.1974365,23.3463721 42.243,23.897 L42.743,29.938 C42.7885118,30.4883352 42.3793269,30.9713883 41.829,31.017 L41.749,31.02 Z" fill="#A5A5A4" id="Shape"/><path d="M40.84,45.05 C40.3492173,45.0503557 39.9307126,44.6945013 39.8521655,44.2100447 C39.7736184,43.7255882 40.058247,43.2557317 40.524,43.101 L46.845,41 C47.3696705,40.8257542 47.9362542,41.1098295 48.1105,41.6345 C48.2847458,42.1591705 48.0006705,42.7257542 47.476,42.9 L41.155,45 C41.05338,45.0335305 40.9470082,45.0504149 40.84,45.05 Z" fill="#A5A5A4" id="Shape"/><path d="M39.121,33.181 C39.0276406,33.1808058 38.934758,33.1676811 38.845,33.142 L30.6,30.781 C30.2564891,30.6825733 29.991582,30.4083625 29.9050666,30.06166 C29.8185511,29.7149575 29.9235711,29.3484358 30.1805666,29.10016 C30.437562,28.8518842 30.8074891,28.7595733 31.151,28.858 L39.4,31.219 C39.8804213,31.3553568 40.1865964,31.8252451 40.1172769,32.3198082 C40.0479574,32.8143713 39.6243965,33.1819775 39.125,33.181 L39.121,33.181 Z" fill="#A5A5A4" id="Shape"/><path d="M30.551,28.43 C30.1038664,28.4299259 29.711122,28.1330329 29.589114,27.7028672 C29.4671059,27.2727015 29.6454893,26.8138192 30.026,26.579 L37.926,21.718 C38.2301508,21.5069847 38.6259905,21.4812544 38.9548992,21.6511197 C39.2838079,21.8209851 39.4919702,22.1586529 39.4959718,22.5288139 C39.4999734,22.8989749 39.2991596,23.2410639 38.974,23.418 L31.074,28.279 C30.9169842,28.3767281 30.7359425,28.4289983 30.551,28.43 Z" fill="#A5A5A4" id="Shape"/><path d="M19.721,17.74 C19.2513542,17.740014 18.8449788,17.413206 18.7442441,16.9544907 C18.6435095,16.4957754 18.8755616,16.0287676 19.302,15.832 L26.862,12.352 C27.1882303,12.1903984 27.5765101,12.2188595 27.8756892,12.4263038 C28.1748683,12.6337482 28.3376708,12.9873957 28.3007207,13.349578 C28.2637706,13.7117602 28.0329067,14.0252456 27.698,14.168 L20.138,17.648 C20.0074208,17.7088526 19.8650622,17.7402603 19.721,17.74 Z" fill="#A5A5A4" id="Shape"/><path d="M38.68,20.1 C38.449367,20.1002394 38.2257406,20.0207514 38.047,19.875 L31.687,14.675 C31.4102978,14.4488509 31.2752635,14.0922616 31.3327633,13.7395559 C31.3902631,13.3868502 31.6315613,13.0916125 31.9657633,12.9650559 C32.2999653,12.8384993 32.6762978,12.8998509 32.953,13.126 L39.313,18.326 C39.6401314,18.5936161 39.7636914,19.0379992 39.6216524,19.4360673 C39.4796134,19.8341355 39.1026503,20.0999216 38.68,20.1 Z" fill="#A5A5A4" id="Shape"/><circle cx="28" cy="29" fill="#4482C3" id="Oval" r="3"/><circle cx="41" cy="21" fill="#4482C3" id="Oval" r="3"/><circle cx="42" cy="33" fill="#4482C3" id="Oval" r="3"/><circle cx="30" cy="12" fill="#4482C3" id="Oval" r="3"/><circle cx="36" cy="3" fill="#4482C3" id="Oval" r="3"/><circle cx="52" cy="12" fill="#14A085" id="Oval" r="3"/><circle cx="55" cy="27" fill="#14A085" id="Oval" r="3"/><circle cx="50" cy="41" fill="#14A085" id="Oval" r="3"/><circle cx="51" cy="51" fill="#14A085" id="Oval" r="3"/><circle cx="41" cy="55" fill="#14A085" id="Oval" r="3"/><circle cx="38" cy="45" fill="#14A085" id="Oval" r="3"/><circle cx="25" cy="42" fill="#4482C3" id="Oval" r="3"/><circle cx="15" cy="31" fill="#D75E72" id="Oval" r="3"/><circle cx="17" cy="18" fill="#D75E72" id="Oval" r="3"/><circle cx="3" cy="22" fill="#D75E72" id="Oval" r="3"/><circle cx="7" cy="13" fill="#D75E72" id="Oval" r="3"/><circle cx="19" cy="3" fill="#D75E72" id="Oval" r="3"/><circle cx="12" cy="43" fill="#D75E72" id="Oval" r="3"/><circle cx="3" cy="35" fill="#D75E72" id="Oval" r="3"/></g></g></svg>
