<svg
   xmlns:dc="http://purl.org/dc/elements/1.1/"
   xmlns:cc="http://creativecommons.org/ns#"
   xmlns:rdf="http://www.w3.org/1999/02/22-rdf-syntax-ns#"
   xmlns:svg="http://www.w3.org/2000/svg"
   xmlns="http://www.w3.org/2000/svg"
   xmlns:sodipodi="http://sodipodi.sourceforge.net/DTD/sodipodi-0.dtd"
   xmlns:inkscape="http://www.inkscape.org/namespaces/inkscape"
   inkscape:version="1.0 (4035a4f, 2020-05-01)"
   height="468"
   width="454"
   sodipodi:docname="iconfinder_Internet_Of_Things-Basic-1-Flat_Style-36-18_5215144.svg"
   id="svg906"
   xml:space="preserve"
   viewBox="0 0 454 468"
   version="1.1"><metadata
     id="metadata912"><rdf:RDF><cc:Work
         rdf:about=""><dc:format>image/svg+xml</dc:format><dc:type
           rdf:resource="http://purl.org/dc/dcmitype/StillImage" /></cc:Work></rdf:RDF></metadata><defs
     id="defs910" /><sodipodi:namedview
     inkscape:current-layer="svg906"
     inkscape:window-maximized="0"
     inkscape:window-y="23"
     inkscape:window-x="0"
     inkscape:cy="234"
     inkscape:cx="227"
     inkscape:zoom="1.390625"
     showgrid="false"
     id="namedview908"
     inkscape:window-height="948"
     inkscape:window-width="1680"
     inkscape:pageshadow="2"
     inkscape:pageopacity="0"
     guidetolerance="10"
     gridtolerance="10"
     objecttolerance="10"
     borderopacity="1"
     bordercolor="#666666"
     pagecolor="#ffffff" /><style
     id="style833"
     type="text/css">
	.st0{fill:#E3EDF0;}
	.st1{fill:#F56C61;}
	.st2{fill:#738394;}
	.st3{fill:#A3B5BE;}
	.st4{fill:#4C97E3;}
	.st5{fill:#F6B94C;}
	.st6{fill:#FFFFFF;}
	.st7{fill:#52C1FF;}
	.st8{fill:#F9CB93;}
	.st9{fill:#67C7A5;}
</style><g
     transform="translate(-28.999996,-22)"
     id="_x34_0_healthcare" /><g
     transform="translate(-28.999996,-22)"
     id="_x33_9_cloud_network" /><g
     transform="translate(-28.999996,-22)"
     id="_x33_8_internet_banking" /><g
     transform="translate(-28.999996,-22)"
     id="_x33_7_global_network" /><g
     transform="translate(-28.999996,-22)"
     id="_x33_6_cloud_network" /><g
     transform="translate(-28.999996,-22)"
     id="_x33_5_mobile_communication" /><g
     transform="translate(-28.999996,-22)"
     id="_x33_4_share" /><g
     transform="translate(-28.999996,-22)"
     id="_x33_3_communication" /><g
     transform="translate(-28.999996,-22)"
     id="_x33_2_safety" /><g
     transform="translate(-28.999996,-22)"
     id="_x33_1_traffic_signal" /><g
     transform="translate(-28.999996,-22)"
     id="_x33_0_refrigerator" /><g
     transform="translate(-28.999996,-22)"
     id="_x32_9_global_network" /><g
     transform="translate(-28.999996,-22)"
     id="_x32_8_smart_camera" /><g
     transform="translate(-28.999996,-22)"
     id="_x32_7_data_transfer" /><g
     transform="translate(-28.999996,-22)"
     id="_x32_6_cloud_storage" /><g
     transform="translate(-28.999996,-22)"
     id="_x32_5_data_transfer" /><g
     transform="translate(-28.999996,-22)"
     id="_x32_4_headphone" /><g
     transform="translate(-28.999996,-22)"
     id="_x32_3_laptop" /><g
     transform="translate(-28.999996,-22)"
     id="_x32_2_street_light" /><g
     transform="translate(-28.999996,-22)"
     id="_x32_1_satellite_communication" /><g
     transform="translate(-28.999996,-22)"
     id="_x32_0_home_automation" /><g
     transform="translate(-28.999996,-22)"
     id="_x31_9_thermometer" /><g
     transform="translate(-28.999996,-22)"
     id="_x31_8_database_connectivity"><g
       id="g886"><g
         id="g875"><g
           id="g861"><rect
             id="rect857"
             y="288.29999"
             x="239.8"
             width="32"
             height="159.5"
             class="st0" /><circle
             r="42.200001"
             id="ellipse859"
             cy="447.79999"
             cx="255.8"
             class="st4" /></g><g
           id="g867"><path
             id="path863"
             d="M 186.3,413.5 H 96 v -32 h 74.3 v -93.2 h 32 v 109.2 c 0,8.9 -7.2,16 -16,16 z"
             class="st0" /><circle
             r="42.200001"
             id="ellipse865"
             cy="397.5"
             cx="71.199997"
             class="st4" /></g><g
           id="g873"><path
             id="path869"
             d="m 416,413.5 h -90.3 c -8.8,0 -16,-7.2 -16,-16 V 288.3 h 32 v 93.2 H 416 Z"
             class="st0" /><circle
             r="42.200001"
             id="ellipse871"
             cy="397.5"
             cx="440.79999"
             class="st4" /></g></g><g
         id="g884"><path
           id="XMLID_100_"
           d="m 125.3,169.5 v 87 c 0,33.5 56.6,60.5 130.7,60.5 74.1,0 130.7,-27 130.7,-60.5 v -87 z"
           class="st3" /><path
           id="XMLID_99_"
           d="m 125.3,82.5 v 87 c 0,33.5 56.6,60.5 130.7,60.5 74.1,0 130.7,-27 130.7,-60.5 v -87 z"
           class="st0" /><path
           id="XMLID_98_"
           d="M 256,22 C 330.1,22 386.7,49.1 386.7,82.5 386.7,115.9 330.1,143 256,143 181.9,143 125.3,115.9 125.3,82.5 125.3,49.1 181.9,22 256,22 Z"
           class="st3" /><ellipse
           id="ellipse880"
           ry="14"
           rx="13.6"
           cy="175.89999"
           cx="331.39999"
           class="st2" /><ellipse
           id="ellipse882"
           ry="14"
           rx="13.6"
           cy="262.89999"
           cx="331.39999"
           class="st2" /></g></g></g><g
     transform="translate(-28.999996,-22)"
     id="_x31_7_home_automation" /><g
     transform="translate(-28.999996,-22)"
     id="_x31_6_wireless_charging" /><g
     transform="translate(-28.999996,-22)"
     id="_x31_5_communication" /><g
     transform="translate(-28.999996,-22)"
     id="_x31_4_wireless_device" /><g
     transform="translate(-28.999996,-22)"
     id="_x31_3_game" /><g
     transform="translate(-28.999996,-22)"
     id="_x31_2_security_system" /><g
     transform="translate(-28.999996,-22)"
     id="_x31_1_mobile_phone" /><g
     transform="translate(-28.999996,-22)"
     id="_x31_0_mic" /><g
     transform="translate(-28.999996,-22)"
     id="_x30_9_thermometer" /><g
     transform="translate(-28.999996,-22)"
     id="_x30_8_communication" /><g
     transform="translate(-28.999996,-22)"
     id="_x30_7_communication" /><g
     transform="translate(-28.999996,-22)"
     id="_x30_6_bulb" /><g
     transform="translate(-28.999996,-22)"
     id="_x30_5_printing_machine" /><g
     transform="translate(-28.999996,-22)"
     id="_x30_4_shopping_cart" /><g
     transform="translate(-28.999996,-22)"
     id="_x30_3_smart_watch" /><g
     transform="translate(-28.999996,-22)"
     id="_x30_2_washing_machine" /><g
     transform="translate(-28.999996,-22)"
     id="_x30_1_video" /></svg>
