<svg
   xmlns:dc="http://purl.org/dc/elements/1.1/"
   xmlns:cc="http://creativecommons.org/ns#"
   xmlns:rdf="http://www.w3.org/1999/02/22-rdf-syntax-ns#"
   xmlns:svg="http://www.w3.org/2000/svg"
   xmlns="http://www.w3.org/2000/svg"
   xmlns:sodipodi="http://sodipodi.sourceforge.net/DTD/sodipodi-0.dtd"
   xmlns:inkscape="http://www.inkscape.org/namespaces/inkscape"
   inkscape:version="1.0 (4035a4f, 2020-05-01)"
   height="48.025002"
   width="43.825001"
   sodipodi:docname="iconfinder_186_2508414.svg"
   xml:space="preserve"
   viewBox="0 0 43.825001 48.025002"
   version="1.1"
   id="Layer_1"
   enable-background="new 0 0 48 48"><metadata
     id="metadata860"><rdf:RDF><cc:Work
         rdf:about=""><dc:format>image/svg+xml</dc:format><dc:type
           rdf:resource="http://purl.org/dc/dcmitype/StillImage" /></cc:Work></rdf:RDF></metadata><defs
     id="defs858" /><sodipodi:namedview
     inkscape:current-layer="Layer_1"
     inkscape:window-maximized="1"
     inkscape:window-y="23"
     inkscape:window-x="0"
     inkscape:cy="24"
     inkscape:cx="18.731461"
     inkscape:zoom="9.7781858"
     showgrid="false"
     id="namedview856"
     inkscape:window-height="953"
     inkscape:window-width="1680"
     inkscape:pageshadow="2"
     inkscape:pageopacity="0"
     guidetolerance="10"
     gridtolerance="10"
     objecttolerance="10"
     borderopacity="1"
     bordercolor="#666666"
     pagecolor="#ffffff" /><g
     transform="translate(-2.1)"
     id="g853"><g
       id="g837"><path
         id="path833"
         fill="#e6e6e5"
         d="M 26.4,0 H 6.5 C 4.1,0 2.1,2 2.1,4.4 v 39 c 0,2.4 2,4.4 4.4,4.4 h 30.7 c 2.4,0 4.4,-2 4.4,-4.4 V 15.3 C 36.7,10.3 30.3,3.9 26.4,0 Z" /><path
         id="path835"
         fill="#98d0f1"
         d="m 26.4,0 v 10.8 c 0,2.4 2,4.4 4.4,4.4 H 41.6 C 37.6,11.3 31.2,4.9 26.4,0 Z" /></g><g
       id="g841"><path
         id="path839"
         fill="#ec7b72"
         d="m 21.2,40.7 c -0.2,0 -0.4,-0.2 -0.5,-0.4 l -5.1,-21.4 -4.1,8.4 c -0.1,0.2 -0.3,0.3 -0.4,0.3 h -8 c -0.3,0 -0.5,-0.2 -0.5,-0.5 0,-0.3 0.2,-0.5 0.5,-0.5 h 7.7 l 4.6,-9.4 c 0.1,-0.2 0.3,-0.3 0.5,-0.3 0.2,0 0.4,0.2 0.4,0.4 l 5,20.7 2.6,-11.1 c 0.1,-0.2 0.3,-0.4 0.5,-0.4 h 4.1 l 1.7,-4.4 c 0.1,-0.2 0.3,-0.3 0.5,-0.3 0.2,0 0.4,0.2 0.5,0.4 l 3.5,12 L 36,27 c 0,-0.2 0.2,-0.4 0.5,-0.4 h 4.3 c 0.3,0 0.5,0.2 0.5,0.5 0,0.3 -0.2,0.5 -0.5,0.5 h -3.9 l -1.6,8.9 c 0,0.2 -0.2,0.4 -0.5,0.4 -0.2,0 -0.4,-0.1 -0.5,-0.4 l -3.7,-12.6 -1.3,3.4 c -0.1,0.2 -0.3,0.3 -0.5,0.3 h -4 l -3,12.8 c -0.1,0.1 -0.3,0.3 -0.6,0.3 z" /></g><g
       id="g851"><rect
         id="rect843"
         y="33.900002"
         x="33.700001"
         width="2.5"
         transform="matrix(0.7071,-0.7071,0.7071,0.7071,-15.9478,35.568)"
         height="6.3000002"
         fill="#333333" /><path
         id="path845"
         fill="#525252"
         d="m 18.5,20.6 c -4.2,4.2 -4.2,11 0,15.1 4.2,4.1 11,4.2 15.1,0 4.2,-4.2 4.2,-10.9 0,-15.1 -4.2,-4.2 -10.9,-4.2 -15.1,0 z m 13.2,13.2 c -3.1,3.1 -8.2,3.1 -11.3,0 -3.1,-3.1 -3.1,-8.2 0,-11.4 3.1,-3.1 8.2,-3.1 11.3,0 3.2,3.2 3.2,8.3 0,11.4 z" /><path
         id="path847"
         opacity="0.25"
         fill="#ffffff"
         d="m 30.6,23.9 c -2.4,-2.4 -6.3,-2.4 -8.7,0 0,0 0,0 0,0 l 1.7,1.7 c 0,0 0,0 0,0 2.1,-2.1 5.6,-2.1 7.7,0 0.4,0.4 0.8,0.9 1,1.4 -0.3,-1.1 -0.9,-2.2 -1.7,-3.1 z" /><path
         id="path849"
         fill="#ffcc67"
         d="m 37.5,34.5 c -0.3,-0.3 -0.8,-0.3 -1.1,0 v 0 l -4,4 v 0 c -0.3,0.3 -0.3,0.8 0,1.1 0.3,0.3 0.8,0.3 1.1,0 l 7.6,7.6 c 1.1,1.1 2.9,1.1 4,0 1.1,-1.1 1.1,-2.9 0,-4 l -7.6,-7.6 c 0.3,-0.3 0.3,-0.8 0,-1.1 z" /></g></g></svg>
