<svg
   xmlns:dc="http://purl.org/dc/elements/1.1/"
   xmlns:cc="http://creativecommons.org/ns#"
   xmlns:rdf="http://www.w3.org/1999/02/22-rdf-syntax-ns#"
   xmlns:svg="http://www.w3.org/2000/svg"
   xmlns="http://www.w3.org/2000/svg"
   xmlns:sodipodi="http://sodipodi.sourceforge.net/DTD/sodipodi-0.dtd"
   xmlns:inkscape="http://www.inkscape.org/namespaces/inkscape"
   inkscape:version="1.0 (4035a4f, 2020-05-01)"
   height="44"
   width="36"
   sodipodi:docname="iconfinder_credit_card_invoice_payment_tax_3631664.svg"
   xml:space="preserve"
   viewBox="0 0 36 44"
   version="1.1"
   id="Layer_1"><metadata
     id="metadata858"><rdf:RDF><cc:Work
         rdf:about=""><dc:format>image/svg+xml</dc:format><dc:type
           rdf:resource="http://purl.org/dc/dcmitype/StillImage" /></cc:Work></rdf:RDF></metadata><defs
     id="defs856" /><sodipodi:namedview
     inkscape:current-layer="Layer_1"
     inkscape:window-maximized="0"
     inkscape:window-y="23"
     inkscape:window-x="0"
     inkscape:cy="26"
     inkscape:cx="19"
     inkscape:zoom="11.125"
     showgrid="false"
     id="namedview854"
     inkscape:window-height="948"
     inkscape:window-width="1680"
     inkscape:pageshadow="2"
     inkscape:pageopacity="0"
     guidetolerance="10"
     gridtolerance="10"
     objecttolerance="10"
     borderopacity="1"
     bordercolor="#666666"
     pagecolor="#ffffff" /><style
     id="style833"
     type="text/css">
	.st0{fill:#D9DCE1;}
	.st1{fill:#56AAFF;}
	.st2{fill:#0478ED;}
	.st3{fill:none;stroke:#FFFFFF;stroke-width:4;stroke-linecap:round;stroke-linejoin:round;stroke-miterlimit:10;}
	.st4{fill:#FFFFFF;}
	.st5{fill:none;stroke:#FFFFFF;stroke-width:2.2357;stroke-linecap:square;stroke-miterlimit:10;}
	.st6{fill:none;stroke:#0478ED;stroke-width:2;stroke-miterlimit:10;stroke-dasharray:2,2;}
	.st7{fill:none;stroke:#56AAFF;stroke-width:5;stroke-miterlimit:10;}
	.st8{fill:none;stroke:#0478ED;stroke-width:3;stroke-miterlimit:10;}
	.st9{fill:none;stroke:#D9DCE1;stroke-width:3;stroke-miterlimit:10;}
	.st10{fill:none;stroke:#56AAFF;stroke-width:4;stroke-linecap:round;stroke-miterlimit:10;}
	.st11{fill:none;stroke:#0478ED;stroke-width:4;stroke-miterlimit:10;}
	.st12{fill:none;stroke:#FFFFFF;stroke-width:2;stroke-miterlimit:10;}
	.st13{fill:none;stroke:#D9DCE1;stroke-width:4;stroke-miterlimit:10;}
	.st14{fill:none;stroke:#D9DCE1;stroke-width:6;stroke-linecap:round;stroke-miterlimit:10;}
	.st15{fill:none;stroke:#D9DCE1;stroke-width:2;stroke-miterlimit:10;}
	.st16{fill:none;stroke:#56AAFF;stroke-width:9.9179;stroke-linecap:round;stroke-miterlimit:10;}
	.st17{fill-rule:evenodd;clip-rule:evenodd;fill:#56AAFF;}
	.st18{fill-rule:evenodd;clip-rule:evenodd;fill:#D9DCE1;}
	.st19{fill-rule:evenodd;clip-rule:evenodd;fill:#0478ED;}
	.st20{fill:none;stroke:#FFFFFF;stroke-width:4;stroke-miterlimit:10;}
	.st21{fill:none;stroke:#0478ED;stroke-width:2;stroke-miterlimit:10;}
	.st22{fill:none;stroke:#FFFFFF;stroke-width:2;stroke-linecap:square;stroke-miterlimit:10;}
	.st23{fill:#FEFEFE;}
	.st24{fill:none;stroke:#FFFFFF;stroke-width:2;stroke-linecap:round;stroke-linejoin:round;stroke-miterlimit:10;}
	.st25{fill:none;stroke:#D9DCE1;stroke-width:3;stroke-linecap:round;stroke-linejoin:round;stroke-miterlimit:10;}
	.st26{fill:none;stroke:#56AAFF;stroke-width:4;stroke-linecap:square;stroke-miterlimit:10;}
	.st27{fill:none;stroke:#56AAFF;stroke-width:4;stroke-miterlimit:10;}
	.st28{fill:none;stroke:#0478ED;stroke-width:2;stroke-linecap:square;stroke-miterlimit:10;}
	.st29{fill:none;stroke:#FFFFFF;stroke-width:3;stroke-miterlimit:10;}
	.st30{fill:none;stroke:#FFFFFF;stroke-width:4;stroke-linecap:round;stroke-miterlimit:10;}
	.st31{fill:none;stroke:#56AAFF;stroke-width:4;stroke-linejoin:round;stroke-miterlimit:10;}
	.st32{fill:none;stroke:#0478ED;stroke-width:2.8187;stroke-miterlimit:10;}
	.st33{fill:none;stroke:#0478ED;stroke-width:2;stroke-linecap:round;stroke-miterlimit:10;}
	.st34{fill:none;stroke:#FFFFFF;stroke-width:2;stroke-linecap:round;stroke-miterlimit:10;}
	.st35{fill:none;stroke:#FFFFFF;stroke-width:6;stroke-linecap:round;stroke-miterlimit:10;}
	.st36{fill:none;stroke:#D9DCE1;stroke-width:4;stroke-linecap:round;stroke-miterlimit:10;}
	.st37{fill:none;stroke:#FFFFFF;stroke-width:2;stroke-miterlimit:10;stroke-dasharray:4.0841,4.0841;}
	.st38{fill:none;stroke:#FFFFFF;stroke-width:2;stroke-miterlimit:10;stroke-dasharray:2;}
	.st39{fill:none;stroke:#D9DCE1;stroke-width:4;stroke-linecap:round;stroke-linejoin:round;stroke-miterlimit:10;}
	.st40{fill:none;stroke:#56AAFF;stroke-width:6;stroke-linecap:round;stroke-linejoin:round;stroke-miterlimit:10;}
	.st41{fill:none;stroke:#FFFFFF;stroke-width:2;stroke-miterlimit:10;stroke-dasharray:8,5;}
	.st42{fill:none;stroke:#56AAFF;stroke-width:3;stroke-miterlimit:10;}
	.st43{fill:none;stroke:#FFFFFF;stroke-width:2;stroke-miterlimit:10;stroke-dasharray:7.5556,4.7222;}
	.st44{fill:none;stroke:#56AAFF;stroke-width:2;stroke-miterlimit:10;}
	.st45{fill:none;stroke:#D9DCE1;stroke-width:10.4595;stroke-linecap:square;stroke-miterlimit:10;}
	.st46{fill:none;stroke:#56AAFF;stroke-width:10.4595;stroke-linecap:square;stroke-miterlimit:10;}
	.st47{fill:none;stroke:#56AAFF;stroke-width:2;stroke-linecap:square;stroke-miterlimit:10;}
	.st48{fill:none;stroke:#D9DCE1;stroke-width:10.7485;stroke-linecap:round;stroke-miterlimit:10;}
	.st49{fill:none;stroke:#0478ED;stroke-width:3.587;stroke-miterlimit:10;}
	.st50{fill:none;stroke:#D9DCE1;stroke-width:3.587;stroke-miterlimit:10;}
	.st51{fill:none;stroke:#0478ED;stroke-width:2.5;stroke-miterlimit:10;}
	.st52{fill:none;stroke:#56AAFF;stroke-width:4;stroke-linecap:round;stroke-linejoin:round;stroke-miterlimit:10;}
	.st53{fill:none;stroke:#D9DCE1;stroke-width:2.852;stroke-miterlimit:10;}
	.st54{fill:none;stroke:#D9DCE1;stroke-width:12.5873;stroke-linecap:round;stroke-miterlimit:10;}
	.st55{fill:none;stroke:#56AAFF;stroke-width:2;stroke-linecap:round;stroke-miterlimit:10;}
	.st56{fill:none;stroke:#D9DCE1;stroke-width:2;stroke-linecap:square;stroke-miterlimit:10;}
	.st57{fill:none;stroke:#D9DCE1;stroke-width:3;stroke-linecap:round;stroke-miterlimit:10;}
</style><path
     id="path835"
     d="m 26.5,0.6 9,9 -7.5,2.3 c 0,0 -3.1,-4.4 -3.1,-4.6 0,-0.2 1.6,-6.7 1.6,-6.7 z"
     class="st1" /><path
     id="path837"
     d="m 29,14 h -6 c -1.1,0 -2,-0.9 -2,-2 V 6 C 21,4.9 20.1,4 19,4 H 2 C 0.9,4 0,4.9 0,6 v 36 c 0,1.1 0.9,2 2,2 h 27 c 1.1,0 2,-0.9 2,-2 V 16 c 0,-1.1 -0.9,-2 -2,-2 z"
     class="st1" /><path
     id="path839"
     d="M 34,9 H 29 C 27.9,9 27,8.1 27,7 V 2 C 27,0.9 26.1,0 25,0 H 7 C 5.9,0 5,0.9 5,2 v 36 c 0,1.1 0.9,2 2,2 h 27 c 1.1,0 2,-0.9 2,-2 V 11 C 36,9.9 35.1,9 34,9 Z"
     class="st0" /><line
     id="line841"
     y2="30"
     y1="30"
     x2="28"
     x1="11"
     class="st12" /><line
     id="line843"
     y2="25"
     y1="25"
     x2="28"
     x1="11"
     class="st12" /><g
     transform="translate(-13,-6)"
     id="g847"><path
       id="path845"
       d="m 28.1,24.7 v 1.5 h -1.4 v -1.5 c -1,-0.2 -1.9,-0.6 -2.8,-1.4 L 25,22 c 0.8,0.7 1.7,1.1 2.4,1.1 0.7,0 1.1,-0.3 1.1,-0.9 0,-0.6 -0.4,-0.9 -1.6,-1.2 -1.5,-0.5 -2.9,-1 -2.9,-2.7 0,-1.4 0.9,-2.5 2.5,-2.6 V 14 h 1.4 v 1.7 c 0.8,0.2 1.7,0.6 2.3,1.1 l -1.1,1.4 c -0.8,-0.5 -1.5,-0.8 -2.1,-0.8 -0.7,0 -1.1,0.3 -1.1,0.8 0,0.5 0.5,0.8 1.5,1.1 1.8,0.5 3,1 3,2.8 0.2,1.4 -0.8,2.4 -2.3,2.6 z"
       class="st4" /></g></svg>
