<svg
   xmlns:dc="http://purl.org/dc/elements/1.1/"
   xmlns:cc="http://creativecommons.org/ns#"
   xmlns:rdf="http://www.w3.org/1999/02/22-rdf-syntax-ns#"
   xmlns:svg="http://www.w3.org/2000/svg"
   xmlns="http://www.w3.org/2000/svg"
   xmlns:sodipodi="http://sodipodi.sourceforge.net/DTD/sodipodi-0.dtd"
   xmlns:inkscape="http://www.inkscape.org/namespaces/inkscape"
   inkscape:version="1.0 (4035a4f, 2020-05-01)"
   sodipodi:docname="driver-logo.svg"
   id="svg2028"
   width="18"
   version="1.1"
   height="21">
  <metadata
     id="metadata2034">
    <rdf:RDF>
      <cc:Work
         rdf:about="">
        <dc:format>image/svg+xml</dc:format>
        <dc:type
           rdf:resource="http://purl.org/dc/dcmitype/StillImage" />
      </cc:Work>
    </rdf:RDF>
  </metadata>
  <defs
     id="defs2032" />
  <sodipodi:namedview
     inkscape:current-layer="svg2028"
     inkscape:window-maximized="1"
     inkscape:window-y="23"
     inkscape:window-x="0"
     inkscape:cy="11"
     inkscape:cx="9"
     inkscape:zoom="30.625"
     showgrid="false"
     id="namedview2030"
     inkscape:window-height="949"
     inkscape:window-width="1680"
     inkscape:pageshadow="2"
     inkscape:pageopacity="0"
     guidetolerance="10"
     gridtolerance="10"
     objecttolerance="10"
     borderopacity="1"
     bordercolor="#666666"
     pagecolor="#ffffff" />
  <g
     id="g2026"
     transform="translate(-3,-1029.4)">
    <path
       id="path2006"
       fill="#bdc3c7"
       d="m 5,1032.4 c -1.1046,0 -2,0.9 -2,2 v 14 c 0,1.1 0.8954,2 2,2 h 6 2 6 c 1.105,0 2,-0.9 2,-2 v -14 c 0,-1.1 -0.895,-2 -2,-2 h -6 -2 z" />
    <path
       id="path2008"
       transform="translate(0,1028.4)"
       fill="#ecf0f1"
       d="M 5,3 C 3.8954,3 3,3.8954 3,5 v 14 c 0,1.105 0.8954,2 2,2 h 6 2 6 c 1.105,0 2,-0.895 2,-2 V 5 C 21,3.8954 20.105,3 19,3 h -6 -2 z" />
    <path
       id="path2010"
       fill="#e74c3c"
       d="m 5,1031.4 c -1.1046,0 -2,0.9 -2,2 v 3 h 18 v -3 c 0,-1.1 -0.895,-2 -2,-2 h -6 -2 z" />
    <path
       id="path2012"
       transform="translate(0.5,1028.4)"
       fill="#c0392b"
       d="m 7,5.5 a 1.5,1.5 0 1 1 -3,0 1.5,1.5 0 1 1 3,0 z" />
    <path
       id="path2014"
       transform="translate(0,1028.4)"
       fill="#bdc3c7"
       d="M 6,1 C 5.4477,1 5,1.4477 5,2 V 5 C 5,5.5523 5.4477,6 6,6 6.5523,6 7,5.5523 7,5 V 2 C 7,1.4477 6.5523,1 6,1 Z" />
    <path
       id="path2016"
       transform="translate(12.5,1028.4)"
       fill="#c0392b"
       d="m 7,5.5 a 1.5,1.5 0 1 1 -3,0 1.5,1.5 0 1 1 3,0 z" />
    <path
       id="path2018"
       fill="#bdc3c7"
       d="m 18,1029.4 c -0.552,0 -1,0.4 -1,1 v 3 c 0,0.5 0.448,1 1,1 0.552,0 1,-0.5 1,-1 v -3 c 0,-0.6 -0.448,-1 -1,-1 z" />
    <rect
       id="rect2020"
       y="8"
       x="3"
       width="18"
       transform="translate(0,1028.4)"
       height="1"
       fill="#c0392b" />
    <path
       id="path2022"
       fill="#95a5a6"
       d="m 8,1039.4 v 1 h 2 c 0.552,0 1,0.4 1,1 0,0.5 -0.448,1 -1,1 H 9 v 1 h 1 c 0.552,0 1,0.4 1,1 0,0.5 -0.448,1 -1,1 H 8 v 1 h 2 c 1.105,0 2,-0.9 2,-2 0,-0.6 -0.268,-1.2 -0.688,-1.5 0.42,-0.4 0.688,-0.9 0.688,-1.5 0,-1.1 -0.895,-2 -2,-2 z" />
    <path
       id="path2024"
       fill="#95a5a6"
       d="m 13,1039.4 v 1 h 1 v 5 h -1 v 1 h 1 1 1 v -1 h -1 v -6 h -1 z" />
  </g>
</svg>
