<svg
   xmlns:dc="http://purl.org/dc/elements/1.1/"
   xmlns:cc="http://creativecommons.org/ns#"
   xmlns:rdf="http://www.w3.org/1999/02/22-rdf-syntax-ns#"
   xmlns:svg="http://www.w3.org/2000/svg"
   xmlns="http://www.w3.org/2000/svg"
   xmlns:sodipodi="http://sodipodi.sourceforge.net/DTD/sodipodi-0.dtd"
   xmlns:inkscape="http://www.inkscape.org/namespaces/inkscape"
   inkscape:version="1.0 (4035a4f, 2020-05-01)"
   height="35.544548"
   width="31.617548"
   sodipodi:docname="iconfinder_5_3124845.svg"
   xml:space="preserve"
   viewBox="0 0 31.617548 35.544548"
   version="1.1"
   id="Layer_1"
   enable-background="new 0 0 48 48"><metadata
     id="metadata883"><rdf:RDF><cc:Work
         rdf:about=""><dc:format>image/svg+xml</dc:format><dc:type
           rdf:resource="http://purl.org/dc/dcmitype/StillImage" /></cc:Work></rdf:RDF></metadata><defs
     id="defs881" /><sodipodi:namedview
     inkscape:current-layer="Layer_1"
     inkscape:window-maximized="0"
     inkscape:window-y="23"
     inkscape:window-x="0"
     inkscape:cy="17.772238"
     inkscape:cx="15.890309"
     inkscape:zoom="14.833333"
     showgrid="false"
     id="namedview879"
     inkscape:window-height="948"
     inkscape:window-width="1680"
     inkscape:pageshadow="2"
     inkscape:pageopacity="0"
     guidetolerance="10"
     gridtolerance="10"
     objecttolerance="10"
     borderopacity="1"
     bordercolor="#666666"
     pagecolor="#ffffff" /><g
     transform="translate(-8.1096913,-6.2277616)"
     id="XMLID_9705_"><g
       id="XMLID_9720_"><g
         id="XMLID_9747_"><g
           id="XMLID_9748_" /></g><g
         id="XMLID_9721_"><g
           id="XMLID_9722_"><g
             id="XMLID_9744_"><g
               id="XMLID_9745_"><path
                 id="XMLID_9746_"
                 fill="#f5b64f"
                 d="M 38.578,12.14 17.458,6.285 C 16.624,6.054 15.76,6.543 15.529,7.377 L 8.167,33.931 c -0.231,0.834 0.257,1.698 1.092,1.929 l 21.12,5.855 c 0.834,0.231 1.698,-0.257 1.929,-1.092 L 39.67,14.069 c 0.231,-0.834 -0.258,-1.698 -1.092,-1.929 z" /></g></g><g
             id="XMLID_9723_"><g
               id="XMLID_9741_"><g
                 id="XMLID_9742_"><path
                   id="XMLID_9743_"
                   fill="#ffffff"
                   d="M 34.876,8.655 H 12.96 c -0.866,0 -1.567,0.702 -1.567,1.567 v 27.556 c 0,0.866 0.702,1.567 1.567,1.567 h 21.916 c 0.866,0 1.567,-0.702 1.567,-1.567 V 10.222 C 36.444,9.356 35.742,8.655 34.876,8.655 Z" /></g></g><g
               id="XMLID_9724_"><g
                 id="XMLID_9739_"><path
                   id="XMLID_9740_"
                   fill="#434a5c"
                   d="M 12.562,12.862 H 10.44 c -0.28,0 -0.509,-0.229 -0.509,-0.508 v 0 c 0,-0.28 0.229,-0.509 0.509,-0.509 h 2.122 c 0.28,0 0.509,0.229 0.509,0.509 v 0 c 0,0.279 -0.229,0.508 -0.509,0.508 z" /></g><g
                 id="XMLID_9737_"><path
                   id="XMLID_9738_"
                   fill="#434a5c"
                   d="M 12.562,16.189 H 10.44 c -0.28,0 -0.509,-0.229 -0.509,-0.509 v 0 c 0,-0.28 0.229,-0.508 0.509,-0.508 h 2.122 c 0.28,0 0.509,0.229 0.509,0.508 v 0 c 0,0.281 -0.229,0.509 -0.509,0.509 z" /></g><g
                 id="XMLID_9735_"><path
                   id="XMLID_9736_"
                   fill="#434a5c"
                   d="M 12.562,19.517 H 10.44 c -0.28,0 -0.509,-0.229 -0.509,-0.509 v 0 c 0,-0.28 0.229,-0.508 0.509,-0.508 h 2.122 c 0.28,0 0.509,0.229 0.509,0.508 v 0 c 0,0.28 -0.229,0.509 -0.509,0.509 z" /></g><g
                 id="XMLID_9733_"><path
                   id="XMLID_9734_"
                   fill="#434a5c"
                   d="M 12.562,22.845 H 10.44 c -0.28,0 -0.509,-0.229 -0.509,-0.509 v 0 c 0,-0.28 0.229,-0.508 0.509,-0.508 h 2.122 c 0.28,0 0.509,0.229 0.509,0.508 v 0 c 0,0.28 -0.229,0.509 -0.509,0.509 z" /></g><g
                 id="XMLID_9731_"><path
                   id="XMLID_9732_"
                   fill="#434a5c"
                   d="M 12.562,26.172 H 10.44 c -0.28,0 -0.509,-0.229 -0.509,-0.508 v 0 c 0,-0.28 0.229,-0.509 0.509,-0.509 h 2.122 c 0.28,0 0.509,0.229 0.509,0.509 v 0 c 0,0.279 -0.229,0.508 -0.509,0.508 z" /></g><g
                 id="XMLID_9729_"><path
                   id="XMLID_9730_"
                   fill="#434a5c"
                   d="M 12.562,29.5 H 10.44 c -0.28,0 -0.509,-0.229 -0.509,-0.508 v 0 c 0,-0.28 0.229,-0.509 0.509,-0.509 h 2.122 c 0.28,0 0.509,0.229 0.509,0.509 v 0 c 0,0.279 -0.229,0.508 -0.509,0.508 z" /></g><g
                 id="XMLID_9727_"><path
                   id="XMLID_9728_"
                   fill="#434a5c"
                   d="M 12.562,32.827 H 10.44 c -0.28,0 -0.509,-0.229 -0.509,-0.508 v 0 c 0,-0.28 0.229,-0.509 0.509,-0.509 h 2.122 c 0.28,0 0.509,0.229 0.509,0.509 v 0 c 0,0.28 -0.229,0.508 -0.509,0.508 z" /></g><g
                 id="XMLID_9725_"><path
                   id="XMLID_9726_"
                   fill="#434a5c"
                   d="M 12.562,36.155 H 10.44 c -0.28,0 -0.509,-0.229 -0.509,-0.508 v 0 c 0,-0.28 0.229,-0.508 0.509,-0.508 h 2.122 c 0.28,0 0.509,0.229 0.509,0.508 v 0 c 0,0.279 -0.229,0.508 -0.509,0.508 z" /></g></g></g></g></g></g><g
       id="XMLID_9706_"><g
         id="XMLID_9709_"><g
           id="XMLID_9716_"><rect
             y="23.978001"
             x="19.292"
             width="18.197001"
             transform="matrix(0.7071,-0.7071,0.7071,0.7071,-9.1964,27.3283)"
             id="XMLID_9719_"
             height="1.574"
             fill="#35a899" /><rect
             y="21.601999"
             x="16.915001"
             width="18.197001"
             transform="matrix(0.7071,-0.7071,0.7071,0.7071,-8.212,24.9519)"
             id="XMLID_9718_"
             height="1.574"
             fill="#35a899" /><rect
             y="22.683001"
             x="18.103001"
             width="18.197001"
             transform="matrix(0.7071,-0.7071,0.7071,0.7071,-8.7042,26.1401)"
             id="XMLID_9717_"
             height="1.7869999"
             fill="#298e7c" /></g><g
           id="XMLID_9714_"><rect
             y="14.283"
             x="33.471001"
             width="1.112"
             transform="matrix(0.7071,-0.7071,0.7071,0.7071,-1.8792,28.9653)"
             id="XMLID_9715_"
             height="4.9359999"
             fill="#ffffff" /></g><g
           id="XMLID_9712_"><path
             id="XMLID_9713_"
             fill="#434a5c"
             d="m 32.675,14.613 1.567,-1.567 c 0.964,-0.964 2.527,-0.964 3.491,0 v 0 c 0.964,0.964 0.964,2.527 0,3.49 l -1.567,1.567 z" /></g><g
           id="XMLID_9710_"><polygon
             points="17.414,33.367 22.517,31.754 19.027,28.264 "
             id="XMLID_9711_"
             fill="#ffde3e" /></g></g><g
         id="XMLID_9707_"><path
           id="XMLID_9708_"
           fill="#434a5c"
           d="M 18.912,32.893 C 18.838,32.659 18.715,32.436 18.53,32.251 18.344,32.065 18.122,31.943 17.888,31.869 l -0.474,1.498 z" /></g></g></g></svg>
