<svg
   xmlns:dc="http://purl.org/dc/elements/1.1/"
   xmlns:cc="http://creativecommons.org/ns#"
   xmlns:rdf="http://www.w3.org/1999/02/22-rdf-syntax-ns#"
   xmlns:svg="http://www.w3.org/2000/svg"
   xmlns="http://www.w3.org/2000/svg"
   xmlns:sodipodi="http://sodipodi.sourceforge.net/DTD/sodipodi-0.dtd"
   xmlns:inkscape="http://www.inkscape.org/namespaces/inkscape"
   inkscape:version="1.0 (4035a4f, 2020-05-01)"
   height="72"
   width="72"
   sodipodi:docname="iconfinder_201_2150047.svg"
   xml:space="preserve"
   viewBox="0 0 72 72"
   version="1.1"
   id="Layer_1"
   enable-background="new 0 0 128 128"><metadata
     id="metadata914"><rdf:RDF><cc:Work
         rdf:about=""><dc:format>image/svg+xml</dc:format><dc:type
           rdf:resource="http://purl.org/dc/dcmitype/StillImage" /></cc:Work></rdf:RDF></metadata><defs
     id="defs912" /><sodipodi:namedview
     inkscape:current-layer="Layer_1"
     inkscape:window-maximized="1"
     inkscape:window-y="23"
     inkscape:window-x="0"
     inkscape:cy="36"
     inkscape:cx="36"
     inkscape:zoom="5.7421875"
     showgrid="false"
     id="namedview910"
     inkscape:window-height="949"
     inkscape:window-width="1680"
     inkscape:pageshadow="2"
     inkscape:pageopacity="0"
     guidetolerance="10"
     gridtolerance="10"
     objecttolerance="10"
     borderopacity="1"
     bordercolor="#666666"
     pagecolor="#ffffff" /><g
     transform="translate(-28,-28)"
     id="g907"><g
       id="g905"><path
         id="path849"
         fill="#e6e8eb"
         d="M 90.4,100 H 37.6 C 32.3,100 28,95.7 28,90.4 V 37.6 C 28,32.3 32.3,28 37.6,28 h 52.8 c 5.3,0 9.6,4.3 9.6,9.6 v 52.8 c 0,5.3 -4.3,9.6 -9.6,9.6 z" /><g
         id="g853"><path
           id="path851"
           fill="#cfd5df"
           d="M 90.4,93 H 37.6 C 36.2,93 35,91.8 35,90.4 V 37.6 C 35,36.2 36.2,35 37.6,35 h 52.8 c 1.4,0 2.6,1.2 2.6,2.6 V 90.4 C 93,91.8 91.8,93 90.4,93 Z M 37.6,37 C 37.3,37 37,37.3 37,37.6 v 52.8 c 0,0.3 0.3,0.6 0.6,0.6 H 90.4 C 90.7,91 91,90.7 91,90.4 V 37.6 C 91,37.3 90.7,37 90.4,37 Z" /></g><g
         id="g859"><path
           id="path855"
           fill="#cfd5df"
           d="m 94,56.6 h -1.4 c -0.9,0 -1.7,-0.7 -1.7,-1.7 V 43.1 c 0,-0.9 0.7,-1.7 1.7,-1.7 H 94 c 0.9,0 1.7,0.7 1.7,1.7 V 55 c 0,0.9 -0.8,1.6 -1.7,1.6 z" /><path
           id="path857"
           fill="#cfd5df"
           d="m 94,86.5 h -1.4 c -0.9,0 -1.7,-0.7 -1.7,-1.7 V 73 c 0,-0.9 0.7,-1.7 1.7,-1.7 H 94 c 0.9,0 1.7,0.7 1.7,1.7 v 11.8 c 0,1 -0.8,1.7 -1.7,1.7 z" /></g><g
         id="g875"><circle
           id="circle861"
           r="12.6"
           fill="#ffffff"
           cy="64"
           cx="53.799999" /><circle
           id="circle863"
           r="10.9"
           fill="#cfd5df"
           cy="64"
           cx="53.799999" /><circle
           id="circle865"
           r="8.1000004"
           fill="#e6e8eb"
           cy="64"
           cx="53.799999" /><path
           id="path867"
           fill="#454e5c"
           d="m 42.6,75.2 v 0 c -0.7,-0.7 -0.7,-1.9 0,-2.6 L 62.3,52.9 c 0.7,-0.7 1.9,-0.7 2.6,0 v 0 c 0.7,0.7 0.7,1.9 0,2.6 L 45.3,75.2 c -0.7,0.7 -1.9,0.7 -2.7,0 z" /><path
           id="path869"
           fill="#454e5c"
           d="m 42.6,52.8 v 0 c 0.7,-0.7 1.9,-0.7 2.6,0 L 65,72.5 c 0.7,0.7 0.7,1.9 0,2.6 v 0 c -0.7,0.7 -1.9,0.7 -2.6,0 L 42.6,55.5 c -0.7,-0.7 -0.7,-1.9 0,-2.7 z" /><circle
           id="circle871"
           r="5.8000002"
           fill="#545e70"
           cy="64"
           cx="53.799999" /><circle
           id="circle873"
           r="3.0999999"
           fill="#acb2b9"
           cy="64"
           cx="53.799999" /></g><circle
         id="circle877"
         r="6.3000002"
         fill="#acb2b9"
         cy="63.200001"
         cx="78.800003" /><circle
         id="circle879"
         r="4.9000001"
         fill="#e6e8eb"
         cy="63.200001"
         cx="78.800003" /><circle
         id="circle881"
         r="3.5999999"
         fill="#cfd5df"
         cy="63.200001"
         cx="78.800003" /><g
         id="g891"><rect
           id="rect883"
           y="59.200001"
           x="78.699997"
           width="0.30000001"
           height="8.1000004"
           fill="#cfd5df" /><rect
           id="rect885"
           y="63"
           x="74.800003"
           width="8.1000004"
           height="0.30000001"
           fill="#cfd5df" /><rect
           id="rect887"
           y="59.200001"
           x="78.699997"
           width="0.30000001"
           transform="matrix(0.7071,0.7071,-0.7071,0.7071,67.78,-37.2417)"
           height="8.1000004"
           fill="#cfd5df" /><rect
           id="rect889"
           y="59.200001"
           x="78.699997"
           width="0.30000001"
           transform="matrix(-0.7071,0.7071,-0.7071,-0.7071,179.2834,52.1292)"
           height="8.1000004"
           fill="#cfd5df" /></g><g
         id="g901"><rect
           id="rect893"
           y="59.200001"
           x="78.699997"
           width="0.30000001"
           transform="matrix(0.9239,-0.3827,0.3827,0.9239,-18.1828,34.9832)"
           height="8.1000004"
           fill="#cfd5df" /><rect
           id="rect895"
           y="59.200001"
           x="78.699997"
           width="0.30000001"
           transform="matrix(0.3827,0.9239,-0.9239,0.3827,107.0563,-33.8313)"
           height="8.1000004"
           fill="#cfd5df" /><rect
           id="rect897"
           y="59.200001"
           x="78.699997"
           width="0.30000001"
           transform="matrix(0.9239,0.3827,-0.3827,0.9239,30.186,-25.3619)"
           height="8.1000004"
           fill="#cfd5df" /><rect
           id="rect899"
           y="59.200001"
           x="78.699997"
           width="0.30000001"
           transform="matrix(-0.3826,0.9239,-0.9239,-0.3826,167.4025,14.5355)"
           height="8.1000004"
           fill="#cfd5df" /></g><circle
         id="circle903"
         r="2.2"
         fill="#ffffff"
         cy="63.200001"
         cx="78.800003" /></g></g></svg>
