
<svg
   xmlns:dc="http://purl.org/dc/elements/1.1/"
   xmlns:cc="http://creativecommons.org/ns#"
   xmlns:rdf="http://www.w3.org/1999/02/22-rdf-syntax-ns#"
   xmlns:svg="http://www.w3.org/2000/svg"
   xmlns="http://www.w3.org/2000/svg"
   xmlns:sodipodi="http://sodipodi.sourceforge.net/DTD/sodipodi-0.dtd"
   xmlns:inkscape="http://www.inkscape.org/namespaces/inkscape"
   inkscape:version="1.0 (4035a4f, 2020-05-01)"
   height="47"
   width="50"
   sodipodi:docname="babel-logo.svg"
   xml:space="preserve"
   viewBox="0 0 50 47"
   version="1.1">
<path
     id="path835"
     d="M 46,47 H 20 V 17 h 26 c 2.2,0 4,1.8 4,4 v 22 c 0,2.2 -1.8,4 -4,4 z"
     class="st1" /><polygon
     transform="translate(-7,-9)"
     id="polygon837"
     points="27,25 37,9 37,39 27,56 "
     class="st3" /><g
     transform="translate(-7,-9)"
     id="g847"><polyline
       id="polyline839"
       points="39.2,47.7 43,35.4 46.9,47.7  "
       class="st17" /><line
       id="line841"
       y2="44"
       y1="44"
       x2="40"
       x1="45"
       class="st17" /><rect
       id="rect843"
       y="47"
       x="37"
       width="12"
       height="4"
       class="st1" /><rect
       id="rect845"
       y="31"
       x="38"
       width="8"
       height="4"
       class="st1" /></g><path
     id="path849"
     d="M 30,30 H 4 C 1.8,30 0,28.2 0,26 V 4 C 0,1.8 1.8,0 4,0 h 26 z"
     class="st0" /><g
     transform="translate(-7,-9)"
     id="g863"><path
       id="path851"
       d="m 24.2,25 c 0.9,-1.3 1.5,-2.8 1.7,-4.5"
       class="st5" /><path
       id="path853"
       d="m 17.5,30.4 c 2.8,-1.5 5.2,-3.2 6.7,-5.5"
       class="st5" /><path
       id="path855"
       d="M 25.9,30.4 C 21.5,28 18.1,25.1 17.5,20.5"
       class="st5" /><line
       id="line857"
       y2="20"
       y1="18"
       x2="22"
       x1="22"
       class="st5" /><rect
       id="rect859"
       y="21"
       x="15"
       width="6"
       height="2"
       class="st0" /><line
       id="line861"
       y2="20"
       y1="20"
       x2="28"
       x1="16"
       class="st5" /></g></svg>
