<svg viewBox="0 0 48 48" xmlns="http://www.w3.org/2000/svg"><defs><style>.cls-1{fill:#b9d5ea;}.cls-2{fill:#ebf3fe;}.cls-3{fill:#2d98f6;}.cls-4{fill:#48bdff;}</style></defs><title/><g data-name="Layer 2" id="Layer_2"><path class="cls-1" d="M24,38a1,1,0,0,1-1-1V28a1,1,0,0,1,2,0v9A1,1,0,0,1,24,38Z"/><path class="cls-1" d="M15,36H11a1,1,0,0,1,0-2h4a2,2,0,0,0,2-2V28a1,1,0,0,1,2,0v4A4,4,0,0,1,15,36Z"/><path class="cls-1" d="M37,36H33a4,4,0,0,1-4-4V28a1,1,0,0,1,2,0v4a2,2,0,0,0,2,2h4a1,1,0,0,1,0,2Z"/><path class="cls-2" d="M34,15h0a10,10,0,0,0-19.49-2H14a8,8,0,0,0,0,16H34a7,7,0,0,0,0-14Z"/><path class="cls-3" d="M25,36.18a2.87,2.87,0,0,0-2,0,3,3,0,1,0,2,0ZM24,40a1,1,0,1,1,1-1A1,1,0,0,1,24,40Z"/><circle class="cls-4" cx="24" cy="39" r="1"/><path class="cls-3" d="M11.82,34a3,3,0,1,0,0,2,2.87,2.87,0,0,0,0-2ZM9,36a1,1,0,1,1,1-1A1,1,0,0,1,9,36Z"/><circle class="cls-4" cx="9" cy="35" r="1"/><path class="cls-3" d="M39,32a3,3,0,0,0-2.82,2,2.87,2.87,0,0,0,0,2A3,3,0,1,0,39,32Zm0,4a1,1,0,1,1,1-1A1,1,0,0,1,39,36Z"/><circle class="cls-4" cx="39" cy="35" r="1"/><path class="cls-1" d="M29,14.94c0,.86-1.38,1.6-3.31,1.88a12,12,0,0,1-3.38,0c-1.93-.28-3.31-1-3.31-1.88,0-1.1,2.24-2,5-2S29,13.84,29,14.94Z"/><path class="cls-4" d="M29,14.94v3.94c0,1-1.63,1.89-3.81,2.12h0a11.63,11.63,0,0,1-2.36,0h0C20.63,20.77,19,19.91,19,18.88V14.94c0,.86,1.38,1.6,3.31,1.88a12,12,0,0,0,3.38,0C27.62,16.54,29,15.8,29,14.94Z"/><path class="cls-3" d="M29,18.88v4.06c0,1.1-2.24,2-5,2s-5-.9-5-2V18.88c0,1,1.63,1.89,3.81,2.12h0a11.63,11.63,0,0,0,2.36,0h0C27.37,20.77,29,19.91,29,18.88Z"/></g></svg>
