<svg
   xmlns:dc="http://purl.org/dc/elements/1.1/"
   xmlns:cc="http://creativecommons.org/ns#"
   xmlns:rdf="http://www.w3.org/1999/02/22-rdf-syntax-ns#"
   xmlns:svg="http://www.w3.org/2000/svg"
   xmlns="http://www.w3.org/2000/svg"
   xmlns:sodipodi="http://sodipodi.sourceforge.net/DTD/sodipodi-0.dtd"
   xmlns:inkscape="http://www.inkscape.org/namespaces/inkscape"
   data-name="Layer 1"
   height="61"
   id="Layer_1"
   viewBox="0 0 52.000004 61"
   width="52.000004"
   version="1.1"
   sodipodi:docname="iconfinder_ToDo_List_4173770.svg"
   inkscape:version="1.0.1 (c497b03c, 2020-09-10)">
  <metadata
     id="metadata857">
    <rdf:RDF>
      <cc:Work
         rdf:about="">
        <dc:format>image/svg+xml</dc:format>
        <dc:type
           rdf:resource="http://purl.org/dc/dcmitype/StillImage" />
      </cc:Work>
    </rdf:RDF>
  </metadata>
  <defs
     id="defs855" />
  <sodipodi:namedview
     pagecolor="#ffffff"
     bordercolor="#666666"
     borderopacity="1"
     objecttolerance="10"
     gridtolerance="10"
     guidetolerance="10"
     inkscape:pageopacity="0"
     inkscape:pageshadow="2"
     inkscape:window-width="1680"
     inkscape:window-height="940"
     id="namedview853"
     showgrid="false"
     inkscape:zoom="11.125"
     inkscape:cx="26"
     inkscape:cy="31"
     inkscape:window-x="0"
     inkscape:window-y="25"
     inkscape:window-maximized="1"
     inkscape:current-layer="Layer_1" />
  <title
     id="title833" />
  <g
     data-name="ToDo List"
     id="ToDo_List"
     transform="translate(-6,-1)">
    <path
       d="M 55,7 H 33.88 a 2,2 0 0 1 -4,0 H 9 a 3.009,3.009 0 0 0 -3,3 v 49 a 3.009,3.009 0 0 0 3,3 h 46 a 3.009,3.009 0 0 0 3,-3 V 10 A 3.009,3.009 0 0 0 55,7 Z"
       fill="#b5906f"
       id="path835" />
    <path
       d="M 56.87,7.66 6.77,61 A 3.008,3.008 0 0 0 9,62 h 46 a 3.009,3.009 0 0 0 3,-3 V 10 A 2.979,2.979 0 0 0 56.87,7.66 Z"
       fill="#a07e65"
       id="path837" />
    <rect
       fill="#e3e6e8"
       height="47"
       rx="1"
       ry="1"
       width="44"
       x="10"
       y="11"
       id="rect839" />
    <rect
       fill="#cacbcc"
       height="4"
       width="14"
       x="18"
       y="28"
       id="rect841" />
    <rect
       fill="#cacbcc"
       height="4"
       width="14"
       x="18"
       y="42"
       id="rect843" />
    <path
       d="m 44,13 h -0.12 c -3.32,0 -6,-2 -6,-6 a 6,6 0 0 0 -12,0 c 0,0.22 0.01,0.44 0.03,0.65 A 5.387,5.387 0 0 1 20.12,13 H 20 a 3,3 0 0 0 -3,3 v 2 H 47 V 16 A 3,3 0 0 0 44,13 Z M 31.88,9 a 2,2 0 1 1 2,-2 2,2 0 0 1 -2,2 z"
       fill="#aebcc5"
       id="path845" />
    <polygon
       fill="#3ec295"
       points="37.36,26.934 40.383,29.658 46.467,23.5 49,25.911 40.515,34.5 39.608,33.638 35,29.511 "
       id="polygon847" />
    <polygon
       fill="#3ec295"
       points="37.36,40.934 40.383,43.658 46.467,37.5 49,39.911 40.515,48.5 39.608,47.638 35,43.511 "
       id="polygon849" />
  </g>
</svg>
