<svg
   xmlns:dc="http://purl.org/dc/elements/1.1/"
   xmlns:cc="http://creativecommons.org/ns#"
   xmlns:rdf="http://www.w3.org/1999/02/22-rdf-syntax-ns#"
   xmlns:svg="http://www.w3.org/2000/svg"
   xmlns="http://www.w3.org/2000/svg"
   xmlns:sodipodi="http://sodipodi.sourceforge.net/DTD/sodipodi-0.dtd"
   xmlns:inkscape="http://www.inkscape.org/namespaces/inkscape"
   inkscape:version="1.0 (4035a4f, 2020-05-01)"
   height="250.02377"
   width="250.00079"
   sodipodi:docname="leaf.svg"
   id="svg885"
   xml:space="preserve"
   viewBox="0 0 250.00079 250.02377"
   version="1.1"><metadata
     id="metadata891"><rdf:RDF><cc:Work
         rdf:about=""><dc:format>image/svg+xml</dc:format><dc:type
           rdf:resource="http://purl.org/dc/dcmitype/StillImage" /></cc:Work></rdf:RDF></metadata><defs
     id="defs889" /><sodipodi:namedview
     inkscape:current-layer="svg885"
     inkscape:window-maximized="1"
     inkscape:window-y="23"
     inkscape:window-x="0"
     inkscape:cy="125.67826"
     inkscape:cx="120.12253"
     inkscape:zoom="1.390625"
     showgrid="false"
     id="namedview887"
     inkscape:window-height="949"
     inkscape:window-width="1680"
     inkscape:pageshadow="2"
     inkscape:pageopacity="0"
     guidetolerance="10"
     gridtolerance="10"
     objecttolerance="10"
     borderopacity="1"
     bordercolor="#666666"
     pagecolor="#ffffff" /><style
     id="style833"
     type="text/css">
	.st0{fill:#F47C27;}
	.st1{fill:#6D5C49;}
	.st2{fill:#FFCE47;}
	.st3{fill:#69D2E7;}
	.st4{fill:#E6E6E6;}
	.st5{clip-path:url(#SVGID_2_);}
	.st6{clip-path:url(#SVGID_4_);}
	.st7{clip-path:url(#SVGID_6_);}
</style><g
     transform="translate(-135.87747,-130.32174)"
     id="g883"><g
       id="Artwork"><g
         id="_x30_1_Maple_Leaf"><g
           id="g859"><path
             id="path835"
             d="m 182.8,333.5 c 0,0 -55.8,-26 -45.7,-104 0.5,-4 5.4,-5.7 8.3,-2.9 v 0 c 3.7,3.5 9.6,-0.1 8.1,-5 -3.3,-10.9 -5.3,-25.2 -2.3,-42.1 0.7,-3.7 5,-5.3 7.9,-3 l 9.2,7.3 c 3.2,2.5 8,0.3 8,-3.8 0.1,-10.5 3.5,-27.7 19.7,-47.8 1.9,-2.4 5.5,-2.5 7.5,-0.3 5.4,5.9 15.2,30.3 21.5,47 1.4,3.8 6.9,3.7 8.2,-0.2 3.8,-11.3 13.5,-26.6 37.6,-40.2 3.2,-1.8 7.1,0.3 7.4,4 l 1.4,21 c 0.3,3.9 4.7,6 7.9,3.6 14.3,-10.6 47.8,-31.4 81.7,-23.9 1.9,0.4 3.4,1.9 3.8,3.8 7.5,34 -13.3,67.4 -23.9,81.7 -2.3,3.1 -0.3,7.6 3.6,7.9 l 21,1.4 c 3.6,0.2 5.7,4.2 4,7.4 -13.6,24.1 -28.9,33.8 -40.2,37.6 -3.9,1.3 -4,6.7 -0.2,8.2 16.7,6.3 41.1,16.1 47,21.5 2.2,2 2.1,5.6 -0.3,7.5 -20.1,16.2 -37.2,19.6 -47.8,19.7 -4.1,0 -6.3,4.8 -3.8,8 l 7.3,9.2 c 2.3,2.9 0.7,7.3 -3,7.9 -16.8,3 -31.1,1 -42.1,-2.3 -4.8,-1.5 -8.4,4.5 -5,8.1 v 0 c 2.8,2.9 1.1,7.8 -2.9,8.3 -77.9,10.2 -103.9,-45.6 -103.9,-45.6"
             class="st0" /><g
             id="g839"><path
               id="path837"
               d="m 146.1,375.2 c -1.3,0 -2.6,-0.5 -3.5,-1.5 -2,-2 -2,-5.1 0,-7.1 L 337.2,172 c 2,-2 5.1,-2 7.1,0 2,2 2,5.1 0,7.1 L 149.6,373.8 c -1,0.9 -2.2,1.4 -3.5,1.4 z"
               class="st1" /></g><g
             id="g849"><g
               id="g843"><path
                 id="path841"
                 d="m 295.2,323.2 c -52.8,0 -76.7,-23.2 -77.8,-24.3 -2,-2 -2,-5.1 0,-7.1 1.9,-1.9 5.1,-2 7.1,0 0.4,0.4 29.7,28.2 95.2,19.8 2.7,-0.4 5.2,1.6 5.6,4.3 0.4,2.7 -1.6,5.2 -4.3,5.6 -9.3,1.2 -17.9,1.7 -25.8,1.7 z"
                 class="st1" /></g><g
               id="g847"><path
                 id="path845"
                 d="m 221,300.4 c -1.3,0 -2.6,-0.5 -3.5,-1.5 -1.3,-1.3 -31.8,-32.7 -22.6,-103.5 0.4,-2.7 2.9,-4.7 5.6,-4.3 2.7,0.4 4.7,2.9 4.3,5.6 -8.5,66 19.5,94.9 19.8,95.1 2,2 2,5.1 0,7.1 -1.1,1 -2.4,1.5 -3.6,1.5 z"
                 class="st1" /></g></g><g
             id="g853"><path
               id="path851"
               d="m 305.4,265.9 c -25.6,0 -42.3,-9.4 -43.2,-9.9 -2.4,-1.4 -3.2,-4.4 -1.8,-6.8 1.4,-2.4 4.4,-3.2 6.8,-1.9 0.4,0.2 27.6,15.2 64.7,4.9 2.7,-0.7 5.4,0.8 6.2,3.5 0.7,2.7 -0.8,5.4 -3.5,6.2 -10.6,2.9 -20.5,4 -29.2,4 z"
               class="st1" /></g><g
             id="g857"><path
               id="path855"
               d="m 264.7,256.7 c -1.7,0 -3.4,-0.9 -4.3,-2.5 -0.7,-1.2 -17.4,-31 -5.9,-72.4 0.7,-2.7 3.5,-4.2 6.2,-3.5 2.7,0.7 4.2,3.5 3.5,6.2 -10.4,37.4 4.7,64.5 4.9,64.7 1.4,2.4 0.5,5.5 -1.8,6.8 -0.9,0.4 -1.8,0.7 -2.6,0.7 z"
               class="st1" /></g></g></g><g
         id="_x30_2_Cloudy_Sun" /><g
         id="_x30_3_Rain" /><g
         id="_x30_4_Umbrella" /><g
         id="_x30_5_Boot" /><g
         id="_x30_6_Apple" /><g
         id="_x30_7_Pumkin" /><g
         id="_x30_8_Turkey" /><g
         id="_x30_9_Mushroom" /><g
         id="_x31_0_Hot_Chocolate" /><g
         id="_x31_1_Chestnut" /><g
         id="_x31_2_Honey" /><g
         id="_x31_3_Foliage" /><g
         id="_x31_4_Tree" /><g
         id="_x31_5_Sunflower" /><g
         id="_x31_6_Scarf" /><g
         id="_x31_7_Hat" /><g
         id="_x31_8_Wheat" /><g
         id="_x31_9_Feather" /><g
         id="_x32_0_Watering_Can" /></g><g
       id="Layer_2" /></g></svg>
