<svg
   xmlns:dc="http://purl.org/dc/elements/1.1/"
   xmlns:cc="http://creativecommons.org/ns#"
   xmlns:rdf="http://www.w3.org/1999/02/22-rdf-syntax-ns#"
   xmlns:svg="http://www.w3.org/2000/svg"
   xmlns="http://www.w3.org/2000/svg"
   xmlns:sodipodi="http://sodipodi.sourceforge.net/DTD/sodipodi-0.dtd"
   xmlns:inkscape="http://www.inkscape.org/namespaces/inkscape"
   height="464.59399"
   version="1.1"
   viewBox="0 0 464.577 464.59399"
   width="464.577"
   xml:space="preserve"
   id="svg873"
   sodipodi:docname="portal-logo.svg"
   inkscape:version="1.0.1 (c497b03c, 2020-09-10)"><metadata
     id="metadata879"><rdf:RDF><cc:Work
         rdf:about=""><dc:format>image/svg+xml</dc:format><dc:type
           rdf:resource="http://purl.org/dc/dcmitype/StillImage" /></cc:Work></rdf:RDF></metadata><defs
     id="defs877" /><sodipodi:namedview
     pagecolor="#ffffff"
     bordercolor="#666666"
     borderopacity="1"
     objecttolerance="10"
     gridtolerance="10"
     guidetolerance="10"
     inkscape:pageopacity="0"
     inkscape:pageshadow="2"
     inkscape:window-width="1680"
     inkscape:window-height="939"
     id="namedview875"
     showgrid="false"
     inkscape:zoom="1.390625"
     inkscape:cx="232.288"
     inkscape:cy="232.297"
     inkscape:window-x="0"
     inkscape:window-y="25"
     inkscape:window-maximized="0"
     inkscape:current-layer="svg873" /><g
     id="web__x2C__layout__x2C__creative__x2C__login__x2C_"
     transform="translate(-23.712,-23.703)"><g
       id="g869"><rect
         height="79.058998"
         style="clip-rule:evenodd;fill:#374850;fill-rule:evenodd"
         width="446.474"
         x="32.77"
         y="32.761002"
         id="rect833" /><path
         d="m 32.77,23.703 h 446.474 c 5.144,0 9.045,3.914 9.045,9.058 v 79.059 c 0,4.893 -3.901,9.058 -9.045,9.058 H 32.77 c -4.898,0 -9.058,-4.165 -9.058,-9.058 V 32.761 c 0,-5.144 4.159,-9.058 9.058,-9.058 z M 470.424,41.818 H 41.827 v 60.943 h 428.597 z"
         style="fill:#374850"
         id="path835" /><rect
         height="367.42099"
         style="clip-rule:evenodd;fill:#e0e1e0;fill-rule:evenodd"
         width="446.474"
         x="32.77"
         y="111.819"
         id="rect837" /><path
         d="m 32.77,102.762 h 446.474 c 5.144,0 9.045,3.914 9.045,9.058 v 367.42 c 0,5.118 -3.901,9.057 -9.045,9.057 H 32.77 c -4.898,0 -9.058,-3.938 -9.058,-9.057 V 111.819 c 0,-5.143 4.159,-9.057 9.058,-9.057 z m 437.654,18.115 H 41.827 v 349.305 h 428.597 z"
         style="fill:#e0e1e0"
         id="path839" /><path
         d="m 71.44,55.04 c 9.302,0 17.137,7.577 17.137,17.112 0,9.559 -7.835,17.387 -17.137,17.387 -9.547,0 -17.382,-7.828 -17.382,-17.387 C 54.059,62.617 61.894,55.04 71.44,55.04 Z"
         style="clip-rule:evenodd;fill:#ee2344;fill-rule:evenodd"
         id="path841" /><path
         d="m 71.44,45.982 c 7.101,0 13.705,2.936 18.359,7.578 v 0 c 4.893,4.893 7.834,11.491 7.834,18.592 0,7.351 -2.941,13.975 -7.834,18.616 v 0 c -4.654,4.642 -11.259,7.577 -18.359,7.577 -7.346,0 -13.957,-2.936 -18.604,-7.577 -4.899,-4.642 -7.835,-11.266 -7.835,-18.616 0,-7.101 2.936,-13.699 7.835,-18.342 v -0.25 c 4.647,-4.642 11.259,-7.578 18.604,-7.578 z m 5.633,20.324 c -1.475,-1.48 -3.432,-2.232 -5.633,-2.232 -2.446,0 -4.41,0.979 -5.878,2.458 v -0.226 c -1.468,1.455 -2.446,3.663 -2.446,5.847 0,2.458 0.979,4.415 2.446,5.896 1.468,1.455 3.432,2.434 5.878,2.434 2.201,0 4.158,-0.979 5.633,-2.434 v 0 c 1.468,-1.48 2.446,-3.438 2.446,-5.896 0,-2.184 -0.979,-4.141 -2.446,-5.621 z"
         style="fill:#ee2344"
         id="path843" /><path
         d="m 133.613,55.04 c 9.547,0 17.382,7.577 17.382,17.112 0,9.559 -7.835,17.387 -17.382,17.387 -9.546,0 -17.136,-7.828 -17.136,-17.387 10e-4,-9.535 7.59,-17.112 17.136,-17.112 z"
         style="clip-rule:evenodd;fill:#fed512;fill-rule:evenodd"
         id="path845" /><path
         d="m 133.613,45.982 c 7.346,0 13.95,2.936 18.604,7.578 v 0.25 c 4.654,4.643 7.59,11.241 7.59,18.342 0,7.351 -2.936,13.975 -7.59,18.616 -4.654,4.641 -11.259,7.577 -18.604,7.577 -7.101,0 -13.712,-2.936 -18.359,-7.577 -4.899,-4.642 -7.828,-11.266 -7.828,-18.616 0,-7.101 2.929,-13.699 7.828,-18.592 4.647,-4.642 11.259,-7.578 18.359,-7.578 z m 5.871,20.324 v 0.226 c -1.468,-1.479 -3.425,-2.458 -5.871,-2.458 -2.208,0 -4.165,0.979 -5.632,2.458 -1.469,1.48 -2.447,3.438 -2.447,5.621 0,2.458 0.979,4.415 2.447,5.896 1.467,1.455 3.424,2.434 5.632,2.434 2.446,0 4.403,-0.979 5.871,-2.434 1.475,-1.48 2.453,-3.438 2.453,-5.896 10e-4,-2.184 -0.978,-4.392 -2.453,-5.847 z"
         style="fill:#fed512"
         id="path847" /><path
         d="m 196.032,55.04 c 9.546,0 17.136,7.577 17.136,17.112 0,9.559 -7.59,17.387 -17.136,17.387 -9.541,0 -17.131,-7.828 -17.131,-17.387 0,-9.535 7.59,-17.112 17.131,-17.112 z"
         style="clip-rule:evenodd;fill:#5fbd67;fill-rule:evenodd"
         id="path849" /><path
         d="m 196.032,45.982 c 7.338,0 13.711,2.936 18.604,7.578 4.654,4.893 7.59,11.491 7.59,18.592 0,7.351 -2.936,13.975 -7.59,18.616 -4.893,4.642 -11.266,7.577 -18.604,7.577 -7.346,0 -13.713,-2.936 -18.599,-7.577 -4.654,-4.642 -7.59,-11.266 -7.59,-18.616 0,-7.101 2.936,-13.699 7.59,-18.342 v -0.25 c 4.886,-4.642 11.254,-7.578 18.599,-7.578 z m 5.871,20.549 c -1.469,-1.479 -3.67,-2.458 -5.871,-2.458 -2.209,0 -4.397,0.979 -5.878,2.458 v -0.226 c -1.468,1.455 -2.44,3.663 -2.44,5.847 0,2.458 0.973,4.415 2.44,5.896 1.48,1.455 3.669,2.434 5.878,2.434 2.201,0 4.402,-0.979 5.871,-2.434 1.467,-1.48 2.207,-3.438 2.207,-5.896 0,-2.183 -0.74,-4.14 -2.207,-5.621 z"
         style="fill:#5fbd67"
         id="path851" /><path
         d="m 256.01,163.229 c 52.62,0 95.462,42.578 95.462,95.468 0,52.614 -42.842,95.443 -95.462,95.443 -52.64,0 -95.468,-42.829 -95.468,-95.443 0,-52.889 42.828,-95.468 95.468,-95.468 z"
         style="clip-rule:evenodd;fill:#7a84c1;fill-rule:evenodd"
         id="path853" /><path
         d="m 256.01,154.172 c 28.872,0 55.066,11.742 73.922,30.585 v 0 c 18.83,18.867 30.598,45.036 30.598,73.94 0,28.628 -11.768,54.822 -30.598,73.664 v 0.252 c -18.855,18.842 -45.05,30.584 -73.922,30.584 -28.892,0 -54.835,-11.742 -73.922,-30.584 v -0.252 c -18.855,-18.842 -30.604,-45.036 -30.604,-73.664 0,-28.904 11.748,-55.073 30.604,-73.94 19.087,-18.843 45.03,-30.585 73.922,-30.585 z m 61.188,43.33 c -15.669,-15.681 -37.209,-25.215 -61.188,-25.215 -23.748,0 -45.539,9.534 -61.208,25.215 -15.411,15.656 -25.203,37.184 -25.203,61.195 0,23.735 9.792,45.514 25.203,61.17 v -0.227 c 15.669,15.656 37.46,25.441 61.208,25.441 23.979,0 45.52,-9.785 61.188,-25.215 15.669,-15.656 25.216,-37.435 25.216,-61.17 0,-24.01 -9.547,-45.538 -25.216,-61.194 z"
         style="fill:#7a84c1"
         id="path855" /><path
         d="m 297.377,272.873 c 16.396,8.079 30.334,20.574 39.894,35.979 -16.886,27.173 -46.994,45.288 -81.261,45.288 -34.273,0 -64.375,-18.115 -81.28,-45.288 9.547,-15.405 23.504,-27.9 39.906,-35.979 10.036,11.768 24.727,19.345 41.374,19.345 16.628,0 31.569,-7.577 41.367,-19.345 z"
         style="clip-rule:evenodd;fill:#ffffff;fill-rule:evenodd"
         id="path857" /><path
         d="m 299.334,268.959 c 8.556,4.165 16.635,9.56 23.497,15.682 7.101,6.348 13.21,13.699 18.103,21.778 0.979,1.455 0.979,3.412 0,4.642 -8.807,14.703 -21.527,26.695 -36.218,35 -14.439,7.854 -31.074,12.496 -48.706,12.496 -17.626,0 -34.273,-4.643 -48.475,-12.496 -14.922,-8.305 -27.655,-20.297 -36.468,-35 -0.979,-1.455 -0.979,-3.187 0,-4.642 4.898,-8.079 11.021,-15.431 18.108,-21.778 7.101,-6.373 14.935,-11.517 23.503,-15.682 1.957,-0.979 4.159,-0.477 5.627,1.229 4.409,5.395 10.28,9.785 16.892,12.972 6.366,2.936 13.455,4.667 20.813,4.667 7.577,0 14.671,-1.731 20.794,-4.667 6.61,-3.187 12.494,-7.577 17.136,-13.223 1.467,-1.455 3.675,-1.957 5.394,-0.978 z m 17.613,22.531 c -5.62,-5.144 -11.742,-9.56 -18.592,-12.972 -4.905,5.369 -11.015,9.534 -17.638,12.721 -7.578,3.663 -15.908,5.62 -24.708,5.62 -8.819,0 -17.137,-1.957 -24.727,-5.62 -6.611,-3.187 -12.733,-7.352 -17.626,-12.721 -6.611,3.412 -12.965,7.828 -18.365,12.972 -5.871,5.144 -10.758,11.015 -15.168,17.362 8.073,11.993 18.844,22.28 31.576,29.38 13.217,7.102 28.151,11.266 44.31,11.266 16.151,0 31.08,-4.164 44.303,-11.266 12.721,-7.1 23.497,-17.387 31.576,-29.38 -4.177,-6.347 -9.321,-12.218 -14.941,-17.362 z"
         style="fill:#ffffff"
         id="path859" /><path
         d="m 256.01,204.102 c 19.087,0 34.505,15.179 34.505,34.272 0,18.843 -15.418,34.273 -34.505,34.273 -18.855,0 -34.273,-15.431 -34.273,-34.273 -0.001,-19.094 15.417,-34.272 34.273,-34.272 z"
         style="clip-rule:evenodd;fill:#ffffff;fill-rule:evenodd"
         id="path861" /><path
         d="m 256.01,199.459 c 10.757,0 20.555,4.392 27.404,11.492 7.101,6.85 11.504,16.635 11.504,27.423 0,10.764 -4.403,20.549 -11.504,27.398 -6.85,7.101 -16.647,11.517 -27.404,11.517 -10.776,0 -20.323,-4.416 -27.424,-11.517 -7.101,-6.85 -11.504,-16.635 -11.504,-27.398 0,-10.788 4.403,-20.573 11.504,-27.423 7.101,-7.1 16.647,-11.492 27.424,-11.492 z m 21.044,17.864 c -5.395,-5.394 -12.732,-8.831 -21.044,-8.831 -8.336,0 -15.669,3.438 -21.057,8.831 -5.389,5.37 -8.813,12.721 -8.813,21.051 0,8.305 3.425,15.656 8.813,21.051 5.388,5.369 12.721,8.807 21.057,8.807 8.312,0 15.649,-3.438 21.044,-8.807 5.382,-5.395 8.807,-12.746 8.807,-21.051 -10e-4,-8.33 -3.425,-15.681 -8.807,-21.051 z"
         style="fill:#ffffff"
         id="path863" /><rect
         height="40.872002"
         style="clip-rule:evenodd;fill:#fafafa;fill-rule:evenodd;stroke:#fafafa;stroke-width:0.5102;stroke-linecap:round;stroke-linejoin:round;stroke-miterlimit:10"
         width="322.14001"
         x="64.584"
         y="396.01599"
         id="rect865" /><rect
         height="40.872002"
         style="clip-rule:evenodd;fill:#767677;fill-rule:evenodd;stroke:#767677;stroke-width:0.5102;stroke-linecap:round;stroke-linejoin:round;stroke-miterlimit:10"
         width="60.692001"
         x="386.724"
         y="396.01599"
         id="rect867" /></g></g><g
     id="Layer_1"
     transform="translate(-23.712,-23.703)" /></svg>
