<svg
   xmlns:dc="http://purl.org/dc/elements/1.1/"
   xmlns:cc="http://creativecommons.org/ns#"
   xmlns:rdf="http://www.w3.org/1999/02/22-rdf-syntax-ns#"
   xmlns:svg="http://www.w3.org/2000/svg"
   xmlns="http://www.w3.org/2000/svg"
   xmlns:sodipodi="http://sodipodi.sourceforge.net/DTD/sodipodi-0.dtd"
   xmlns:inkscape="http://www.inkscape.org/namespaces/inkscape"
   enable-background="new 0 0 64 64"
   id="Layer_1"
   version="1.1"
   viewBox="0 0 50 44.833"
   xml:space="preserve"
   sodipodi:docname="iconfinder_ui_-09_2813677.svg"
   width="50"
   height="44.833"
   inkscape:version="1.0.1 (c497b03c, 2020-09-10)"><metadata
     id="metadata848"><rdf:RDF><cc:Work
         rdf:about=""><dc:format>image/svg+xml</dc:format><dc:type
           rdf:resource="http://purl.org/dc/dcmitype/StillImage" /></cc:Work></rdf:RDF></metadata><defs
     id="defs846" /><sodipodi:namedview
     pagecolor="#ffffff"
     bordercolor="#666666"
     borderopacity="1"
     objecttolerance="10"
     gridtolerance="10"
     guidetolerance="10"
     inkscape:pageopacity="0"
     inkscape:pageshadow="2"
     inkscape:window-width="1680"
     inkscape:window-height="939"
     id="namedview844"
     showgrid="false"
     inkscape:zoom="11.125"
     inkscape:cx="25"
     inkscape:cy="19.833"
     inkscape:window-x="0"
     inkscape:window-y="25"
     inkscape:window-maximized="0"
     inkscape:current-layer="Layer_1" /><path
     d="m 2,30 h 3 v 5.833 L 12.333,30 H 34 c 1.105,0 2,-0.895 2,-2 V 2 C 36,0.895 35.105,0 34,0 H 2 C 0.895,0 0,0.895 0,2 v 26 c 0,1.104 0.895,2 2,2 z"
     fill="#d9dce1"
     id="path833" /><path
     d="m 48,39 h -3 v 5.833 L 37.667,39 H 16 c -1.105,0 -2,-0.895 -2,-2 V 11 c 0,-1.105 0.895,-2 2,-2 h 32 c 1.105,0 2,0.895 2,2 v 26 c 0,1.104 -0.895,2 -2,2 z"
     fill="#56aaff"
     id="path835" /><line
     fill="none"
     stroke="#ffffff"
     stroke-linecap="square"
     stroke-miterlimit="10"
     stroke-width="2"
     x1="24"
     x2="40"
     y1="18.833"
     y2="18.833"
     id="line837" /><line
     fill="none"
     stroke="#ffffff"
     stroke-linecap="square"
     stroke-miterlimit="10"
     stroke-width="2"
     x1="24"
     x2="40"
     y1="23.833"
     y2="23.833"
     id="line839" /><line
     fill="none"
     stroke="#ffffff"
     stroke-linecap="square"
     stroke-miterlimit="10"
     stroke-width="2"
     x1="24"
     x2="40"
     y1="28.833"
     y2="28.833"
     id="line841" /></svg>
