<svg
   xmlns:dc="http://purl.org/dc/elements/1.1/"
   xmlns:cc="http://creativecommons.org/ns#"
   xmlns:rdf="http://www.w3.org/1999/02/22-rdf-syntax-ns#"
   xmlns:svg="http://www.w3.org/2000/svg"
   xmlns="http://www.w3.org/2000/svg"
   xmlns:sodipodi="http://sodipodi.sourceforge.net/DTD/sodipodi-0.dtd"
   xmlns:inkscape="http://www.inkscape.org/namespaces/inkscape"
   enable-background="new 0 0 512 512"
   height="480"
   version="1.1"
   viewBox="0 0 452.63599 480"
   width="452.63599"
   xml:space="preserve"
   id="svg850"
   sodipodi:docname="iconfinder_30_815467.svg"
   inkscape:version="1.0.1 (c497b03c, 2020-09-10)"><metadata
     id="metadata856"><rdf:RDF><cc:Work
         rdf:about=""><dc:format>image/svg+xml</dc:format><dc:type
           rdf:resource="http://purl.org/dc/dcmitype/StillImage" /></cc:Work></rdf:RDF></metadata><defs
     id="defs854" /><sodipodi:namedview
     pagecolor="#ffffff"
     bordercolor="#666666"
     borderopacity="1"
     objecttolerance="10"
     gridtolerance="10"
     guidetolerance="10"
     inkscape:pageopacity="0"
     inkscape:pageshadow="2"
     inkscape:window-width="1680"
     inkscape:window-height="939"
     id="namedview852"
     showgrid="false"
     inkscape:zoom="1.390625"
     inkscape:cx="196.396"
     inkscape:cy="240"
     inkscape:window-x="0"
     inkscape:window-y="230"
     inkscape:window-maximized="0"
     inkscape:current-layer="svg850" /><g
     id="Layer_30"
     transform="translate(-59.604,-16)"><path
       d="M 430.17,68.645 378.776,16 H 59.604 V 496 H 430.17 V 252.98 L 371.137,356.501 323.1,376.679 319.675,326.796 430.17,133.028 Z M 98.144,244.992 h 200.229 v 19.201 H 98.144 Z m 0,46.205 h 172.8 v 19.2 h -172.8 z m 0,46.204 h 172.8 v 19.2 h -172.8 z m 0,46.203 h 200.229 v 19.201 H 98.144 Z m 241.371,46.206 v 19.2 H 98.144 v -19.2 z m 0,-211.822 H 98.144 v -19.2 h 241.371 z"
       fill="#4b687f"
       id="path833" /><polygon
       fill="#2980ba"
       points="378.776,68.645 378.776,16 430.171,68.645 "
       id="polygon835" /><g
       id="g845"><path
         d="m 473.064,82.048 c 4.919,-8.524 15.818,-11.444 24.339,-6.524 8.523,4.918 11.444,15.815 6.524,24.339 z"
         fill="#e1665c"
         id="path837" /><polygon
         fill="#e1665c"
         points="333.106,359.857 362.476,344.335 331.761,326.607 "
         id="polygon839" /><polygon
         fill="#e1665c"
         points="492.551,140.448 473.746,173.025 479.078,176.102 497.538,144.116 512.24,118.646 502.171,112.833 491.913,130.604 "
         id="polygon841" /><rect
         fill="#e1665c"
         height="270.27399"
         transform="matrix(0.8661,0.4999,-0.4999,0.8661,164.7402,-178.1013)"
         width="35.653999"
         x="396.961"
         y="83.292"
         id="rect843" /></g><path
       d="m 148.636,158.017 c -14.733,0 -26.714,-11.983 -26.714,-26.716 v -0.428 h 37.012 l 4.352,-10.875 h -41.364 v -8.102 h 37.012 l 4.352,-10.88 h -41.364 v -2.265 c 0,-14.729 11.981,-26.712 26.714,-26.712 14.733,0 26.713,11.983 26.713,26.712 h 10.875 c 0,-20.725 -16.86,-37.588 -37.588,-37.588 -20.726,0 -37.587,16.863 -37.587,37.588 v 2.265 h -8.556 l -4.35,10.88 h 12.905 v 8.102 h -8.556 l -4.35,10.875 h 12.905 v 0.428 c 0,20.725 16.861,37.588 37.587,37.588 20.728,0 37.588,-16.863 37.588,-37.588 h -10.875 c 0.002,14.733 -11.978,26.716 -26.711,26.716 z"
       fill="#f5cf64"
       id="path847" /></g></svg>
