<svg width="30" height="29" viewBox="0 0 30 29" fill="none" xmlns="http://www.w3.org/2000/svg">
<path d="M0.668577 0H6.52123C6.89044 0 7.18981 0.290881 7.18981 0.649608V6.33621C7.18981 6.69494 6.89044 6.98582 6.52123 6.98582H0.668577C0.299375 6.98582 0 6.69494 0 6.33621V0.649608C0 0.290881 0.299375 0 0.668577 0ZM23.4762 21.3359H29.3289C29.6981 21.3359 29.9975 21.6268 29.9975 21.9855V27.6721C29.9975 28.0308 29.6981 28.3217 29.3289 28.3217H23.4762C23.107 28.3217 22.8076 28.0308 22.8076 27.6721V21.9855C22.8076 21.6268 23.107 21.3359 23.4762 21.3359ZM28.6603 22.6351H24.1448V27.0225H28.6603V22.6351ZM12.0728 21.3359H17.9255C18.2947 21.3359 18.594 21.6268 18.594 21.9855V27.6721C18.594 28.0308 18.2947 28.3217 17.9255 28.3217H12.0728C11.7036 28.3217 11.4042 28.0308 11.4042 27.6721V21.9855C11.4042 21.6268 11.7036 21.3359 12.0728 21.3359ZM17.2569 22.6351H12.7414V27.0225H17.2569V22.6351ZM0.66938 21.3359H6.52204C6.89124 21.3359 7.19061 21.6268 7.19061 21.9855V27.6721C7.19061 28.0308 6.89124 28.3217 6.52204 28.3217H0.66938C0.300177 28.3217 0.000802636 28.0308 0.000802636 27.6721V21.9855C0.000802636 21.6268 0.300177 21.3359 0.66938 21.3359ZM5.85346 22.6351H1.33796V27.0225H5.85346V22.6351ZM23.477 10.6679H29.3297C29.6989 10.6679 29.9983 10.9588 29.9983 11.3175V17.0042C29.9983 17.3629 29.6989 17.6538 29.3297 17.6538H23.477C23.1078 17.6538 22.8084 17.3629 22.8084 17.0042V11.3175C22.8084 10.9588 23.1078 10.6679 23.477 10.6679ZM28.6611 11.9672H24.1456V16.3545H28.6611V11.9672ZM12.0736 10.6679H17.9263C18.2955 10.6679 18.5948 10.9588 18.5948 11.3175V17.0042C18.5948 17.3629 18.2955 17.6538 17.9263 17.6538H12.0736C11.7044 17.6538 11.405 17.3629 11.405 17.0042V11.3175C11.405 10.9588 11.7044 10.6679 12.0736 10.6679ZM17.2577 11.9672H12.7422V16.3545H17.2577V11.9672ZM0.670182 10.6679H6.52284C6.89204 10.6679 7.19142 10.9588 7.19142 11.3175V17.0042C7.19142 17.3629 6.89204 17.6538 6.52284 17.6538H0.670182C0.30098 17.6538 0.00160527 17.3629 0.00160527 17.0042V11.3175C0.00160527 10.9588 0.30098 10.6679 0.670182 10.6679ZM5.85426 11.9672H1.33876V16.3545H5.85426V11.9672ZM23.4778 0H29.3305C29.6997 0 29.9991 0.290881 29.9991 0.649608V6.33621C29.9991 6.69494 29.6997 6.98582 29.3305 6.98582H23.4778C23.1086 6.98582 22.8092 6.69494 22.8092 6.33621V0.649608C22.8092 0.290881 23.1086 0 23.4778 0ZM28.6619 1.29922H24.1464V5.6866H28.6619V1.29922ZM12.0744 0H17.9271C18.2963 0 18.5956 0.290881 18.5956 0.649608V6.33621C18.5956 6.69494 18.2963 6.98582 17.9271 6.98582H12.0744C11.7052 6.98582 11.4058 6.69494 11.4058 6.33621V0.649608C11.4058 0.290881 11.7052 0 12.0744 0ZM17.2585 1.29922H12.743V5.6866H17.2585V1.29922ZM5.85426 1.29922H1.33876V5.6866H5.85426V1.29922Z" fill="white"/>
</svg>
