<svg width="5" height="23" viewBox="0 0 5 23" fill="none" xmlns="http://www.w3.org/2000/svg">
<g clip-path="url(#clip0_417_3083)">
<path d="M4.66667 11.6683C4.66667 10.429 3.67175 9.42439 2.44445 9.42439C1.21715 9.42439 0.222229 10.429 0.222229 11.6683C0.222229 12.9076 1.21715 13.9122 2.44445 13.9122C3.67175 13.9122 4.66667 12.9076 4.66667 11.6683Z" fill="#112A62"/>
<path d="M4.66667 20.6439C4.66667 19.4046 3.67175 18.4 2.44445 18.4C1.21715 18.4 0.222229 19.4046 0.222229 20.6439C0.222229 21.8832 1.21715 22.8878 2.44445 22.8878C3.67175 22.8878 4.66667 21.8832 4.66667 20.6439Z" fill="#112A62"/>
<path d="M4.66667 2.69268C4.66667 1.45341 3.67175 0.448782 2.44445 0.448782C1.21715 0.448782 0.222229 1.45341 0.222229 2.69268C0.222229 3.93196 1.21715 4.93658 2.44445 4.93658C3.67175 4.93658 4.66667 3.93196 4.66667 2.69268Z" fill="#112A62"/>
</g>
<defs>
<clipPath id="clip0_417_3083">
<rect width="23" height="5" fill="white" transform="translate(0 23) rotate(-90)"/>
</clipPath>
</defs>
</svg>
