<svg width="26" height="23" viewBox="0 0 26 23" fill="none" xmlns="http://www.w3.org/2000/svg">
<path d="M17.5342 12.7287C17.8513 12.7287 18.1367 12.4452 18.1367 12.1301V10.6808H21.022C22.2586 10.6808 23.2732 9.67257 23.2732 8.44381V6.67942C24.7952 6.39586 25.9684 5.07257 25.9684 3.46573C25.9684 1.66984 24.5098 0.22052 22.7025 0.22052C20.8952 0.22052 19.4367 1.66984 19.4367 3.46573C19.4367 5.07257 20.5781 6.39586 22.1001 6.67942V8.44381C22.1001 9.01093 21.6245 9.48353 21.0537 9.48353H18.1684V7.75066C18.1684 7.43559 17.883 7.15203 17.5659 7.15203H8.43421C8.11714 7.15203 7.83177 7.43559 7.83177 7.75066V9.45203H4.9464C3.70982 9.45203 2.69518 10.4602 2.69518 11.689V13.3274C1.17323 13.6109 0.0634766 14.9342 0.0634766 16.5411C0.0634766 18.337 1.52201 19.7863 3.32933 19.7863C5.13665 19.7863 6.59518 18.337 6.59518 16.5411C6.59518 14.9342 5.42201 13.6109 3.86836 13.3274V11.7205C3.86836 11.1534 4.34397 10.6808 4.9147 10.6808H7.80006V12.1616C7.80006 12.4767 8.08543 12.7602 8.4025 12.7602H12.3659V18.2424C12.3659 19.4712 13.3806 20.4794 14.6171 20.4794H15.4415C15.6635 21.8027 16.8367 22.8109 18.2001 22.8109H21.7513C23.3049 22.8109 24.5732 21.5507 24.5732 20.0068C24.5732 18.463 23.3049 17.2027 21.7513 17.2027H18.2635C16.9635 17.2027 15.8537 18.0849 15.5366 19.2822H14.6488C14.0781 19.2822 13.6025 18.8096 13.6025 18.2424V12.7287H17.5342ZM20.6098 3.46573C20.6098 2.33148 21.5293 1.38627 22.7025 1.38627C23.844 1.38627 24.7952 2.29997 24.7952 3.46573C24.7952 4.63148 23.8757 5.54518 22.7025 5.54518C21.5293 5.54518 20.6098 4.59997 20.6098 3.46573ZM5.39031 16.5411C5.39031 17.6753 4.47079 18.6205 3.29762 18.6205C2.15616 18.6205 1.20494 17.7068 1.20494 16.5411C1.20494 15.4068 2.12445 14.4616 3.29762 14.4616C4.47079 14.4616 5.39031 15.4068 5.39031 16.5411ZM18.2635 18.3685H21.8147C22.7025 18.3685 23.4318 19.0931 23.4318 19.9753C23.4318 20.8575 22.7025 21.5822 21.8147 21.5822H18.2635C17.3757 21.5822 16.6464 20.8575 16.6464 19.9753C16.6464 19.0931 17.3757 18.3685 18.2635 18.3685ZM9.03665 8.31778H16.9318V11.5315H9.03665V8.31778Z" fill="white"/>
</svg>
