<svg width="26" height="31" viewBox="0 0 26 31" fill="none" xmlns="http://www.w3.org/2000/svg">
<path d="M12.9086 30.804C14.4665 30.804 15.7574 29.6162 15.98 28.063H9.83719C10.0598 29.6162 11.3506 30.804 12.9086 30.804Z" fill="#C8CEE1"/>
<path d="M14.0216 3.02798V1.70314C14.0216 1.06356 13.5319 0.561035 12.9087 0.561035C12.2856 0.561035 11.7959 1.06356 11.7959 1.70314V3.02798C7.03304 3.62188 3.33847 7.77914 3.33847 12.8044V21.8042C3.33847 22.992 2.84883 23.997 1.64699 23.997C0.89027 23.997 0.26709 24.5452 0.222577 25.2305C0.178064 25.6417 0.311602 26.0071 0.578679 26.2812C0.845756 26.5553 1.20186 26.7381 1.55796 26.7381H24.2595C24.6601 26.7381 24.9717 26.601 25.2388 26.2812C25.5059 26.0071 25.5949 25.596 25.5949 25.2305C25.5504 24.5452 24.8827 23.997 24.1705 23.997C23.0131 23.997 22.479 23.0377 22.479 21.8042V17.2815C18.0722 16.6876 14.6892 12.8501 14.6892 8.1903C14.6892 6.4543 15.1789 4.85535 15.9801 3.48483C15.3569 3.2564 14.6892 3.11935 14.0216 3.02798Z" fill="#E2E6F6"/>
</svg>
