<svg width="25" height="24" viewBox="0 0 25 24" fill="none" xmlns="http://www.w3.org/2000/svg">
<path d="M0.841797 0.845215V24H1.30682H24.0038V0.845215H0.841797ZM1.76453 1.76793H23.072V23.0755H1.76453V1.76793Z" fill="#FBFDFF"/>
<path d="M4.08398 4.55231V5.47503H11.4965V4.55231H4.08398Z" fill="#FBFDFF"/>
<path d="M4.08398 11.9576V12.8875H11.4965V11.9576H4.08398Z" fill="#FBFDFF"/>
<path d="M15.414 9.51546C15.0134 9.40319 14.6436 9.77257 14.7565 10.173L19.9979 15.4145C20.4054 15.5546 20.7956 15.1644 20.6555 14.7569L15.414 9.51546Z" fill="#FBFDFF"/>
<path d="M14.7561 14.7569C14.6356 15.1049 14.915 15.4611 15.2817 15.4268L15.4137 15.4144L20.6551 10.173C20.7954 9.76546 20.4051 9.37515 19.9976 9.51541L14.7561 14.7569Z" fill="#FBFDFF"/>
<path d="M4.08398 19.3701V20.3H11.4965V19.3701H4.08398Z" fill="#FBFDFF"/>
</svg>
