<svg width="25" height="32" viewBox="0 0 25 32" fill="none" xmlns="http://www.w3.org/2000/svg">
<path d="M22.7273 3.65939V5.68212C22.73 5.97947 22.7034 6.27637 22.6477 6.56848C22.4383 7.90415 21.7589 9.12116 20.7318 10.0003C19.7047 10.8795 18.3974 11.3631 17.0455 11.3639H7.95455C6.60256 11.3631 5.29531 10.8795 4.26822 10.0003C3.24112 9.12116 2.56169 7.90415 2.35227 6.56848C2.29663 6.27637 2.26998 5.97947 2.27273 5.68212V3.65939C1.60294 3.9247 1.02824 4.38499 0.623032 4.98064C0.217824 5.5763 0.000778346 6.27989 0 7.0003V28.2276C0.00201754 29.1793 0.380992 30.0915 1.05398 30.7645C1.72697 31.4375 2.63916 31.8165 3.59091 31.8185H21.4091C22.3608 31.8165 23.273 31.4375 23.946 30.7645C24.619 30.0915 24.998 29.1793 25 28.2276V7.0003C24.9992 6.27989 24.7822 5.5763 24.377 4.98064C23.9718 4.38499 23.3971 3.9247 22.7273 3.65939ZM11.0341 24.6708L7.625 28.0798C7.40957 28.2911 7.11989 28.4094 6.81818 28.4094C6.51647 28.4094 6.22679 28.2911 6.01136 28.0798L4.875 26.9435C4.76834 26.8377 4.68362 26.7119 4.6257 26.5732C4.56778 26.4346 4.53781 26.2859 4.5375 26.1357C4.5372 25.9855 4.56656 25.8367 4.62391 25.6978C4.68126 25.5589 4.76547 25.4328 4.8717 25.3265C4.97793 25.2203 5.10409 25.1361 5.24295 25.0788C5.38181 25.0214 5.53062 24.992 5.68085 24.9924C5.83109 24.9927 5.97978 25.0226 6.1184 25.0805C6.25702 25.1385 6.38284 25.2232 6.48864 25.3298L6.81818 25.6708L9.42045 23.0571C9.52625 22.9505 9.65207 22.8657 9.79069 22.8078C9.92931 22.7499 10.078 22.7199 10.2282 22.7196C10.3785 22.7193 10.5273 22.7487 10.6661 22.806C10.805 22.8634 10.9312 22.9476 11.0374 23.0538C11.1436 23.16 11.2278 23.2862 11.2852 23.4251C11.3425 23.5639 11.3719 23.7127 11.3716 23.863C11.3713 24.0132 11.3413 24.1619 11.2834 24.3005C11.2255 24.4391 11.1408 24.565 11.0341 24.6708ZM11.0341 15.5798L7.625 18.9889C7.40957 19.2002 7.11989 19.3185 6.81818 19.3185C6.51647 19.3185 6.22679 19.2002 6.01136 18.9889L4.875 17.8526C4.76834 17.7468 4.68362 17.621 4.6257 17.4823C4.56778 17.3437 4.53781 17.195 4.5375 17.0448C4.5372 16.8946 4.56656 16.7457 4.62391 16.6069C4.68126 16.468 4.76547 16.3419 4.8717 16.2356C4.97793 16.1294 5.10409 16.0452 5.24295 15.9879C5.38181 15.9305 5.53062 15.9011 5.68085 15.9014C5.83109 15.9017 5.97978 15.9317 6.1184 15.9896C6.25702 16.0476 6.38284 16.1323 6.48864 16.2389L6.81818 16.5798L9.42045 13.9662C9.63474 13.7537 9.9245 13.6347 10.2263 13.6353C10.5281 13.6359 10.8174 13.7561 11.0308 13.9695C11.2442 14.1829 11.3644 14.4722 11.365 14.774C11.3656 15.0758 11.2466 15.3656 11.0341 15.5798ZM19.3182 27.273H14.7727C14.4713 27.273 14.1823 27.1533 13.9692 26.9402C13.7561 26.7271 13.6364 26.438 13.6364 26.1367C13.6364 25.8353 13.7561 25.5462 13.9692 25.3331C14.1823 25.12 14.4713 25.0003 14.7727 25.0003H19.3182C19.6196 25.0003 19.9086 25.12 20.1217 25.3331C20.3348 25.5462 20.4545 25.8353 20.4545 26.1367C20.4545 26.438 20.3348 26.7271 20.1217 26.9402C19.9086 27.1533 19.6196 27.273 19.3182 27.273ZM19.3182 18.1821H14.7727C14.4713 18.1821 14.1823 18.0624 13.9692 17.8493C13.7561 17.6362 13.6364 17.3471 13.6364 17.0458C13.6364 16.7444 13.7561 16.4553 13.9692 16.2422C14.1823 16.0291 14.4713 15.9094 14.7727 15.9094H19.3182C19.6196 15.9094 19.9086 16.0291 20.1217 16.2422C20.3348 16.4553 20.4545 16.7444 20.4545 17.0458C20.4545 17.3471 20.3348 17.6362 20.1217 17.8493C19.9086 18.0624 19.6196 18.1821 19.3182 18.1821Z" fill="#E2E6F6"/>
<path d="M17.0451 0H7.9542C6.07141 0 4.5451 1.5263 4.5451 3.40909V5.68182C4.5451 7.56461 6.07141 9.09091 7.9542 9.09091H17.0451C18.9279 9.09091 20.4542 7.56461 20.4542 5.68182V3.40909C20.4542 1.5263 18.9279 0 17.0451 0Z" fill="#E2E6F6"/>
</svg>
