<svg width="25" height="24" viewBox="0 0 25 24" fill="none" xmlns="http://www.w3.org/2000/svg">
<path d="M0.841797 0.845215V24H1.30682H24.0038V0.845215H0.841797ZM1.76453 1.76793H23.072V23.0755H1.76453V1.76793Z" fill="#FBFDFF"/>
<path d="M4.08398 4.55231V5.47503H11.4965V4.55231H4.08398Z" fill="#FBFDFF"/>
<path d="M4.08398 8.25049V9.18047H11.4965V8.25049H4.08398Z" fill="#FBFDFF"/>
<path d="M20.4004 8.42236L16.098 13.5913L13.6772 11.1706C13.2864 10.9478 12.833 11.3411 12.9983 11.7595L13.0222 11.8201L16.1595 14.9591L21.1187 9.0176C21.2668 8.623 20.8795 8.23847 20.486 8.38952L20.4004 8.42236Z" fill="#FBFDFF"/>
<path d="M4.08398 11.9576V12.8875H11.4965V11.9576H4.08398Z" fill="#FBFDFF"/>
<path d="M4.08398 15.663V16.5929H11.4965V15.663H4.08398Z" fill="#FBFDFF"/>
<path d="M4.08398 19.3701V20.3H11.4965V19.3701H4.08398Z" fill="#FBFDFF"/>
</svg>
