<svg width="25" height="25" viewBox="0 0 25 25" fill="none" xmlns="http://www.w3.org/2000/svg">
<path d="M12.5 0.6875C9.36821 0.691012 6.3657 1.93667 4.15118 4.15118C1.93667 6.36569 0.691012 9.36821 0.6875 12.5C1.33624 28.1709 23.6662 28.1664 24.3125 12.4999C24.309 9.36814 23.0633 6.36565 20.8488 4.15115C18.6343 1.93666 15.6318 0.691017 12.5 0.6875ZM12.5 23.1875C9.66649 23.1843 6.94995 22.0572 4.94635 20.0536C2.94275 18.0501 1.81572 15.3335 1.8125 12.5C2.39962 -1.67841 22.6025 -1.67429 23.1875 12.5001C23.1843 15.3336 22.0572 18.0501 20.0536 20.0537C18.05 22.0573 15.3335 23.1843 12.5 23.1875ZM20.9375 13.0625H19.8125C19.8103 12.4842 19.7393 11.9083 19.6009 11.3468L18.5584 11.6854L18.2107 10.6153L19.2577 10.2753C18.8125 9.20379 18.1196 8.25309 17.236 7.50112L16.5921 8.38727L15.6819 7.72589L16.3244 6.84159C15.3378 6.23142 14.2192 5.86685 13.0625 5.7785V6.875H11.9375V5.7785C10.7808 5.86684 9.66219 6.23141 8.67557 6.84159L9.31806 7.72589L8.40785 8.38727L7.76401 7.50112C6.88037 8.25309 6.18754 9.20379 5.74232 10.2753L6.78928 10.6153L6.44156 11.6854L5.39913 11.3468C5.26072 11.9083 5.18968 12.4842 5.1875 13.0625H4.0625C4.52732 1.86626 20.4769 1.8749 20.9375 13.0625ZM15.4773 9.85231L13.223 12.1066C12.9662 11.9858 12.6831 11.9316 12.3998 11.9489C12.1166 11.9663 11.8422 12.0547 11.6021 12.2059C11.362 12.3572 11.1638 12.5665 11.0258 12.8145C10.8878 13.0625 10.8144 13.3412 10.8125 13.625C11.0101 16.3741 15.0341 15.4565 14.0184 12.902L16.2727 10.6477L15.4773 9.85231ZM12.5 14.1875C12.3527 14.1846 12.2124 14.1241 12.1093 14.0189C12.0062 13.9137 11.9484 13.7723 11.9484 13.625C11.9484 13.4777 12.0062 13.3362 12.1093 13.2311C12.2125 13.1259 12.3528 13.0654 12.5 13.0625C12.6473 13.0654 12.7876 13.1259 12.8908 13.2311C12.9939 13.3363 13.0517 13.4777 13.0517 13.625C13.0517 13.7723 12.9939 13.9138 12.8907 14.0189C12.7876 14.1241 12.6473 14.1846 12.5 14.1875Z" />
</svg>
