<svg width="35" height="35" viewBox="0 0 35 35" fill="none" xmlns="http://www.w3.org/2000/svg">
<rect width="35" height="35" rx="10" fill="#E2E6F6"/>
<g clip-path="url(#clip0_417_3029)">
<path d="M17.5584 10.2083C17.2201 10.2083 16.9459 10.4826 16.9459 10.8208V16.9459H10.8209C10.4826 16.9459 10.2084 17.2201 10.2084 17.5584C10.2084 17.8966 10.4826 18.1709 10.8209 18.1709H16.9459V24.2958C16.9459 24.6341 17.2201 24.9083 17.5584 24.9083C17.8967 24.9083 18.1709 24.6341 18.1709 24.2958V18.1709H24.2959C24.6342 18.1709 24.9084 17.8966 24.9084 17.5584C24.9084 17.2201 24.6342 16.9459 24.2959 16.9459H18.1709V10.8208C18.1709 10.4826 17.8967 10.2083 17.5584 10.2083Z" fill="#2F478D"/>
</g>
<defs>
<clipPath id="clip0_417_3029">
<rect width="15.3125" height="15.3125" fill="white" transform="translate(10.2083 10.2083)"/>
</clipPath>
</defs>
</svg>
