<svg width="25" height="25" viewBox="0 0 25 25" fill="none" xmlns="http://www.w3.org/2000/svg">
<path d="M17.5 7.25005H15.25C14.6748 7.25005 14.0996 7.34967 13.5498 7.52545C14.1748 8.00005 14.7002 8.57525 15.0996 9.25005H15.25H17.5C19.2998 9.25005 20.75 10.7003 20.75 12.5001C20.75 14.2999 19.2998 15.7501 17.5 15.7501H15.25C15.0996 15.7501 14.9248 15.7247 14.7754 15.7003H14.75C13.2002 15.4503 12 14.125 12 12.5C12 11.5 11.3496 10.6504 10.4502 10.375C10.1504 11.0254 10 11.75 10 12.5C10 15.4005 12.3496 17.75 15.25 17.75H17.5C20.4005 17.75 22.75 15.4004 22.75 12.5C22.75 9.5996 20.4004 7.25 17.5 7.25V7.25005Z" fill="#112A62"/>
<path d="M9.9248 15.7502H7.5C5.7002 15.7502 4.25 14.3 4.25 12.5002C4.25 10.7004 5.7002 9.25024 7.5 9.25024H9.75C11.5498 9.25024 13 10.7004 13 12.5002C13 13.5002 13.6504 14.3498 14.5498 14.6252C14.8496 13.9748 15 13.2502 15 12.5002C15 9.59974 12.6504 7.25024 9.75 7.25024H7.5C4.5995 7.25024 2.25 9.59984 2.25 12.5002C2.25 15.4006 4.5996 17.7502 7.5 17.7502H9.75C10.3252 17.7502 10.9004 17.6506 11.4502 17.4504C10.8496 17.0002 10.3252 16.4006 9.9248 15.7502Z" fill="#112A62"/>
</svg>
