<svg width="28" height="41" viewBox="0 0 28 41" fill="none" xmlns="http://www.w3.org/2000/svg">
<path d="M14 0.27832C6.38878 0.27832 0.180664 6.66191 0.180664 15.6123C0.180664 27.0454 7.74538 36.1264 13.2082 39.9785C13.6832 40.3143 14.3166 40.3143 14.7916 39.9785C20.2544 36.1287 27.8191 27.0459 27.8191 15.6142C27.8191 6.66377 21.611 0.280179 13.9998 0.280179L14 0.27832ZM14 3.06632C20.116 3.06632 25.0555 7.9179 25.0555 15.6123C25.0555 25.2323 18.7018 33.3765 14 37.0595C9.29821 33.3766 2.94453 25.2323 2.94453 15.6123C2.94453 7.9179 7.88403 3.06632 14 3.06632ZM14 6.78365C9.69225 6.78365 6.16905 10.3376 6.16905 14.683C6.16905 19.0284 9.69225 22.5823 14 22.5823C18.3078 22.5823 21.831 19.0284 21.831 14.683C21.831 10.3376 18.3078 6.78365 14 6.78365ZM14 9.57165C16.8143 9.57165 19.0671 11.8442 19.0671 14.683C19.0671 17.5218 16.8143 19.7943 14 19.7943C11.1858 19.7943 8.93292 17.5218 8.93292 14.683C8.93292 11.8442 11.1858 9.57165 14 9.57165Z"/>
</svg>
