<svg width="100" height="100" viewBox="0 0 100 100" fill="none" xmlns="http://www.w3.org/2000/svg">
<path d="M84.27 81.3196C92.0903 72.7493 96.399 61.6636 96.399 50.0386C96.399 24.4336 75.567 3.60059 49.961 3.60059C24.356 3.60059 3.52002 24.4326 3.52002 50.0386C3.52002 62.7066 8.52782 74.5466 17.625 83.3706C17.6367 83.3823 17.6524 83.3862 17.6602 83.394C17.7891 83.5112 17.9297 83.605 18.086 83.6675C18.1133 83.6792 18.1406 83.7886 18.168 83.7964C18.3281 83.8589 18.4961 83.9995 18.6641 83.9995C18.8086 83.9995 18.9531 83.8706 19.0938 83.8276C19.1211 83.8198 19.1445 83.7651 19.1719 83.7534C19.3086 83.7026 19.4375 83.6089 19.5586 83.519C19.5664 83.5112 19.5781 83.4995 19.586 83.4917C24.8985 79.3315 25.6172 74.2339 25.6172 69.8077C25.6172 69.796 25.6132 69.7803 25.6132 69.7725C25.6132 69.7139 25.6054 69.6592 25.5976 69.6045C25.5898 69.5616 25.5859 69.5147 25.5781 69.4717C25.5664 69.4249 25.5507 69.378 25.5351 69.3311C25.5195 69.2842 25.5078 69.2374 25.4882 69.1944C25.4687 69.1514 25.4414 69.1085 25.4218 69.0694C25.3984 69.0264 25.375 68.9835 25.3515 68.9444C25.3242 68.9053 25.289 68.8663 25.2539 68.8272C25.2265 68.7921 25.1953 68.7569 25.164 68.7256C25.1289 68.6905 25.0898 68.6631 25.0507 68.6319C25.0117 68.6006 24.9765 68.5694 24.9375 68.546C24.9023 68.5225 24.8593 68.503 24.8203 68.4835C24.7695 68.4561 24.7226 68.4288 24.6679 68.4092C24.6562 68.4053 24.6484 68.3975 24.6367 68.3936C21.2656 67.1514 19 63.8467 19 60.1592V38.0382C19 36.7999 19.8515 35.9991 21.1719 35.9991H22V47.9991C22 48.8272 22.6719 49.4991 23.5 49.4991C24.3281 49.4991 25 48.8272 25 47.9991V33.3231C25 32.1004 26.1289 31.0653 27.4648 31.0653C27.6484 31.0653 27.8476 31.1005 28.0468 31.1513C28.0312 31.3192 28 31.4833 28 31.6552V47.9992C28 48.8273 28.6718 49.4992 29.5 49.4992C30.3281 49.4992 31 48.8273 31 47.9992V31.6552C31 30.5068 31.707 29.3427 33.0625 29.3427C33.5468 29.3427 34.125 29.4638 34.7305 30.3622C34.9141 30.6356 35 31.0458 35 31.6591V33.9989C35 34.1278 35.0195 34.2528 35.0547 34.3739C34.3984 35.2684 34 36.3895 34 37.6551V47.9991C34 48.8272 34.6719 49.4991 35.5 49.4991C36.3281 49.4991 37 48.8272 37 47.9991V37.6551C37 36.5067 37.707 35.3426 39.0625 35.3426C39.5469 35.3426 40.125 35.4636 40.7305 36.3621C40.9141 36.6355 41 37.0456 41 37.659V44.6551C39.2266 45.5261 38 47.327 38 49.409V54.9988C38 55.8269 38.6719 56.4988 39.5 56.4988C40.3281 56.4988 41 55.8269 41 54.9988V49.409C41 48.1551 42.1016 47.0965 43.4023 47.0965C44.7031 47.0965 45.8046 48.1551 45.8046 49.409L45.7929 61.319C45.7929 64.3229 43.7734 66.5026 42.0781 67.7995C41.6211 68.151 40.7422 68.3307 39.8906 68.5065L39.7734 68.5299C39.6445 68.5573 39.5273 68.6042 39.414 68.6588C38.625 68.7096 37.9999 69.3542 37.9999 70.1549V71.1276C37.9999 71.7682 38.1796 72.3581 38.1757 73.0924C38.1405 78.6432 37.6249 85.1234 32.7734 91.0924C32.4687 91.4674 32.3632 91.9635 32.4882 92.4283C32.6132 92.8931 32.9531 93.2681 33.4023 93.44C38.6796 95.4556 44.2543 96.4791 49.9613 96.4791C56.7738 96.4791 63.3403 95.0377 69.4733 92.1939C69.8678 92.0103 70.1647 91.6627 70.2858 91.2408C70.403 90.8189 70.3366 90.3697 70.0944 90.0064C66.3092 84.2798 65.5319 78.0574 65.5319 70.4794C65.5319 69.6513 64.8561 68.9794 64.028 68.9794C63.9421 68.9794 63.8639 68.9911 63.7819 69.0028C63.7194 68.995 63.6569 68.9833 63.5944 68.9833C58.86 68.9833 55.0085 65.0888 55.0085 60.2958V56.4755C55.0007 53.7138 56.7546 51.9989 59.5749 51.9989H71.5009C72.329 51.9989 73.0009 51.327 73.0009 50.4989V37.8969C73.0009 36.7836 73.6259 35.5844 75.0009 35.5844C76.3759 35.5844 77.0009 36.7836 77.0009 37.8969V44.8813C75.247 45.8071 74.0009 47.5922 74.0009 49.5454V54.9985C74.0009 55.8266 74.6728 56.4985 75.5009 56.4985C76.329 56.4985 77.0009 55.8266 77.0009 54.9985V49.5493C77.0009 48.354 78.2782 47.2212 79.6337 47.2212C80.9853 47.2212 82.2626 48.3384 82.2626 49.5181L82.2353 61.4051C82.2353 65.5379 78.8095 68.8973 74.6025 68.8973C70.4189 68.8973 66.8837 65.3895 66.8837 61.2371C66.8837 60.409 66.2118 59.7371 65.3837 59.7371C64.5555 59.7371 63.8837 60.409 63.8837 61.2371C63.8837 67.0144 68.7899 71.8971 74.6027 71.8971C75.7941 71.8971 76.9347 71.694 78.005 71.3346C78.0362 74.5729 78.3761 78.0651 81.4972 81.2604C81.5753 81.4401 81.6925 81.6041 81.8448 81.7448C82.0909 81.9752 82.3995 82.0807 82.7081 82.112C82.7628 82.1198 82.8058 82.1432 82.8643 82.1432C82.8761 82.1432 82.8878 82.1393 82.8956 82.1393C82.9151 82.1393 82.9347 82.1354 82.9542 82.1315C83.337 82.1081 83.755 81.9557 84.0284 81.6588C84.13 81.5612 84.2042 81.444 84.2706 81.319L84.27 81.3196ZM55 50.3586V38.1746C55 36.8934 56.3945 35.9988 57.6445 35.9988H58V48.9988C58 49.0457 58.0117 49.0886 58.0156 49.1355C56.875 49.3347 55.8594 49.7566 55 50.3582L55 50.3586ZM61 48.9992V33.4602C61 32.2024 62.0977 31.1438 63.3906 31.1438C63.6094 31.1438 63.832 31.1789 64.0508 31.2336C64.0312 31.4211 64 31.6008 64 31.7961V48.9991L61 48.9992ZM70 48.9992H67V31.7962C67 30.6829 67.625 29.4837 69 29.4837C70.375 29.4837 71 30.6829 71 31.7962V34.6634C70.375 35.5501 70 36.6517 70 37.8978V48.9992ZM81 69.8042V69.7651C83.5664 67.8471 85.2344 64.8198 85.2344 61.4096L85.2618 49.5226C85.2618 46.7648 82.8868 44.4249 80.0001 44.2414V37.8976C80.0001 34.8664 77.8517 32.5851 75.0001 32.5851C74.6563 32.5851 74.3204 32.6203 74.0001 32.6867V31.8C74.0001 28.7688 71.8517 26.4875 69.0001 26.4875C67.3829 26.4875 66.0118 27.2375 65.1056 28.4289C64.5509 28.2492 63.9689 28.1476 63.3908 28.1476C60.5783 28.1476 58.2853 30.2921 58.047 33.0109C58.0313 33.0031 58.0157 32.9992 58.0001 32.9992H57.6446C54.586 32.9992 52.0001 35.3703 52.0001 38.175V60.296C52.0001 66.3819 56.6329 71.386 62.5271 71.929C62.6131 77.9954 63.2966 84.304 66.6365 90.156C61.3513 92.363 55.7185 93.4802 49.9135 93.4802C45.2494 93.4802 40.6401 92.7497 36.2685 91.3083C40.5966 85.0427 41.1396 78.3593 41.1747 73.1133C41.1786 72.4531 41.0419 71.9063 41.0107 71.3399C41.9989 71.1251 43.0498 70.8438 43.9052 70.1876C47.0575 67.7696 48.7958 64.6212 48.7958 61.3282L48.8075 49.4182C48.8075 46.6877 46.702 44.4338 44.0028 44.137L43.9989 37.6604C43.9989 36.8831 43.9168 35.7268 43.2176 34.6838C42.1707 33.1291 40.7723 32.344 39.0614 32.344C38.6942 32.344 38.3388 32.3831 37.9989 32.4534V31.6604C37.9989 30.8831 37.9169 29.7268 37.2177 28.6838C36.1708 27.1291 34.7724 26.344 33.0615 26.344C31.4053 26.344 29.9951 27.1135 29.0849 28.3323C28.5497 28.1643 27.999 28.0667 27.4638 28.0667C24.5654 28.0667 22.1904 30.2542 22.0146 33.0042C22.0107 33.0003 22.0068 33.0003 21.9989 33.0003H21.1708C18.1747 33.0003 15.9989 35.1175 15.9989 38.0394V60.1604C15.9989 64.7268 18.6161 68.8596 22.6044 70.7774C22.5029 74.0313 21.8075 77.3516 18.7489 80.2383C10.8583 72.0938 6.51893 61.4293 6.51893 50.0393C6.51893 26.0863 26.0069 6.60128 49.9599 6.60128C73.9129 6.60128 93.3979 26.0893 93.3979 50.0393C93.3979 60.4803 89.6831 70.4613 82.9099 78.3403C80.8943 75.7426 80.9997 72.9614 80.9997 69.8051L81 69.8042Z" fill="#214FBD"/>
<path d="M58.895 19.2457L53.6645 24.0074C53.0512 24.566 53.0083 25.5152 53.563 26.1246C53.8598 26.4488 54.2661 26.6129 54.6724 26.6129C55.0317 26.6129 55.395 26.484 55.6841 26.2223L60.9146 21.4606C61.5278 20.902 61.5708 19.9528 61.0161 19.3434C60.4536 18.7301 59.5044 18.6871 58.895 19.2457V19.2457Z" fill="#214FBD"/>
<path d="M49.613 14H49.6052C48.781 14 48.1091 14.7187 48.1052 15.5469L48.074 22.6719C48.074 23.4961 48.7419 24 49.5701 24H49.5779C50.4021 24 51.074 23.4375 51.0779 22.6133L51.1091 15.6485C51.113 14.8165 50.4412 14.0001 49.613 14.0001L49.613 14Z" fill="#214FBD"/>
<path d="M40.293 19.1632C39.6836 18.6007 38.7344 18.6359 38.1719 19.2452C37.6094 19.8507 37.6445 20.8038 38.2539 21.3663L43.4414 26.1749C43.7305 26.4445 44.0937 26.5734 44.4609 26.5734C44.8632 26.5734 45.2656 26.4132 45.5625 26.0929C46.125 25.4874 46.0898 24.5343 45.4805 23.9718L40.293 19.1632Z" fill="#214FBD"/>
</svg>
