<svg width="33" height="39" viewBox="0 0 33 39" fill="none" xmlns="http://www.w3.org/2000/svg">
<path d="M30.559 2.25314C29.3664 1.05382 27.7455 0.383626 26.0556 0.3887H9.48897C7.80088 0.3887 6.17999 1.06058 4.9873 2.25314C3.79306 3.44738 3.12286 5.06663 3.12286 6.75481V9.31129H0.578125V11.856H3.12286V18.2222H0.578125V20.7669H3.12286V27.1447H0.578125V29.6894H3.12286V32.2342V32.2325C3.12286 33.9222 3.79306 35.5431 4.98562 36.7389C6.17986 37.9348 7.79911 38.6084 9.48901 38.6117H26.0556C27.7437 38.6084 29.3612 37.9365 30.5539 36.7439C31.7464 35.5497 32.4183 33.9321 32.4217 32.2457V6.75485C32.4284 5.06508 31.7565 3.44419 30.5589 2.25318L30.559 2.25314ZM28.755 34.9447C28.0411 35.6637 27.0686 36.0685 26.0558 36.0668H9.48914C7.37776 36.0668 5.66619 34.3552 5.66619 32.2455V29.689H8.21092V27.1443H5.66619V20.7781H8.21092V18.2217H5.66619V11.8555H8.21092V9.31077H5.66619V6.75429C5.66619 4.64463 7.3778 2.93301 9.48914 2.93301H26.0558C27.0686 2.93301 28.0411 3.33614 28.7584 4.0517C29.4756 4.76894 29.8771 5.74147 29.8771 6.75433V9.31081H17.1332V11.8556H29.8771V32.2453C29.8788 33.2582 29.474 34.2307 28.755 34.9445L28.755 34.9447Z"/>
</svg>
