<svg width="24" height="23" viewBox="0 0 24 23" fill="none" xmlns="http://www.w3.org/2000/svg">
<path d="M9.23422 0.189957C4.59637 0.189957 0.824219 3.96211 0.824219 8.59996C0.824219 13.2378 4.59637 17.01 9.23422 17.01C11.3459 17.01 13.2754 16.2238 14.7533 14.9346L22.4564 22.6378C22.6707 22.8584 23.0648 22.8655 23.2811 22.6468C23.4974 22.4281 23.495 22.025 23.272 21.8131L15.578 14.119C16.8648 12.6418 17.6442 10.7096 17.6442 8.59996C17.6442 3.96211 13.8721 0.189957 9.23422 0.189957ZM9.23422 1.34996C13.2452 1.34996 16.4842 4.58902 16.4842 8.59996C16.4842 12.6109 13.2452 15.85 9.23422 15.85C5.22328 15.85 1.98422 12.6109 1.98422 8.59996C1.98422 4.58902 5.22328 1.34996 9.23422 1.34996Z" fill="#214FBD"/>
</svg>
