<svg width="101" height="101" viewBox="0 0 101 101" fill="none" xmlns="http://www.w3.org/2000/svg">
<path d="M6.20983 52.9461H6.43077L8.21796 53.2104L11.7925 53.7036C15.722 54.2086 19.6791 54.5716 23.66 54.8635H23.6639C23.8414 55.3054 24.1018 55.7117 24.4332 56.055L44.6332 76.255C44.9765 76.5864 45.3868 76.8428 45.8326 77.0125C46.1167 81.0525 46.4875 85.0136 47.0044 88.9709L47.4897 92.5454L47.7619 94.3247V94.4943C46.8427 93.8986 55.692 99.7771 51.9518 97.2837H52.2043L52.7093 97.1732L53.7193 96.9601H53.7232C56.4455 96.3565 59.0573 95.3346 61.4679 93.9301C68.6129 89.5942 73.2172 82.0667 73.8202 73.7301C73.9386 71.1815 73.7768 68.6288 73.3349 66.1156C73.3349 65.8434 72.6366 65.6422 71.8199 65.5988C77.4697 61.5864 82.4128 56.6666 86.4569 51.0366C90.9782 44.6334 94.2529 37.441 96.1111 29.8266C97.0303 26.0509 97.5866 22.1924 97.7681 18.3106C97.8588 16.2906 97.8588 14.5428 97.7681 12.4242C97.6773 10.3016 97.484 8.00942 97.2433 5.91842C97.0697 4.69541 96.4267 4.32453 95.7796 5.01099H95.7757C95.0576 5.85923 94.5527 6.87323 94.312 7.95817V8.22251C94.0674 9.77306 93.9017 11.3314 93.8188 12.8977C93.7478 14.5626 93.6255 16.4524 93.4046 18.2002C92.9745 21.751 92.2249 25.2544 91.1716 28.6749C89.049 35.4767 85.7231 41.8403 81.3556 47.47C77 53.0211 71.6778 57.7437 65.6491 61.409C62.6388 63.2318 59.4786 64.7941 56.204 66.0842L48.124 69.3352L31.459 52.5995L34.7218 44.5195C36 41.2291 37.5624 38.0571 39.3891 35.0389C43.0898 28.9986 47.8518 23.6805 53.4503 19.3405C59.1 14.977 65.4915 11.6629 72.3171 9.55611C75.7416 8.50268 79.2569 7.76892 82.8191 7.35462C84.5669 7.14157 86.504 7.0311 88.1097 6.96009C89.7154 6.88907 91.1397 6.67603 92.8363 6.44325H92.8402C93.9251 6.2381 94.9391 5.75676 95.7874 5.05056C96.466 4.41536 96.0793 3.77625 94.8484 3.62626H94.517C92.4378 3.39349 90.2363 3.212 88.0546 3.1331C85.8728 3.05419 84.1764 3.07392 82.2274 3.1331H82.2235C78.361 3.31852 74.5262 3.86692 70.7701 4.77829C56.3695 8.30541 43.7293 16.9144 35.1676 29.0183C35.1676 28.1898 34.9269 27.5348 34.6507 27.4718H34.5718C32.0586 27.0378 29.5021 26.8839 26.9573 27.0062C18.6485 27.6454 11.164 32.2574 6.85631 39.3908C5.45968 41.766 4.43787 44.3422 3.82631 47.025L3.61326 48.035L3.51069 48.5282V48.7176C4.66663 50.6113 0.634509 44.5828 6.2093 52.9469L6.20983 52.9461ZM59.0449 72.7906C62.6826 71.2716 66.182 69.4331 69.4964 67.2948L69.6187 67.2159C69.4372 69.157 69.0979 71.0822 68.6087 72.972C67.9932 74.9999 67.1372 76.9529 66.064 78.7795C63.3378 83.6046 59.0098 87.329 53.8339 89.3058L53.4078 87.7001C52.3978 83.9718 51.238 80.2671 50.003 76.5901L59.0449 72.7906ZM13.3031 43.236C15.4769 39.7167 18.4832 36.7815 22.0577 34.6944C23.9002 33.637 25.8571 32.8006 27.8967 32.2089C29.7708 31.7118 31.6803 31.3764 33.6136 31.1989C33.5702 31.2659 33.5228 31.337 33.4715 31.4001C31.345 34.7023 29.5143 38.1861 28.0072 41.8122L24.2394 50.7917C20.5308 49.5489 16.7946 48.3969 13.0385 47.3672L11.5117 46.9648C12.0049 45.6747 12.6045 44.4279 13.3028 43.2364L13.3031 43.236Z" fill="#214FBD"/>
<path d="M63.6295 42.1471C60.6705 42.518 57.9127 40.5966 57.2381 37.6928C57.1671 37.4995 56.3781 37.3377 55.4312 37.3298C54.4803 37.318 53.715 37.5626 53.6755 37.894V37.9848H53.6715C53.5216 40.6794 54.4803 43.3188 56.3267 45.2876C58.2915 47.3943 61.0295 48.6135 63.9135 48.6608C66.9317 48.7318 69.8473 47.5679 71.9935 45.4375C74.1793 43.2912 75.4023 40.348 75.3865 37.2825C75.3707 34.217 74.1201 31.2856 71.9107 29.1591C69.7566 27.0563 66.8371 25.9279 63.8307 26.0265C60.9625 26.1093 58.2481 27.3521 56.307 29.4708C54.4921 31.4513 53.5651 34.0907 53.7425 36.7736C53.7425 37.0971 54.5198 37.3377 55.4587 37.3299C56.3977 37.318 57.1749 37.1563 57.2144 36.9669V36.9156C57.9167 34.0276 60.6823 32.1299 63.6295 32.5126C66.0243 32.8598 67.7997 34.9114 67.7997 37.3298C67.7997 39.7482 66.0243 41.7999 63.6295 42.147L63.6295 42.1471Z" fill="#214FBD"/>
<path d="M51.3486 53.4902C51.3486 58.8755 43.2686 58.8755 43.2686 53.4902C43.2686 48.1009 51.3486 48.1009 51.3486 53.4902Z" fill="#214FBD"/>
<path d="M6.90777 97.6384C9.65375 97.6384 12.4036 97.5989 15.1614 97.5161C16.6054 97.5161 17.7259 97.5161 19.4539 97.3227C21.0873 97.1965 22.7008 96.8572 24.2514 96.3127C30.3548 94.2257 35.0059 89.2191 36.6441 82.9818C36.723 82.5991 36.0878 82.0743 35.1883 81.7784C34.2887 81.4865 33.4603 81.4668 33.2985 81.7784V81.8613C31.0615 86.0749 27.0846 89.0931 22.4208 90.111C21.3319 90.3477 20.2232 90.4621 19.1107 90.4463L15.1496 90.2648C13.6346 90.2648 12.1196 90.2648 10.6164 90.2057C10.6164 88.6788 10.6164 87.1757 10.5454 85.6488L10.4152 81.6995H10.4112C10.3994 80.583 10.5177 79.4665 10.7545 78.3775C11.7842 73.6866 14.83 69.6939 19.0791 67.4574C19.3513 67.3272 19.3434 66.5066 19.0791 65.611C18.8147 64.7115 18.2624 64.096 17.8955 64.1987H17.7929L17.7968 64.1947C13.9462 65.256 10.5178 67.4693 7.96903 70.5428C5.41646 73.6123 3.86984 77.3878 3.53452 81.3649C3.3925 83.0732 3.40432 84.2016 3.3412 85.6456C3.26229 88.3836 3.211 91.1296 3.211 93.8676V93.8715C3.19916 95.9271 4.85225 97.6077 6.9078 97.6394L6.90777 97.6384Z" fill="#214FBD"/>
</svg>
