<svg width="27" height="27" viewBox="0 0 27 27" fill="none" xmlns="http://www.w3.org/2000/svg">
<path d="M21.8307 26.9999H5.16912C2.31887 26.9999 0 24.6811 0 21.8309V5.16912C0 2.31887 2.31887 0 5.16912 0H21.8306C24.681 0 26.9999 2.31887 26.9999 5.16912V21.8309C26.9999 24.6811 24.681 26.9999 21.8307 26.9999ZM5.16912 1.03846C2.89148 1.03846 1.03846 2.89148 1.03846 5.16912V21.8309C1.03846 24.1086 2.89148 25.9614 5.16912 25.9614H21.8306C24.1084 25.9614 25.9614 24.1086 25.9614 21.8309V5.16912C25.9614 2.89148 24.1084 1.03846 21.8307 1.03846H5.16912Z" fill="white"/>
<path d="M9.13783 11.0533C9.13783 10.3767 8.70334 9.80106 8.09937 9.58651V7.00958H7.06092V9.58651C6.45695 9.80106 6.02246 10.3767 6.02246 11.0533C6.02246 11.73 6.45695 12.3056 7.06092 12.5201V19.9903H8.09937V12.52C8.70344 12.3056 9.13783 11.73 9.13783 11.0533Z" fill="white"/>
<path d="M12.0463 7.0094H11.0078V8.3595H12.0463V7.0094Z" fill="white"/>
<path d="M13.0846 15.8864C13.0846 15.2097 12.6502 14.6342 12.0464 14.4197V10.4365H11.0079V14.4195C10.4038 14.6339 9.96924 15.2096 9.96924 15.8864C9.96924 16.5631 10.4038 17.1389 11.0079 17.3533V19.9902H12.0464V17.353C12.6502 17.1386 13.0846 16.563 13.0846 15.8864Z" fill="white"/>
<path d="M17.0311 9.39813C17.0311 8.72148 16.5966 8.14586 15.9927 7.93132V7.00958H14.9542V7.93132C14.3503 8.14586 13.9158 8.72148 13.9158 9.39813C13.9158 10.0748 14.3503 10.6504 14.9542 10.865V19.9903H15.9927V10.865C16.5966 10.6505 17.0311 10.0749 17.0311 9.39813Z" fill="white"/>
<path d="M19.4196 14.5384C19.9931 14.5384 20.458 14.0735 20.458 13.4999C20.458 12.9264 19.9931 12.4615 19.4196 12.4615C18.846 12.4615 18.3811 12.9264 18.3811 13.4999C18.3811 14.0735 18.846 14.5384 19.4196 14.5384Z" fill="white"/>
<path d="M20.9774 13.4999C20.9774 12.8234 20.5431 12.2479 19.9394 12.0332V7.00958H18.9009V12.033C18.2968 12.2474 17.8621 12.8232 17.8621 13.4999C17.8621 14.1767 18.2968 14.7525 18.9009 14.9669V19.9903H19.9394V14.9665C20.5431 14.752 20.9774 14.1765 20.9774 13.4999ZM18.9005 13.4999C18.9005 13.4986 18.9009 13.4973 18.9009 13.4959V13.5039C18.9009 13.5026 18.9005 13.5014 18.9005 13.4999Z" fill="white"/>
</svg>
