<svg width="20" height="20" viewBox="0 0 20 20" fill="none" xmlns="http://www.w3.org/2000/svg">
<path d="M10 4.75C8.55296 4.75 7.375 5.92796 7.375 7.375V8.25C6.89155 8.25 6.5 8.64155 6.5 9.125V13.5C6.5 13.9834 6.89155 14.375 7.375 14.375H12.625C13.1084 14.375 13.5 13.9834 13.5 13.5V9.125C13.5 8.64155 13.1084 8.25 12.625 8.25V7.375C12.625 5.92796 11.447 4.75 10 4.75ZM11.75 12.625H8.25V10H11.75V12.625ZM9.125 8.25V7.375C9.125 6.89264 9.51764 6.5 10 6.5C10.4824 6.5 10.875 6.89264 10.875 7.375V8.25H9.125Z" fill="#112A62"/>
<path d="M16.7549 3.14324C13.4431 -0.120437 8.34511 -0.489197 4.62839 2.0123L4.61745 0.577295C4.61526 0.336669 4.41839 0.141979 4.17667 0.143071L3.30167 0.149633C3.05996 0.151821 2.86527 0.348697 2.86745 0.590409L2.89151 3.86501C2.89479 4.21938 3.11026 4.53656 3.43729 4.67001C3.76542 4.80345 4.14056 4.72579 4.38993 4.47314C7.43941 1.3811 12.4343 1.34386 15.5264 4.39001C17.8867 6.71533 18.5308 10.2132 17.19 13.2111C17.0948 13.4244 17.1725 13.6738 17.3814 13.7799L18.1623 14.1791C18.3833 14.2917 18.6633 14.201 18.7661 13.9746C20.434 10.2996 19.6531 5.99904 16.7546 3.14304L16.7549 3.14324Z" fill="#112A62"/>
<path d="M16.5625 15.3296C16.2333 15.1962 15.8593 15.2739 15.6099 15.5265C12.5615 18.6197 7.56633 18.6569 4.47345 15.6096C2.11314 13.2843 1.46905 9.78647 2.80986 6.78851C2.90502 6.57523 2.82736 6.32587 2.61846 6.21978L1.83751 5.82055C1.61657 5.7079 1.33656 5.79868 1.23377 6.02509C-0.43528 9.70121 0.346732 14.0017 3.24518 16.8566C6.55702 20.1203 11.655 20.489 15.3717 17.9876L15.3826 19.4215C15.3848 19.6632 15.5817 19.8579 15.8234 19.8557L16.6984 19.8491C16.9401 19.8469 17.1348 19.6501 17.1326 19.4083L17.1086 16.1337C17.1053 15.7805 16.8898 15.4633 16.5628 15.3298L16.5625 15.3296Z" fill="#112A62"/>
</svg>
